<?xml version="1.0" encoding="UTF-8" standalone="no"?>
<!DOCTYPE svg PUBLIC "-//W3C//DTD SVG 1.1//EN"
 "http://www.w3.org/Graphics/SVG/1.1/DTD/svg11.dtd">
<!-- Generated by graphviz version 2.38.0 (20140413.2041)
 -->
<!-- Title: Control&#45;flow graph for function &#39;___nrv_alloc_D2A(*a1, *a2, a3)&#39;. Pages: 1 -->
<svg width="1070pt" height="1376pt"
 viewBox="0.00 0.00 1070.00 1376.00" xmlns="http://www.w3.org/2000/svg" xmlns:xlink="http://www.w3.org/1999/xlink">
<g id="graph0" class="graph" transform="scale(1 1) rotate(0) translate(4 1372)">
<title>Control&#45;flow graph for function &#39;___nrv_alloc_D2A(*a1, *a2, a3)&#39;.</title>
<polygon fill="white" stroke="none" points="-4,4 -4,-1372 1066,-1372 1066,4 -4,4"/>
<text text-anchor="middle" x="531" y="-7.8" font-family="Times,serif" font-size="14.00">Control&#45;flow graph for function &#39;___nrv_alloc_D2A(*a1, *a2, a3)&#39;.</text>
<!-- Node0x3124580 -->
<g id="node1" class="node"><title>Node0x3124580</title>
<polygon fill="none" stroke="black" points="409.5,-1299.5 409.5,-1367.5 468.5,-1367.5 468.5,-1299.5 409.5,-1299.5"/>
<text text-anchor="start" x="417.5" y="-1352.3" font-family="Times,serif" font-size="14.00">entry:</text>
<text text-anchor="start" x="417.5" y="-1337.3" font-family="Times,serif" font-size="14.00"> a1</text>
<text text-anchor="start" x="417.5" y="-1322.3" font-family="Times,serif" font-size="14.00"> a2</text>
<text text-anchor="start" x="417.5" y="-1307.3" font-family="Times,serif" font-size="14.00"> a3</text>
</g>
<!-- Node0x2ea66a0 -->
<g id="node2" class="node"><title>Node0x2ea66a0</title>
<polygon fill="none" stroke="black" points="253.5,-1118.5 253.5,-1261.5 624.5,-1261.5 624.5,-1118.5 253.5,-1118.5"/>
<text text-anchor="start" x="261.5" y="-1246.3" font-family="Times,serif" font-size="14.00">v1 = g7</text>
<text text-anchor="start" x="261.5" y="-1231.3" font-family="Times,serif" font-size="14.00"> v2 = g3</text>
<text text-anchor="start" x="261.5" y="-1216.3" font-family="Times,serif" font-size="14.00"> g7 = PtrToIntCastExpr&lt;int32&gt;(a1)</text>
<text text-anchor="start" x="261.5" y="-1201.3" font-family="Times,serif" font-size="14.00"> result = ___rv_alloc_D2A(a3)</text>
<text text-anchor="start" x="261.5" y="-1186.3" font-family="Times,serif" font-size="14.00"> v3 = *(IntToPtrCastExpr&lt;ptr&gt;(g7))</text>
<text text-anchor="start" x="261.5" y="-1171.3" font-family="Times,serif" font-size="14.00"> v4 = result</text>
<text text-anchor="start" x="261.5" y="-1156.3" font-family="Times,serif" font-size="14.00"> *(IntToPtrCastExpr&lt;ptr&gt;(result)) = v3</text>
<text text-anchor="start" x="261.5" y="-1141.3" font-family="Times,serif" font-size="14.00"> v5 = (ExtCastExpr&lt;int32&gt;(v3) | (result &amp; &#45;256))</text>
<text text-anchor="start" x="261.5" y="-1126.3" font-family="Times,serif" font-size="14.00"> v6</text>
</g>
<!-- Node0x3124580&#45;&gt;Node0x2ea66a0 -->
<g id="edge1" class="edge"><title>Node0x3124580&#45;&gt;Node0x2ea66a0</title>
<path fill="none" stroke="black" d="M439,-1299.32C439,-1290.9 439,-1281.47 439,-1271.78"/>
<polygon fill="black" stroke="black" points="442.5,-1271.63 439,-1261.63 435.5,-1271.63 442.5,-1271.63"/>
</g>
<!-- Node0x2ddaee0 -->
<g id="node3" class="node"><title>Node0x2ddaee0</title>
<polygon fill="none" stroke="black" points="386.5,-1044.5 386.5,-1080.5 491.5,-1080.5 491.5,-1044.5 386.5,-1044.5"/>
<text text-anchor="start" x="394.5" y="-1058.8" font-family="Times,serif" font-size="14.00">if (v5 == 0):</text>
</g>
<!-- Node0x2ea66a0&#45;&gt;Node0x2ddaee0 -->
<g id="edge2" class="edge"><title>Node0x2ea66a0&#45;&gt;Node0x2ddaee0</title>
<path fill="none" stroke="black" d="M439,-1118.18C439,-1108.44 439,-1098.96 439,-1090.71"/>
<polygon fill="black" stroke="black" points="442.5,-1090.64 439,-1080.64 435.5,-1090.64 442.5,-1090.64"/>
</g>
<!-- Node0x34e70b0 -->
<g id="node4" class="node"><title>Node0x34e70b0</title>
<polygon fill="none" stroke="black" points="253,-924.5 253,-962.5 345,-962.5 345,-924.5 253,-924.5"/>
<text text-anchor="start" x="261" y="-947.3" font-family="Times,serif" font-size="14.00">0x4061db:</text>
<text text-anchor="start" x="261" y="-932.3" font-family="Times,serif" font-size="14.00"> v6 = g5</text>
</g>
<!-- Node0x2ddaee0&#45;&gt;Node0x34e70b0 -->
<g id="edge3" class="edge"><title>Node0x2ddaee0&#45;&gt;Node0x34e70b0</title>
<path fill="none" stroke="black" d="M417.123,-1044.31C399.827,-1030.61 375.155,-1010.84 354,-993 345.058,-985.46 335.45,-977.086 326.806,-969.447"/>
<polygon fill="black" stroke="black" points="328.988,-966.703 319.186,-962.683 324.341,-971.939 328.988,-966.703"/>
<text text-anchor="middle" x="424" y="-1014.8" font-family="Times,serif" font-size="14.00">v5 == 0</text>
</g>
<!-- Node0x3424aa0 -->
<g id="node5" class="node"><title>Node0x3424aa0</title>
<polygon fill="none" stroke="black" points="363.5,-894.5 363.5,-992.5 718.5,-992.5 718.5,-894.5 363.5,-894.5"/>
<text text-anchor="start" x="371.5" y="-977.3" font-family="Times,serif" font-size="14.00">v7 = (v4 + 1)</text>
<text text-anchor="start" x="371.5" y="-962.3" font-family="Times,serif" font-size="14.00"> v4 = v7</text>
<text text-anchor="start" x="371.5" y="-947.3" font-family="Times,serif" font-size="14.00"> v8 = (g7 + 1)</text>
<text text-anchor="start" x="371.5" y="-932.3" font-family="Times,serif" font-size="14.00"> v9 = *(IntToPtrCastExpr&lt;ptr&gt;(v8))</text>
<text text-anchor="start" x="371.5" y="-917.3" font-family="Times,serif" font-size="14.00"> v10 = (ExtCastExpr&lt;int32&gt;(v9) | (v5 &amp; &#45;256))</text>
<text text-anchor="start" x="371.5" y="-902.3" font-family="Times,serif" font-size="14.00"> *(IntToPtrCastExpr&lt;ptr&gt;(v7)) = v9</text>
</g>
<!-- Node0x2ddaee0&#45;&gt;Node0x3424aa0 -->
<g id="edge4" class="edge"><title>Node0x2ddaee0&#45;&gt;Node0x3424aa0</title>
<path fill="none" stroke="black" d="M453.832,-1044.49C464.041,-1032.78 478.233,-1016.5 492.204,-1000.47"/>
<polygon fill="black" stroke="black" points="495.094,-1002.48 499.027,-992.646 489.817,-997.883 495.094,-1002.48"/>
<text text-anchor="middle" x="508" y="-1014.8" font-family="Times,serif" font-size="14.00">v5 != 0</text>
</g>
<!-- Node0x300ca80 -->
<g id="node6" class="node"><title>Node0x300ca80</title>
<polygon fill="none" stroke="black" points="249.5,-820.5 249.5,-856.5 348.5,-856.5 348.5,-820.5 249.5,-820.5"/>
<text text-anchor="start" x="257.5" y="-834.8" font-family="Times,serif" font-size="14.00">if (v6 != 0):</text>
</g>
<!-- Node0x34e70b0&#45;&gt;Node0x300ca80 -->
<g id="edge5" class="edge"><title>Node0x34e70b0&#45;&gt;Node0x300ca80</title>
<path fill="none" stroke="black" d="M299,-924.086C299,-908.198 299,-885.025 299,-866.949"/>
<polygon fill="black" stroke="black" points="302.5,-866.727 299,-856.727 295.5,-866.727 302.5,-866.727"/>
</g>
<!-- Node0x30f8080 -->
<g id="node7" class="node"><title>Node0x30f8080</title>
<polygon fill="none" stroke="black" points="484,-820.5 484,-856.5 598,-856.5 598,-820.5 484,-820.5"/>
<text text-anchor="start" x="492" y="-834.8" font-family="Times,serif" font-size="14.00">if (v10 == 0):</text>
</g>
<!-- Node0x3424aa0&#45;&gt;Node0x30f8080 -->
<g id="edge6" class="edge"><title>Node0x3424aa0&#45;&gt;Node0x30f8080</title>
<path fill="none" stroke="black" d="M541,-894.317C541,-884.893 541,-875.32 541,-866.868"/>
<polygon fill="black" stroke="black" points="544.5,-866.856 541,-856.856 537.5,-866.856 544.5,-866.856"/>
</g>
<!-- Node0x2f29e60 -->
<g id="node8" class="node"><title>Node0x2f29e60</title>
<polygon fill="none" stroke="black" points="0,-700.5 0,-738.5 278,-738.5 278,-700.5 0,-700.5"/>
<text text-anchor="start" x="8" y="-723.3" font-family="Times,serif" font-size="14.00">0x4061df:</text>
<text text-anchor="start" x="8" y="-708.3" font-family="Times,serif" font-size="14.00"> *(IntToPtrCastExpr&lt;ptr&gt;(v6)) = v4</text>
</g>
<!-- Node0x300ca80&#45;&gt;Node0x2f29e60 -->
<g id="edge7" class="edge"><title>Node0x300ca80&#45;&gt;Node0x2f29e60</title>
<path fill="none" stroke="black" d="M272.906,-820.477C264.265,-814.72 254.65,-808.182 246,-802 220.004,-783.42 191.228,-761.417 170.071,-744.959"/>
<polygon fill="black" stroke="black" points="172.11,-742.111 162.073,-738.72 167.805,-747.63 172.11,-742.111"/>
<text text-anchor="middle" x="273" y="-790.8" font-family="Times,serif" font-size="14.00">v6 != 0</text>
</g>
<!-- Node0x2d5a860 -->
<g id="node9" class="node"><title>Node0x2d5a860</title>
<polygon fill="none" stroke="black" points="101.5,-564.5 101.5,-632.5 214.5,-632.5 214.5,-564.5 101.5,-564.5"/>
<text text-anchor="start" x="109.5" y="-617.3" font-family="Times,serif" font-size="14.00">0x4061e1:</text>
<text text-anchor="start" x="109.5" y="-602.3" font-family="Times,serif" font-size="14.00"> g3 = v2</text>
<text text-anchor="start" x="109.5" y="-587.3" font-family="Times,serif" font-size="14.00"> g7 = v1</text>
<text text-anchor="start" x="109.5" y="-572.3" font-family="Times,serif" font-size="14.00"> return result</text>
</g>
<!-- Node0x300ca80&#45;&gt;Node0x2d5a860 -->
<g id="edge8" class="edge"><title>Node0x300ca80&#45;&gt;Node0x2d5a860</title>
<path fill="none" stroke="black" d="M302.97,-820.046C309.337,-787.465 318.173,-716.493 287,-670 272.068,-647.73 247.668,-631.866 224.084,-620.9"/>
<polygon fill="black" stroke="black" points="225.322,-617.62 214.76,-616.788 222.497,-624.025 225.322,-617.62"/>
<text text-anchor="middle" x="340" y="-715.8" font-family="Times,serif" font-size="14.00">v6 == 0</text>
</g>
<!-- Node0x3150580 -->
<g id="node10" class="node"><title>Node0x3150580</title>
<polygon fill="none" stroke="black" points="460,-700.5 460,-738.5 552,-738.5 552,-700.5 460,-700.5"/>
<text text-anchor="start" x="468" y="-723.3" font-family="Times,serif" font-size="14.00">0x4061db:</text>
<text text-anchor="start" x="468" y="-708.3" font-family="Times,serif" font-size="14.00"> v6 = g5</text>
</g>
<!-- Node0x30f8080&#45;&gt;Node0x3150580 -->
<g id="edge9" class="edge"><title>Node0x30f8080&#45;&gt;Node0x3150580</title>
<path fill="none" stroke="black" d="M535.911,-820.487C530.255,-801.581 521.036,-770.763 514.326,-748.332"/>
<polygon fill="black" stroke="black" points="517.66,-747.266 511.441,-738.689 510.954,-749.273 517.66,-747.266"/>
<text text-anchor="middle" x="563.5" y="-790.8" font-family="Times,serif" font-size="14.00">v10 == 0</text>
</g>
<!-- Node0x3093fb0 -->
<g id="node11" class="node"><title>Node0x3093fb0</title>
<polygon fill="none" stroke="black" points="577.5,-670.5 577.5,-768.5 950.5,-768.5 950.5,-670.5 577.5,-670.5"/>
<text text-anchor="start" x="585.5" y="-753.3" font-family="Times,serif" font-size="14.00">v11 = (v4 + 1)</text>
<text text-anchor="start" x="585.5" y="-738.3" font-family="Times,serif" font-size="14.00"> v4 = v11</text>
<text text-anchor="start" x="585.5" y="-723.3" font-family="Times,serif" font-size="14.00"> v12 = (v8 + 1)</text>
<text text-anchor="start" x="585.5" y="-708.3" font-family="Times,serif" font-size="14.00"> v13 = *(IntToPtrCastExpr&lt;ptr&gt;(v12))</text>
<text text-anchor="start" x="585.5" y="-693.3" font-family="Times,serif" font-size="14.00"> v14 = (ExtCastExpr&lt;int32&gt;(v13) | (v10 &amp; &#45;256))</text>
<text text-anchor="start" x="585.5" y="-678.3" font-family="Times,serif" font-size="14.00"> *(IntToPtrCastExpr&lt;ptr&gt;(v11)) = v13</text>
</g>
<!-- Node0x30f8080&#45;&gt;Node0x3093fb0 -->
<g id="edge10" class="edge"><title>Node0x30f8080&#45;&gt;Node0x3093fb0</title>
<path fill="none" stroke="black" d="M573.426,-820.487C597.166,-808.032 630.758,-790.407 663.142,-773.416"/>
<polygon fill="black" stroke="black" points="665.006,-776.391 672.235,-768.646 661.754,-770.192 665.006,-776.391"/>
<text text-anchor="middle" x="663.5" y="-790.8" font-family="Times,serif" font-size="14.00">v10 != 0</text>
</g>
<!-- Node0x2f29e60&#45;&gt;Node0x2d5a860 -->
<g id="edge11" class="edge"><title>Node0x2f29e60&#45;&gt;Node0x2d5a860</title>
<path fill="none" stroke="black" d="M141.886,-700.426C144.326,-685.145 147.921,-662.626 151.097,-642.734"/>
<polygon fill="black" stroke="black" points="154.591,-643.05 152.711,-632.623 147.678,-641.946 154.591,-643.05"/>
</g>
<!-- Node0x3110c30 -->
<g id="node12" class="node"><title>Node0x3110c30</title>
<polygon fill="none" stroke="black" points="429,-23.5 429,-59.5 483,-59.5 483,-23.5 429,-23.5"/>
<text text-anchor="start" x="437" y="-37.8" font-family="Times,serif" font-size="14.00">exit:</text>
</g>
<!-- Node0x2d5a860&#45;&gt;Node0x3110c30 -->
<g id="edge12" class="edge"><title>Node0x2d5a860&#45;&gt;Node0x3110c30</title>
<path fill="none" stroke="black" d="M158,-564.286C158,-535.816 158,-493.711 158,-457 158,-457 158,-457 158,-130.5 158,-76.7436 338.617,-53.3518 418.622,-45.6271"/>
<polygon fill="black" stroke="black" points="419.133,-49.0947 428.764,-44.6801 418.482,-42.125 419.133,-49.0947"/>
</g>
<!-- Node0x34449a0 -->
<g id="node13" class="node"><title>Node0x34449a0</title>
<polygon fill="none" stroke="black" points="450.5,-580.5 450.5,-616.5 549.5,-616.5 549.5,-580.5 450.5,-580.5"/>
<text text-anchor="start" x="458.5" y="-594.8" font-family="Times,serif" font-size="14.00">if (v6 != 0):</text>
</g>
<!-- Node0x3150580&#45;&gt;Node0x34449a0 -->
<g id="edge13" class="edge"><title>Node0x3150580&#45;&gt;Node0x34449a0</title>
<path fill="none" stroke="black" d="M505.089,-700.426C504.103,-680.87 502.519,-649.46 501.38,-626.872"/>
<polygon fill="black" stroke="black" points="504.861,-626.394 500.861,-616.583 497.869,-626.747 504.861,-626.394"/>
</g>
<!-- Node0x2c67260 -->
<g id="node14" class="node"><title>Node0x2c67260</title>
<polygon fill="none" stroke="black" points="700.5,-580.5 700.5,-616.5 837.5,-616.5 837.5,-580.5 700.5,-580.5"/>
<text text-anchor="start" x="708.5" y="-594.8" font-family="Times,serif" font-size="14.00">while (v14 != 0):</text>
</g>
<!-- Node0x3093fb0&#45;&gt;Node0x2c67260 -->
<g id="edge14" class="edge"><title>Node0x3093fb0&#45;&gt;Node0x2c67260</title>
<path fill="none" stroke="black" d="M766.019,-670.441C766.646,-655.524 767.315,-639.61 767.86,-626.643"/>
<polygon fill="black" stroke="black" points="771.361,-626.668 768.284,-616.53 764.368,-626.374 771.361,-626.668"/>
</g>
<!-- Node0x2ceaee0 -->
<g id="node15" class="node"><title>Node0x2ceaee0</title>
<polygon fill="none" stroke="black" points="186,-437 186,-475 464,-475 464,-437 186,-437"/>
<text text-anchor="start" x="194" y="-459.8" font-family="Times,serif" font-size="14.00">0x4061df:</text>
<text text-anchor="start" x="194" y="-444.8" font-family="Times,serif" font-size="14.00"> *(IntToPtrCastExpr&lt;ptr&gt;(v6)) = v4</text>
</g>
<!-- Node0x34449a0&#45;&gt;Node0x2ceaee0 -->
<g id="edge15" class="edge"><title>Node0x34449a0&#45;&gt;Node0x2ceaee0</title>
<path fill="none" stroke="black" d="M476.822,-580.356C463.581,-570.46 446.73,-557.694 432,-546 405.152,-524.685 375.198,-499.661 353.828,-481.585"/>
<polygon fill="black" stroke="black" points="355.973,-478.815 346.082,-475.019 351.447,-484.155 355.973,-478.815"/>
<text text-anchor="middle" x="459" y="-534.8" font-family="Times,serif" font-size="14.00">v6 != 0</text>
</g>
<!-- Node0x3477780 -->
<g id="node16" class="node"><title>Node0x3477780</title>
<polygon fill="none" stroke="black" points="399.5,-293.5 399.5,-361.5 512.5,-361.5 512.5,-293.5 399.5,-293.5"/>
<text text-anchor="start" x="407.5" y="-346.3" font-family="Times,serif" font-size="14.00">0x4061e1:</text>
<text text-anchor="start" x="407.5" y="-331.3" font-family="Times,serif" font-size="14.00"> g3 = v2</text>
<text text-anchor="start" x="407.5" y="-316.3" font-family="Times,serif" font-size="14.00"> g7 = v1</text>
<text text-anchor="start" x="407.5" y="-301.3" font-family="Times,serif" font-size="14.00"> return result</text>
</g>
<!-- Node0x34449a0&#45;&gt;Node0x3477780 -->
<g id="edge16" class="edge"><title>Node0x34449a0&#45;&gt;Node0x3477780</title>
<path fill="none" stroke="black" d="M498.267,-580.413C494.64,-545.936 485.535,-465.651 473,-399 471.326,-390.1 469.251,-380.635 467.132,-371.626"/>
<polygon fill="black" stroke="black" points="470.486,-370.604 464.74,-361.703 463.68,-372.244 470.486,-370.604"/>
<text text-anchor="middle" x="520" y="-452.3" font-family="Times,serif" font-size="14.00">v6 == 0</text>
</g>
<!-- Node0x2e71b40 -->
<g id="node17" class="node"><title>Node0x2e71b40</title>
<polygon fill="none" stroke="black" points="578.5,-399.5 578.5,-512.5 951.5,-512.5 951.5,-399.5 578.5,-399.5"/>
<text text-anchor="start" x="586.5" y="-497.3" font-family="Times,serif" font-size="14.00">0x4061d0:</text>
<text text-anchor="start" x="586.5" y="-482.3" font-family="Times,serif" font-size="14.00"> v11 = (v4 + 1)</text>
<text text-anchor="start" x="586.5" y="-467.3" font-family="Times,serif" font-size="14.00"> v4 = v11</text>
<text text-anchor="start" x="586.5" y="-452.3" font-family="Times,serif" font-size="14.00"> v12 = (v12 + 1)</text>
<text text-anchor="start" x="586.5" y="-437.3" font-family="Times,serif" font-size="14.00"> v13 = *(IntToPtrCastExpr&lt;ptr&gt;(v12))</text>
<text text-anchor="start" x="586.5" y="-422.3" font-family="Times,serif" font-size="14.00"> v14 = (ExtCastExpr&lt;int32&gt;(v13) | (v14 &amp; &#45;256))</text>
<text text-anchor="start" x="586.5" y="-407.3" font-family="Times,serif" font-size="14.00"> *(IntToPtrCastExpr&lt;ptr&gt;(v11)) = v13</text>
</g>
<!-- Node0x2c67260&#45;&gt;Node0x2e71b40 -->
<g id="edge17" class="edge"><title>Node0x2c67260&#45;&gt;Node0x2e71b40</title>
<path fill="none" stroke="black" d="M728.54,-580.43C714.34,-572.235 699.957,-560.894 692,-546 687.649,-537.855 687.247,-529.75 689.51,-521.937"/>
<polygon fill="black" stroke="black" points="692.803,-523.139 693.507,-512.567 686.364,-520.392 692.803,-523.139"/>
<text text-anchor="middle" x="723.5" y="-534.8" font-family="Times,serif" font-size="14.00">v14 != 0</text>
</g>
<!-- Node0x2c69640 -->
<g id="node18" class="node"><title>Node0x2c69640</title>
<polygon fill="none" stroke="black" points="970,-437 970,-475 1062,-475 1062,-437 970,-437"/>
<text text-anchor="start" x="978" y="-459.8" font-family="Times,serif" font-size="14.00">0x4061db:</text>
<text text-anchor="start" x="978" y="-444.8" font-family="Times,serif" font-size="14.00"> v6 = g5</text>
</g>
<!-- Node0x2c67260&#45;&gt;Node0x2c69640 -->
<g id="edge18" class="edge"><title>Node0x2c67260&#45;&gt;Node0x2c69640</title>
<path fill="none" stroke="black" d="M821.899,-580.396C862.11,-565.976 917.701,-542.91 961,-513 973.241,-504.545 985.043,-493.117 994.556,-482.789"/>
<polygon fill="black" stroke="black" points="997.305,-484.965 1001.35,-475.174 992.083,-480.304 997.305,-484.965"/>
<text text-anchor="middle" x="965.5" y="-534.8" font-family="Times,serif" font-size="14.00">v14 == 0</text>
</g>
<!-- Node0x2ceaee0&#45;&gt;Node0x3477780 -->
<g id="edge19" class="edge"><title>Node0x2ceaee0&#45;&gt;Node0x3477780</title>
<path fill="none" stroke="black" d="M343.769,-436.876C362.17,-419.107 390.838,-391.424 414.593,-368.484"/>
<polygon fill="black" stroke="black" points="417.029,-370.998 421.791,-361.534 412.166,-365.962 417.029,-370.998"/>
</g>
<!-- Node0x3477780&#45;&gt;Node0x3110c30 -->
<g id="edge20" class="edge"><title>Node0x3477780&#45;&gt;Node0x3110c30</title>
<path fill="none" stroke="black" d="M456,-293.366C456,-236.675 456,-122.13 456,-69.7524"/>
<polygon fill="black" stroke="black" points="459.5,-69.5623 456,-59.5623 452.5,-69.5624 459.5,-69.5623"/>
</g>
<!-- Node0x2e71b40&#45;&gt;Node0x2c67260 -->
<g id="edge21" class="edge"><title>Node0x2e71b40&#45;&gt;Node0x2c67260</title>
<path fill="none" stroke="black" d="M766.584,-512.655C767.144,-532.298 767.748,-553.533 768.213,-569.845"/>
<polygon fill="black" stroke="black" points="764.726,-570.376 768.51,-580.272 771.723,-570.176 764.726,-570.376"/>
</g>
<!-- Node0x2fee660 -->
<g id="node19" class="node"><title>Node0x2fee660</title>
<polygon fill="none" stroke="black" points="770.5,-309.5 770.5,-345.5 869.5,-345.5 869.5,-309.5 770.5,-309.5"/>
<text text-anchor="start" x="778.5" y="-323.8" font-family="Times,serif" font-size="14.00">if (v6 != 0):</text>
</g>
<!-- Node0x2c69640&#45;&gt;Node0x2fee660 -->
<g id="edge22" class="edge"><title>Node0x2c69640&#45;&gt;Node0x2fee660</title>
<path fill="none" stroke="black" d="M1000.95,-436.809C990.572,-425.027 975.986,-409.904 961,-399 933.78,-379.194 900.168,-362.146 872.589,-349.777"/>
<polygon fill="black" stroke="black" points="873.668,-346.428 863.106,-345.601 870.847,-352.834 873.668,-346.428"/>
</g>
<!-- Node0x31117e0 -->
<g id="node20" class="node"><title>Node0x31117e0</title>
<polygon fill="none" stroke="black" points="506,-203.5 506,-241.5 784,-241.5 784,-203.5 506,-203.5"/>
<text text-anchor="start" x="514" y="-226.3" font-family="Times,serif" font-size="14.00">0x4061df:</text>
<text text-anchor="start" x="514" y="-211.3" font-family="Times,serif" font-size="14.00"> *(IntToPtrCastExpr&lt;ptr&gt;(v6)) = v4</text>
</g>
<!-- Node0x2fee660&#45;&gt;Node0x31117e0 -->
<g id="edge23" class="edge"><title>Node0x2fee660&#45;&gt;Node0x31117e0</title>
<path fill="none" stroke="black" d="M791.102,-309.492C761.997,-292.361 716.88,-265.807 684.484,-246.739"/>
<polygon fill="black" stroke="black" points="686.101,-243.63 675.708,-241.574 682.551,-249.663 686.101,-243.63"/>
<text text-anchor="middle" x="759" y="-263.8" font-family="Times,serif" font-size="14.00">v6 != 0</text>
</g>
<!-- Node0x2e29ea0 -->
<g id="node21" class="node"><title>Node0x2e29ea0</title>
<polygon fill="none" stroke="black" points="588.5,-97.5 588.5,-165.5 701.5,-165.5 701.5,-97.5 588.5,-97.5"/>
<text text-anchor="start" x="596.5" y="-150.3" font-family="Times,serif" font-size="14.00">0x4061e1:</text>
<text text-anchor="start" x="596.5" y="-135.3" font-family="Times,serif" font-size="14.00"> g3 = v2</text>
<text text-anchor="start" x="596.5" y="-120.3" font-family="Times,serif" font-size="14.00"> g7 = v1</text>
<text text-anchor="start" x="596.5" y="-105.3" font-family="Times,serif" font-size="14.00"> return result</text>
</g>
<!-- Node0x2fee660&#45;&gt;Node0x2e29ea0 -->
<g id="edge24" class="edge"><title>Node0x2fee660&#45;&gt;Node0x2e29ea0</title>
<path fill="none" stroke="black" d="M820.76,-309.352C821,-283.511 817.828,-234.291 793,-203 772.577,-177.261 740.474,-160.399 711.38,-149.642"/>
<polygon fill="black" stroke="black" points="712.245,-146.236 701.65,-146.224 709.925,-152.841 712.245,-146.236"/>
<text text-anchor="middle" x="842" y="-218.8" font-family="Times,serif" font-size="14.00">v6 == 0</text>
</g>
<!-- Node0x31117e0&#45;&gt;Node0x2e29ea0 -->
<g id="edge25" class="edge"><title>Node0x31117e0&#45;&gt;Node0x2e29ea0</title>
<path fill="none" stroke="black" d="M645,-203.49C645,-195.422 645,-185.529 645,-175.718"/>
<polygon fill="black" stroke="black" points="648.5,-175.605 645,-165.605 641.5,-175.605 648.5,-175.605"/>
</g>
<!-- Node0x2e29ea0&#45;&gt;Node0x3110c30 -->
<g id="edge26" class="edge"><title>Node0x2e29ea0&#45;&gt;Node0x3110c30</title>
<path fill="none" stroke="black" d="M588.294,-104.097C557.169,-89.6052 519.495,-72.064 492.324,-59.413"/>
<polygon fill="black" stroke="black" points="493.723,-56.2032 483.18,-55.1551 490.768,-62.549 493.723,-56.2032"/>
</g>
</g>
</svg>
