<?xml version="1.0" encoding="UTF-8" standalone="no"?>
<!DOCTYPE svg PUBLIC "-//W3C//DTD SVG 1.1//EN"
 "http://www.w3.org/Graphics/SVG/1.1/DTD/svg11.dtd">
<!-- Generated by graphviz version 2.38.0 (20140413.2041)
 -->
<!-- Title: Control&#45;flow graph for function &#39;___freedtoa(a1)&#39;. Pages: 1 -->
<svg width="430pt" height="293pt"
 viewBox="0.00 0.00 430.00 293.00" xmlns="http://www.w3.org/2000/svg" xmlns:xlink="http://www.w3.org/1999/xlink">
<g id="graph0" class="graph" transform="scale(1 1) rotate(0) translate(4 289)">
<title>Control&#45;flow graph for function &#39;___freedtoa(a1)&#39;.</title>
<polygon fill="white" stroke="none" points="-4,4 -4,-289 426,-289 426,4 -4,4"/>
<text text-anchor="middle" x="211" y="-7.8" font-family="Times,serif" font-size="14.00">Control&#45;flow graph for function &#39;___freedtoa(a1)&#39;.</text>
<!-- Node0x3123890 -->
<g id="node1" class="node"><title>Node0x3123890</title>
<polygon fill="none" stroke="black" points="181.5,-246.5 181.5,-284.5 240.5,-284.5 240.5,-246.5 181.5,-246.5"/>
<text text-anchor="start" x="189.5" y="-269.3" font-family="Times,serif" font-size="14.00">entry:</text>
<text text-anchor="start" x="189.5" y="-254.3" font-family="Times,serif" font-size="14.00"> a1</text>
</g>
<!-- Node0x2ecc4c0 -->
<g id="node2" class="node"><title>Node0x2ecc4c0</title>
<polygon fill="none" stroke="black" points="0,-96.5 0,-209.5 422,-209.5 422,-96.5 0,-96.5"/>
<text text-anchor="start" x="8" y="-194.3" font-family="Times,serif" font-size="14.00">v1 = (a1 &#45; 4)</text>
<text text-anchor="start" x="8" y="-179.3" font-family="Times,serif" font-size="14.00"> v2 = *(IntToPtrCastExpr&lt;ptr&gt;(v1))</text>
<text text-anchor="start" x="8" y="-164.3" font-family="Times,serif" font-size="14.00"> *(IntToPtrCastExpr&lt;ptr&gt;(a1)) = v2</text>
<text text-anchor="start" x="8" y="-149.3" font-family="Times,serif" font-size="14.00"> *(IntToPtrCastExpr&lt;ptr&gt;((v1 + 8))) = (1 &lt;&lt; (v2 % 32))</text>
<text text-anchor="start" x="8" y="-134.3" font-family="Times,serif" font-size="14.00"> result = ___Bfree_D2A(NULL)</text>
<text text-anchor="start" x="8" y="-119.3" font-family="Times,serif" font-size="14.00"> g1 = result</text>
<text text-anchor="start" x="8" y="-104.3" font-family="Times,serif" font-size="14.00"> return result</text>
</g>
<!-- Node0x3123890&#45;&gt;Node0x2ecc4c0 -->
<g id="edge1" class="edge"><title>Node0x3123890&#45;&gt;Node0x2ecc4c0</title>
<path fill="none" stroke="black" d="M211,-246.253C211,-238.701 211,-229.442 211,-219.734"/>
<polygon fill="black" stroke="black" points="214.5,-219.508 211,-209.508 207.5,-219.508 214.5,-219.508"/>
</g>
<!-- Node0x2ee0890 -->
<g id="node3" class="node"><title>Node0x2ee0890</title>
<polygon fill="none" stroke="black" points="184,-23.5 184,-59.5 238,-59.5 238,-23.5 184,-23.5"/>
<text text-anchor="start" x="192" y="-37.8" font-family="Times,serif" font-size="14.00">exit:</text>
</g>
<!-- Node0x2ecc4c0&#45;&gt;Node0x2ee0890 -->
<g id="edge2" class="edge"><title>Node0x2ecc4c0&#45;&gt;Node0x2ee0890</title>
<path fill="none" stroke="black" d="M211,-96.2876C211,-87.1343 211,-78.0169 211,-69.9591"/>
<polygon fill="black" stroke="black" points="214.5,-69.7241 211,-59.7242 207.5,-69.7242 214.5,-69.7241"/>
</g>
</g>
</svg>
