<?xml version="1.0" encoding="UTF-8" standalone="no"?>
<!DOCTYPE svg PUBLIC "-//W3C//DTD SVG 1.1//EN"
 "http://www.w3.org/Graphics/SVG/1.1/DTD/svg11.dtd">
<!-- Generated by graphviz version 2.38.0 (20140413.2041)
 -->
<!-- Title: Control&#45;flow graph for function &#39;___Balloc_D2A(a1)&#39;. Pages: 1 -->
<svg width="1007pt" height="1185pt"
 viewBox="0.00 0.00 1007.00 1185.00" xmlns="http://www.w3.org/2000/svg" xmlns:xlink="http://www.w3.org/1999/xlink">
<g id="graph0" class="graph" transform="scale(1 1) rotate(0) translate(4 1181)">
<title>Control&#45;flow graph for function &#39;___Balloc_D2A(a1)&#39;.</title>
<polygon fill="white" stroke="none" points="-4,4 -4,-1181 1003,-1181 1003,4 -4,4"/>
<text text-anchor="middle" x="499.5" y="-7.8" font-family="Times,serif" font-size="14.00">Control&#45;flow graph for function &#39;___Balloc_D2A(a1)&#39;.</text>
<!-- Node0x3499880 -->
<g id="node1" class="node"><title>Node0x3499880</title>
<polygon fill="none" stroke="black" points="680.5,-1138.5 680.5,-1176.5 739.5,-1176.5 739.5,-1138.5 680.5,-1138.5"/>
<text text-anchor="start" x="688.5" y="-1161.3" font-family="Times,serif" font-size="14.00">entry:</text>
<text text-anchor="start" x="688.5" y="-1146.3" font-family="Times,serif" font-size="14.00"> a1</text>
</g>
<!-- Node0x3499be0 -->
<g id="node2" class="node"><title>Node0x3499be0</title>
<polygon fill="none" stroke="black" points="421,-1002.5 421,-1100.5 999,-1100.5 999,-1002.5 421,-1002.5"/>
<text text-anchor="start" x="429" y="-1085.3" font-family="Times,serif" font-size="14.00">v1 = g3</text>
<text text-anchor="start" x="429" y="-1070.3" font-family="Times,serif" font-size="14.00"> g1 = 0</text>
<text text-anchor="start" x="429" y="-1055.3" font-family="Times,serif" font-size="14.00"> _dtoa_lock(v1)</text>
<text text-anchor="start" x="429" y="-1040.3" font-family="Times,serif" font-size="14.00"> v2 = IntToPtrCastExpr&lt;ptr&gt;(((4 * g7) + PtrToIntCastExpr&lt;int32&gt;(&amp;(g34))))</text>
<text text-anchor="start" x="429" y="-1025.3" font-family="Times,serif" font-size="14.00"> v3 = *(v2)</text>
<text text-anchor="start" x="429" y="-1010.3" font-family="Times,serif" font-size="14.00"> result = v3</text>
</g>
<!-- Node0x3499880&#45;&gt;Node0x3499be0 -->
<g id="edge1" class="edge"><title>Node0x3499880&#45;&gt;Node0x3499be0</title>
<path fill="none" stroke="black" d="M710,-1138.38C710,-1130.53 710,-1120.84 710,-1110.84"/>
<polygon fill="black" stroke="black" points="713.5,-1110.79 710,-1100.79 706.5,-1110.79 713.5,-1110.79"/>
</g>
<!-- Node0x3499d60 -->
<g id="node3" class="node"><title>Node0x3499d60</title>
<polygon fill="none" stroke="black" points="657.5,-926.5 657.5,-964.5 762.5,-964.5 762.5,-926.5 657.5,-926.5"/>
<text text-anchor="start" x="665.5" y="-949.3" font-family="Times,serif" font-size="14.00">if (v3 == 0):</text>
<text text-anchor="start" x="665.5" y="-934.3" font-family="Times,serif" font-size="14.00"> else:</text>
</g>
<!-- Node0x3499be0&#45;&gt;Node0x3499d60 -->
<g id="edge2" class="edge"><title>Node0x3499be0&#45;&gt;Node0x3499d60</title>
<path fill="none" stroke="black" d="M710,-1002.46C710,-992.952 710,-983.27 710,-974.69"/>
<polygon fill="black" stroke="black" points="713.5,-974.509 710,-964.509 706.5,-974.509 713.5,-974.509"/>
</g>
<!-- Node0x31242f0 -->
<g id="node4" class="node"><title>Node0x31242f0</title>
<polygon fill="none" stroke="black" points="587,-821.5 587,-874.5 711,-874.5 711,-821.5 587,-821.5"/>
<text text-anchor="start" x="595" y="-859.3" font-family="Times,serif" font-size="14.00">v4 = (g7 % 32)</text>
<text text-anchor="start" x="595" y="-844.3" font-family="Times,serif" font-size="14.00"> v5 = 1</text>
<text text-anchor="start" x="595" y="-829.3" font-family="Times,serif" font-size="14.00"> v6 = 3</text>
</g>
<!-- Node0x3499d60&#45;&gt;Node0x31242f0 -->
<g id="edge3" class="edge"><title>Node0x3499d60&#45;&gt;Node0x31242f0</title>
<path fill="none" stroke="black" d="M690.765,-926.158C685.579,-920.627 680.237,-914.334 676,-908 671.048,-900.597 666.58,-892.14 662.768,-883.985"/>
<polygon fill="black" stroke="black" points="665.87,-882.345 658.606,-874.632 659.474,-885.191 665.87,-882.345"/>
<text text-anchor="middle" x="706" y="-896.8" font-family="Times,serif" font-size="14.00">v3 == 0</text>
</g>
<!-- Node0x349adc0 -->
<g id="node5" class="node"><title>Node0x349adc0</title>
<polygon fill="none" stroke="black" points="629,-764.5 629,-802.5 925,-802.5 925,-764.5 629,-764.5"/>
<text text-anchor="start" x="637" y="-787.3" font-family="Times,serif" font-size="14.00">0x406419:</text>
<text text-anchor="start" x="637" y="-772.3" font-family="Times,serif" font-size="14.00"> *(v2) = *(IntToPtrCastExpr&lt;ptr&gt;(v3))</text>
</g>
<!-- Node0x3499d60&#45;&gt;Node0x349adc0 -->
<g id="edge4" class="edge"><title>Node0x3499d60&#45;&gt;Node0x349adc0</title>
<path fill="none" stroke="black" d="M724.621,-926.238C728.676,-920.609 732.83,-914.244 736,-908 751.819,-876.839 763.49,-838.244 770.251,-812.577"/>
<polygon fill="black" stroke="black" points="773.675,-813.312 772.764,-802.757 766.894,-811.577 773.675,-813.312"/>
<text text-anchor="middle" x="770" y="-896.8" font-family="Times,serif" font-size="14.00">v3 != 0</text>
</g>
<!-- Node0x349a100 -->
<g id="node6" class="node"><title>Node0x349a100</title>
<polygon fill="none" stroke="black" points="555.5,-709.5 555.5,-745.5 654.5,-745.5 654.5,-709.5 555.5,-709.5"/>
<text text-anchor="start" x="563.5" y="-723.8" font-family="Times,serif" font-size="14.00">if (v4 != 0):</text>
</g>
<!-- Node0x31242f0&#45;&gt;Node0x349a100 -->
<g id="edge5" class="edge"><title>Node0x31242f0&#45;&gt;Node0x349a100</title>
<path fill="none" stroke="black" d="M633.735,-821.437C630.572,-815.511 627.458,-809.139 625,-803 618.872,-787.693 614.012,-769.878 610.619,-755.508"/>
<polygon fill="black" stroke="black" points="614.029,-754.72 608.409,-745.738 607.201,-756.264 614.029,-754.72"/>
</g>
<!-- Node0x3499f50 -->
<g id="node7" class="node"><title>Node0x3499f50</title>
<polygon fill="none" stroke="black" points="620,-532.5 620,-690.5 964,-690.5 964,-532.5 620,-532.5"/>
<text text-anchor="start" x="628" y="-675.3" font-family="Times,serif" font-size="14.00">0x406422:</text>
<text text-anchor="start" x="628" y="-660.3" font-family="Times,serif" font-size="14.00"> g1 = 0</text>
<text text-anchor="start" x="628" y="-645.3" font-family="Times,serif" font-size="14.00"> _dtoa_unlock(v1)</text>
<text text-anchor="start" x="628" y="-630.3" font-family="Times,serif" font-size="14.00"> *(IntToPtrCastExpr&lt;ptr&gt;((result + 16))) = 0</text>
<text text-anchor="start" x="628" y="-615.3" font-family="Times,serif" font-size="14.00"> *(IntToPtrCastExpr&lt;ptr&gt;((result + 12))) = 0</text>
<text text-anchor="start" x="628" y="-600.3" font-family="Times,serif" font-size="14.00"> g1 = result</text>
<text text-anchor="start" x="628" y="-585.3" font-family="Times,serif" font-size="14.00"> g3 = v1</text>
<text text-anchor="start" x="628" y="-570.3" font-family="Times,serif" font-size="14.00"> v8</text>
<text text-anchor="start" x="628" y="-555.3" font-family="Times,serif" font-size="14.00"> g5 = v8</text>
<text text-anchor="start" x="628" y="-540.3" font-family="Times,serif" font-size="14.00"> return result</text>
</g>
<!-- Node0x349adc0&#45;&gt;Node0x3499f50 -->
<g id="edge6" class="edge"><title>Node0x349adc0&#45;&gt;Node0x3499f50</title>
<path fill="none" stroke="black" d="M778.605,-764.307C779.987,-748.648 782.09,-724.818 784.222,-700.648"/>
<polygon fill="black" stroke="black" points="787.711,-700.927 785.104,-690.658 780.738,-700.312 787.711,-700.927"/>
</g>
<!-- Node0x349aea0 -->
<g id="node8" class="node"><title>Node0x349aea0</title>
<polygon fill="none" stroke="black" points="357,-460.5 357,-513.5 569,-513.5 569,-460.5 357,-460.5"/>
<text text-anchor="start" x="365" y="-498.3" font-family="Times,serif" font-size="14.00">if_406447_0_true:</text>
<text text-anchor="start" x="365" y="-483.3" font-family="Times,serif" font-size="14.00"> v5 = (1 &lt;&lt; v4)</text>
<text text-anchor="start" x="365" y="-468.3" font-family="Times,serif" font-size="14.00"> v6 = (((4 &lt;&lt; v4) + 27) / 8)</text>
</g>
<!-- Node0x349a100&#45;&gt;Node0x349aea0 -->
<g id="edge7" class="edge"><title>Node0x349a100&#45;&gt;Node0x349aea0</title>
<path fill="none" stroke="black" d="M560.61,-709.422C551.917,-704.505 543.495,-698.412 537,-691 494.542,-642.552 475.747,-567.752 467.974,-523.758"/>
<polygon fill="black" stroke="black" points="471.411,-523.087 466.311,-513.801 464.506,-524.241 471.411,-523.087"/>
<text text-anchor="middle" x="564" y="-607.8" font-family="Times,serif" font-size="14.00">v4 != 0</text>
</g>
<!-- Node0x349a520 -->
<g id="node9" class="node"><title>Node0x349a520</title>
<polygon fill="none" stroke="black" points="379,-384.5 379,-422.5 647,-422.5 647,-384.5 379,-384.5"/>
<text text-anchor="start" x="387" y="-407.3" font-family="Times,serif" font-size="14.00">v7 = *(BitCastExpr&lt;ptr&gt;(&amp;(g15)))</text>
<text text-anchor="start" x="387" y="-392.3" font-family="Times,serif" font-size="14.00"> mem</text>
</g>
<!-- Node0x349a100&#45;&gt;Node0x349a520 -->
<g id="edge8" class="edge"><title>Node0x349a100&#45;&gt;Node0x349a520</title>
<path fill="none" stroke="black" d="M607.773,-709.479C614.121,-665.014 625.713,-543.071 578,-460 571.11,-448.003 560.617,-437.383 550.059,-428.729"/>
<polygon fill="black" stroke="black" points="552.079,-425.866 542.031,-422.503 547.789,-431.397 552.079,-425.866"/>
<text text-anchor="middle" x="630" y="-483.3" font-family="Times,serif" font-size="14.00">v4 == 0</text>
</g>
<!-- Node0x34997e0 -->
<g id="node10" class="node"><title>Node0x34997e0</title>
<polygon fill="none" stroke="black" points="707,-23.5 707,-59.5 761,-59.5 761,-23.5 707,-23.5"/>
<text text-anchor="start" x="715" y="-37.8" font-family="Times,serif" font-size="14.00">exit:</text>
</g>
<!-- Node0x3499f50&#45;&gt;Node0x34997e0 -->
<g id="edge9" class="edge"><title>Node0x3499f50&#45;&gt;Node0x34997e0</title>
<path fill="none" stroke="black" d="M792,-532.482C792,-504.006 792,-471.546 792,-442 792,-442 792,-442 792,-123 792,-101.291 777.943,-81.446 763.669,-66.8918"/>
<polygon fill="black" stroke="black" points="765.897,-64.1793 756.258,-59.7813 761.051,-69.2303 765.897,-64.1793"/>
</g>
<!-- Node0x349aea0&#45;&gt;Node0x349a520 -->
<g id="edge10" class="edge"><title>Node0x349aea0&#45;&gt;Node0x349a520</title>
<path fill="none" stroke="black" d="M478.82,-460.213C484.501,-450.954 490.916,-440.498 496.641,-431.165"/>
<polygon fill="black" stroke="black" points="499.626,-432.992 501.872,-422.638 493.66,-429.332 499.626,-432.992"/>
</g>
<!-- Node0x2eec950 -->
<g id="node11" class="node"><title>Node0x2eec950</title>
<polygon fill="none" stroke="black" points="373,-308.5 373,-346.5 653,-346.5 653,-308.5 373,-308.5"/>
<text text-anchor="start" x="381" y="-331.3" font-family="Times,serif" font-size="14.00">if ((((v7 &#45; 4235872) / 8) + v6) &gt; 288):</text>
<text text-anchor="start" x="381" y="-316.3" font-family="Times,serif" font-size="14.00"> else:</text>
</g>
<!-- Node0x349a520&#45;&gt;Node0x2eec950 -->
<g id="edge11" class="edge"><title>Node0x349a520&#45;&gt;Node0x2eec950</title>
<path fill="none" stroke="black" d="M513,-384.208C513,-375.964 513,-366.038 513,-356.862"/>
<polygon fill="black" stroke="black" points="516.5,-356.582 513,-346.582 509.5,-356.582 516.5,-356.582"/>
</g>
<!-- Node0x349b050 -->
<g id="node12" class="node"><title>Node0x349b050</title>
<polygon fill="none" stroke="black" points="0,-196 0,-249 388,-249 388,-196 0,-196"/>
<text text-anchor="start" x="8" y="-233.8" font-family="Times,serif" font-size="14.00">0x40647f:</text>
<text text-anchor="start" x="8" y="-218.8" font-family="Times,serif" font-size="14.00"> mem = PtrToIntCastExpr&lt;int32&gt;(malloc((8 * v6)))</text>
<text text-anchor="start" x="8" y="-203.8" font-family="Times,serif" font-size="14.00"> result = mem</text>
</g>
<!-- Node0x2eec950&#45;&gt;Node0x349b050 -->
<g id="edge12" class="edge"><title>Node0x2eec950&#45;&gt;Node0x349b050</title>
<path fill="none" stroke="black" d="M372.958,-314.746C343.191,-309.33 312.474,-301.451 285,-290 265.159,-281.73 245.59,-268.313 229.713,-255.688"/>
<polygon fill="black" stroke="black" points="231.722,-252.81 221.764,-249.19 227.291,-258.229 231.722,-252.81"/>
<text text-anchor="middle" x="402.5" y="-278.8" font-family="Times,serif" font-size="14.00">(((v7 &#45; 4235872) / 8) + v6) &gt; 288</text>
</g>
<!-- Node0x349b190 -->
<g id="node13" class="node"><title>Node0x349b190</title>
<polygon fill="none" stroke="black" points="406.5,-188.5 406.5,-256.5 763.5,-256.5 763.5,-188.5 406.5,-188.5"/>
<text text-anchor="start" x="414.5" y="-241.3" font-family="Times,serif" font-size="14.00">0x40646d:</text>
<text text-anchor="start" x="414.5" y="-226.3" font-family="Times,serif" font-size="14.00"> result = v7</text>
<text text-anchor="start" x="414.5" y="-211.3" font-family="Times,serif" font-size="14.00"> *(BitCastExpr&lt;ptr&gt;(&amp;(g15))) = ((8 * v6) + v7)</text>
<text text-anchor="start" x="414.5" y="-196.3" font-family="Times,serif" font-size="14.00"> mem = v7</text>
</g>
<!-- Node0x2eec950&#45;&gt;Node0x349b190 -->
<g id="edge13" class="edge"><title>Node0x2eec950&#45;&gt;Node0x349b190</title>
<path fill="none" stroke="black" d="M517.073,-308.392C519.931,-298.064 524.431,-285.189 531,-275 533.33,-271.387 535.963,-267.844 538.782,-264.416"/>
<polygon fill="black" stroke="black" points="541.649,-266.456 545.641,-256.642 536.4,-261.825 541.649,-266.456"/>
<text text-anchor="middle" x="654.5" y="-278.8" font-family="Times,serif" font-size="14.00">(((v7 &#45; 4235872) / 8) + v6) &lt;= 288</text>
</g>
<!-- Node0x349ad60 -->
<g id="node14" class="node"><title>Node0x349ad60</title>
<polygon fill="none" stroke="black" points="413,-97.5 413,-150.5 757,-150.5 757,-97.5 413,-97.5"/>
<text text-anchor="start" x="421" y="-135.3" font-family="Times,serif" font-size="14.00">0x406477:</text>
<text text-anchor="start" x="421" y="-120.3" font-family="Times,serif" font-size="14.00"> *(IntToPtrCastExpr&lt;ptr&gt;((mem + 4))) = g7</text>
<text text-anchor="start" x="421" y="-105.3" font-family="Times,serif" font-size="14.00"> *(IntToPtrCastExpr&lt;ptr&gt;((result + 8))) = v5</text>
</g>
<!-- Node0x349b050&#45;&gt;Node0x349ad60 -->
<g id="edge14" class="edge"><title>Node0x349b050&#45;&gt;Node0x349ad60</title>
<path fill="none" stroke="black" d="M297.498,-195.956C351.177,-182.708 416.842,-166.502 471.859,-152.924"/>
<polygon fill="black" stroke="black" points="472.779,-156.302 481.649,-150.507 471.101,-149.506 472.779,-156.302"/>
</g>
<!-- Node0x349b190&#45;&gt;Node0x349ad60 -->
<g id="edge15" class="edge"><title>Node0x349b190&#45;&gt;Node0x349ad60</title>
<path fill="none" stroke="black" d="M585,-188.29C585,-179.434 585,-169.827 585,-160.837"/>
<polygon fill="black" stroke="black" points="588.5,-160.648 585,-150.648 581.5,-160.648 588.5,-160.648"/>
</g>
<!-- Node0x349ad60&#45;&gt;Node0x34997e0 -->
<g id="edge16" class="edge"><title>Node0x349ad60&#45;&gt;Node0x34997e0</title>
<path fill="none" stroke="black" d="M632.554,-97.308C653.729,-85.8679 678.26,-72.6144 697.895,-62.0063"/>
<polygon fill="black" stroke="black" points="699.688,-65.0157 706.823,-57.183 696.361,-58.8571 699.688,-65.0157"/>
</g>
</g>
</svg>
