<?xml version="1.0" encoding="UTF-8" standalone="no"?>
<!DOCTYPE svg PUBLIC "-//W3C//DTD SVG 1.1//EN"
 "http://www.w3.org/Graphics/SVG/1.1/DTD/svg11.dtd">
<!-- Generated by graphviz version 2.38.0 (20140413.2041)
 -->
<!-- Title: Control&#45;flow graph for function &#39;___do_global_dtors()&#39;. Pages: 1 -->
<svg width="487pt" height="704pt"
 viewBox="0.00 0.00 487.00 704.00" xmlns="http://www.w3.org/2000/svg" xmlns:xlink="http://www.w3.org/1999/xlink">
<g id="graph0" class="graph" transform="scale(1 1) rotate(0) translate(4 700)">
<title>Control&#45;flow graph for function &#39;___do_global_dtors()&#39;.</title>
<polygon fill="white" stroke="none" points="-4,4 -4,-700 483,-700 483,4 -4,4"/>
<text text-anchor="middle" x="239.5" y="-7.8" font-family="Times,serif" font-size="14.00">Control&#45;flow graph for function &#39;___do_global_dtors()&#39;.</text>
<!-- Node0x2c542c0 -->
<g id="node1" class="node"><title>Node0x2c542c0</title>
<polygon fill="none" stroke="black" points="114.5,-659.5 114.5,-695.5 173.5,-695.5 173.5,-659.5 114.5,-659.5"/>
<text text-anchor="start" x="122.5" y="-673.8" font-family="Times,serif" font-size="14.00">entry:</text>
</g>
<!-- Node0x3226410 -->
<g id="node2" class="node"><title>Node0x3226410</title>
<polygon fill="none" stroke="black" points="0,-568.5 0,-621.5 288,-621.5 288,-568.5 0,-568.5"/>
<text text-anchor="start" x="8" y="-606.3" font-family="Times,serif" font-size="14.00">v1</text>
<text text-anchor="start" x="8" y="-591.3" font-family="Times,serif" font-size="14.00"> g2 = &amp;(v1)</text>
<text text-anchor="start" x="8" y="-576.3" font-family="Times,serif" font-size="14.00"> v2 = *(IntToPtrCastExpr&lt;ptr&gt;(g11))</text>
</g>
<!-- Node0x2c542c0&#45;&gt;Node0x3226410 -->
<g id="edge1" class="edge"><title>Node0x2c542c0&#45;&gt;Node0x3226410</title>
<path fill="none" stroke="black" d="M144,-659.428C144,-651.361 144,-641.411 144,-631.802"/>
<polygon fill="black" stroke="black" points="147.5,-631.616 144,-621.616 140.5,-631.616 147.5,-631.616"/>
</g>
<!-- Node0x2f18d50 -->
<g id="node3" class="node"><title>Node0x2f18d50</title>
<polygon fill="none" stroke="black" points="91.5,-494.5 91.5,-530.5 196.5,-530.5 196.5,-494.5 91.5,-494.5"/>
<text text-anchor="start" x="99.5" y="-508.8" font-family="Times,serif" font-size="14.00">if (v2 == 0):</text>
</g>
<!-- Node0x3226410&#45;&gt;Node0x2f18d50 -->
<g id="edge2" class="edge"><title>Node0x3226410&#45;&gt;Node0x2f18d50</title>
<path fill="none" stroke="black" d="M144,-568.086C144,-559.46 144,-549.822 144,-541.075"/>
<polygon fill="black" stroke="black" points="147.5,-540.973 144,-530.974 140.5,-540.974 147.5,-540.973"/>
</g>
<!-- Node0x3476240 -->
<g id="node4" class="node"><title>Node0x3476240</title>
<polygon fill="none" stroke="black" points="19,-302.5 19,-340.5 111,-340.5 111,-302.5 19,-302.5"/>
<text text-anchor="start" x="27" y="-325.3" font-family="Times,serif" font-size="14.00">0x401316:</text>
<text text-anchor="start" x="27" y="-310.3" font-family="Times,serif" font-size="14.00"> return 0</text>
</g>
<!-- Node0x2f18d50&#45;&gt;Node0x3476240 -->
<g id="edge3" class="edge"><title>Node0x2f18d50&#45;&gt;Node0x3476240</title>
<path fill="none" stroke="black" d="M136.069,-494.218C133.457,-488.444 130.566,-481.961 128,-476 109.173,-432.259 88.3905,-381.001 76.0287,-350.174"/>
<polygon fill="black" stroke="black" points="79.1394,-348.527 72.1743,-340.543 72.6406,-351.128 79.1394,-348.527"/>
<text text-anchor="middle" x="158" y="-464.8" font-family="Times,serif" font-size="14.00">v2 == 0</text>
</g>
<!-- Node0x3360e00 -->
<g id="node5" class="node"><title>Node0x3360e00</title>
<polygon fill="none" stroke="black" points="144,-359.5 144,-442.5 422,-442.5 422,-359.5 144,-359.5"/>
<text text-anchor="start" x="152" y="-427.3" font-family="Times,serif" font-size="14.00">g1 = v2</text>
<text text-anchor="start" x="152" y="-412.3" font-family="Times,serif" font-size="14.00"> IntToPtrCastExpr&lt;ptr&gt;(v2)()</text>
<text text-anchor="start" x="152" y="-397.3" font-family="Times,serif" font-size="14.00"> v3 = (g11 + 4)</text>
<text text-anchor="start" x="152" y="-382.3" font-family="Times,serif" font-size="14.00"> g11 = v3</text>
<text text-anchor="start" x="152" y="-367.3" font-family="Times,serif" font-size="14.00"> v4 = *(IntToPtrCastExpr&lt;ptr&gt;(v3))</text>
</g>
<!-- Node0x2f18d50&#45;&gt;Node0x3360e00 -->
<g id="edge4" class="edge"><title>Node0x2f18d50&#45;&gt;Node0x3360e00</title>
<path fill="none" stroke="black" d="M165.719,-494.391C181.222,-482.177 202.874,-465.121 223.36,-448.983"/>
<polygon fill="black" stroke="black" points="225.75,-451.556 231.439,-442.618 221.418,-446.057 225.75,-451.556"/>
<text text-anchor="middle" x="232" y="-464.8" font-family="Times,serif" font-size="14.00">v2 != 0</text>
</g>
<!-- Node0x30aa9c0 -->
<g id="node6" class="node"><title>Node0x30aa9c0</title>
<polygon fill="none" stroke="black" points="134,-23.5 134,-59.5 188,-59.5 188,-23.5 134,-23.5"/>
<text text-anchor="start" x="142" y="-37.8" font-family="Times,serif" font-size="14.00">exit:</text>
</g>
<!-- Node0x3476240&#45;&gt;Node0x30aa9c0 -->
<g id="edge5" class="edge"><title>Node0x3476240&#45;&gt;Node0x30aa9c0</title>
<path fill="none" stroke="black" d="M61.4679,-302.483C54.6069,-262.447 43.3305,-164.318 82,-97 91.6437,-80.2118 108.808,-67.4358 124.68,-58.4883"/>
<polygon fill="black" stroke="black" points="126.604,-61.4299 133.808,-53.6612 123.332,-55.2417 126.604,-61.4299"/>
</g>
<!-- Node0x3019590 -->
<g id="node7" class="node"><title>Node0x3019590</title>
<polygon fill="none" stroke="black" points="232,-247.5 232,-283.5 360,-283.5 360,-247.5 232,-247.5"/>
<text text-anchor="start" x="240" y="-261.8" font-family="Times,serif" font-size="14.00">while (v4 != 0):</text>
</g>
<!-- Node0x3360e00&#45;&gt;Node0x3019590 -->
<g id="edge6" class="edge"><title>Node0x3360e00&#45;&gt;Node0x3019590</title>
<path fill="none" stroke="black" d="M286.971,-359.22C289.041,-337.969 291.515,-312.556 293.35,-293.714"/>
<polygon fill="black" stroke="black" points="296.837,-294.019 294.323,-283.726 289.87,-293.34 296.837,-294.019"/>
</g>
<!-- Node0x2f63a00 -->
<g id="node8" class="node"><title>Node0x2f63a00</title>
<polygon fill="none" stroke="black" points="91,-97.5 91,-195.5 369,-195.5 369,-97.5 91,-97.5"/>
<text text-anchor="start" x="99" y="-180.3" font-family="Times,serif" font-size="14.00">0x401301:</text>
<text text-anchor="start" x="99" y="-165.3" font-family="Times,serif" font-size="14.00"> g1 = v4</text>
<text text-anchor="start" x="99" y="-150.3" font-family="Times,serif" font-size="14.00"> IntToPtrCastExpr&lt;ptr&gt;(v4)()</text>
<text text-anchor="start" x="99" y="-135.3" font-family="Times,serif" font-size="14.00"> v3 = (g11 + 4)</text>
<text text-anchor="start" x="99" y="-120.3" font-family="Times,serif" font-size="14.00"> g11 = v3</text>
<text text-anchor="start" x="99" y="-105.3" font-family="Times,serif" font-size="14.00"> v4 = *(IntToPtrCastExpr&lt;ptr&gt;(v3))</text>
</g>
<!-- Node0x3019590&#45;&gt;Node0x2f63a00 -->
<g id="edge7" class="edge"><title>Node0x3019590&#45;&gt;Node0x2f63a00</title>
<path fill="none" stroke="black" d="M247.802,-247.379C240.305,-242.59 233.548,-236.557 229,-229 224.798,-222.018 222.537,-214.054 221.557,-205.902"/>
<polygon fill="black" stroke="black" points="225.05,-205.688 220.951,-195.918 218.063,-206.112 225.05,-205.688"/>
<text text-anchor="middle" x="256" y="-217.8" font-family="Times,serif" font-size="14.00">v4 != 0</text>
</g>
<!-- Node0x2894020 -->
<g id="node9" class="node"><title>Node0x2894020</title>
<polygon fill="none" stroke="black" points="387,-127.5 387,-165.5 479,-165.5 479,-127.5 387,-127.5"/>
<text text-anchor="start" x="395" y="-150.3" font-family="Times,serif" font-size="14.00">0x401316:</text>
<text text-anchor="start" x="395" y="-135.3" font-family="Times,serif" font-size="14.00"> return 0</text>
</g>
<!-- Node0x3019590&#45;&gt;Node0x2894020 -->
<g id="edge8" class="edge"><title>Node0x3019590&#45;&gt;Node0x2894020</title>
<path fill="none" stroke="black" d="M316.685,-247.479C333.342,-233.71 357.309,-213.76 378,-196 386.875,-188.382 396.464,-179.985 405.111,-172.35"/>
<polygon fill="black" stroke="black" points="407.573,-174.845 412.74,-165.596 402.933,-169.604 407.573,-174.845"/>
<text text-anchor="middle" x="385" y="-217.8" font-family="Times,serif" font-size="14.00">v4 == 0</text>
</g>
<!-- Node0x2f63a00&#45;&gt;Node0x3019590 -->
<g id="edge9" class="edge"><title>Node0x2f63a00&#45;&gt;Node0x3019590</title>
<path fill="none" stroke="black" d="M272.107,-195.681C276.159,-201.619 279.904,-207.79 283,-214 286.651,-221.324 289.344,-229.772 291.301,-237.637"/>
<polygon fill="black" stroke="black" points="287.903,-238.481 293.468,-247.497 294.74,-236.978 287.903,-238.481"/>
</g>
<!-- Node0x2894020&#45;&gt;Node0x30aa9c0 -->
<g id="edge10" class="edge"><title>Node0x2894020&#45;&gt;Node0x30aa9c0</title>
<path fill="none" stroke="black" d="M416.789,-127.419C406.601,-117.093 392.646,-104.707 378,-97 319.603,-66.2726 243.152,-52.3268 198.324,-46.4212"/>
<polygon fill="black" stroke="black" points="198.535,-42.9204 188.177,-45.1514 197.665,-49.8663 198.535,-42.9204"/>
</g>
</g>
</svg>
