<?xml version="1.0" encoding="UTF-8" standalone="no"?>
<!DOCTYPE svg PUBLIC "-//W3C//DTD SVG 1.1//EN"
 "http://www.w3.org/Graphics/SVG/1.1/DTD/svg11.dtd">
<!-- Generated by graphviz version 2.38.0 (20140413.2041)
 -->
<!-- Title: Control&#45;flow graph for function &#39;_version()&#39;. Pages: 1 -->
<svg width="1366pt" height="1001pt"
 viewBox="0.00 0.00 1365.50 1001.00" xmlns="http://www.w3.org/2000/svg" xmlns:xlink="http://www.w3.org/1999/xlink">
<g id="graph0" class="graph" transform="scale(1 1) rotate(0) translate(4 997)">
<title>Control&#45;flow graph for function &#39;_version()&#39;.</title>
<polygon fill="white" stroke="none" points="-4,4 -4,-997 1361.5,-997 1361.5,4 -4,4"/>
<text text-anchor="middle" x="678.75" y="-7.8" font-family="Times,serif" font-size="14.00">Control&#45;flow graph for function &#39;_version()&#39;.</text>
<!-- Node0x3217a00 -->
<g id="node1" class="node"><title>Node0x3217a00</title>
<polygon fill="none" stroke="black" points="309,-956.5 309,-992.5 368,-992.5 368,-956.5 309,-956.5"/>
<text text-anchor="start" x="317" y="-970.8" font-family="Times,serif" font-size="14.00">entry:</text>
</g>
<!-- Node0x3339490 -->
<g id="node2" class="node"><title>Node0x3339490</title>
<polygon fill="none" stroke="black" points="0,-805.5 0,-918.5 677,-918.5 677,-805.5 0,-805.5"/>
<text text-anchor="start" x="8" y="-903.3" font-family="Times,serif" font-size="14.00">v1 = 0</text>
<text text-anchor="start" x="8" y="-888.3" font-family="Times,serif" font-size="14.00"> v2 = 0</text>
<text text-anchor="start" x="8" y="-873.3" font-family="Times,serif" font-size="14.00"> fprintf(IntToPtrCastExpr&lt;ptr&gt;((g36 + 64)), &quot;Motorola qboot utility version %x.%x\n&quot;, 2, 4)</text>
<text text-anchor="start" x="8" y="-858.3" font-family="Times,serif" font-size="14.00"> v3 = &amp;(v1)</text>
<text text-anchor="start" x="8" y="-843.3" font-family="Times,serif" font-size="14.00"> g1 = v3</text>
<text text-anchor="start" x="8" y="-828.3" font-family="Times,serif" font-size="14.00"> qb_get_version(v3, PtrToIntCastExpr&lt;int32&gt;(&amp;(v2)))</text>
<text text-anchor="start" x="8" y="-813.3" font-family="Times,serif" font-size="14.00"> result = g1</text>
</g>
<!-- Node0x3217a00&#45;&gt;Node0x3339490 -->
<g id="edge1" class="edge"><title>Node0x3217a00&#45;&gt;Node0x3339490</title>
<path fill="none" stroke="black" d="M338.5,-956.234C338.5,-948.586 338.5,-939.056 338.5,-929.033"/>
<polygon fill="black" stroke="black" points="342,-928.897 338.5,-918.897 335,-928.897 342,-928.897"/>
</g>
<!-- Node0x33b7ea0 -->
<g id="node3" class="node"><title>Node0x33b7ea0</title>
<polygon fill="none" stroke="black" points="276.5,-731.5 276.5,-767.5 400.5,-767.5 400.5,-731.5 276.5,-731.5"/>
<text text-anchor="start" x="284.5" y="-745.8" font-family="Times,serif" font-size="14.00">if (result != 0):</text>
</g>
<!-- Node0x3339490&#45;&gt;Node0x33b7ea0 -->
<g id="edge2" class="edge"><title>Node0x3339490&#45;&gt;Node0x33b7ea0</title>
<path fill="none" stroke="black" d="M338.5,-805.426C338.5,-795.86 338.5,-786.307 338.5,-777.913"/>
<polygon fill="black" stroke="black" points="342,-777.644 338.5,-767.644 335,-777.644 342,-777.644"/>
</g>
<!-- Node0x34e59e0 -->
<g id="node4" class="node"><title>Node0x34e59e0</title>
<polygon fill="none" stroke="black" points="163,-584.5 163,-622.5 276,-622.5 276,-584.5 163,-584.5"/>
<text text-anchor="start" x="171" y="-607.3" font-family="Times,serif" font-size="14.00">0x401413:</text>
<text text-anchor="start" x="171" y="-592.3" font-family="Times,serif" font-size="14.00"> return result</text>
</g>
<!-- Node0x33b7ea0&#45;&gt;Node0x34e59e0 -->
<g id="edge3" class="edge"><title>Node0x33b7ea0&#45;&gt;Node0x34e59e0</title>
<path fill="none" stroke="black" d="M324.382,-731.416C303.785,-706.492 265.326,-659.953 241.141,-630.687"/>
<polygon fill="black" stroke="black" points="243.793,-628.402 234.724,-622.923 238.397,-632.861 243.793,-628.402"/>
<text text-anchor="middle" x="348" y="-701.8" font-family="Times,serif" font-size="14.00">result != 0</text>
</g>
<!-- Node0x2fef110 -->
<g id="node5" class="node"><title>Node0x2fef110</title>
<polygon fill="none" stroke="black" points="499,-641.5 499,-679.5 620,-679.5 620,-641.5 499,-641.5"/>
<text text-anchor="start" x="507" y="-664.3" font-family="Times,serif" font-size="14.00">result2</text>
<text text-anchor="start" x="507" y="-649.3" font-family="Times,serif" font-size="14.00"> chars_printed</text>
</g>
<!-- Node0x33b7ea0&#45;&gt;Node0x2fef110 -->
<g id="edge4" class="edge"><title>Node0x33b7ea0&#45;&gt;Node0x2fef110</title>
<path fill="none" stroke="black" d="M381.899,-731.415C416.896,-717.638 466.345,-698.172 504.182,-683.277"/>
<polygon fill="black" stroke="black" points="505.513,-686.514 513.536,-679.595 502.949,-680.001 505.513,-686.514"/>
<text text-anchor="middle" x="505" y="-701.8" font-family="Times,serif" font-size="14.00">result == 0</text>
</g>
<!-- Node0x3332310 -->
<g id="node6" class="node"><title>Node0x3332310</title>
<polygon fill="none" stroke="black" points="324.5,-23.5 324.5,-59.5 378.5,-59.5 378.5,-23.5 324.5,-23.5"/>
<text text-anchor="start" x="332.5" y="-37.8" font-family="Times,serif" font-size="14.00">exit:</text>
</g>
<!-- Node0x34e59e0&#45;&gt;Node0x3332310 -->
<g id="edge5" class="edge"><title>Node0x34e59e0&#45;&gt;Node0x3332310</title>
<path fill="none" stroke="black" d="M217.186,-584.469C214.823,-564.473 211.5,-531.237 211.5,-502.5 211.5,-502.5 211.5,-502.5 211.5,-115.5 211.5,-69.1299 272.631,-52.1666 314.103,-45.9939"/>
<polygon fill="black" stroke="black" points="314.727,-49.4417 324.174,-44.6457 313.798,-42.5036 314.727,-49.4417"/>
</g>
<!-- Node0x3112ee0 -->
<g id="node7" class="node"><title>Node0x3112ee0</title>
<polygon fill="none" stroke="black" points="581,-527.5 581,-565.5 686,-565.5 686,-527.5 581,-527.5"/>
<text text-anchor="start" x="589" y="-550.3" font-family="Times,serif" font-size="14.00">if (v1 == 2):</text>
<text text-anchor="start" x="589" y="-535.3" font-family="Times,serif" font-size="14.00"> else:</text>
</g>
<!-- Node0x2fef110&#45;&gt;Node0x3112ee0 -->
<g id="edge6" class="edge"><title>Node0x2fef110&#45;&gt;Node0x3112ee0</title>
<path fill="none" stroke="black" d="M571.72,-641.005C583.735,-622.82 602.202,-594.87 615.818,-574.262"/>
<polygon fill="black" stroke="black" points="618.915,-575.923 621.508,-565.65 613.075,-572.064 618.915,-575.923"/>
</g>
<!-- Node0x33696d0 -->
<g id="node8" class="node"><title>Node0x33696d0</title>
<polygon fill="none" stroke="black" points="587.5,-437.5 587.5,-475.5 679.5,-475.5 679.5,-437.5 587.5,-437.5"/>
<text text-anchor="start" x="595.5" y="-460.3" font-family="Times,serif" font-size="14.00">0x4013ed:</text>
<text text-anchor="start" x="595.5" y="-445.3" font-family="Times,serif" font-size="14.00"> g1 = v2</text>
</g>
<!-- Node0x3112ee0&#45;&gt;Node0x33696d0 -->
<g id="edge7" class="edge"><title>Node0x3112ee0&#45;&gt;Node0x33696d0</title>
<path fill="none" stroke="black" d="M633.5,-527.266C633.5,-515.349 633.5,-499.538 633.5,-485.982"/>
<polygon fill="black" stroke="black" points="637,-485.71 633.5,-475.71 630,-485.71 637,-485.71"/>
<text text-anchor="middle" x="663.5" y="-497.8" font-family="Times,serif" font-size="14.00">v1 == 2</text>
</g>
<!-- Node0x2f666e0 -->
<g id="node9" class="node"><title>Node0x2f666e0</title>
<polygon fill="none" stroke="black" points="665.5,-350.5 665.5,-418.5 1357.5,-418.5 1357.5,-350.5 665.5,-350.5"/>
<text text-anchor="start" x="673.5" y="-403.3" font-family="Times,serif" font-size="14.00">0x4013f5:</text>
<text text-anchor="start" x="673.5" y="-388.3" font-family="Times,serif" font-size="14.00"> chars_printed = fprintf(IntToPtrCastExpr&lt;ptr&gt;((g36 + 64)), &quot;DLL version: %x.%x\n&quot;, v1, v2)</text>
<text text-anchor="start" x="673.5" y="-373.3" font-family="Times,serif" font-size="14.00"> g1 = chars_printed</text>
<text text-anchor="start" x="673.5" y="-358.3" font-family="Times,serif" font-size="14.00"> result2 = chars_printed</text>
</g>
<!-- Node0x3112ee0&#45;&gt;Node0x2f666e0 -->
<g id="edge8" class="edge"><title>Node0x3112ee0&#45;&gt;Node0x2f666e0</title>
<path fill="none" stroke="black" d="M676.127,-527.457C735.962,-502.13 846.231,-455.455 923.96,-422.554"/>
<polygon fill="black" stroke="black" points="925.428,-425.733 933.272,-418.612 922.699,-419.287 925.428,-425.733"/>
<text text-anchor="middle" x="777.5" y="-497.8" font-family="Times,serif" font-size="14.00">v1 != 2</text>
</g>
<!-- Node0x3369730 -->
<g id="node10" class="node"><title>Node0x3369730</title>
<polygon fill="none" stroke="black" points="584,-293.5 584,-331.5 683,-331.5 683,-293.5 584,-293.5"/>
<text text-anchor="start" x="592" y="-316.3" font-family="Times,serif" font-size="14.00">if (v2 != 4):</text>
<text text-anchor="start" x="592" y="-301.3" font-family="Times,serif" font-size="14.00"> else:</text>
</g>
<!-- Node0x33696d0&#45;&gt;Node0x3369730 -->
<g id="edge9" class="edge"><title>Node0x33696d0&#45;&gt;Node0x3369730</title>
<path fill="none" stroke="black" d="M633.5,-437.227C633.5,-413.05 633.5,-370.185 633.5,-341.803"/>
<polygon fill="black" stroke="black" points="637,-341.703 633.5,-331.703 630,-341.703 637,-341.703"/>
</g>
<!-- Node0x3339430 -->
<g id="node11" class="node"><title>Node0x3339430</title>
<polygon fill="none" stroke="black" points="688.5,-97.5 688.5,-135.5 810.5,-135.5 810.5,-97.5 688.5,-97.5"/>
<text text-anchor="start" x="696.5" y="-120.3" font-family="Times,serif" font-size="14.00">0x401413:</text>
<text text-anchor="start" x="696.5" y="-105.3" font-family="Times,serif" font-size="14.00"> return result2</text>
</g>
<!-- Node0x2f666e0&#45;&gt;Node0x3339430 -->
<g id="edge10" class="edge"><title>Node0x2f666e0&#45;&gt;Node0x3339430</title>
<path fill="none" stroke="black" d="M1033.83,-350.237C1061.16,-304.958 1098.91,-223.763 1056.5,-173 1027.07,-137.773 902.026,-124.863 820.884,-120.162"/>
<polygon fill="black" stroke="black" points="820.902,-116.657 810.724,-119.602 820.517,-123.647 820.902,-116.657"/>
</g>
<!-- Node0x2c3d1a0 -->
<g id="node12" class="node"><title>Node0x2c3d1a0</title>
<polygon fill="none" stroke="black" points="239.5,-173.5 239.5,-241.5 931.5,-241.5 931.5,-173.5 239.5,-173.5"/>
<text text-anchor="start" x="247.5" y="-226.3" font-family="Times,serif" font-size="14.00">0x4013f5:</text>
<text text-anchor="start" x="247.5" y="-211.3" font-family="Times,serif" font-size="14.00"> chars_printed = fprintf(IntToPtrCastExpr&lt;ptr&gt;((g36 + 64)), &quot;DLL version: %x.%x\n&quot;, v1, v2)</text>
<text text-anchor="start" x="247.5" y="-196.3" font-family="Times,serif" font-size="14.00"> g1 = chars_printed</text>
<text text-anchor="start" x="247.5" y="-181.3" font-family="Times,serif" font-size="14.00"> result2 = chars_printed</text>
</g>
<!-- Node0x3369730&#45;&gt;Node0x2c3d1a0 -->
<g id="edge11" class="edge"><title>Node0x3369730&#45;&gt;Node0x2c3d1a0</title>
<path fill="none" stroke="black" d="M624.919,-293.086C619.477,-281.409 612.201,-265.797 605.383,-251.165"/>
<polygon fill="black" stroke="black" points="608.389,-249.329 600.992,-241.743 602.044,-252.286 608.389,-249.329"/>
<text text-anchor="middle" x="641.5" y="-263.8" font-family="Times,serif" font-size="14.00">v2 != 4</text>
</g>
<!-- Node0x3014ce0 -->
<g id="node13" class="node"><title>Node0x3014ce0</title>
<polygon fill="none" stroke="black" points="949.5,-189.5 949.5,-225.5 1047.5,-225.5 1047.5,-189.5 949.5,-189.5"/>
<text text-anchor="start" x="957.5" y="-203.8" font-family="Times,serif" font-size="14.00">result2 = 4</text>
</g>
<!-- Node0x3369730&#45;&gt;Node0x3014ce0 -->
<g id="edge12" class="edge"><title>Node0x3369730&#45;&gt;Node0x3014ce0</title>
<path fill="none" stroke="black" d="M683.239,-304.951C745.109,-295.749 853.231,-276.17 940.5,-242 948.266,-238.959 956.232,-234.993 963.678,-230.859"/>
<polygon fill="black" stroke="black" points="965.877,-233.63 972.776,-225.589 962.368,-227.572 965.877,-233.63"/>
<text text-anchor="middle" x="913.5" y="-263.8" font-family="Times,serif" font-size="14.00">v2 == 4</text>
</g>
<!-- Node0x3339430&#45;&gt;Node0x3332310 -->
<g id="edge13" class="edge"><title>Node0x3339430&#45;&gt;Node0x3332310</title>
<path fill="none" stroke="black" d="M688.185,-104.254C604.601,-88.923 457.454,-61.9338 388.771,-49.3361"/>
<polygon fill="black" stroke="black" points="389.3,-45.8749 378.833,-47.5133 388.037,-52.76 389.3,-45.8749"/>
</g>
<!-- Node0x2c3d1a0&#45;&gt;Node0x3339430 -->
<g id="edge14" class="edge"><title>Node0x2c3d1a0&#45;&gt;Node0x3339430</title>
<path fill="none" stroke="black" d="M646.568,-173.36C666.668,-162.452 688.566,-150.568 706.977,-140.577"/>
<polygon fill="black" stroke="black" points="708.865,-143.534 715.985,-135.688 705.526,-137.382 708.865,-143.534"/>
</g>
<!-- Node0x3014ce0&#45;&gt;Node0x3339430 -->
<g id="edge15" class="edge"><title>Node0x3014ce0&#45;&gt;Node0x3339430</title>
<path fill="none" stroke="black" d="M972.051,-189.425C962.385,-183.673 951.196,-177.563 940.5,-173 902.033,-156.587 857.213,-143.282 820.662,-133.818"/>
<polygon fill="black" stroke="black" points="821.138,-130.327 810.584,-131.251 819.41,-137.111 821.138,-130.327"/>
</g>
</g>
</svg>
