<?xml version="1.0" encoding="UTF-8" standalone="no"?>
<!DOCTYPE svg PUBLIC "-//W3C//DTD SVG 1.1//EN"
 "http://www.w3.org/Graphics/SVG/1.1/DTD/svg11.dtd">
<!-- Generated by graphviz version 2.38.0 (20140413.2041)
 -->
<!-- Title: Control&#45;flow graph for function &#39;___i2b_D2A(a1)&#39;. Pages: 1 -->
<svg width="375pt" height="263pt"
 viewBox="0.00 0.00 375.00 263.00" xmlns="http://www.w3.org/2000/svg" xmlns:xlink="http://www.w3.org/1999/xlink">
<g id="graph0" class="graph" transform="scale(1 1) rotate(0) translate(4 259)">
<title>Control&#45;flow graph for function &#39;___i2b_D2A(a1)&#39;.</title>
<polygon fill="white" stroke="none" points="-4,4 -4,-259 371,-259 371,4 -4,4"/>
<text text-anchor="middle" x="183.5" y="-7.8" font-family="Times,serif" font-size="14.00">Control&#45;flow graph for function &#39;___i2b_D2A(a1)&#39;.</text>
<!-- Node0x3124250 -->
<g id="node1" class="node"><title>Node0x3124250</title>
<polygon fill="none" stroke="black" points="154,-216.5 154,-254.5 213,-254.5 213,-216.5 154,-216.5"/>
<text text-anchor="start" x="162" y="-239.3" font-family="Times,serif" font-size="14.00">entry:</text>
<text text-anchor="start" x="162" y="-224.3" font-family="Times,serif" font-size="14.00"> a1</text>
</g>
<!-- Node0x349a580 -->
<g id="node2" class="node"><title>Node0x349a580</title>
<polygon fill="none" stroke="black" points="7,-96.5 7,-179.5 360,-179.5 360,-96.5 7,-96.5"/>
<text text-anchor="start" x="15" y="-164.3" font-family="Times,serif" font-size="14.00">result = ___Balloc_D2A(1)</text>
<text text-anchor="start" x="15" y="-149.3" font-family="Times,serif" font-size="14.00"> g1 = result</text>
<text text-anchor="start" x="15" y="-134.3" font-family="Times,serif" font-size="14.00"> *(IntToPtrCastExpr&lt;ptr&gt;((result + 20))) = a1</text>
<text text-anchor="start" x="15" y="-119.3" font-family="Times,serif" font-size="14.00"> *(IntToPtrCastExpr&lt;ptr&gt;((result + 16))) = 1</text>
<text text-anchor="start" x="15" y="-104.3" font-family="Times,serif" font-size="14.00"> return result</text>
</g>
<!-- Node0x3124250&#45;&gt;Node0x349a580 -->
<g id="edge1" class="edge"><title>Node0x3124250&#45;&gt;Node0x349a580</title>
<path fill="none" stroke="black" d="M183.5,-216.087C183.5,-208.444 183.5,-199.165 183.5,-189.73"/>
<polygon fill="black" stroke="black" points="187,-189.501 183.5,-179.501 180,-189.501 187,-189.501"/>
</g>
<!-- Node0x2ea4c30 -->
<g id="node3" class="node"><title>Node0x2ea4c30</title>
<polygon fill="none" stroke="black" points="156.5,-23.5 156.5,-59.5 210.5,-59.5 210.5,-23.5 156.5,-23.5"/>
<text text-anchor="start" x="164.5" y="-37.8" font-family="Times,serif" font-size="14.00">exit:</text>
</g>
<!-- Node0x349a580&#45;&gt;Node0x2ea4c30 -->
<g id="edge2" class="edge"><title>Node0x349a580&#45;&gt;Node0x2ea4c30</title>
<path fill="none" stroke="black" d="M183.5,-96.3751C183.5,-87.4706 183.5,-78.246 183.5,-70"/>
<polygon fill="black" stroke="black" points="187,-69.8327 183.5,-59.8328 180,-69.8328 187,-69.8327"/>
</g>
</g>
</svg>
