<?xml version="1.0" encoding="UTF-8" standalone="no"?>
<!DOCTYPE svg PUBLIC "-//W3C//DTD SVG 1.1//EN"
 "http://www.w3.org/Graphics/SVG/1.1/DTD/svg11.dtd">
<!-- Generated by graphviz version 2.38.0 (20140413.2041)
 -->
<!-- Title: Control&#45;flow graph for function &#39;__get_output_format()&#39;. Pages: 1 -->
<svg width="423pt" height="231pt"
 viewBox="0.00 0.00 423.00 231.00" xmlns="http://www.w3.org/2000/svg" xmlns:xlink="http://www.w3.org/1999/xlink">
<g id="graph0" class="graph" transform="scale(1 1) rotate(0) translate(4 227)">
<title>Control&#45;flow graph for function &#39;__get_output_format()&#39;.</title>
<polygon fill="white" stroke="none" points="-4,4 -4,-227 419,-227 419,4 -4,4"/>
<text text-anchor="middle" x="207.5" y="-7.8" font-family="Times,serif" font-size="14.00">Control&#45;flow graph for function &#39;__get_output_format()&#39;.</text>
<!-- Node0x307e750 -->
<g id="node1" class="node"><title>Node0x307e750</title>
<polygon fill="none" stroke="black" points="178,-186.5 178,-222.5 237,-222.5 237,-186.5 178,-186.5"/>
<text text-anchor="start" x="186" y="-200.8" font-family="Times,serif" font-size="14.00">entry:</text>
</g>
<!-- Node0x307fd10 -->
<g id="node2" class="node"><title>Node0x307fd10</title>
<polygon fill="none" stroke="black" points="161.5,-96.5 161.5,-149.5 253.5,-149.5 253.5,-96.5 161.5,-96.5"/>
<text text-anchor="start" x="169.5" y="-134.3" font-family="Times,serif" font-size="14.00">0x406e78:</text>
<text text-anchor="start" x="169.5" y="-119.3" font-family="Times,serif" font-size="14.00"> g1 = 0</text>
<text text-anchor="start" x="169.5" y="-104.3" font-family="Times,serif" font-size="14.00"> return 0</text>
</g>
<!-- Node0x307e750&#45;&gt;Node0x307fd10 -->
<g id="edge1" class="edge"><title>Node0x307e750&#45;&gt;Node0x307fd10</title>
<path fill="none" stroke="black" d="M207.5,-186.25C207.5,-178.486 207.5,-169.014 207.5,-159.825"/>
<polygon fill="black" stroke="black" points="211,-159.676 207.5,-149.676 204,-159.676 211,-159.676"/>
</g>
<!-- Node0x307fcb0 -->
<g id="node3" class="node"><title>Node0x307fcb0</title>
<polygon fill="none" stroke="black" points="180.5,-23.5 180.5,-59.5 234.5,-59.5 234.5,-23.5 180.5,-23.5"/>
<text text-anchor="start" x="188.5" y="-37.8" font-family="Times,serif" font-size="14.00">exit:</text>
</g>
<!-- Node0x307fd10&#45;&gt;Node0x307fcb0 -->
<g id="edge2" class="edge"><title>Node0x307fd10&#45;&gt;Node0x307fcb0</title>
<path fill="none" stroke="black" d="M207.5,-96.4081C207.5,-87.9823 207.5,-78.5803 207.5,-70.0174"/>
<polygon fill="black" stroke="black" points="211,-69.7564 207.5,-59.7564 204,-69.7565 211,-69.7564"/>
</g>
</g>
</svg>
