<?xml version="1.0" encoding="UTF-8" standalone="no"?>
<!DOCTYPE svg PUBLIC "-//W3C//DTD SVG 1.1//EN"
 "http://www.w3.org/Graphics/SVG/1.1/DTD/svg11.dtd">
<!-- Generated by graphviz version 2.38.0 (20140413.2041)
 -->
<!-- Title: Control&#45;flow graph for function &#39;___Bfree_D2A(*a1)&#39;. Pages: 1 -->
<svg width="735pt" height="519pt"
 viewBox="0.00 0.00 734.50 519.00" xmlns="http://www.w3.org/2000/svg" xmlns:xlink="http://www.w3.org/1999/xlink">
<g id="graph0" class="graph" transform="scale(1 1) rotate(0) translate(4 515)">
<title>Control&#45;flow graph for function &#39;___Bfree_D2A(*a1)&#39;.</title>
<polygon fill="white" stroke="none" points="-4,4 -4,-515 730.5,-515 730.5,4 -4,4"/>
<text text-anchor="middle" x="363.25" y="-7.8" font-family="Times,serif" font-size="14.00">Control&#45;flow graph for function &#39;___Bfree_D2A(*a1)&#39;.</text>
<!-- Node0x2c64b20 -->
<g id="node1" class="node"><title>Node0x2c64b20</title>
<polygon fill="none" stroke="black" points="213,-472.5 213,-510.5 272,-510.5 272,-472.5 213,-472.5"/>
<text text-anchor="start" x="221" y="-495.3" font-family="Times,serif" font-size="14.00">entry:</text>
<text text-anchor="start" x="221" y="-480.3" font-family="Times,serif" font-size="14.00"> a1</text>
</g>
<!-- Node0x2c662e0 -->
<g id="node2" class="node"><title>Node0x2c662e0</title>
<polygon fill="none" stroke="black" points="104,-381.5 104,-434.5 381,-434.5 381,-381.5 104,-381.5"/>
<text text-anchor="start" x="112" y="-419.3" font-family="Times,serif" font-size="14.00">0x4063c0:</text>
<text text-anchor="start" x="112" y="-404.3" font-family="Times,serif" font-size="14.00"> g3 = PtrToIntCastExpr&lt;int32&gt;(a1)</text>
<text text-anchor="start" x="112" y="-389.3" font-family="Times,serif" font-size="14.00"> result</text>
</g>
<!-- Node0x2c64b20&#45;&gt;Node0x2c662e0 -->
<g id="edge1" class="edge"><title>Node0x2c64b20&#45;&gt;Node0x2c662e0</title>
<path fill="none" stroke="black" d="M242.5,-472.413C242.5,-464.285 242.5,-454.394 242.5,-444.864"/>
<polygon fill="black" stroke="black" points="246,-444.766 242.5,-434.766 239,-444.766 246,-444.766"/>
</g>
<!-- Node0x3431560 -->
<g id="node3" class="node"><title>Node0x3431560</title>
<polygon fill="none" stroke="black" points="172.5,-307.5 172.5,-343.5 312.5,-343.5 312.5,-307.5 172.5,-307.5"/>
<text text-anchor="start" x="180.5" y="-321.8" font-family="Times,serif" font-size="14.00">if (a1 == NULL):</text>
</g>
<!-- Node0x2c662e0&#45;&gt;Node0x3431560 -->
<g id="edge2" class="edge"><title>Node0x2c662e0&#45;&gt;Node0x3431560</title>
<path fill="none" stroke="black" d="M242.5,-381.086C242.5,-372.46 242.5,-362.822 242.5,-354.075"/>
<polygon fill="black" stroke="black" points="246,-353.973 242.5,-343.974 239,-353.974 246,-353.973"/>
</g>
<!-- Node0x310fe90 -->
<g id="node4" class="node"><title>Node0x310fe90</title>
<polygon fill="none" stroke="black" points="0,-157.5 0,-195.5 113,-195.5 113,-157.5 0,-157.5"/>
<text text-anchor="start" x="8" y="-180.3" font-family="Times,serif" font-size="14.00">0x4063f0:</text>
<text text-anchor="start" x="8" y="-165.3" font-family="Times,serif" font-size="14.00"> return result</text>
</g>
<!-- Node0x3431560&#45;&gt;Node0x310fe90 -->
<g id="edge3" class="edge"><title>Node0x3431560&#45;&gt;Node0x310fe90</title>
<path fill="none" stroke="black" d="M204.531,-307.486C179.485,-295.226 146.762,-277.156 121.5,-256 103.53,-240.951 86.753,-220.457 74.7459,-204.183"/>
<polygon fill="black" stroke="black" points="77.2742,-201.705 68.5887,-195.637 71.5948,-205.797 77.2742,-201.705"/>
<text text-anchor="middle" x="216.5" y="-277.8" font-family="Times,serif" font-size="14.00">a1 == NULL</text>
</g>
<!-- Node0x3431750 -->
<g id="node5" class="node"><title>Node0x3431750</title>
<polygon fill="none" stroke="black" points="130.5,-97.5 130.5,-255.5 726.5,-255.5 726.5,-97.5 130.5,-97.5"/>
<text text-anchor="start" x="138.5" y="-240.3" font-family="Times,serif" font-size="14.00">0x4063cc:</text>
<text text-anchor="start" x="138.5" y="-225.3" font-family="Times,serif" font-size="14.00"> g1 = 0</text>
<text text-anchor="start" x="138.5" y="-210.3" font-family="Times,serif" font-size="14.00"> _dtoa_lock(result)</text>
<text text-anchor="start" x="138.5" y="-195.3" font-family="Times,serif" font-size="14.00"> v1 = *(IntToPtrCastExpr&lt;ptr&gt;((g3 + 4)))</text>
<text text-anchor="start" x="138.5" y="-180.3" font-family="Times,serif" font-size="14.00"> v2 = *(IntToPtrCastExpr&lt;ptr&gt;(((4 * v1) + PtrToIntCastExpr&lt;int32&gt;(&amp;(g34)))))</text>
<text text-anchor="start" x="138.5" y="-165.3" font-family="Times,serif" font-size="14.00"> *(IntToPtrCastExpr&lt;ptr&gt;(g3)) = v2</text>
<text text-anchor="start" x="138.5" y="-150.3" font-family="Times,serif" font-size="14.00"> g1 = 0</text>
<text text-anchor="start" x="138.5" y="-135.3" font-family="Times,serif" font-size="14.00"> *(IntToPtrCastExpr&lt;ptr&gt;(((4 * v1) + PtrToIntCastExpr&lt;int32&gt;(&amp;(g34))))) = g3</text>
<text text-anchor="start" x="138.5" y="-120.3" font-family="Times,serif" font-size="14.00"> v3</text>
<text text-anchor="start" x="138.5" y="-105.3" font-family="Times,serif" font-size="14.00"> return _dtoa_unlock(v3)</text>
</g>
<!-- Node0x3431560&#45;&gt;Node0x3431750 -->
<g id="edge4" class="edge"><title>Node0x3431560&#45;&gt;Node0x3431750</title>
<path fill="none" stroke="black" d="M264.201,-307.35C278.966,-295.68 299.724,-279.275 321.53,-262.041"/>
<polygon fill="black" stroke="black" points="323.927,-264.608 329.602,-255.661 319.586,-259.116 323.927,-264.608"/>
<text text-anchor="middle" x="346.5" y="-277.8" font-family="Times,serif" font-size="14.00">a1 != NULL</text>
</g>
<!-- Node0x2e8a6d0 -->
<g id="node6" class="node"><title>Node0x2e8a6d0</title>
<polygon fill="none" stroke="black" points="258.5,-23.5 258.5,-59.5 312.5,-59.5 312.5,-23.5 258.5,-23.5"/>
<text text-anchor="start" x="266.5" y="-37.8" font-family="Times,serif" font-size="14.00">exit:</text>
</g>
<!-- Node0x310fe90&#45;&gt;Node0x2e8a6d0 -->
<g id="edge5" class="edge"><title>Node0x310fe90&#45;&gt;Node0x2e8a6d0</title>
<path fill="none" stroke="black" d="M67.2091,-157.406C78.5853,-139.653 98.1346,-112.986 121.5,-97 160.49,-70.3244 213.56,-55.8456 248.639,-48.6515"/>
<polygon fill="black" stroke="black" points="249.328,-52.0832 258.47,-46.7293 247.984,-45.2132 249.328,-52.0832"/>
</g>
<!-- Node0x3431750&#45;&gt;Node0x2e8a6d0 -->
<g id="edge6" class="edge"><title>Node0x3431750&#45;&gt;Node0x2e8a6d0</title>
<path fill="none" stroke="black" d="M344.489,-97.3641C332.52,-86.232 321.034,-75.549 311.429,-66.6156"/>
<polygon fill="black" stroke="black" points="313.54,-63.7991 303.834,-59.5516 308.772,-68.9249 313.54,-63.7991"/>
</g>
</g>
</svg>
