<?xml version="1.0" encoding="UTF-8" standalone="no"?>
<!DOCTYPE svg PUBLIC "-//W3C//DTD SVG 1.1//EN"
 "http://www.w3.org/Graphics/SVG/1.1/DTD/svg11.dtd">
<!-- Generated by graphviz version 2.38.0 (20140413.2041)
 -->
<!-- Title: Control&#45;flow graph for function &#39;___main()&#39;. Pages: 1 -->
<svg width="2122pt" height="1844pt"
 viewBox="0.00 0.00 2121.50 1844.00" xmlns="http://www.w3.org/2000/svg" xmlns:xlink="http://www.w3.org/1999/xlink">
<g id="graph0" class="graph" transform="scale(1 1) rotate(0) translate(4 1840)">
<title>Control&#45;flow graph for function &#39;___main()&#39;.</title>
<polygon fill="white" stroke="none" points="-4,4 -4,-1840 2117.5,-1840 2117.5,4 -4,4"/>
<text text-anchor="middle" x="1056.75" y="-7.8" font-family="Times,serif" font-size="14.00">Control&#45;flow graph for function &#39;___main()&#39;.</text>
<!-- Node0x34765f0 -->
<g id="node1" class="node"><title>Node0x34765f0</title>
<polygon fill="none" stroke="black" points="173,-1799.5 173,-1835.5 232,-1835.5 232,-1799.5 173,-1799.5"/>
<text text-anchor="start" x="181" y="-1813.8" font-family="Times,serif" font-size="14.00">entry:</text>
</g>
<!-- Node0x309d950 -->
<g id="node2" class="node"><title>Node0x309d950</title>
<polygon fill="none" stroke="black" points="164,-1723.5 164,-1761.5 241,-1761.5 241,-1723.5 164,-1723.5"/>
<text text-anchor="start" x="172" y="-1746.3" font-family="Times,serif" font-size="14.00">v1 = g7</text>
<text text-anchor="start" x="172" y="-1731.3" font-family="Times,serif" font-size="14.00"> v2 = g3</text>
</g>
<!-- Node0x34765f0&#45;&gt;Node0x309d950 -->
<g id="edge1" class="edge"><title>Node0x34765f0&#45;&gt;Node0x309d950</title>
<path fill="none" stroke="black" d="M202.5,-1799.2C202.5,-1790.99 202.5,-1780.97 202.5,-1771.7"/>
<polygon fill="black" stroke="black" points="206,-1771.69 202.5,-1761.69 199,-1771.69 206,-1771.69"/>
</g>
<!-- Node0x33dbb50 -->
<g id="node3" class="node"><title>Node0x33dbb50</title>
<polygon fill="none" stroke="black" points="148,-1649.5 148,-1685.5 257,-1685.5 257,-1649.5 148,-1649.5"/>
<text text-anchor="start" x="156" y="-1663.8" font-family="Times,serif" font-size="14.00">if (g10 != 0):</text>
</g>
<!-- Node0x309d950&#45;&gt;Node0x33dbb50 -->
<g id="edge2" class="edge"><title>Node0x309d950&#45;&gt;Node0x33dbb50</title>
<path fill="none" stroke="black" d="M202.5,-1723.46C202.5,-1715.2 202.5,-1705.24 202.5,-1696.07"/>
<polygon fill="black" stroke="black" points="206,-1695.83 202.5,-1685.83 199,-1695.83 206,-1695.83"/>
</g>
<!-- Node0x34b4dd0 -->
<g id="node4" class="node"><title>Node0x34b4dd0</title>
<polygon fill="none" stroke="black" points="0,-1352.5 0,-1420.5 89,-1420.5 89,-1352.5 0,-1352.5"/>
<text text-anchor="start" x="8" y="-1405.3" font-family="Times,serif" font-size="14.00">0x40132f:</text>
<text text-anchor="start" x="8" y="-1390.3" font-family="Times,serif" font-size="14.00"> g3 = v2</text>
<text text-anchor="start" x="8" y="-1375.3" font-family="Times,serif" font-size="14.00"> g7 = v1</text>
<text text-anchor="start" x="8" y="-1360.3" font-family="Times,serif" font-size="14.00"> return g1</text>
</g>
<!-- Node0x33dbb50&#45;&gt;Node0x34b4dd0 -->
<g id="edge3" class="edge"><title>Node0x33dbb50&#45;&gt;Node0x34b4dd0</title>
<path fill="none" stroke="black" d="M192.854,-1649.47C168.46,-1606.39 103.739,-1492.1 68.381,-1429.67"/>
<polygon fill="black" stroke="black" points="71.359,-1427.83 63.3856,-1420.85 65.2679,-1431.28 71.359,-1427.83"/>
<text text-anchor="middle" x="214.5" y="-1619.8" font-family="Times,serif" font-size="14.00">g10 != 0</text>
</g>
<!-- Node0x2ea3160 -->
<g id="node5" class="node"><title>Node0x2ea3160</title>
<polygon fill="none" stroke="black" points="338,-1439.5 338,-1597.5 663,-1597.5 663,-1439.5 338,-1439.5"/>
<text text-anchor="start" x="346" y="-1582.3" font-family="Times,serif" font-size="14.00">0x401336:</text>
<text text-anchor="start" x="346" y="-1567.3" font-family="Times,serif" font-size="14.00"> g3 = *(IntToPtrCastExpr&lt;ptr&gt;(4223512))</text>
<text text-anchor="start" x="346" y="-1552.3" font-family="Times,serif" font-size="14.00"> g10 = 1</text>
<text text-anchor="start" x="346" y="-1537.3" font-family="Times,serif" font-size="14.00"> g1 = ___gcc_register_frame(v2)</text>
<text text-anchor="start" x="346" y="-1522.3" font-family="Times,serif" font-size="14.00"> v3 = g3</text>
<text text-anchor="start" x="346" y="-1507.3" font-family="Times,serif" font-size="14.00"> atexit_rc</text>
<text text-anchor="start" x="346" y="-1492.3" font-family="Times,serif" font-size="14.00"> v4</text>
<text text-anchor="start" x="346" y="-1477.3" font-family="Times,serif" font-size="14.00"> v5</text>
<text text-anchor="start" x="346" y="-1462.3" font-family="Times,serif" font-size="14.00"> v6</text>
<text text-anchor="start" x="346" y="-1447.3" font-family="Times,serif" font-size="14.00"> v7</text>
</g>
<!-- Node0x33dbb50&#45;&gt;Node0x2ea3160 -->
<g id="edge4" class="edge"><title>Node0x33dbb50&#45;&gt;Node0x2ea3160</title>
<path fill="none" stroke="black" d="M236.976,-1649.49C261.481,-1637.41 296.392,-1620.18 332.818,-1602.22"/>
<polygon fill="black" stroke="black" points="334.686,-1605.2 342.105,-1597.63 331.589,-1598.92 334.686,-1605.2"/>
<text text-anchor="middle" x="334.5" y="-1619.8" font-family="Times,serif" font-size="14.00">g10 == 0</text>
</g>
<!-- Node0x2f48750 -->
<g id="node6" class="node"><title>Node0x2f48750</title>
<polygon fill="none" stroke="black" points="1007.5,-23.5 1007.5,-59.5 1061.5,-59.5 1061.5,-23.5 1007.5,-23.5"/>
<text text-anchor="start" x="1015.5" y="-37.8" font-family="Times,serif" font-size="14.00">exit:</text>
</g>
<!-- Node0x34b4dd0&#45;&gt;Node0x2f48750 -->
<g id="edge5" class="edge"><title>Node0x34b4dd0&#45;&gt;Node0x2f48750</title>
<path fill="none" stroke="black" d="M34.5299,-1352.21C28.709,-1329.87 22.5,-1299.68 22.5,-1272.5 22.5,-1272.5 22.5,-1272.5 22.5,-145.5 22.5,-45.5042 814.622,-41.8238 997.254,-42.3042"/>
<polygon fill="black" stroke="black" points="997.42,-45.8046 1007.43,-42.3371 997.443,-38.8047 997.42,-45.8046"/>
</g>
<!-- Node0x300fb30 -->
<g id="node7" class="node"><title>Node0x300fb30</title>
<polygon fill="none" stroke="black" points="493.5,-1297.5 493.5,-1333.5 597.5,-1333.5 597.5,-1297.5 493.5,-1297.5"/>
<text text-anchor="start" x="501.5" y="-1311.8" font-family="Times,serif" font-size="14.00">if (v3 != &#45;1):</text>
</g>
<!-- Node0x2ea3160&#45;&gt;Node0x300fb30 -->
<g id="edge6" class="edge"><title>Node0x2ea3160&#45;&gt;Node0x300fb30</title>
<path fill="none" stroke="black" d="M518.027,-1439.21C525.594,-1405.41 533.951,-1368.09 539.438,-1343.58"/>
<polygon fill="black" stroke="black" points="542.904,-1344.12 541.673,-1333.59 536.073,-1342.59 542.904,-1344.12"/>
</g>
<!-- Node0x2eb94e0 -->
<g id="node8" class="node"><title>Node0x2eb94e0</title>
<polygon fill="none" stroke="black" points="509.5,-1152.5 509.5,-1188.5 581.5,-1188.5 581.5,-1152.5 509.5,-1152.5"/>
<text text-anchor="start" x="517.5" y="-1166.8" font-family="Times,serif" font-size="14.00">v4 = v3</text>
</g>
<!-- Node0x300fb30&#45;&gt;Node0x2eb94e0 -->
<g id="edge7" class="edge"><title>Node0x300fb30&#45;&gt;Node0x2eb94e0</title>
<path fill="none" stroke="black" d="M545.5,-1297.25C545.5,-1272.88 545.5,-1228.11 545.5,-1199.09"/>
<polygon fill="black" stroke="black" points="549,-1198.81 545.5,-1188.81 542,-1198.81 549,-1198.81"/>
<text text-anchor="middle" x="574.5" y="-1267.8" font-family="Times,serif" font-size="14.00">v3 != &#45;1</text>
</g>
<!-- Node0x2ee9be0 -->
<g id="node9" class="node"><title>Node0x2ee9be0</title>
<polygon fill="none" stroke="black" points="909,-1207.5 909,-1245.5 1266,-1245.5 1266,-1207.5 909,-1207.5"/>
<text text-anchor="start" x="917" y="-1230.3" font-family="Times,serif" font-size="14.00">0x40137f:</text>
<text text-anchor="start" x="917" y="-1215.3" font-family="Times,serif" font-size="14.00"> if (*(IntToPtrCastExpr&lt;ptr&gt;(4223516)) == 0):</text>
</g>
<!-- Node0x300fb30&#45;&gt;Node0x2ee9be0 -->
<g id="edge8" class="edge"><title>Node0x300fb30&#45;&gt;Node0x2ee9be0</title>
<path fill="none" stroke="black" d="M597.962,-1306.08C682.181,-1292.56 849.779,-1265.66 965.22,-1247.13"/>
<polygon fill="black" stroke="black" points="965.859,-1250.57 975.178,-1245.53 964.749,-1243.66 965.859,-1250.57"/>
<text text-anchor="middle" x="881.5" y="-1267.8" font-family="Times,serif" font-size="14.00">v3 == &#45;1</text>
</g>
<!-- Node0x2e10810 -->
<g id="node10" class="node"><title>Node0x2e10810</title>
<polygon fill="none" stroke="black" points="490.5,-728.5 490.5,-766.5 600.5,-766.5 600.5,-728.5 490.5,-728.5"/>
<text text-anchor="start" x="498.5" y="-751.3" font-family="Times,serif" font-size="14.00">0x401350:</text>
<text text-anchor="start" x="498.5" y="-736.3" font-family="Times,serif" font-size="14.00"> if (v4 == 0):</text>
</g>
<!-- Node0x2eb94e0&#45;&gt;Node0x2e10810 -->
<g id="edge9" class="edge"><title>Node0x2eb94e0&#45;&gt;Node0x2e10810</title>
<path fill="none" stroke="black" d="M545.5,-1152.47C545.5,-1087.98 545.5,-858.206 545.5,-777.101"/>
<polygon fill="black" stroke="black" points="549,-776.676 545.5,-766.676 542,-776.676 549,-776.676"/>
</g>
<!-- Node0x32c2120 -->
<g id="node11" class="node"><title>Node0x32c2120</title>
<polygon fill="none" stroke="black" points="876.5,-918.5 876.5,-1016.5 1314.5,-1016.5 1314.5,-918.5 876.5,-918.5"/>
<text text-anchor="start" x="884.5" y="-1001.3" font-family="Times,serif" font-size="14.00">0x401368:</text>
<text text-anchor="start" x="884.5" y="-986.3" font-family="Times,serif" font-size="14.00"> atexit_rc = atexit(BitCastExpr&lt;ptr&gt;(___do_global_dtors))</text>
<text text-anchor="start" x="884.5" y="-971.3" font-family="Times,serif" font-size="14.00"> g1 = atexit_rc</text>
<text text-anchor="start" x="884.5" y="-956.3" font-family="Times,serif" font-size="14.00"> g3 = v2</text>
<text text-anchor="start" x="884.5" y="-941.3" font-family="Times,serif" font-size="14.00"> g7 = v1</text>
<text text-anchor="start" x="884.5" y="-926.3" font-family="Times,serif" font-size="14.00"> return atexit_rc</text>
</g>
<!-- Node0x2ee9be0&#45;&gt;Node0x32c2120 -->
<g id="edge10" class="edge"><title>Node0x2ee9be0&#45;&gt;Node0x32c2120</title>
<path fill="none" stroke="black" d="M1085.71,-1207.32C1085.21,-1201.48 1084.74,-1194.97 1084.5,-1189 1083.83,-1172.57 1084.01,-1168.44 1084.5,-1152 1085.75,-1110.19 1088.61,-1063.09 1091.09,-1027.08"/>
<polygon fill="black" stroke="black" points="1094.61,-1026.98 1091.82,-1016.76 1087.62,-1026.49 1094.61,-1026.98"/>
<text text-anchor="middle" x="1238" y="-1166.8" font-family="Times,serif" font-size="14.00">*(IntToPtrCastExpr&lt;ptr&gt;(4223516)) == 0</text>
</g>
<!-- Node0x3115250 -->
<g id="node12" class="node"><title>Node0x3115250</title>
<polygon fill="none" stroke="black" points="1208.5,-1035.5 1208.5,-1133.5 1626.5,-1133.5 1626.5,-1035.5 1208.5,-1035.5"/>
<text text-anchor="start" x="1216.5" y="-1118.3" font-family="Times,serif" font-size="14.00">v8 = 1</text>
<text text-anchor="start" x="1216.5" y="-1103.3" font-family="Times,serif" font-size="14.00"> g3 = v8</text>
<text text-anchor="start" x="1216.5" y="-1088.3" font-family="Times,serif" font-size="14.00"> v9 = (v8 + 1)</text>
<text text-anchor="start" x="1216.5" y="-1073.3" font-family="Times,serif" font-size="14.00"> g1 = v9</text>
<text text-anchor="start" x="1216.5" y="-1058.3" font-family="Times,serif" font-size="14.00"> v10 = *(IntToPtrCastExpr&lt;ptr&gt;(((4 * v9) + 4223512)))</text>
<text text-anchor="start" x="1216.5" y="-1043.3" font-family="Times,serif" font-size="14.00"> v4 = v8</text>
</g>
<!-- Node0x2ee9be0&#45;&gt;Node0x3115250 -->
<g id="edge11" class="edge"><title>Node0x2ee9be0&#45;&gt;Node0x3115250</title>
<path fill="none" stroke="black" d="M1266.17,-1221.83C1322.46,-1217.02 1375.26,-1207.46 1395.5,-1189 1408.09,-1177.52 1414.44,-1160.77 1417.43,-1144.08"/>
<polygon fill="black" stroke="black" points="1420.95,-1144.13 1418.87,-1133.74 1414.02,-1143.16 1420.95,-1144.13"/>
<text text-anchor="middle" x="1566" y="-1166.8" font-family="Times,serif" font-size="14.00">*(IntToPtrCastExpr&lt;ptr&gt;(4223516)) != 0</text>
</g>
<!-- Node0x2e8d5d0 -->
<g id="node13" class="node"><title>Node0x2e8d5d0</title>
<polygon fill="none" stroke="black" points="37.5,-214.5 37.5,-312.5 475.5,-312.5 475.5,-214.5 37.5,-214.5"/>
<text text-anchor="start" x="45.5" y="-297.3" font-family="Times,serif" font-size="14.00">0x401368:</text>
<text text-anchor="start" x="45.5" y="-282.3" font-family="Times,serif" font-size="14.00"> atexit_rc = atexit(BitCastExpr&lt;ptr&gt;(___do_global_dtors))</text>
<text text-anchor="start" x="45.5" y="-267.3" font-family="Times,serif" font-size="14.00"> g1 = atexit_rc</text>
<text text-anchor="start" x="45.5" y="-252.3" font-family="Times,serif" font-size="14.00"> g3 = v2</text>
<text text-anchor="start" x="45.5" y="-237.3" font-family="Times,serif" font-size="14.00"> g7 = v1</text>
<text text-anchor="start" x="45.5" y="-222.3" font-family="Times,serif" font-size="14.00"> return atexit_rc</text>
</g>
<!-- Node0x2e10810&#45;&gt;Node0x2e8d5d0 -->
<g id="edge12" class="edge"><title>Node0x2e10810&#45;&gt;Node0x2e8d5d0</title>
<path fill="none" stroke="black" d="M490.346,-740.509C426.328,-730.323 323.2,-703.217 273.5,-632 209.222,-539.893 225.231,-400.914 241.555,-322.922"/>
<polygon fill="black" stroke="black" points="245.052,-323.31 243.749,-312.796 238.211,-321.828 245.052,-323.31"/>
<text text-anchor="middle" x="303.5" y="-563.8" font-family="Times,serif" font-size="14.00">v4 == 0</text>
</g>
<!-- Node0x30066c0 -->
<g id="node14" class="node"><title>Node0x30066c0</title>
<polygon fill="none" stroke="black" points="342.5,-503.5 342.5,-631.5 776.5,-631.5 776.5,-503.5 342.5,-503.5"/>
<text text-anchor="start" x="350.5" y="-616.3" font-family="Times,serif" font-size="14.00">0x401354:</text>
<text text-anchor="start" x="350.5" y="-601.3" font-family="Times,serif" font-size="14.00"> v6 = ((4 * v4) + 4223512)</text>
<text text-anchor="start" x="350.5" y="-586.3" font-family="Times,serif" font-size="14.00"> g7 = v6</text>
<text text-anchor="start" x="350.5" y="-571.3" font-family="Times,serif" font-size="14.00"> IntToPtrCastExpr&lt;ptr&gt;(*(IntToPtrCastExpr&lt;ptr&gt;(v6)))()</text>
<text text-anchor="start" x="350.5" y="-556.3" font-family="Times,serif" font-size="14.00"> v7 = (g7 &#45; 4)</text>
<text text-anchor="start" x="350.5" y="-541.3" font-family="Times,serif" font-size="14.00"> g7 = v7</text>
<text text-anchor="start" x="350.5" y="-526.3" font-family="Times,serif" font-size="14.00"> v5 = (g3 &#45; 1)</text>
<text text-anchor="start" x="350.5" y="-511.3" font-family="Times,serif" font-size="14.00"> g3 = v5</text>
</g>
<!-- Node0x2e10810&#45;&gt;Node0x30066c0 -->
<g id="edge13" class="edge"><title>Node0x2e10810&#45;&gt;Node0x30066c0</title>
<path fill="none" stroke="black" d="M546.919,-728.453C548.525,-708.036 551.243,-673.483 553.742,-641.705"/>
<polygon fill="black" stroke="black" points="557.249,-641.75 554.544,-631.507 550.271,-641.201 557.249,-641.75"/>
<text text-anchor="middle" x="580.5" y="-653.8" font-family="Times,serif" font-size="14.00">v4 != 0</text>
</g>
<!-- Node0x32c2120&#45;&gt;Node0x2f48750 -->
<g id="edge14" class="edge"><title>Node0x32c2120&#45;&gt;Node0x2f48750</title>
<path fill="none" stroke="black" d="M1099.39,-918.213C1101,-894.256 1102.5,-864.873 1102.5,-838.5 1102.5,-838.5 1102.5,-838.5 1102.5,-145.5 1102.5,-114.666 1081.01,-85.9521 1062.2,-66.7169"/>
<polygon fill="black" stroke="black" points="1064.5,-64.0693 1054.9,-59.5752 1059.6,-69.0716 1064.5,-64.0693"/>
</g>
<!-- Node0x2fffd50 -->
<g id="node15" class="node"><title>Node0x2fffd50</title>
<polygon fill="none" stroke="black" points="1349,-863.5 1349,-899.5 1486,-899.5 1486,-863.5 1349,-863.5"/>
<text text-anchor="start" x="1357" y="-877.8" font-family="Times,serif" font-size="14.00">while (v10 != 0):</text>
</g>
<!-- Node0x3115250&#45;&gt;Node0x2fffd50 -->
<g id="edge15" class="edge"><title>Node0x3115250&#45;&gt;Node0x2fffd50</title>
<path fill="none" stroke="black" d="M1417.5,-1035.36C1417.5,-996.122 1417.5,-942.119 1417.5,-909.915"/>
<polygon fill="black" stroke="black" points="1421,-909.882 1417.5,-899.882 1414,-909.882 1421,-909.882"/>
</g>
<!-- Node0x2e8d5d0&#45;&gt;Node0x2f48750 -->
<g id="edge16" class="edge"><title>Node0x2e8d5d0&#45;&gt;Node0x2f48750</title>
<path fill="none" stroke="black" d="M187.459,-214.415C182.727,-208.726 178.611,-202.579 175.5,-196 156.691,-156.223 145.388,-129.083 175.5,-97 204.022,-66.6111 835.36,-47.7941 997.048,-43.4621"/>
<polygon fill="black" stroke="black" points="997.533,-46.9506 1007.44,-43.1865 997.347,-39.953 997.533,-46.9506"/>
</g>
<!-- Node0x2dec830 -->
<g id="node16" class="node"><title>Node0x2dec830</title>
<polygon fill="none" stroke="black" points="502.5,-331.5 502.5,-367.5 630.5,-367.5 630.5,-331.5 502.5,-331.5"/>
<text text-anchor="start" x="510.5" y="-345.8" font-family="Times,serif" font-size="14.00">while (v5 != 0):</text>
</g>
<!-- Node0x30066c0&#45;&gt;Node0x2dec830 -->
<g id="edge17" class="edge"><title>Node0x30066c0&#45;&gt;Node0x2dec830</title>
<path fill="none" stroke="black" d="M561.544,-503.443C562.894,-461.784 564.596,-409.265 565.613,-377.866"/>
<polygon fill="black" stroke="black" points="569.117,-377.802 565.943,-367.693 562.121,-377.575 569.117,-377.802"/>
</g>
<!-- Node0x2e81750 -->
<g id="node17" class="node"><title>Node0x2e81750</title>
<polygon fill="none" stroke="black" points="1130.5,-683.5 1130.5,-811.5 1548.5,-811.5 1548.5,-683.5 1130.5,-683.5"/>
<text text-anchor="start" x="1138.5" y="-796.3" font-family="Times,serif" font-size="14.00">0x401383:</text>
<text text-anchor="start" x="1138.5" y="-781.3" font-family="Times,serif" font-size="14.00"> g6 = v10</text>
<text text-anchor="start" x="1138.5" y="-766.3" font-family="Times,serif" font-size="14.00"> v8 = v9</text>
<text text-anchor="start" x="1138.5" y="-751.3" font-family="Times,serif" font-size="14.00"> g3 = v8</text>
<text text-anchor="start" x="1138.5" y="-736.3" font-family="Times,serif" font-size="14.00"> v9 = (v8 + 1)</text>
<text text-anchor="start" x="1138.5" y="-721.3" font-family="Times,serif" font-size="14.00"> g1 = v9</text>
<text text-anchor="start" x="1138.5" y="-706.3" font-family="Times,serif" font-size="14.00"> v10 = *(IntToPtrCastExpr&lt;ptr&gt;(((4 * v9) + 4223512)))</text>
<text text-anchor="start" x="1138.5" y="-691.3" font-family="Times,serif" font-size="14.00"> v4 = v8</text>
</g>
<!-- Node0x2fffd50&#45;&gt;Node0x2e81750 -->
<g id="edge18" class="edge"><title>Node0x2fffd50&#45;&gt;Node0x2e81750</title>
<path fill="none" stroke="black" d="M1360.41,-863.437C1352.53,-858.694 1345.46,-852.661 1340.5,-845 1335.97,-838.001 1333.16,-830.076 1331.58,-821.851"/>
<polygon fill="black" stroke="black" points="1335.02,-821.157 1330.22,-811.709 1328.08,-822.085 1335.02,-821.157"/>
<text text-anchor="middle" x="1372" y="-833.8" font-family="Times,serif" font-size="14.00">v10 != 0</text>
</g>
<!-- Node0x3549770 -->
<g id="node18" class="node"><title>Node0x3549770</title>
<polygon fill="none" stroke="black" points="1566.5,-728.5 1566.5,-766.5 1676.5,-766.5 1676.5,-728.5 1566.5,-728.5"/>
<text text-anchor="start" x="1574.5" y="-751.3" font-family="Times,serif" font-size="14.00">0x401350:</text>
<text text-anchor="start" x="1574.5" y="-736.3" font-family="Times,serif" font-size="14.00"> if (v4 == 0):</text>
</g>
<!-- Node0x2fffd50&#45;&gt;Node0x3549770 -->
<g id="edge19" class="edge"><title>Node0x2fffd50&#45;&gt;Node0x3549770</title>
<path fill="none" stroke="black" d="M1461.5,-863.382C1490.15,-851.197 1527.62,-833.252 1557.5,-812 1572.82,-801.106 1587.84,-786.461 1599.49,-773.981"/>
<polygon fill="black" stroke="black" points="1602.12,-776.29 1606.27,-766.543 1596.94,-771.573 1602.12,-776.29"/>
<text text-anchor="middle" x="1563" y="-833.8" font-family="Times,serif" font-size="14.00">v10 == 0</text>
</g>
<!-- Node0x2e80d90 -->
<g id="node19" class="node"><title>Node0x2e80d90</title>
<polygon fill="none" stroke="black" points="184.5,-97.5 184.5,-195.5 618.5,-195.5 618.5,-97.5 184.5,-97.5"/>
<text text-anchor="start" x="192.5" y="-180.3" font-family="Times,serif" font-size="14.00">0x401360:</text>
<text text-anchor="start" x="192.5" y="-165.3" font-family="Times,serif" font-size="14.00"> IntToPtrCastExpr&lt;ptr&gt;(*(IntToPtrCastExpr&lt;ptr&gt;(v7)))()</text>
<text text-anchor="start" x="192.5" y="-150.3" font-family="Times,serif" font-size="14.00"> v7 = (g7 &#45; 4)</text>
<text text-anchor="start" x="192.5" y="-135.3" font-family="Times,serif" font-size="14.00"> g7 = v7</text>
<text text-anchor="start" x="192.5" y="-120.3" font-family="Times,serif" font-size="14.00"> v5 = (g3 &#45; 1)</text>
<text text-anchor="start" x="192.5" y="-105.3" font-family="Times,serif" font-size="14.00"> g3 = v5</text>
</g>
<!-- Node0x2dec830&#45;&gt;Node0x2e80d90 -->
<g id="edge20" class="edge"><title>Node0x2dec830&#45;&gt;Node0x2e80d90</title>
<path fill="none" stroke="black" d="M521.377,-331.486C513.109,-326.605 505.28,-320.511 499.5,-313 471.95,-277.202 499.602,-252.818 476.5,-214 474.347,-210.383 471.932,-206.856 469.323,-203.434"/>
<polygon fill="black" stroke="black" points="471.972,-201.145 462.915,-195.647 466.567,-205.593 471.972,-201.145"/>
<text text-anchor="middle" x="526.5" y="-259.8" font-family="Times,serif" font-size="14.00">v5 != 0</text>
</g>
<!-- Node0x2c62130 -->
<g id="node20" class="node"><title>Node0x2c62130</title>
<polygon fill="none" stroke="black" points="636.5,-97.5 636.5,-195.5 1074.5,-195.5 1074.5,-97.5 636.5,-97.5"/>
<text text-anchor="start" x="644.5" y="-180.3" font-family="Times,serif" font-size="14.00">0x401368:</text>
<text text-anchor="start" x="644.5" y="-165.3" font-family="Times,serif" font-size="14.00"> atexit_rc = atexit(BitCastExpr&lt;ptr&gt;(___do_global_dtors))</text>
<text text-anchor="start" x="644.5" y="-150.3" font-family="Times,serif" font-size="14.00"> g1 = atexit_rc</text>
<text text-anchor="start" x="644.5" y="-135.3" font-family="Times,serif" font-size="14.00"> g3 = v2</text>
<text text-anchor="start" x="644.5" y="-120.3" font-family="Times,serif" font-size="14.00"> g7 = v1</text>
<text text-anchor="start" x="644.5" y="-105.3" font-family="Times,serif" font-size="14.00"> return atexit_rc</text>
</g>
<!-- Node0x2dec830&#45;&gt;Node0x2c62130 -->
<g id="edge21" class="edge"><title>Node0x2dec830&#45;&gt;Node0x2c62130</title>
<path fill="none" stroke="black" d="M591.14,-331.363C632.094,-302.879 715.829,-244.641 778.143,-201.302"/>
<polygon fill="black" stroke="black" points="780.19,-204.142 786.401,-195.559 776.193,-198.395 780.19,-204.142"/>
<text text-anchor="middle" x="784.5" y="-259.8" font-family="Times,serif" font-size="14.00">v5 == 0</text>
</g>
<!-- Node0x2e81750&#45;&gt;Node0x2fffd50 -->
<g id="edge22" class="edge"><title>Node0x2e81750&#45;&gt;Node0x2fffd50</title>
<path fill="none" stroke="black" d="M1392.98,-811.873C1396.84,-817.813 1400.42,-823.899 1403.5,-830 1407.15,-837.226 1409.96,-845.532 1412.06,-853.293"/>
<polygon fill="black" stroke="black" points="1408.67,-854.158 1414.44,-863.045 1415.47,-852.5 1408.67,-854.158"/>
</g>
<!-- Node0x31e2f70 -->
<g id="node21" class="node"><title>Node0x31e2f70</title>
<polygon fill="none" stroke="black" points="1122.5,-386.5 1122.5,-484.5 1560.5,-484.5 1560.5,-386.5 1122.5,-386.5"/>
<text text-anchor="start" x="1130.5" y="-469.3" font-family="Times,serif" font-size="14.00">0x401368:</text>
<text text-anchor="start" x="1130.5" y="-454.3" font-family="Times,serif" font-size="14.00"> atexit_rc = atexit(BitCastExpr&lt;ptr&gt;(___do_global_dtors))</text>
<text text-anchor="start" x="1130.5" y="-439.3" font-family="Times,serif" font-size="14.00"> g1 = atexit_rc</text>
<text text-anchor="start" x="1130.5" y="-424.3" font-family="Times,serif" font-size="14.00"> g3 = v2</text>
<text text-anchor="start" x="1130.5" y="-409.3" font-family="Times,serif" font-size="14.00"> g7 = v1</text>
<text text-anchor="start" x="1130.5" y="-394.3" font-family="Times,serif" font-size="14.00"> return atexit_rc</text>
</g>
<!-- Node0x3549770&#45;&gt;Node0x31e2f70 -->
<g id="edge23" class="edge"><title>Node0x3549770&#45;&gt;Node0x31e2f70</title>
<path fill="none" stroke="black" d="M1607.6,-728.411C1595.73,-714.147 1577.46,-694.761 1557.5,-683 1487.7,-641.869 1437.54,-691.443 1382.5,-632 1348.47,-595.25 1339.79,-537.745 1338.68,-494.598"/>
<polygon fill="black" stroke="black" points="1342.18,-494.471 1338.55,-484.516 1335.18,-494.56 1342.18,-494.471"/>
<text text-anchor="middle" x="1526.5" y="-653.8" font-family="Times,serif" font-size="14.00">v4 == 0</text>
</g>
<!-- Node0x31b6e50 -->
<g id="node22" class="node"><title>Node0x31b6e50</title>
<polygon fill="none" stroke="black" points="1391.5,-503.5 1391.5,-631.5 1825.5,-631.5 1825.5,-503.5 1391.5,-503.5"/>
<text text-anchor="start" x="1399.5" y="-616.3" font-family="Times,serif" font-size="14.00">0x401354:</text>
<text text-anchor="start" x="1399.5" y="-601.3" font-family="Times,serif" font-size="14.00"> v6 = ((4 * v4) + 4223512)</text>
<text text-anchor="start" x="1399.5" y="-586.3" font-family="Times,serif" font-size="14.00"> g7 = v6</text>
<text text-anchor="start" x="1399.5" y="-571.3" font-family="Times,serif" font-size="14.00"> IntToPtrCastExpr&lt;ptr&gt;(*(IntToPtrCastExpr&lt;ptr&gt;(v6)))()</text>
<text text-anchor="start" x="1399.5" y="-556.3" font-family="Times,serif" font-size="14.00"> v7 = (g7 &#45; 4)</text>
<text text-anchor="start" x="1399.5" y="-541.3" font-family="Times,serif" font-size="14.00"> g7 = v7</text>
<text text-anchor="start" x="1399.5" y="-526.3" font-family="Times,serif" font-size="14.00"> v5 = (g3 &#45; 1)</text>
<text text-anchor="start" x="1399.5" y="-511.3" font-family="Times,serif" font-size="14.00"> g3 = v5</text>
</g>
<!-- Node0x3549770&#45;&gt;Node0x31b6e50 -->
<g id="edge24" class="edge"><title>Node0x3549770&#45;&gt;Node0x31b6e50</title>
<path fill="none" stroke="black" d="M1620.18,-728.453C1618.69,-708.036 1616.17,-673.483 1613.85,-641.705"/>
<polygon fill="black" stroke="black" points="1617.32,-641.225 1613.1,-631.507 1610.34,-641.735 1617.32,-641.225"/>
<text text-anchor="middle" x="1641.5" y="-653.8" font-family="Times,serif" font-size="14.00">v4 != 0</text>
</g>
<!-- Node0x2e80d90&#45;&gt;Node0x2dec830 -->
<g id="edge25" class="edge"><title>Node0x2e80d90&#45;&gt;Node0x2dec830</title>
<path fill="none" stroke="black" d="M536.524,-195.682C542.854,-201.154 548.597,-207.238 553.5,-214 576.19,-245.293 575.058,-292.02 571.369,-321.351"/>
<polygon fill="black" stroke="black" points="567.896,-320.912 569.934,-331.309 574.825,-321.911 567.896,-320.912"/>
</g>
<!-- Node0x2c62130&#45;&gt;Node0x2f48750 -->
<g id="edge26" class="edge"><title>Node0x2c62130&#45;&gt;Node0x2f48750</title>
<path fill="none" stroke="black" d="M938.973,-97.4679C959.737,-85.52 980.935,-73.322 998.071,-63.462"/>
<polygon fill="black" stroke="black" points="1000.22,-66.2622 1007.14,-58.2411 996.731,-60.195 1000.22,-66.2622"/>
</g>
<!-- Node0x31e2f70&#45;&gt;Node0x2f48750 -->
<g id="edge27" class="edge"><title>Node0x31e2f70&#45;&gt;Node0x2f48750</title>
<path fill="none" stroke="black" d="M1315.8,-386.354C1268.97,-299.996 1169.66,-123.523 1116.5,-78 1103.55,-66.9084 1086.6,-58.7967 1071.48,-53.1509"/>
<polygon fill="black" stroke="black" points="1072.46,-49.7859 1061.86,-49.7904 1070.15,-56.3939 1072.46,-49.7859"/>
</g>
<!-- Node0x34ebaa0 -->
<g id="node23" class="node"><title>Node0x34ebaa0</title>
<polygon fill="none" stroke="black" points="1509.5,-331.5 1509.5,-367.5 1637.5,-367.5 1637.5,-331.5 1509.5,-331.5"/>
<text text-anchor="start" x="1517.5" y="-345.8" font-family="Times,serif" font-size="14.00">while (v5 != 0):</text>
</g>
<!-- Node0x31b6e50&#45;&gt;Node0x34ebaa0 -->
<g id="edge28" class="edge"><title>Node0x31b6e50&#45;&gt;Node0x34ebaa0</title>
<path fill="none" stroke="black" d="M1598.28,-503.443C1591.53,-461.784 1583.02,-409.265 1577.93,-377.866"/>
<polygon fill="black" stroke="black" points="1581.34,-377.005 1576.29,-367.693 1574.43,-378.124 1581.34,-377.005"/>
</g>
<!-- Node0x3025dc0 -->
<g id="node24" class="node"><title>Node0x3025dc0</title>
<polygon fill="none" stroke="black" points="1223.5,-97.5 1223.5,-195.5 1657.5,-195.5 1657.5,-97.5 1223.5,-97.5"/>
<text text-anchor="start" x="1231.5" y="-180.3" font-family="Times,serif" font-size="14.00">0x401360:</text>
<text text-anchor="start" x="1231.5" y="-165.3" font-family="Times,serif" font-size="14.00"> IntToPtrCastExpr&lt;ptr&gt;(*(IntToPtrCastExpr&lt;ptr&gt;(v7)))()</text>
<text text-anchor="start" x="1231.5" y="-150.3" font-family="Times,serif" font-size="14.00"> v7 = (g7 &#45; 4)</text>
<text text-anchor="start" x="1231.5" y="-135.3" font-family="Times,serif" font-size="14.00"> g7 = v7</text>
<text text-anchor="start" x="1231.5" y="-120.3" font-family="Times,serif" font-size="14.00"> v5 = (g3 &#45; 1)</text>
<text text-anchor="start" x="1231.5" y="-105.3" font-family="Times,serif" font-size="14.00"> g3 = v5</text>
</g>
<!-- Node0x34ebaa0&#45;&gt;Node0x3025dc0 -->
<g id="edge29" class="edge"><title>Node0x34ebaa0&#45;&gt;Node0x3025dc0</title>
<path fill="none" stroke="black" d="M1509.32,-343.507C1488.81,-338.622 1467.96,-329.561 1454.5,-313 1430.49,-283.473 1427.52,-240.406 1430.27,-205.607"/>
<polygon fill="black" stroke="black" points="1433.76,-205.854 1431.24,-195.564 1426.79,-205.182 1433.76,-205.854"/>
<text text-anchor="middle" x="1481.5" y="-259.8" font-family="Times,serif" font-size="14.00">v5 != 0</text>
</g>
<!-- Node0x2c615b0 -->
<g id="node25" class="node"><title>Node0x2c615b0</title>
<polygon fill="none" stroke="black" points="1675.5,-97.5 1675.5,-195.5 2113.5,-195.5 2113.5,-97.5 1675.5,-97.5"/>
<text text-anchor="start" x="1683.5" y="-180.3" font-family="Times,serif" font-size="14.00">0x401368:</text>
<text text-anchor="start" x="1683.5" y="-165.3" font-family="Times,serif" font-size="14.00"> atexit_rc = atexit(BitCastExpr&lt;ptr&gt;(___do_global_dtors))</text>
<text text-anchor="start" x="1683.5" y="-150.3" font-family="Times,serif" font-size="14.00"> g1 = atexit_rc</text>
<text text-anchor="start" x="1683.5" y="-135.3" font-family="Times,serif" font-size="14.00"> g3 = v2</text>
<text text-anchor="start" x="1683.5" y="-120.3" font-family="Times,serif" font-size="14.00"> g7 = v1</text>
<text text-anchor="start" x="1683.5" y="-105.3" font-family="Times,serif" font-size="14.00"> return atexit_rc</text>
</g>
<!-- Node0x34ebaa0&#45;&gt;Node0x2c615b0 -->
<g id="edge30" class="edge"><title>Node0x34ebaa0&#45;&gt;Node0x2c615b0</title>
<path fill="none" stroke="black" d="M1600.87,-331.363C1646.45,-302.821 1739.74,-244.404 1809,-201.037"/>
<polygon fill="black" stroke="black" points="1811.13,-203.832 1817.75,-195.559 1807.42,-197.899 1811.13,-203.832"/>
<text text-anchor="middle" x="1811.5" y="-259.8" font-family="Times,serif" font-size="14.00">v5 == 0</text>
</g>
<!-- Node0x3025dc0&#45;&gt;Node0x34ebaa0 -->
<g id="edge31" class="edge"><title>Node0x3025dc0&#45;&gt;Node0x34ebaa0</title>
<path fill="none" stroke="black" d="M1493.75,-195.88C1499.03,-201.735 1504.07,-207.833 1508.5,-214 1533.18,-248.319 1552.78,-293.457 1563.77,-321.726"/>
<polygon fill="black" stroke="black" points="1560.59,-323.225 1567.42,-331.327 1567.13,-320.736 1560.59,-323.225"/>
</g>
<!-- Node0x2c615b0&#45;&gt;Node0x2f48750 -->
<g id="edge32" class="edge"><title>Node0x2c615b0&#45;&gt;Node0x2f48750</title>
<path fill="none" stroke="black" d="M1675.26,-98.3384C1672.32,-97.8786 1669.4,-97.4321 1666.5,-97 1442.11,-63.5901 1169.63,-48.6598 1071.74,-44.1017"/>
<polygon fill="black" stroke="black" points="1071.89,-40.6053 1061.74,-43.6444 1071.57,-47.598 1071.89,-40.6053"/>
</g>
</g>
</svg>
