<?xml version="1.0" encoding="UTF-8" standalone="no"?>
<!DOCTYPE svg PUBLIC "-//W3C//DTD SVG 1.1//EN"
 "http://www.w3.org/Graphics/SVG/1.1/DTD/svg11.dtd">
<!-- Generated by graphviz version 2.38.0 (20140413.2041)
 -->
<!-- Title: Control&#45;flow graph for function &#39;___pformat_emit_radix_point(a1)&#39;. Pages: 1 -->
<svg width="1544pt" height="1673pt"
 viewBox="0.00 0.00 1544.00 1673.00" xmlns="http://www.w3.org/2000/svg" xmlns:xlink="http://www.w3.org/1999/xlink">
<g id="graph0" class="graph" transform="scale(1 1) rotate(0) translate(4 1669)">
<title>Control&#45;flow graph for function &#39;___pformat_emit_radix_point(a1)&#39;.</title>
<polygon fill="white" stroke="none" points="-4,4 -4,-1669 1540,-1669 1540,4 -4,4"/>
<text text-anchor="middle" x="768" y="-7.8" font-family="Times,serif" font-size="14.00">Control&#45;flow graph for function &#39;___pformat_emit_radix_point(a1)&#39;.</text>
<!-- Node0x3051010 -->
<g id="node1" class="node"><title>Node0x3051010</title>
<polygon fill="none" stroke="black" points="587.5,-1626.5 587.5,-1664.5 646.5,-1664.5 646.5,-1626.5 587.5,-1626.5"/>
<text text-anchor="start" x="595.5" y="-1649.3" font-family="Times,serif" font-size="14.00">entry:</text>
<text text-anchor="start" x="595.5" y="-1634.3" font-family="Times,serif" font-size="14.00"> a1</text>
</g>
<!-- Node0x33353e0 -->
<g id="node2" class="node"><title>Node0x33353e0</title>
<polygon fill="none" stroke="black" points="578.5,-1535.5 578.5,-1588.5 655.5,-1588.5 655.5,-1535.5 578.5,-1535.5"/>
<text text-anchor="start" x="586.5" y="-1573.3" font-family="Times,serif" font-size="14.00">v1 = g1</text>
<text text-anchor="start" x="586.5" y="-1558.3" font-family="Times,serif" font-size="14.00"> v2 = v1</text>
<text text-anchor="start" x="586.5" y="-1543.3" font-family="Times,serif" font-size="14.00"> ps</text>
</g>
<!-- Node0x3051010&#45;&gt;Node0x33353e0 -->
<g id="edge1" class="edge"><title>Node0x3051010&#45;&gt;Node0x33353e0</title>
<path fill="none" stroke="black" d="M617,-1626.41C617,-1618.28 617,-1608.39 617,-1598.86"/>
<polygon fill="black" stroke="black" points="620.5,-1598.77 617,-1588.77 613.5,-1598.77 620.5,-1598.77"/>
</g>
<!-- Node0x2ebb970 -->
<g id="node3" class="node"><title>Node0x2ebb970</title>
<polygon fill="none" stroke="black" points="436.5,-1461.5 436.5,-1497.5 797.5,-1497.5 797.5,-1461.5 436.5,-1461.5"/>
<text text-anchor="start" x="444.5" y="-1475.8" font-family="Times,serif" font-size="14.00">if (*(IntToPtrCastExpr&lt;ptr&gt;((v1 + 16))) == &#45;3):</text>
</g>
<!-- Node0x33353e0&#45;&gt;Node0x2ebb970 -->
<g id="edge2" class="edge"><title>Node0x33353e0&#45;&gt;Node0x2ebb970</title>
<path fill="none" stroke="black" d="M617,-1535.09C617,-1526.46 617,-1516.82 617,-1508.07"/>
<polygon fill="black" stroke="black" points="620.5,-1507.97 617,-1497.97 613.5,-1507.97 620.5,-1507.97"/>
</g>
<!-- Node0x2ceb7c0 -->
<g id="node4" class="node"><title>Node0x2ceb7c0</title>
<polygon fill="none" stroke="black" points="0,-1326.5 0,-1409.5 776,-1409.5 776,-1326.5 0,-1326.5"/>
<text text-anchor="start" x="8" y="-1394.3" font-family="Times,serif" font-size="14.00">0x402ac2:</text>
<text text-anchor="start" x="8" y="-1379.3" font-family="Times,serif" font-size="14.00"> ps = 0</text>
<text text-anchor="start" x="8" y="-1364.3" font-family="Times,serif" font-size="14.00"> wstr = *(BitCastExpr&lt;ptr&gt;(localeconv()))</text>
<text text-anchor="start" x="8" y="-1349.3" font-family="Times,serif" font-size="14.00"> pwc</text>
<text text-anchor="start" x="8" y="-1334.3" font-family="Times,serif" font-size="14.00"> v3 = mbrtowc(BitCastExpr&lt;ptr&gt;(&amp;(pwc)), IntToPtrCastExpr&lt;ptr&gt;(wstr), 16, BitCastExpr&lt;ptr&gt;(&amp;(ps)))</text>
</g>
<!-- Node0x2ebb970&#45;&gt;Node0x2ceb7c0 -->
<g id="edge3" class="edge"><title>Node0x2ebb970&#45;&gt;Node0x2ceb7c0</title>
<path fill="none" stroke="black" d="M521.643,-1461.45C505.261,-1456.68 488.772,-1450.63 474,-1443 460.363,-1435.95 447.059,-1426.34 435.15,-1416.37"/>
<polygon fill="black" stroke="black" points="437.391,-1413.69 427.535,-1409.8 432.816,-1418.98 437.391,-1413.69"/>
<text text-anchor="middle" x="632" y="-1431.8" font-family="Times,serif" font-size="14.00">*(IntToPtrCastExpr&lt;ptr&gt;((v1 + 16))) == &#45;3</text>
</g>
<!-- Node0x2d836d0 -->
<g id="node5" class="node"><title>Node0x2d836d0</title>
<polygon fill="none" stroke="black" points="704,-980.5 704,-1033.5 796,-1033.5 796,-980.5 704,-980.5"/>
<text text-anchor="start" x="712" y="-1018.3" font-family="Times,serif" font-size="14.00">0x402a35:</text>
<text text-anchor="start" x="712" y="-1003.3" font-family="Times,serif" font-size="14.00"> v4</text>
<text text-anchor="start" x="712" y="-988.3" font-family="Times,serif" font-size="14.00"> v5</text>
</g>
<!-- Node0x2ebb970&#45;&gt;Node0x2d836d0 -->
<g id="edge4" class="edge"><title>Node0x2ebb970&#45;&gt;Node0x2d836d0</title>
<path fill="none" stroke="black" d="M747.191,-1461.41C766.589,-1456.59 782.578,-1450.54 790,-1443 813.485,-1419.15 804,-1402.47 804,-1369 804,-1369 804,-1369 804,-1097 804,-1076.87 793.779,-1057.41 782.231,-1041.85"/>
<polygon fill="black" stroke="black" points="784.679,-1039.3 775.735,-1033.62 779.186,-1043.64 784.679,-1039.3"/>
<text text-anchor="middle" x="959" y="-1222.8" font-family="Times,serif" font-size="14.00">*(IntToPtrCastExpr&lt;ptr&gt;((v1 + 16))) != &#45;3</text>
</g>
<!-- Node0x312a280 -->
<g id="node6" class="node"><title>Node0x312a280</title>
<polygon fill="none" stroke="black" points="335.5,-1252.5 335.5,-1288.5 440.5,-1288.5 440.5,-1252.5 335.5,-1252.5"/>
<text text-anchor="start" x="343.5" y="-1266.8" font-family="Times,serif" font-size="14.00">if (v3 &gt;= 1):</text>
</g>
<!-- Node0x2ceb7c0&#45;&gt;Node0x312a280 -->
<g id="edge5" class="edge"><title>Node0x2ceb7c0&#45;&gt;Node0x312a280</title>
<path fill="none" stroke="black" d="M388,-1326.5C388,-1317.21 388,-1307.54 388,-1298.95"/>
<polygon fill="black" stroke="black" points="391.5,-1298.75 388,-1288.75 384.5,-1298.75 391.5,-1298.75"/>
</g>
<!-- Node0x30a5350 -->
<g id="node7" class="node"><title>Node0x30a5350</title>
<polygon fill="none" stroke="black" points="572,-906.5 572,-942.5 928,-942.5 928,-906.5 572,-906.5"/>
<text text-anchor="start" x="580" y="-920.8" font-family="Times,serif" font-size="14.00">if (*(IntToPtrCastExpr&lt;ptr&gt;((v2 + 20))) == 0):</text>
</g>
<!-- Node0x2d836d0&#45;&gt;Node0x30a5350 -->
<g id="edge6" class="edge"><title>Node0x2d836d0&#45;&gt;Node0x30a5350</title>
<path fill="none" stroke="black" d="M750,-980.086C750,-971.46 750,-961.822 750,-953.075"/>
<polygon fill="black" stroke="black" points="753.5,-952.973 750,-942.974 746.5,-952.974 753.5,-952.973"/>
</g>
<!-- Node0x31f75c0 -->
<g id="node8" class="node"><title>Node0x31f75c0</title>
<polygon fill="none" stroke="black" points="91.5,-1162.5 91.5,-1200.5 612.5,-1200.5 612.5,-1162.5 91.5,-1162.5"/>
<text text-anchor="start" x="99.5" y="-1185.3" font-family="Times,serif" font-size="14.00">0x402ae9:</text>
<text text-anchor="start" x="99.5" y="-1170.3" font-family="Times,serif" font-size="14.00"> *(IntToPtrCastExpr&lt;ptr&gt;((v1 + 20))) = TruncCastExpr&lt;int16&gt;(pwc)</text>
</g>
<!-- Node0x312a280&#45;&gt;Node0x31f75c0 -->
<g id="edge7" class="edge"><title>Node0x312a280&#45;&gt;Node0x31f75c0</title>
<path fill="none" stroke="black" d="M380.888,-1252.31C375.908,-1240.28 369.147,-1223.94 363.418,-1210.09"/>
<polygon fill="black" stroke="black" points="366.527,-1208.45 359.469,-1200.55 360.059,-1211.13 366.527,-1208.45"/>
<text text-anchor="middle" x="404" y="-1222.8" font-family="Times,serif" font-size="14.00">v3 &gt;= 1</text>
</g>
<!-- Node0x3220eb0 -->
<g id="node9" class="node"><title>Node0x3220eb0</title>
<polygon fill="none" stroke="black" points="448,-1071.5 448,-1124.5 776,-1124.5 776,-1071.5 448,-1071.5"/>
<text text-anchor="start" x="456" y="-1109.3" font-family="Times,serif" font-size="14.00">0x402af1:</text>
<text text-anchor="start" x="456" y="-1094.3" font-family="Times,serif" font-size="14.00"> *(IntToPtrCastExpr&lt;ptr&gt;((v1 + 16))) = v3</text>
<text text-anchor="start" x="456" y="-1079.3" font-family="Times,serif" font-size="14.00"> v2 = v1</text>
</g>
<!-- Node0x312a280&#45;&gt;Node0x3220eb0 -->
<g id="edge8" class="edge"><title>Node0x312a280&#45;&gt;Node0x3220eb0</title>
<path fill="none" stroke="black" d="M440.589,-1261.45C502.414,-1250.79 599.37,-1229.91 621,-1201 635.068,-1182.2 632.224,-1155.65 626.174,-1134.35"/>
<polygon fill="black" stroke="black" points="629.466,-1133.15 623.112,-1124.67 622.793,-1135.26 629.466,-1133.15"/>
<text text-anchor="middle" x="656" y="-1177.8" font-family="Times,serif" font-size="14.00">v3 &lt; 1</text>
</g>
<!-- Node0x312a8a0 -->
<g id="node10" class="node"><title>Node0x312a8a0</title>
<polygon fill="none" stroke="black" points="454.5,-609.5 454.5,-737.5 711.5,-737.5 711.5,-609.5 454.5,-609.5"/>
<text text-anchor="start" x="462.5" y="-722.3" font-family="Times,serif" font-size="14.00">0x402aa0:</text>
<text text-anchor="start" x="462.5" y="-707.3" font-family="Times,serif" font-size="14.00"> g6 = v2</text>
<text text-anchor="start" x="462.5" y="-692.3" font-family="Times,serif" font-size="14.00"> g1 = 46</text>
<text text-anchor="start" x="462.5" y="-677.3" font-family="Times,serif" font-size="14.00"> v6</text>
<text text-anchor="start" x="462.5" y="-662.3" font-family="Times,serif" font-size="14.00"> result = ___pformat_putc(v4, v6)</text>
<text text-anchor="start" x="462.5" y="-647.3" font-family="Times,serif" font-size="14.00"> g1 = result</text>
<text text-anchor="start" x="462.5" y="-632.3" font-family="Times,serif" font-size="14.00"> g2 = v5</text>
<text text-anchor="start" x="462.5" y="-617.3" font-family="Times,serif" font-size="14.00"> return result</text>
</g>
<!-- Node0x30a5350&#45;&gt;Node0x312a8a0 -->
<g id="edge9" class="edge"><title>Node0x30a5350&#45;&gt;Node0x312a8a0</title>
<path fill="none" stroke="black" d="M620.749,-906.424C603.237,-901.643 589.156,-895.602 583,-888 551.772,-849.436 553.205,-792.819 561.68,-747.577"/>
<polygon fill="black" stroke="black" points="565.162,-748.015 563.712,-737.52 558.301,-746.628 565.162,-748.015"/>
<text text-anchor="middle" x="738.5" y="-876.8" font-family="Times,serif" font-size="14.00">*(IntToPtrCastExpr&lt;ptr&gt;((v2 + 20))) == 0</text>
</g>
<!-- Node0x33c05e0 -->
<g id="node11" class="node"><title>Node0x33c05e0</title>
<polygon fill="none" stroke="black" points="611.5,-756.5 611.5,-854.5 1358.5,-854.5 1358.5,-756.5 611.5,-756.5"/>
<text text-anchor="start" x="619.5" y="-839.3" font-family="Times,serif" font-size="14.00">0x402a3c:</text>
<text text-anchor="start" x="619.5" y="-824.3" font-family="Times,serif" font-size="14.00"> _alloca(v4)</text>
<text text-anchor="start" x="619.5" y="-809.3" font-family="Times,serif" font-size="14.00"> ps = 0</text>
<text text-anchor="start" x="619.5" y="-794.3" font-family="Times,serif" font-size="14.00"> wc = *(IntToPtrCastExpr&lt;ptr&gt;((v1 + 20)))</text>
<text text-anchor="start" x="619.5" y="-779.3" font-family="Times,serif" font-size="14.00"> wstr2</text>
<text text-anchor="start" x="619.5" y="-764.3" font-family="Times,serif" font-size="14.00"> v7 = wcrtomb(BitCastExpr&lt;ptr&gt;(&amp;(wstr2)), TruncCastExpr&lt;int16&gt;(wc), BitCastExpr&lt;ptr&gt;(&amp;(ps)))</text>
</g>
<!-- Node0x30a5350&#45;&gt;Node0x33c05e0 -->
<g id="edge10" class="edge"><title>Node0x30a5350&#45;&gt;Node0x33c05e0</title>
<path fill="none" stroke="black" d="M852.095,-906.391C867.979,-901.66 883.81,-895.644 898,-888 911.028,-880.982 923.565,-871.527 934.87,-861.543"/>
<polygon fill="black" stroke="black" points="937.475,-863.904 942.49,-854.571 932.749,-858.739 937.475,-863.904"/>
<text text-anchor="middle" x="1071.5" y="-876.8" font-family="Times,serif" font-size="14.00">*(IntToPtrCastExpr&lt;ptr&gt;((v2 + 20))) != 0</text>
</g>
<!-- Node0x31f75c0&#45;&gt;Node0x3220eb0 -->
<g id="edge11" class="edge"><title>Node0x31f75c0&#45;&gt;Node0x3220eb0</title>
<path fill="none" stroke="black" d="M409.702,-1162.41C442.25,-1152.21 483.664,-1139.23 520.532,-1127.67"/>
<polygon fill="black" stroke="black" points="521.802,-1130.94 530.297,-1124.61 519.708,-1124.26 521.802,-1130.94"/>
</g>
<!-- Node0x3220eb0&#45;&gt;Node0x2d836d0 -->
<g id="edge12" class="edge"><title>Node0x3220eb0&#45;&gt;Node0x2d836d0</title>
<path fill="none" stroke="black" d="M651.545,-1071.5C667.28,-1061.35 685.531,-1049.58 702.014,-1038.95"/>
<polygon fill="black" stroke="black" points="703.942,-1041.87 710.449,-1033.51 700.148,-1035.99 703.942,-1041.87"/>
</g>
<!-- Node0x2f2aba0 -->
<g id="node12" class="node"><title>Node0x2f2aba0</title>
<polygon fill="none" stroke="black" points="601,-23.5 601,-59.5 655,-59.5 655,-23.5 601,-23.5"/>
<text text-anchor="start" x="609" y="-37.8" font-family="Times,serif" font-size="14.00">exit:</text>
</g>
<!-- Node0x312a8a0&#45;&gt;Node0x2f2aba0 -->
<g id="edge13" class="edge"><title>Node0x312a8a0&#45;&gt;Node0x2f2aba0</title>
<path fill="none" stroke="black" d="M583,-609.499C583,-584.582 583,-555.692 583,-529.5 583,-529.5 583,-529.5 583,-138 583,-112.484 596.308,-86.4765 608.45,-68.0587"/>
<polygon fill="black" stroke="black" points="611.447,-69.8786 614.254,-59.6623 605.689,-65.8985 611.447,-69.8786"/>
</g>
<!-- Node0x2f60530 -->
<g id="node13" class="node"><title>Node0x2f60530</title>
<polygon fill="none" stroke="black" points="938.5,-554.5 938.5,-590.5 1031.5,-590.5 1031.5,-554.5 938.5,-554.5"/>
<text text-anchor="start" x="946.5" y="-568.8" font-family="Times,serif" font-size="14.00">if (v7 &lt; 1):</text>
</g>
<!-- Node0x33c05e0&#45;&gt;Node0x2f60530 -->
<g id="edge14" class="edge"><title>Node0x33c05e0&#45;&gt;Node0x2f60530</title>
<path fill="none" stroke="black" d="M985,-756.356C985,-709.301 985,-639.319 985,-601.013"/>
<polygon fill="black" stroke="black" points="988.5,-600.648 985,-590.648 981.5,-600.648 988.5,-600.648"/>
</g>
<!-- Node0x3125750 -->
<g id="node14" class="node"><title>Node0x3125750</title>
<polygon fill="none" stroke="black" points="598,-287.5 598,-400.5 864,-400.5 864,-287.5 598,-287.5"/>
<text text-anchor="start" x="606" y="-385.3" font-family="Times,serif" font-size="14.00">0x402ab4:</text>
<text text-anchor="start" x="606" y="-370.3" font-family="Times,serif" font-size="14.00"> g6 = v1</text>
<text text-anchor="start" x="606" y="-355.3" font-family="Times,serif" font-size="14.00"> g1 = 46</text>
<text text-anchor="start" x="606" y="-340.3" font-family="Times,serif" font-size="14.00"> result2 = ___pformat_putc(v4, v7)</text>
<text text-anchor="start" x="606" y="-325.3" font-family="Times,serif" font-size="14.00"> g1 = result2</text>
<text text-anchor="start" x="606" y="-310.3" font-family="Times,serif" font-size="14.00"> g2 = v5</text>
<text text-anchor="start" x="606" y="-295.3" font-family="Times,serif" font-size="14.00"> return result2</text>
</g>
<!-- Node0x2f60530&#45;&gt;Node0x3125750 -->
<g id="edge15" class="edge"><title>Node0x2f60530&#45;&gt;Node0x3125750</title>
<path fill="none" stroke="black" d="M938.12,-572.121C883.989,-570.08 796.455,-557.772 750,-503 728.806,-478.012 723.171,-442.268 723.228,-411.096"/>
<polygon fill="black" stroke="black" points="726.735,-410.795 723.451,-400.722 719.737,-410.644 726.735,-410.795"/>
<text text-anchor="middle" x="814" y="-524.8" font-family="Times,serif" font-size="14.00">v7 &lt; 1</text>
</g>
<!-- Node0x345a8a0 -->
<g id="node15" class="node"><title>Node0x345a8a0</title>
<polygon fill="none" stroke="black" points="759,-419.5 759,-502.5 1449,-502.5 1449,-419.5 759,-419.5"/>
<text text-anchor="start" x="767" y="-487.3" font-family="Times,serif" font-size="14.00">0x402a79:</text>
<text text-anchor="start" x="767" y="-472.3" font-family="Times,serif" font-size="14.00"> g1 = ExtCastExpr&lt;int32&gt;(*(IntToPtrCastExpr&lt;ptr&gt;(PtrToIntCastExpr&lt;int32&gt;(&amp;(wstr2)))))</text>
<text text-anchor="start" x="767" y="-457.3" font-family="Times,serif" font-size="14.00"> g6 = v1</text>
<text text-anchor="start" x="767" y="-442.3" font-family="Times,serif" font-size="14.00"> result3 = ___pformat_putc(v4, v7)</text>
<text text-anchor="start" x="767" y="-427.3" font-family="Times,serif" font-size="14.00"> g1 = result3</text>
</g>
<!-- Node0x2f60530&#45;&gt;Node0x345a8a0 -->
<g id="edge16" class="edge"><title>Node0x2f60530&#45;&gt;Node0x345a8a0</title>
<path fill="none" stroke="black" d="M1003.59,-554.391C1016.75,-542.285 1035.08,-525.422 1052.48,-509.411"/>
<polygon fill="black" stroke="black" points="1054.87,-511.965 1059.86,-502.618 1050.13,-506.814 1054.87,-511.965"/>
<text text-anchor="middle" x="1067" y="-524.8" font-family="Times,serif" font-size="14.00">v7 &gt;= 1</text>
</g>
<!-- Node0x3125750&#45;&gt;Node0x2f2aba0 -->
<g id="edge17" class="edge"><title>Node0x3125750&#45;&gt;Node0x2f2aba0</title>
<path fill="none" stroke="black" d="M696.086,-287.331C678.641,-256.99 658.789,-218.142 647,-181 635.138,-143.627 630.681,-98.2665 629.006,-69.8833"/>
<polygon fill="black" stroke="black" points="632.483,-69.3439 628.476,-59.5362 625.493,-69.7023 632.483,-69.3439"/>
</g>
<!-- Node0x2ea6f20 -->
<g id="node16" class="node"><title>Node0x2ea6f20</title>
<polygon fill="none" stroke="black" points="1035.5,-232.5 1035.5,-268.5 1172.5,-268.5 1172.5,-232.5 1035.5,-232.5"/>
<text text-anchor="start" x="1043.5" y="-246.8" font-family="Times,serif" font-size="14.00">while (g3 != v7):</text>
</g>
<!-- Node0x345a8a0&#45;&gt;Node0x2ea6f20 -->
<g id="edge18" class="edge"><title>Node0x345a8a0&#45;&gt;Node0x2ea6f20</title>
<path fill="none" stroke="black" d="M1104,-419.304C1104,-377.848 1104,-314.709 1104,-278.867"/>
<polygon fill="black" stroke="black" points="1107.5,-278.675 1104,-268.675 1100.5,-278.675 1107.5,-278.675"/>
</g>
<!-- Node0x2c4be30 -->
<g id="node17" class="node"><title>Node0x2c4be30</title>
<polygon fill="none" stroke="black" points="656,-97.5 656,-180.5 1396,-180.5 1396,-97.5 656,-97.5"/>
<text text-anchor="start" x="664" y="-165.3" font-family="Times,serif" font-size="14.00">0x402a80:</text>
<text text-anchor="start" x="664" y="-150.3" font-family="Times,serif" font-size="14.00"> g1 = ExtCastExpr&lt;int32&gt;(*(IntToPtrCastExpr&lt;ptr&gt;((PtrToIntCastExpr&lt;int32&gt;(&amp;(wstr2)) + g3))))</text>
<text text-anchor="start" x="664" y="-135.3" font-family="Times,serif" font-size="14.00"> g6 = v1</text>
<text text-anchor="start" x="664" y="-120.3" font-family="Times,serif" font-size="14.00"> result3 = ___pformat_putc(v4, v7)</text>
<text text-anchor="start" x="664" y="-105.3" font-family="Times,serif" font-size="14.00"> g1 = result3</text>
</g>
<!-- Node0x2ea6f20&#45;&gt;Node0x2c4be30 -->
<g id="edge19" class="edge"><title>Node0x2ea6f20&#45;&gt;Node0x2c4be30</title>
<path fill="none" stroke="black" d="M1046.93,-232.423C1039.05,-227.682 1031.97,-221.653 1027,-214 1022.52,-207.106 1020.22,-199.036 1019.28,-190.807"/>
<polygon fill="black" stroke="black" points="1022.78,-190.568 1018.77,-180.761 1015.79,-190.927 1022.78,-190.568"/>
<text text-anchor="middle" x="1058.5" y="-202.8" font-family="Times,serif" font-size="14.00">g3 != v7</text>
</g>
<!-- Node0x2ceb040 -->
<g id="node18" class="node"><title>Node0x2ceb040</title>
<polygon fill="none" stroke="black" points="1414,-112.5 1414,-165.5 1536,-165.5 1536,-112.5 1414,-112.5"/>
<text text-anchor="start" x="1422" y="-150.3" font-family="Times,serif" font-size="14.00">0x402a91:</text>
<text text-anchor="start" x="1422" y="-135.3" font-family="Times,serif" font-size="14.00"> g2 = v5</text>
<text text-anchor="start" x="1422" y="-120.3" font-family="Times,serif" font-size="14.00"> return result3</text>
</g>
<!-- Node0x2ea6f20&#45;&gt;Node0x2ceb040 -->
<g id="edge20" class="edge"><title>Node0x2ea6f20&#45;&gt;Node0x2ceb040</title>
<path fill="none" stroke="black" d="M1172.73,-240.005C1234.92,-229.988 1328.26,-211.368 1405,-181 1412.37,-178.085 1419.88,-174.472 1427.11,-170.607"/>
<polygon fill="black" stroke="black" points="1429.05,-173.531 1436.09,-165.612 1425.65,-167.413 1429.05,-173.531"/>
<text text-anchor="middle" x="1383.5" y="-202.8" font-family="Times,serif" font-size="14.00">g3 == v7</text>
</g>
<!-- Node0x2c4be30&#45;&gt;Node0x2ea6f20 -->
<g id="edge21" class="edge"><title>Node0x2c4be30&#45;&gt;Node0x2ea6f20</title>
<path fill="none" stroke="black" d="M1075.98,-180.6C1081.22,-186.371 1086.06,-192.551 1090,-199 1094.29,-206.019 1097.29,-214.377 1099.38,-222.253"/>
<polygon fill="black" stroke="black" points="1096.01,-223.204 1101.64,-232.178 1102.84,-221.65 1096.01,-223.204"/>
</g>
<!-- Node0x2ceb040&#45;&gt;Node0x2f2aba0 -->
<g id="edge22" class="edge"><title>Node0x2ceb040&#45;&gt;Node0x2f2aba0</title>
<path fill="none" stroke="black" d="M1438.34,-112.293C1428,-106.245 1416.44,-100.537 1405,-97 1264.28,-53.4796 800.384,-44.5621 665.248,-42.8708"/>
<polygon fill="black" stroke="black" points="665.046,-39.3682 655.005,-42.7487 664.963,-46.3677 665.046,-39.3682"/>
</g>
</g>
</svg>
