<?xml version="1.0" encoding="UTF-8" standalone="no"?>
<!DOCTYPE svg PUBLIC "-//W3C//DTD SVG 1.1//EN"
 "http://www.w3.org/Graphics/SVG/1.1/DTD/svg11.dtd">
<!-- Generated by graphviz version 2.38.0 (20140413.2041)
 -->
<!-- Title: Control&#45;flow graph for function &#39;_wait_for_device()&#39;. Pages: 1 -->
<svg width="980pt" height="877pt"
 viewBox="0.00 0.00 980.00 877.00" xmlns="http://www.w3.org/2000/svg" xmlns:xlink="http://www.w3.org/1999/xlink">
<g id="graph0" class="graph" transform="scale(1 1) rotate(0) translate(4 873)">
<title>Control&#45;flow graph for function &#39;_wait_for_device()&#39;.</title>
<polygon fill="white" stroke="none" points="-4,4 -4,-873 976,-873 976,4 -4,4"/>
<text text-anchor="middle" x="486" y="-7.8" font-family="Times,serif" font-size="14.00">Control&#45;flow graph for function &#39;_wait_for_device()&#39;.</text>
<!-- Node0x2d426c0 -->
<g id="node1" class="node"><title>Node0x2d426c0</title>
<polygon fill="none" stroke="black" points="698,-832.5 698,-868.5 757,-868.5 757,-832.5 698,-832.5"/>
<text text-anchor="start" x="706" y="-846.8" font-family="Times,serif" font-size="14.00">entry:</text>
</g>
<!-- Node0x33871f0 -->
<g id="node2" class="node"><title>Node0x33871f0</title>
<polygon fill="none" stroke="black" points="686.5,-741.5 686.5,-794.5 768.5,-794.5 768.5,-741.5 686.5,-741.5"/>
<text text-anchor="start" x="694.5" y="-779.3" font-family="Times,serif" font-size="14.00">v1 = g20</text>
<text text-anchor="start" x="694.5" y="-764.3" font-family="Times,serif" font-size="14.00"> v2 = v1</text>
<text text-anchor="start" x="694.5" y="-749.3" font-family="Times,serif" font-size="14.00"> result</text>
</g>
<!-- Node0x2d426c0&#45;&gt;Node0x33871f0 -->
<g id="edge1" class="edge"><title>Node0x2d426c0&#45;&gt;Node0x33871f0</title>
<path fill="none" stroke="black" d="M727.5,-832.428C727.5,-824.361 727.5,-814.411 727.5,-804.802"/>
<polygon fill="black" stroke="black" points="731,-804.616 727.5,-794.616 724,-804.616 731,-804.616"/>
</g>
<!-- Node0x2b85a90 -->
<g id="node3" class="node"><title>Node0x2b85a90</title>
<polygon fill="none" stroke="black" points="657.5,-667.5 657.5,-703.5 797.5,-703.5 797.5,-667.5 657.5,-667.5"/>
<text text-anchor="start" x="665.5" y="-681.8" font-family="Times,serif" font-size="14.00">if (v1 == NULL):</text>
</g>
<!-- Node0x33871f0&#45;&gt;Node0x2b85a90 -->
<g id="edge2" class="edge"><title>Node0x33871f0&#45;&gt;Node0x2b85a90</title>
<path fill="none" stroke="black" d="M727.5,-741.086C727.5,-732.46 727.5,-722.822 727.5,-714.075"/>
<polygon fill="black" stroke="black" points="731,-713.973 727.5,-703.974 724,-713.974 731,-713.973"/>
</g>
<!-- Node0x2fecbb0 -->
<g id="node4" class="node"><title>Node0x2fecbb0</title>
<polygon fill="none" stroke="black" points="320,-562.5 320,-615.5 793,-615.5 793,-562.5 320,-562.5"/>
<text text-anchor="start" x="328" y="-600.3" font-family="Times,serif" font-size="14.00">v3 = _serial_enum_devices(BitCastExpr&lt;ptr&gt;(_match_device))</text>
<text text-anchor="start" x="328" y="-585.3" font-family="Times,serif" font-size="14.00"> v4 = IntToPtrCastExpr&lt;ptr&gt;(v3)</text>
<text text-anchor="start" x="328" y="-570.3" font-family="Times,serif" font-size="14.00"> g20 = v4</text>
</g>
<!-- Node0x2b85a90&#45;&gt;Node0x2fecbb0 -->
<g id="edge3" class="edge"><title>Node0x2b85a90&#45;&gt;Node0x2fecbb0</title>
<path fill="none" stroke="black" d="M696.533,-667.387C672.911,-654.332 639.757,-636.011 611.639,-620.471"/>
<polygon fill="black" stroke="black" points="613.15,-617.308 602.705,-615.534 609.764,-623.434 613.15,-617.308"/>
<text text-anchor="middle" x="709.5" y="-637.8" font-family="Times,serif" font-size="14.00">v1 == NULL</text>
</g>
<!-- Node0x2feca20 -->
<g id="node5" class="node"><title>Node0x2feca20</title>
<polygon fill="none" stroke="black" points="671,-232.5 671,-300.5 972,-300.5 972,-232.5 671,-232.5"/>
<text text-anchor="start" x="679" y="-285.3" font-family="Times,serif" font-size="14.00">0x40166c:</text>
<text text-anchor="start" x="679" y="-270.3" font-family="Times,serif" font-size="14.00"> result = PtrToIntCastExpr&lt;int32&gt;(v2)</text>
<text text-anchor="start" x="679" y="-255.3" font-family="Times,serif" font-size="14.00"> g1 = result</text>
<text text-anchor="start" x="679" y="-240.3" font-family="Times,serif" font-size="14.00"> return result</text>
</g>
<!-- Node0x2b85a90&#45;&gt;Node0x2feca20 -->
<g id="edge4" class="edge"><title>Node0x2b85a90&#45;&gt;Node0x2feca20</title>
<path fill="none" stroke="black" d="M761.968,-667.483C788.796,-651.542 821.5,-624.942 821.5,-590 821.5,-590 821.5,-590 821.5,-386.5 821.5,-361.442 821.5,-333.415 821.5,-310.858"/>
<polygon fill="black" stroke="black" points="825,-310.586 821.5,-300.586 818,-310.586 825,-310.586"/>
<text text-anchor="middle" x="865.5" y="-502.8" font-family="Times,serif" font-size="14.00">v1 != NULL</text>
</g>
<!-- Node0x2e12bf0 -->
<g id="node6" class="node"><title>Node0x2e12bf0</title>
<polygon fill="none" stroke="black" points="504,-488.5 504,-524.5 609,-524.5 609,-488.5 504,-488.5"/>
<text text-anchor="start" x="512" y="-502.8" font-family="Times,serif" font-size="14.00">if (v3 == 0):</text>
</g>
<!-- Node0x2fecbb0&#45;&gt;Node0x2e12bf0 -->
<g id="edge5" class="edge"><title>Node0x2fecbb0&#45;&gt;Node0x2e12bf0</title>
<path fill="none" stroke="black" d="M556.5,-562.086C556.5,-553.46 556.5,-543.822 556.5,-535.075"/>
<polygon fill="black" stroke="black" points="560,-534.973 556.5,-524.974 553,-534.974 560,-534.973"/>
</g>
<!-- Node0x3387170 -->
<g id="node7" class="node"><title>Node0x3387170</title>
<polygon fill="none" stroke="black" points="746.5,-23.5 746.5,-59.5 800.5,-59.5 800.5,-23.5 746.5,-23.5"/>
<text text-anchor="start" x="754.5" y="-37.8" font-family="Times,serif" font-size="14.00">exit:</text>
</g>
<!-- Node0x2feca20&#45;&gt;Node0x3387170 -->
<g id="edge6" class="edge"><title>Node0x2feca20&#45;&gt;Node0x3387170</title>
<path fill="none" stroke="black" d="M822.538,-232.349C822.665,-197.739 820.149,-142.294 805.5,-97 802.292,-87.0822 797.059,-77.02 791.744,-68.2864"/>
<polygon fill="black" stroke="black" points="794.602,-66.2581 786.259,-59.7278 788.708,-70.0355 794.602,-66.2581"/>
</g>
<!-- Node0x2f0b220 -->
<g id="node8" class="node"><title>Node0x2f0b220</title>
<polygon fill="none" stroke="black" points="62.5,-338.5 62.5,-436.5 640.5,-436.5 640.5,-338.5 62.5,-338.5"/>
<text text-anchor="start" x="70.5" y="-421.3" font-family="Times,serif" font-size="14.00">0x401639:</text>
<text text-anchor="start" x="70.5" y="-406.3" font-family="Times,serif" font-size="14.00"> fwrite(&quot;&lt; waiting for device &gt;\n&quot;, 1, 23, IntToPtrCastExpr&lt;ptr&gt;((g36 + 64)))</text>
<text text-anchor="start" x="70.5" y="-391.3" font-family="Times,serif" font-size="14.00"> _msleep(500)</text>
<text text-anchor="start" x="70.5" y="-376.3" font-family="Times,serif" font-size="14.00"> v5 = _serial_enum_devices(BitCastExpr&lt;ptr&gt;(_match_device))</text>
<text text-anchor="start" x="70.5" y="-361.3" font-family="Times,serif" font-size="14.00"> v6 = IntToPtrCastExpr&lt;ptr&gt;(v5)</text>
<text text-anchor="start" x="70.5" y="-346.3" font-family="Times,serif" font-size="14.00"> g20 = v6</text>
</g>
<!-- Node0x2e12bf0&#45;&gt;Node0x2f0b220 -->
<g id="edge7" class="edge"><title>Node0x2e12bf0&#45;&gt;Node0x2f0b220</title>
<path fill="none" stroke="black" d="M526.691,-488.487C504.961,-476.085 474.251,-458.558 444.598,-441.634"/>
<polygon fill="black" stroke="black" points="446.278,-438.563 435.858,-436.646 442.808,-444.642 446.278,-438.563"/>
<text text-anchor="middle" x="520.5" y="-458.8" font-family="Times,serif" font-size="14.00">v3 == 0</text>
</g>
<!-- Node0x2d42640 -->
<g id="node9" class="node"><title>Node0x2d42640</title>
<polygon fill="none" stroke="black" points="659.5,-368.5 659.5,-406.5 751.5,-406.5 751.5,-368.5 659.5,-368.5"/>
<text text-anchor="start" x="667.5" y="-391.3" font-family="Times,serif" font-size="14.00">0x40166c:</text>
<text text-anchor="start" x="667.5" y="-376.3" font-family="Times,serif" font-size="14.00"> v2 = v4</text>
</g>
<!-- Node0x2e12bf0&#45;&gt;Node0x2d42640 -->
<g id="edge8" class="edge"><title>Node0x2e12bf0&#45;&gt;Node0x2d42640</title>
<path fill="none" stroke="black" d="M580.98,-488.272C599.968,-474.719 626.787,-455.154 649.5,-437 658.807,-429.561 668.712,-421.154 677.563,-413.455"/>
<polygon fill="black" stroke="black" points="680.135,-415.855 685.347,-406.631 675.52,-410.591 680.135,-415.855"/>
<text text-anchor="middle" x="651.5" y="-458.8" font-family="Times,serif" font-size="14.00">v3 != 0</text>
</g>
<!-- Node0x2f0b2a0 -->
<g id="node10" class="node"><title>Node0x2f0b2a0</title>
<polygon fill="none" stroke="black" points="253.5,-248.5 253.5,-284.5 387.5,-284.5 387.5,-248.5 253.5,-248.5"/>
<text text-anchor="start" x="261.5" y="-262.8" font-family="Times,serif" font-size="14.00">while (v5 == 0):</text>
</g>
<!-- Node0x2f0b220&#45;&gt;Node0x2f0b2a0 -->
<g id="edge9" class="edge"><title>Node0x2f0b220&#45;&gt;Node0x2f0b2a0</title>
<path fill="none" stroke="black" d="M338.98,-338.441C335.056,-323.375 330.866,-307.292 327.47,-294.255"/>
<polygon fill="black" stroke="black" points="330.844,-293.325 324.936,-284.53 324.07,-295.089 330.844,-293.325"/>
</g>
<!-- Node0x2d42640&#45;&gt;Node0x2feca20 -->
<g id="edge10" class="edge"><title>Node0x2d42640&#45;&gt;Node0x2feca20</title>
<path fill="none" stroke="black" d="M723.118,-368.426C738.698,-352.444 761.994,-328.544 782.007,-308.014"/>
<polygon fill="black" stroke="black" points="784.738,-310.227 789.212,-300.623 779.725,-305.341 784.738,-310.227"/>
</g>
<!-- Node0x2f39bd0 -->
<g id="node11" class="node"><title>Node0x2f39bd0</title>
<polygon fill="none" stroke="black" points="0,-97.5 0,-180.5 477,-180.5 477,-97.5 0,-97.5"/>
<text text-anchor="start" x="8" y="-165.3" font-family="Times,serif" font-size="14.00">0x40165a:</text>
<text text-anchor="start" x="8" y="-150.3" font-family="Times,serif" font-size="14.00"> _msleep(500)</text>
<text text-anchor="start" x="8" y="-135.3" font-family="Times,serif" font-size="14.00"> v5 = _serial_enum_devices(BitCastExpr&lt;ptr&gt;(_match_device))</text>
<text text-anchor="start" x="8" y="-120.3" font-family="Times,serif" font-size="14.00"> v6 = IntToPtrCastExpr&lt;ptr&gt;(v5)</text>
<text text-anchor="start" x="8" y="-105.3" font-family="Times,serif" font-size="14.00"> g20 = v6</text>
</g>
<!-- Node0x2f0b2a0&#45;&gt;Node0x2f39bd0 -->
<g id="edge11" class="edge"><title>Node0x2f0b2a0&#45;&gt;Node0x2f39bd0</title>
<path fill="none" stroke="black" d="M282.562,-248.275C268.577,-239.954 254.069,-228.568 245.5,-214 241.36,-206.962 238.839,-198.883 237.39,-190.706"/>
<polygon fill="black" stroke="black" points="240.857,-190.224 236.116,-180.749 233.913,-191.112 240.857,-190.224"/>
<text text-anchor="middle" x="275.5" y="-202.8" font-family="Times,serif" font-size="14.00">v5 == 0</text>
</g>
<!-- Node0x2f0b330 -->
<g id="node12" class="node"><title>Node0x2f0b330</title>
<polygon fill="none" stroke="black" points="495,-105 495,-173 796,-173 796,-105 495,-105"/>
<text text-anchor="start" x="503" y="-157.8" font-family="Times,serif" font-size="14.00">0x40166c:</text>
<text text-anchor="start" x="503" y="-142.8" font-family="Times,serif" font-size="14.00"> result = PtrToIntCastExpr&lt;int32&gt;(v6)</text>
<text text-anchor="start" x="503" y="-127.8" font-family="Times,serif" font-size="14.00"> g1 = result</text>
<text text-anchor="start" x="503" y="-112.8" font-family="Times,serif" font-size="14.00"> return result</text>
</g>
<!-- Node0x2f0b2a0&#45;&gt;Node0x2f0b330 -->
<g id="edge12" class="edge"><title>Node0x2f0b2a0&#45;&gt;Node0x2f0b330</title>
<path fill="none" stroke="black" d="M364.669,-248.444C412.115,-230.122 488.956,-200.45 550.276,-176.771"/>
<polygon fill="black" stroke="black" points="551.909,-179.892 559.977,-173.025 549.388,-173.362 551.909,-179.892"/>
<text text-anchor="middle" x="510.5" y="-202.8" font-family="Times,serif" font-size="14.00">v5 != 0</text>
</g>
<!-- Node0x2f39bd0&#45;&gt;Node0x2f0b2a0 -->
<g id="edge13" class="edge"><title>Node0x2f39bd0&#45;&gt;Node0x2f0b2a0</title>
<path fill="none" stroke="black" d="M291.477,-180.53C296.78,-186.275 301.626,-192.468 305.5,-199 312.528,-210.85 316.266,-225.673 318.253,-238.315"/>
<polygon fill="black" stroke="black" points="314.791,-238.839 319.544,-248.308 321.734,-237.942 314.791,-238.839"/>
</g>
<!-- Node0x2f0b330&#45;&gt;Node0x3387170 -->
<g id="edge14" class="edge"><title>Node0x2f0b330&#45;&gt;Node0x3387170</title>
<path fill="none" stroke="black" d="M689.909,-104.867C707.089,-92.0485 726.355,-77.675 742.056,-65.96"/>
<polygon fill="black" stroke="black" points="744.455,-68.5372 750.377,-59.752 740.269,-62.9267 744.455,-68.5372"/>
</g>
</g>
</svg>
