<?xml version="1.0" encoding="UTF-8" standalone="no"?>
<!DOCTYPE svg PUBLIC "-//W3C//DTD SVG 1.1//EN"
 "http://www.w3.org/Graphics/SVG/1.1/DTD/svg11.dtd">
<!-- Generated by graphviz version 2.38.0 (20140413.2041)
 -->
<!-- Title: Control&#45;flow graph for function &#39;main(argc, **argv)&#39;. Pages: 1 -->
<svg width="3102pt" height="1923pt"
 viewBox="0.00 0.00 3101.50 1923.00" xmlns="http://www.w3.org/2000/svg" xmlns:xlink="http://www.w3.org/1999/xlink">
<g id="graph0" class="graph" transform="scale(1 1) rotate(0) translate(4 1919)">
<title>Control&#45;flow graph for function &#39;main(argc, **argv)&#39;.</title>
<polygon fill="white" stroke="none" points="-4,4 -4,-1919 3097.5,-1919 3097.5,4 -4,4"/>
<text text-anchor="middle" x="1546.75" y="-7.8" font-family="Times,serif" font-size="14.00">Control&#45;flow graph for function &#39;main(argc, **argv)&#39;.</text>
<!-- Node0x2d6cb20 -->
<g id="node1" class="node"><title>Node0x2d6cb20</title>
<polygon fill="none" stroke="black" points="2793,-1861.5 2793,-1914.5 2852,-1914.5 2852,-1861.5 2793,-1861.5"/>
<text text-anchor="start" x="2801" y="-1899.3" font-family="Times,serif" font-size="14.00">entry:</text>
<text text-anchor="start" x="2801" y="-1884.3" font-family="Times,serif" font-size="14.00"> argc</text>
<text text-anchor="start" x="2801" y="-1869.3" font-family="Times,serif" font-size="14.00"> argv</text>
</g>
<!-- Node0x2d6ca80 -->
<g id="node2" class="node"><title>Node0x2d6ca80</title>
<polygon fill="none" stroke="black" points="2551.5,-1755.5 2551.5,-1823.5 3093.5,-1823.5 3093.5,-1755.5 2551.5,-1755.5"/>
<text text-anchor="start" x="2559.5" y="-1808.3" font-family="Times,serif" font-size="14.00">___main()</text>
<text text-anchor="start" x="2559.5" y="-1793.3" font-family="Times,serif" font-size="14.00"> setvbuf(IntToPtrCastExpr&lt;ptr&gt;((g36 + 64)), NULL, 4, 0)</text>
<text text-anchor="start" x="2559.5" y="-1778.3" font-family="Times,serif" font-size="14.00"> str = IntToPtrCastExpr&lt;ptr&gt;((PtrToIntCastExpr&lt;int32&gt;(&amp;(argc)) + 4))</text>
<text text-anchor="start" x="2559.5" y="-1763.3" font-family="Times,serif" font-size="14.00"> v1 = 0</text>
</g>
<!-- Node0x2d6cb20&#45;&gt;Node0x2d6ca80 -->
<g id="edge1" class="edge"><title>Node0x2d6cb20&#45;&gt;Node0x2d6ca80</title>
<path fill="none" stroke="black" d="M2822.5,-1861.39C2822.5,-1852.86 2822.5,-1843.11 2822.5,-1833.63"/>
<polygon fill="black" stroke="black" points="2826,-1833.52 2822.5,-1823.52 2819,-1833.52 2826,-1833.52"/>
</g>
<!-- Node0x2e79360 -->
<g id="node3" class="node"><title>Node0x2e79360</title>
<polygon fill="none" stroke="black" points="2774,-1681.5 2774,-1717.5 2871,-1717.5 2871,-1681.5 2774,-1681.5"/>
<text text-anchor="start" x="2782" y="-1695.8" font-family="Times,serif" font-size="14.00">while True:</text>
</g>
<!-- Node0x2d6ca80&#45;&gt;Node0x2e79360 -->
<g id="edge2" class="edge"><title>Node0x2d6ca80&#45;&gt;Node0x2e79360</title>
<path fill="none" stroke="black" d="M2822.5,-1755.48C2822.5,-1746.33 2822.5,-1736.5 2822.5,-1727.72"/>
<polygon fill="black" stroke="black" points="2826,-1727.64 2822.5,-1717.64 2819,-1727.64 2826,-1727.64"/>
</g>
<!-- Node0x3216800 -->
<g id="node4" class="node"><title>Node0x3216800</title>
<polygon fill="none" stroke="black" points="2774,-1593.5 2774,-1629.5 2871,-1629.5 2871,-1593.5 2774,-1593.5"/>
<text text-anchor="start" x="2782" y="-1607.8" font-family="Times,serif" font-size="14.00">while True:</text>
</g>
<!-- Node0x2e79360&#45;&gt;Node0x3216800 -->
<g id="edge3" class="edge"><title>Node0x2e79360&#45;&gt;Node0x3216800</title>
<path fill="none" stroke="black" d="M2822.5,-1681.1C2822.5,-1669.25 2822.5,-1653.32 2822.5,-1639.79"/>
<polygon fill="black" stroke="black" points="2826,-1639.58 2822.5,-1629.58 2819,-1639.58 2826,-1639.58"/>
<text text-anchor="middle" x="2839.5" y="-1651.8" font-family="Times,serif" font-size="14.00">True</text>
</g>
<!-- Node0x2e77400 -->
<g id="node5" class="node"><title>Node0x2e77400</title>
<polygon fill="none" stroke="black" points="2050.5,-1503.5 2050.5,-1541.5 2814.5,-1541.5 2814.5,-1503.5 2050.5,-1503.5"/>
<text text-anchor="start" x="2058.5" y="-1526.3" font-family="Times,serif" font-size="14.00">v2 = *(str)</text>
<text text-anchor="start" x="2058.5" y="-1511.3" font-family="Times,serif" font-size="14.00"> v3 = _getopt_long(argc, v2, PtrToIntCastExpr&lt;int32&gt;(&quot;p:d:hv&quot;), PtrToIntCastExpr&lt;int32&gt;(&amp;(g17)), 0)</text>
</g>
<!-- Node0x3216800&#45;&gt;Node0x2e77400 -->
<g id="edge4" class="edge"><title>Node0x3216800&#45;&gt;Node0x2e77400</title>
<path fill="none" stroke="black" d="M2773.89,-1599.66C2711.33,-1585.7 2601.39,-1561.18 2523.18,-1543.73"/>
<polygon fill="black" stroke="black" points="2523.84,-1540.29 2513.32,-1541.53 2522.32,-1547.12 2523.84,-1540.29"/>
<text text-anchor="middle" x="2678.5" y="-1563.8" font-family="Times,serif" font-size="14.00">True</text>
</g>
<!-- Node0x2e77530 -->
<g id="node6" class="node"><title>Node0x2e77530</title>
<polygon fill="none" stroke="black" points="1946,-1429.5 1946,-1465.5 2051,-1465.5 2051,-1429.5 1946,-1429.5"/>
<text text-anchor="start" x="1954" y="-1443.8" font-family="Times,serif" font-size="14.00">if (v3 &gt;= 0):</text>
</g>
<!-- Node0x2e77400&#45;&gt;Node0x2e77530 -->
<g id="edge5" class="edge"><title>Node0x2e77400&#45;&gt;Node0x2e77530</title>
<path fill="none" stroke="black" d="M2325.22,-1503.46C2242.37,-1489.52 2130.56,-1470.71 2061.56,-1459.11"/>
<polygon fill="black" stroke="black" points="2061.73,-1455.59 2051.29,-1457.38 2060.57,-1462.49 2061.73,-1455.59"/>
</g>
<!-- Node0x2bb4f90 -->
<g id="node7" class="node"><title>Node0x2bb4f90</title>
<polygon fill="none" stroke="black" points="1934.5,-1146.5 1934.5,-1184.5 2062.5,-1184.5 2062.5,-1146.5 1934.5,-1146.5"/>
<text text-anchor="start" x="1942.5" y="-1169.3" font-family="Times,serif" font-size="14.00">0x40176c:</text>
<text text-anchor="start" x="1942.5" y="-1154.3" font-family="Times,serif" font-size="14.00"> if (v3 == 104):</text>
</g>
<!-- Node0x2e77530&#45;&gt;Node0x2bb4f90 -->
<g id="edge6" class="edge"><title>Node0x2e77530&#45;&gt;Node0x2bb4f90</title>
<path fill="none" stroke="black" d="M1998.5,-1429.41C1998.5,-1382.78 1998.5,-1253.02 1998.5,-1195.08"/>
<polygon fill="black" stroke="black" points="2002,-1194.81 1998.5,-1184.81 1995,-1194.81 2002,-1194.81"/>
<text text-anchor="middle" x="2028.5" y="-1294.8" font-family="Times,serif" font-size="14.00">v3 &gt;= 0</text>
</g>
<!-- Node0x2e8d750 -->
<g id="node8" class="node"><title>Node0x2e8d750</title>
<polygon fill="none" stroke="black" points="1711,-1324.5 1711,-1377.5 1914,-1377.5 1914,-1324.5 1711,-1324.5"/>
<text text-anchor="start" x="1719" y="-1362.3" font-family="Times,serif" font-size="14.00">v4 = g12</text>
<text text-anchor="start" x="1719" y="-1347.3" font-family="Times,serif" font-size="14.00"> argc = (argc &#45; v4)</text>
<text text-anchor="start" x="1719" y="-1332.3" font-family="Times,serif" font-size="14.00"> *(str) = (*(str) + (4 * v4))</text>
</g>
<!-- Node0x2e77530&#45;&gt;Node0x2e8d750 -->
<g id="edge7" class="edge"><title>Node0x2e77530&#45;&gt;Node0x2e8d750</title>
<path fill="none" stroke="black" d="M1964.82,-1429.39C1938.9,-1416.22 1902.44,-1397.69 1871.68,-1382.07"/>
<polygon fill="black" stroke="black" points="1873.26,-1378.94 1862.76,-1377.53 1870.09,-1385.18 1873.26,-1378.94"/>
<text text-anchor="middle" x="1952.5" y="-1399.8" font-family="Times,serif" font-size="14.00">v3 &lt; 0</text>
</g>
<!-- Node0x2ffce90 -->
<g id="node9" class="node"><title>Node0x2ffce90</title>
<polygon fill="none" stroke="black" points="1743,-945.5 1743,-998.5 1832,-998.5 1832,-945.5 1743,-945.5"/>
<text text-anchor="start" x="1751" y="-983.3" font-family="Times,serif" font-size="14.00">0x4017f7:</text>
<text text-anchor="start" x="1751" y="-968.3" font-family="Times,serif" font-size="14.00"> _usage()</text>
<text text-anchor="start" x="1751" y="-953.3" font-family="Times,serif" font-size="14.00"> return 0</text>
</g>
<!-- Node0x2bb4f90&#45;&gt;Node0x2ffce90 -->
<g id="edge8" class="edge"><title>Node0x2bb4f90&#45;&gt;Node0x2ffce90</title>
<path fill="none" stroke="black" d="M1958.75,-1146.44C1948.78,-1141.13 1938.4,-1134.88 1929.5,-1128 1883.18,-1092.21 1839.15,-1040.41 1812.74,-1006.72"/>
<polygon fill="black" stroke="black" points="1815.3,-1004.33 1806.41,-998.571 1809.77,-1008.62 1815.3,-1004.33"/>
<text text-anchor="middle" x="1968.5" y="-1097.3" font-family="Times,serif" font-size="14.00">v3 == 104</text>
</g>
<!-- Node0x2cbaec0 -->
<g id="node10" class="node"><title>Node0x2cbaec0</title>
<polygon fill="none" stroke="black" points="1982.5,-1017.5 1982.5,-1055.5 2098.5,-1055.5 2098.5,-1017.5 1982.5,-1017.5"/>
<text text-anchor="start" x="1990.5" y="-1040.3" font-family="Times,serif" font-size="14.00">0x401778:</text>
<text text-anchor="start" x="1990.5" y="-1025.3" font-family="Times,serif" font-size="14.00"> if (v3 &gt; 104):</text>
</g>
<!-- Node0x2bb4f90&#45;&gt;Node0x2cbaec0 -->
<g id="edge9" class="edge"><title>Node0x2bb4f90&#45;&gt;Node0x2cbaec0</title>
<path fill="none" stroke="black" d="M2004.52,-1146.3C2011.53,-1125.08 2023.21,-1089.78 2031.35,-1065.16"/>
<polygon fill="black" stroke="black" points="2034.68,-1066.26 2034.49,-1055.66 2028.03,-1064.06 2034.68,-1066.26"/>
<text text-anchor="middle" x="2064.5" y="-1097.3" font-family="Times,serif" font-size="14.00">v3 != 104</text>
</g>
<!-- Node0x32169b0 -->
<g id="node11" class="node"><title>Node0x32169b0</title>
<polygon fill="none" stroke="black" points="1636.5,-1236.5 1636.5,-1272.5 1756.5,-1272.5 1756.5,-1236.5 1636.5,-1236.5"/>
<text text-anchor="start" x="1644.5" y="-1250.8" font-family="Times,serif" font-size="14.00">if (argc == 0):</text>
</g>
<!-- Node0x2e8d750&#45;&gt;Node0x32169b0 -->
<g id="edge10" class="edge"><title>Node0x2e8d750&#45;&gt;Node0x32169b0</title>
<path fill="none" stroke="black" d="M1781.11,-1324.43C1763.81,-1310.33 1742.48,-1292.96 1725.56,-1279.18"/>
<polygon fill="black" stroke="black" points="1727.62,-1276.33 1717.65,-1272.73 1723.19,-1281.76 1727.62,-1276.33"/>
</g>
<!-- Node0x2e8d970 -->
<g id="node12" class="node"><title>Node0x2e8d970</title>
<polygon fill="none" stroke="black" points="1669.5,-23.5 1669.5,-59.5 1723.5,-59.5 1723.5,-23.5 1669.5,-23.5"/>
<text text-anchor="start" x="1677.5" y="-37.8" font-family="Times,serif" font-size="14.00">exit:</text>
</g>
<!-- Node0x2ffce90&#45;&gt;Node0x2e8d970 -->
<g id="edge11" class="edge"><title>Node0x2ffce90&#45;&gt;Node0x2e8d970</title>
<path fill="none" stroke="black" d="M1773.02,-945.232C1757.33,-914.841 1734.5,-862.33 1734.5,-814 1734.5,-814 1734.5,-814 1734.5,-138 1734.5,-113.118 1723.23,-87.008 1712.96,-68.3902"/>
<polygon fill="black" stroke="black" points="1715.94,-66.5445 1707.9,-59.6374 1709.87,-70.0469 1715.94,-66.5445"/>
</g>
<!-- Node0x33c1110 -->
<g id="node13" class="node"><title>Node0x33c1110</title>
<polygon fill="none" stroke="black" points="2742,-858.5 2742,-926.5 2837,-926.5 2837,-858.5 2742,-858.5"/>
<text text-anchor="start" x="2750" y="-911.3" font-family="Times,serif" font-size="14.00">0x401793:</text>
<text text-anchor="start" x="2750" y="-896.3" font-family="Times,serif" font-size="14.00"> switch v3:</text>
<text text-anchor="start" x="2750" y="-881.3" font-family="Times,serif" font-size="14.00"> case 112:</text>
<text text-anchor="start" x="2750" y="-866.3" font-family="Times,serif" font-size="14.00"> case 118:</text>
</g>
<!-- Node0x2cbaec0&#45;&gt;Node0x33c1110 -->
<g id="edge12" class="edge"><title>Node0x2cbaec0&#45;&gt;Node0x33c1110</title>
<path fill="none" stroke="black" d="M2098.65,-1024.48C2238.48,-997.966 2592.26,-930.894 2731.72,-904.455"/>
<polygon fill="black" stroke="black" points="2732.6,-907.849 2741.78,-902.548 2731.3,-900.972 2732.6,-907.849"/>
<text text-anchor="middle" x="2536.5" y="-968.3" font-family="Times,serif" font-size="14.00">v3 &gt; 104</text>
</g>
<!-- Node0x2cbb180 -->
<g id="node14" class="node"><title>Node0x2cbb180</title>
<polygon fill="none" stroke="black" points="1993,-858.5 1993,-926.5 2088,-926.5 2088,-858.5 1993,-858.5"/>
<text text-anchor="start" x="2001" y="-911.3" font-family="Times,serif" font-size="14.00">0x40177e:</text>
<text text-anchor="start" x="2001" y="-896.3" font-family="Times,serif" font-size="14.00"> switch v3:</text>
<text text-anchor="start" x="2001" y="-881.3" font-family="Times,serif" font-size="14.00"> case 63:</text>
<text text-anchor="start" x="2001" y="-866.3" font-family="Times,serif" font-size="14.00"> case 100:</text>
</g>
<!-- Node0x2cbaec0&#45;&gt;Node0x2cbb180 -->
<g id="edge13" class="edge"><title>Node0x2cbaec0&#45;&gt;Node0x2cbb180</title>
<path fill="none" stroke="black" d="M2040.5,-1017.23C2040.5,-997.058 2040.5,-963.884 2040.5,-936.961"/>
<polygon fill="black" stroke="black" points="2044,-936.616 2040.5,-926.616 2037,-936.616 2044,-936.616"/>
<text text-anchor="middle" x="2079.5" y="-968.3" font-family="Times,serif" font-size="14.00">v3 &lt;= 104</text>
</g>
<!-- Node0x32c1870 -->
<g id="node15" class="node"><title>Node0x32c1870</title>
<polygon fill="none" stroke="black" points="1650.5,-1074.5 1650.5,-1127.5 1742.5,-1127.5 1742.5,-1074.5 1650.5,-1074.5"/>
<text text-anchor="start" x="1658.5" y="-1112.3" font-family="Times,serif" font-size="14.00">0x40184a:</text>
<text text-anchor="start" x="1658.5" y="-1097.3" font-family="Times,serif" font-size="14.00"> _usage()</text>
<text text-anchor="start" x="1658.5" y="-1082.3" font-family="Times,serif" font-size="14.00"> return &#45;1</text>
</g>
<!-- Node0x32169b0&#45;&gt;Node0x32c1870 -->
<g id="edge14" class="edge"><title>Node0x32169b0&#45;&gt;Node0x32c1870</title>
<path fill="none" stroke="black" d="M1696.5,-1236.42C1696.5,-1212.57 1696.5,-1168.73 1696.5,-1137.61"/>
<polygon fill="black" stroke="black" points="1700,-1137.59 1696.5,-1127.59 1693,-1137.59 1700,-1137.59"/>
<text text-anchor="middle" x="1734" y="-1206.8" font-family="Times,serif" font-size="14.00">argc == 0</text>
</g>
<!-- Node0x2d89290 -->
<g id="node16" class="node"><title>Node0x2d89290</title>
<polygon fill="none" stroke="black" points="737.5,-1146.5 737.5,-1184.5 1391.5,-1184.5 1391.5,-1146.5 737.5,-1146.5"/>
<text text-anchor="start" x="745.5" y="-1169.3" font-family="Times,serif" font-size="14.00">0x40185b:</text>
<text text-anchor="start" x="745.5" y="-1154.3" font-family="Times,serif" font-size="14.00"> if (strcmp(IntToPtrCastExpr&lt;ptr&gt;(*(IntToPtrCastExpr&lt;ptr&gt;(*(str)))), &quot;devices&quot;) == 0):</text>
</g>
<!-- Node0x32169b0&#45;&gt;Node0x2d89290 -->
<g id="edge15" class="edge"><title>Node0x32169b0&#45;&gt;Node0x2d89290</title>
<path fill="none" stroke="black" d="M1636.47,-1245.24C1538.25,-1231.72 1340.62,-1204.51 1205.44,-1185.9"/>
<polygon fill="black" stroke="black" points="1205.79,-1182.42 1195.41,-1184.52 1204.84,-1189.35 1205.79,-1182.42"/>
<text text-anchor="middle" x="1472" y="-1206.8" font-family="Times,serif" font-size="14.00">argc != 0</text>
</g>
<!-- Node0x30ce650 -->
<g id="node17" class="node"><title>Node0x30ce650</title>
<polygon fill="none" stroke="black" points="2895.5,-707 2895.5,-760 2991.5,-760 2991.5,-707 2895.5,-707"/>
<text text-anchor="start" x="2903.5" y="-744.8" font-family="Times,serif" font-size="14.00">0x4017a4:</text>
<text text-anchor="start" x="2903.5" y="-729.8" font-family="Times,serif" font-size="14.00"> g19 = g25</text>
<text text-anchor="start" x="2903.5" y="-714.8" font-family="Times,serif" font-size="14.00"> continue</text>
</g>
<!-- Node0x33c1110&#45;&gt;Node0x30ce650 -->
<g id="edge16" class="edge"><title>Node0x33c1110&#45;&gt;Node0x30ce650</title>
<path fill="none" stroke="black" d="M2836.5,-858.272C2842.7,-852.63 2848.59,-846.482 2853.5,-840 2869.24,-819.2 2860.53,-806.623 2876.5,-786 2881.86,-779.081 2888.36,-772.59 2895.18,-766.703"/>
<polygon fill="black" stroke="black" points="2897.75,-769.12 2903.28,-760.081 2893.32,-763.7 2897.75,-769.12"/>
<text text-anchor="middle" x="2915.5" y="-809.3" font-family="Times,serif" font-size="14.00">v3 == 112</text>
</g>
<!-- Node0x30ce7b0 -->
<g id="node18" class="node"><title>Node0x30ce7b0</title>
<polygon fill="none" stroke="black" points="2713.5,-483.5 2713.5,-536.5 2805.5,-536.5 2805.5,-483.5 2713.5,-483.5"/>
<text text-anchor="start" x="2721.5" y="-521.3" font-family="Times,serif" font-size="14.00">0x401808:</text>
<text text-anchor="start" x="2721.5" y="-506.3" font-family="Times,serif" font-size="14.00"> _version()</text>
<text text-anchor="start" x="2721.5" y="-491.3" font-family="Times,serif" font-size="14.00"> return 0</text>
</g>
<!-- Node0x33c1110&#45;&gt;Node0x30ce7b0 -->
<g id="edge17" class="edge"><title>Node0x33c1110&#45;&gt;Node0x30ce7b0</title>
<path fill="none" stroke="black" d="M2775.98,-858.354C2766.75,-833.859 2755.35,-799.444 2750.5,-768 2738.44,-689.731 2747.41,-596.539 2754.06,-546.681"/>
<polygon fill="black" stroke="black" points="2757.54,-547.106 2755.44,-536.721 2750.6,-546.148 2757.54,-547.106"/>
<text text-anchor="middle" x="2789.5" y="-729.8" font-family="Times,serif" font-size="14.00">v3 == 118</text>
</g>
<!-- Node0x30cdfb0 -->
<g id="node19" class="node"><title>Node0x30cdfb0</title>
<polygon fill="none" stroke="black" points="2757.5,-199.5 2757.5,-252.5 2915.5,-252.5 2915.5,-199.5 2757.5,-199.5"/>
<text text-anchor="start" x="2765.5" y="-237.3" font-family="Times,serif" font-size="14.00">0x401825:</text>
<text text-anchor="start" x="2765.5" y="-222.3" font-family="Times,serif" font-size="14.00"> abort()</text>
<text text-anchor="start" x="2765.5" y="-207.3" font-family="Times,serif" font-size="14.00"> # UNREACHABLE</text>
</g>
<!-- Node0x33c1110&#45;&gt;Node0x30cdfb0 -->
<g id="edge18" class="edge"><title>Node0x33c1110&#45;&gt;Node0x30cdfb0</title>
<path fill="none" stroke="black" d="M2807.74,-858.292C2823.07,-827.24 2842.5,-779.091 2842.5,-734.5 2842.5,-734.5 2842.5,-734.5 2842.5,-367 2842.5,-331.514 2840.55,-291.015 2838.88,-262.736"/>
<polygon fill="black" stroke="black" points="2842.36,-262.3 2838.25,-252.533 2835.37,-262.728 2842.36,-262.3"/>
</g>
<!-- Node0x300cf00 -->
<g id="node20" class="node"><title>Node0x300cf00</title>
<polygon fill="none" stroke="black" points="2496.5,-627.5 2496.5,-665.5 2588.5,-665.5 2588.5,-627.5 2496.5,-627.5"/>
<text text-anchor="start" x="2504.5" y="-650.3" font-family="Times,serif" font-size="14.00">0x401934:</text>
<text text-anchor="start" x="2504.5" y="-635.3" font-family="Times,serif" font-size="14.00"> return &#45;1</text>
</g>
<!-- Node0x2cbb180&#45;&gt;Node0x300cf00 -->
<g id="edge19" class="edge"><title>Node0x2cbb180&#45;&gt;Node0x300cf00</title>
<path fill="none" stroke="black" d="M2088.18,-868.325C2184.46,-821.527 2401,-716.275 2496.16,-670.024"/>
<polygon fill="black" stroke="black" points="2497.79,-673.124 2505.25,-665.604 2494.73,-666.828 2497.79,-673.124"/>
<text text-anchor="middle" x="2283" y="-809.3" font-family="Times,serif" font-size="14.00">v3 == 63</text>
</g>
<!-- Node0x300cf90 -->
<g id="node21" class="node"><title>Node0x300cf90</title>
<polygon fill="none" stroke="black" points="1981,-707 1981,-760 2100,-760 2100,-707 1981,-707"/>
<text text-anchor="start" x="1989" y="-744.8" font-family="Times,serif" font-size="14.00">0x4017b0:</text>
<text text-anchor="start" x="1989" y="-729.8" font-family="Times,serif" font-size="14.00"> if (g25 == 0):</text>
<text text-anchor="start" x="1989" y="-714.8" font-family="Times,serif" font-size="14.00"> else:</text>
</g>
<!-- Node0x2cbb180&#45;&gt;Node0x300cf90 -->
<g id="edge20" class="edge"><title>Node0x2cbb180&#45;&gt;Node0x300cf90</title>
<path fill="none" stroke="black" d="M2040.5,-858.204C2040.5,-832.572 2040.5,-797.186 2040.5,-770.824"/>
<polygon fill="black" stroke="black" points="2044,-770.491 2040.5,-760.491 2037,-770.491 2044,-770.491"/>
<text text-anchor="middle" x="2079.5" y="-809.3" font-family="Times,serif" font-size="14.00">v3 == 100</text>
</g>
<!-- Node0x2cbb600 -->
<g id="node22" class="node"><title>Node0x2cbb600</title>
<polygon fill="none" stroke="black" points="1762.5,-112.5 1762.5,-165.5 1920.5,-165.5 1920.5,-112.5 1762.5,-112.5"/>
<text text-anchor="start" x="1770.5" y="-150.3" font-family="Times,serif" font-size="14.00">0x401825:</text>
<text text-anchor="start" x="1770.5" y="-135.3" font-family="Times,serif" font-size="14.00"> abort()</text>
<text text-anchor="start" x="1770.5" y="-120.3" font-family="Times,serif" font-size="14.00"> # UNREACHABLE</text>
</g>
<!-- Node0x2cbb180&#45;&gt;Node0x2cbb600 -->
<g id="edge21" class="edge"><title>Node0x2cbb180&#45;&gt;Node0x2cbb600</title>
<path fill="none" stroke="black" d="M1992.9,-885.459C1915.88,-872.73 1772.5,-835.472 1772.5,-734.5 1772.5,-734.5 1772.5,-734.5 1772.5,-288.5 1772.5,-246.248 1795.76,-203.003 1815.27,-174.16"/>
<polygon fill="black" stroke="black" points="1818.32,-175.893 1821.17,-165.688 1812.58,-171.891 1818.32,-175.893"/>
</g>
<!-- Node0x32c1870&#45;&gt;Node0x2e8d970 -->
<g id="edge22" class="edge"><title>Node0x32c1870&#45;&gt;Node0x2e8d970</title>
<path fill="none" stroke="black" d="M1696.5,-1074.22C1696.5,-1048.56 1696.5,-1008.06 1696.5,-973 1696.5,-973 1696.5,-973 1696.5,-138 1696.5,-115.025 1696.5,-88.94 1696.5,-69.8443"/>
<polygon fill="black" stroke="black" points="1700,-69.7523 1696.5,-59.7523 1693,-69.7523 1700,-69.7523"/>
</g>
<!-- Node0x33c07a0 -->
<g id="node23" class="node"><title>Node0x33c07a0</title>
<polygon fill="none" stroke="black" points="1558,-786.5 1558,-839.5 1681,-839.5 1681,-786.5 1558,-786.5"/>
<text text-anchor="start" x="1566" y="-824.3" font-family="Times,serif" font-size="14.00">0x401878:</text>
<text text-anchor="start" x="1566" y="-809.3" font-family="Times,serif" font-size="14.00"> _list_devices()</text>
<text text-anchor="start" x="1566" y="-794.3" font-family="Times,serif" font-size="14.00"> return 0</text>
</g>
<!-- Node0x2d89290&#45;&gt;Node0x33c07a0 -->
<g id="edge23" class="edge"><title>Node0x2d89290&#45;&gt;Node0x33c07a0</title>
<path fill="none" stroke="black" d="M1060.63,-1146.45C1055.25,-1116.28 1049.24,-1055.18 1078.5,-1017 1213.31,-841.144 1338.62,-917.681 1548.4,-841.474"/>
<polygon fill="black" stroke="black" points="1549.66,-844.739 1557.81,-837.972 1547.22,-838.178 1549.66,-844.739"/>
<text text-anchor="middle" x="1380.5" y="-1032.8" font-family="Times,serif" font-size="14.00">strcmp(IntToPtrCastExpr&lt;ptr&gt;(*(IntToPtrCastExpr&lt;ptr&gt;(*(str)))), &quot;devices&quot;) == 0</text>
</g>
<!-- Node0x31eeae0 -->
<g id="node24" class="node"><title>Node0x31eeae0</title>
<polygon fill="none" stroke="black" points="260,-1017.5 260,-1055.5 643,-1055.5 643,-1017.5 260,-1017.5"/>
<text text-anchor="start" x="268" y="-1040.3" font-family="Times,serif" font-size="14.00">0x401889:</text>
<text text-anchor="start" x="268" y="-1025.3" font-family="Times,serif" font-size="14.00"> g20 = IntToPtrCastExpr&lt;ptr&gt;(_wait_for_device())</text>
</g>
<!-- Node0x2d89290&#45;&gt;Node0x31eeae0 -->
<g id="edge24" class="edge"><title>Node0x2d89290&#45;&gt;Node0x31eeae0</title>
<path fill="none" stroke="black" d="M737.418,-1154.25C597.549,-1148.23 463.466,-1139.51 452.5,-1128 437.087,-1111.82 438.49,-1085.69 442.782,-1065.66"/>
<polygon fill="black" stroke="black" points="446.211,-1066.37 445.216,-1055.82 439.416,-1064.69 446.211,-1066.37"/>
<text text-anchor="middle" x="751.5" y="-1097.3" font-family="Times,serif" font-size="14.00">strcmp(IntToPtrCastExpr&lt;ptr&gt;(*(IntToPtrCastExpr&lt;ptr&gt;(*(str)))), &quot;devices&quot;) != 0</text>
</g>
<!-- Node0x30ce650&#45;&gt;Node0x3216800 -->
<g id="edge25" class="edge"><title>Node0x30ce650&#45;&gt;Node0x3216800</title>
<path fill="none" stroke="black" d="M2950.13,-760.137C2957.54,-791.058 2968.5,-844.717 2968.5,-891.5 2968.5,-1523.5 2968.5,-1523.5 2968.5,-1523.5 2968.5,-1566.3 2921.63,-1588.53 2881.01,-1599.76"/>
<polygon fill="black" stroke="black" points="2879.92,-1596.42 2871.12,-1602.31 2881.67,-1603.2 2879.92,-1596.42"/>
</g>
<!-- Node0x30ce7b0&#45;&gt;Node0x2e8d970 -->
<g id="edge26" class="edge"><title>Node0x30ce7b0&#45;&gt;Node0x2e8d970</title>
<path fill="none" stroke="black" d="M2753.61,-483.354C2747.71,-455.397 2739.5,-409.266 2739.5,-369 2739.5,-369 2739.5,-369 2739.5,-138 2739.5,-108.758 2736.78,-94.3041 2712.5,-78 2671.15,-50.2294 1912.56,-43.8306 1733.94,-42.7065"/>
<polygon fill="black" stroke="black" points="1733.75,-39.2054 1723.73,-42.6441 1733.71,-46.2053 1733.75,-39.2054"/>
</g>
<!-- Node0x30cdfb0&#45;&gt;Node0x2e8d970 -->
<g id="edge27" class="edge"><title>Node0x30cdfb0&#45;&gt;Node0x2e8d970</title>
<path fill="none" stroke="black" d="M2830.34,-199.329C2820.55,-164.875 2797.85,-104.901 2753.5,-78 2709.08,-51.058 1916.77,-44.0056 1733.93,-42.7339"/>
<polygon fill="black" stroke="black" points="1733.76,-39.2328 1723.74,-42.6647 1733.71,-46.2326 1733.76,-39.2328"/>
</g>
<!-- Node0x300cf00&#45;&gt;Node0x2e8d970 -->
<g id="edge28" class="edge"><title>Node0x300cf00&#45;&gt;Node0x2e8d970</title>
<path fill="none" stroke="black" d="M2588.88,-628.41C2634.87,-608.115 2698.5,-569.467 2698.5,-511 2698.5,-511 2698.5,-511 2698.5,-138 2698.5,-39.1084 1915.05,-40.4351 1733.67,-42.0674"/>
<polygon fill="black" stroke="black" points="1733.53,-38.5685 1723.56,-42.1645 1733.59,-45.5682 1733.53,-38.5685"/>
</g>
<!-- Node0x2e77360 -->
<g id="node25" class="node"><title>Node0x2e77360</title>
<polygon fill="none" stroke="black" points="1838.5,-555.5 1838.5,-593.5 2264.5,-593.5 2264.5,-555.5 1838.5,-555.5"/>
<text text-anchor="start" x="1846.5" y="-578.3" font-family="Times,serif" font-size="14.00">0x4017da:</text>
<text text-anchor="start" x="1846.5" y="-563.3" font-family="Times,serif" font-size="14.00"> if (strtoul(IntToPtrCastExpr&lt;ptr&gt;(g25), NULL, 0) != 0):</text>
</g>
<!-- Node0x300cf90&#45;&gt;Node0x2e77360 -->
<g id="edge29" class="edge"><title>Node0x300cf90&#45;&gt;Node0x2e77360</title>
<path fill="none" stroke="black" d="M2042.29,-706.926C2044.28,-678.602 2047.47,-633.072 2049.52,-603.726"/>
<polygon fill="black" stroke="black" points="2053.02,-603.928 2050.22,-593.708 2046.03,-603.439 2053.02,-603.928"/>
<text text-anchor="middle" x="2081.5" y="-642.8" font-family="Times,serif" font-size="14.00">g25 != 0</text>
</g>
<!-- Node0x30ce510 -->
<g id="node26" class="node"><title>Node0x30ce510</title>
<polygon fill="none" stroke="black" points="1812.5,-271.5 1812.5,-307.5 1870.5,-307.5 1870.5,-271.5 1812.5,-271.5"/>
<text text-anchor="start" x="1820.5" y="-285.8" font-family="Times,serif" font-size="14.00">break</text>
</g>
<!-- Node0x300cf90&#45;&gt;Node0x30ce510 -->
<g id="edge30" class="edge"><title>Node0x300cf90&#45;&gt;Node0x30ce510</title>
<path fill="none" stroke="black" d="M1980.75,-709.014C1932.24,-686.77 1866.08,-648.605 1829.5,-594 1771.61,-507.598 1810.04,-374.19 1830.74,-317.485"/>
<polygon fill="black" stroke="black" points="1834.13,-318.41 1834.37,-307.818 1827.58,-315.949 1834.13,-318.41"/>
<text text-anchor="middle" x="1840.5" y="-506.3" font-family="Times,serif" font-size="14.00">g25 == 0</text>
</g>
<!-- Node0x2cbb600&#45;&gt;Node0x2e8d970 -->
<g id="edge31" class="edge"><title>Node0x2cbb600&#45;&gt;Node0x2e8d970</title>
<path fill="none" stroke="black" d="M1802.64,-112.408C1780.38,-97.7426 1752.67,-79.4946 1731.15,-65.32"/>
<polygon fill="black" stroke="black" points="1732.91,-62.2906 1722.64,-59.7131 1729.06,-68.1366 1732.91,-62.2906"/>
</g>
<!-- Node0x33c07a0&#45;&gt;Node0x2e8d970 -->
<g id="edge32" class="edge"><title>Node0x33c07a0&#45;&gt;Node0x2e8d970</title>
<path fill="none" stroke="black" d="M1629.54,-786.237C1641.1,-754.226 1658.5,-697.69 1658.5,-647.5 1658.5,-647.5 1658.5,-647.5 1658.5,-138 1658.5,-113.118 1669.77,-87.008 1680.04,-68.3902"/>
<polygon fill="black" stroke="black" points="1683.13,-70.0469 1685.1,-59.6374 1677.06,-66.5445 1683.13,-70.0469"/>
</g>
<!-- Node0x31eebb0 -->
<g id="node27" class="node"><title>Node0x31eebb0</title>
<polygon fill="none" stroke="black" points="117.5,-874.5 117.5,-910.5 785.5,-910.5 785.5,-874.5 117.5,-874.5"/>
<text text-anchor="start" x="125.5" y="-888.8" font-family="Times,serif" font-size="14.00">if (strcmp(IntToPtrCastExpr&lt;ptr&gt;(*(IntToPtrCastExpr&lt;ptr&gt;(*(str)))), &quot;blank&#45;flash&quot;) != 0):</text>
</g>
<!-- Node0x31eeae0&#45;&gt;Node0x31eebb0 -->
<g id="edge33" class="edge"><title>Node0x31eeae0&#45;&gt;Node0x31eebb0</title>
<path fill="none" stroke="black" d="M451.5,-1017.23C451.5,-992.784 451.5,-949.241 451.5,-920.872"/>
<polygon fill="black" stroke="black" points="455,-920.814 451.5,-910.814 448,-920.814 455,-920.814"/>
</g>
<!-- Node0x30cebf0 -->
<g id="node28" class="node"><title>Node0x30cebf0</title>
<polygon fill="none" stroke="black" points="1840,-428.5 1840,-464.5 1963,-464.5 1963,-428.5 1840,-428.5"/>
<text text-anchor="start" x="1848" y="-442.8" font-family="Times,serif" font-size="14.00">goto 0x4017e0</text>
</g>
<!-- Node0x2e77360&#45;&gt;Node0x30cebf0 -->
<g id="edge34" class="edge"><title>Node0x2e77360&#45;&gt;Node0x30cebf0</title>
<path fill="none" stroke="black" d="M1940.91,-555.455C1923.57,-550.488 1909.42,-544.382 1903.5,-537 1889.66,-519.73 1890.6,-493.979 1894.16,-474.526"/>
<polygon fill="black" stroke="black" points="1897.58,-475.246 1896.26,-464.734 1890.74,-473.777 1897.58,-475.246"/>
<text text-anchor="middle" x="2091.5" y="-506.3" font-family="Times,serif" font-size="14.00">strtoul(IntToPtrCastExpr&lt;ptr&gt;(g25), NULL, 0) != 0</text>
</g>
<!-- Node0x30ceb90 -->
<g id="node29" class="node"><title>Node0x30ceb90</title>
<polygon fill="none" stroke="black" points="2071.5,-350 2071.5,-386 2129.5,-386 2129.5,-350 2071.5,-350"/>
<text text-anchor="start" x="2079.5" y="-364.3" font-family="Times,serif" font-size="14.00">break</text>
</g>
<!-- Node0x2e77360&#45;&gt;Node0x30ceb90 -->
<g id="edge35" class="edge"><title>Node0x2e77360&#45;&gt;Node0x30ceb90</title>
<path fill="none" stroke="black" d="M2244.17,-555.447C2260.34,-550.666 2273,-544.626 2279.5,-537 2332.34,-475.023 2206.55,-411.959 2139.37,-383.967"/>
<polygon fill="black" stroke="black" points="2140.49,-380.645 2129.91,-380.096 2137.84,-387.123 2140.49,-380.645"/>
<text text-anchor="middle" x="2482.5" y="-506.3" font-family="Times,serif" font-size="14.00">strtoul(IntToPtrCastExpr&lt;ptr&gt;(g25), NULL, 0) == 0</text>
</g>
<!-- Node0x30ce510&#45;&gt;Node0x2cbb600 -->
<g id="edge36" class="edge"><title>Node0x30ce510&#45;&gt;Node0x2cbb600</title>
<path fill="none" stroke="black" d="M1841.5,-271.465C1841.5,-248.226 1841.5,-206.015 1841.5,-175.686"/>
<polygon fill="black" stroke="black" points="1845,-175.504 1841.5,-165.504 1838,-175.504 1845,-175.504"/>
</g>
<!-- Node0x33c08e0 -->
<g id="node30" class="node"><title>Node0x33c08e0</title>
<polygon fill="none" stroke="black" points="0,-612.5 0,-680.5 737,-680.5 737,-612.5 0,-612.5"/>
<text text-anchor="start" x="8" y="-665.3" font-family="Times,serif" font-size="14.00">v5 = *(IntToPtrCastExpr&lt;ptr&gt;(*(str)))</text>
<text text-anchor="start" x="8" y="-650.3" font-family="Times,serif" font-size="14.00"> fprintf(IntToPtrCastExpr&lt;ptr&gt;((g36 + 64)), &quot;Invalid command: %s\n&quot;, IntToPtrCastExpr&lt;ptr&gt;(v5))</text>
<text text-anchor="start" x="8" y="-635.3" font-family="Times,serif" font-size="14.00"> _usage()</text>
<text text-anchor="start" x="8" y="-620.3" font-family="Times,serif" font-size="14.00"> return &#45;1</text>
</g>
<!-- Node0x31eebb0&#45;&gt;Node0x33c08e0 -->
<g id="edge37" class="edge"><title>Node0x31eebb0&#45;&gt;Node0x33c08e0</title>
<path fill="none" stroke="black" d="M357.764,-874.427C321.948,-865.834 287.124,-854.201 276.5,-840 240.885,-792.394 286.097,-728.81 324.782,-687.999"/>
<polygon fill="black" stroke="black" points="327.458,-690.267 331.908,-680.652 322.433,-685.393 327.458,-690.267"/>
<text text-anchor="middle" x="587.5" y="-809.3" font-family="Times,serif" font-size="14.00">strcmp(IntToPtrCastExpr&lt;ptr&gt;(*(IntToPtrCastExpr&lt;ptr&gt;(*(str)))), &quot;blank&#45;flash&quot;) != 0</text>
</g>
<!-- Node0x300ca00 -->
<g id="node31" class="node"><title>Node0x300ca00</title>
<polygon fill="none" stroke="black" points="925,-699.5 925,-767.5 1012,-767.5 1012,-699.5 925,-699.5"/>
<text text-anchor="start" x="933" y="-752.3" font-family="Times,serif" font-size="14.00">v6 = argc</text>
<text text-anchor="start" x="933" y="-737.3" font-family="Times,serif" font-size="14.00"> result</text>
<text text-anchor="start" x="933" y="-722.3" font-family="Times,serif" font-size="14.00"> v7</text>
<text text-anchor="start" x="933" y="-707.3" font-family="Times,serif" font-size="14.00"> v8</text>
</g>
<!-- Node0x31eebb0&#45;&gt;Node0x300ca00 -->
<g id="edge38" class="edge"><title>Node0x31eebb0&#45;&gt;Node0x300ca00</title>
<path fill="none" stroke="black" d="M785.574,-877.001C837.493,-869.138 881.038,-857.404 902.5,-840 922.149,-824.066 907.58,-807.75 920.5,-786 922.548,-782.552 924.86,-779.142 927.334,-775.816"/>
<polygon fill="black" stroke="black" points="930.265,-777.753 933.76,-767.752 924.791,-773.391 930.265,-777.753"/>
<text text-anchor="middle" x="1234.5" y="-809.3" font-family="Times,serif" font-size="14.00">strcmp(IntToPtrCastExpr&lt;ptr&gt;(*(IntToPtrCastExpr&lt;ptr&gt;(*(str)))), &quot;blank&#45;flash&quot;) == 0</text>
</g>
<!-- Node0x30cebf0&#45;&gt;Node0x30ce510 -->
<g id="edge39" class="edge"><title>Node0x30cebf0&#45;&gt;Node0x30ce510</title>
<path fill="none" stroke="black" d="M1894.85,-428.32C1884.44,-401.435 1864.23,-349.206 1851.89,-317.332"/>
<polygon fill="black" stroke="black" points="1855.05,-315.819 1848.18,-307.757 1848.53,-318.346 1855.05,-315.819"/>
</g>
<!-- Node0x30ceb90&#45;&gt;Node0x2cbb600 -->
<g id="edge40" class="edge"><title>Node0x30ceb90&#45;&gt;Node0x2cbb600</title>
<path fill="none" stroke="black" d="M2081.03,-349.938C2038,-312.222 1934.19,-221.239 1878.41,-172.353"/>
<polygon fill="black" stroke="black" points="1880.7,-169.704 1870.87,-165.745 1876.09,-174.968 1880.7,-169.704"/>
</g>
<!-- Node0x33c08e0&#45;&gt;Node0x2e8d970 -->
<g id="edge41" class="edge"><title>Node0x33c08e0&#45;&gt;Node0x2e8d970</title>
<path fill="none" stroke="black" d="M386.285,-612.254C398.863,-585.641 413.5,-546.95 413.5,-511 413.5,-511 413.5,-511 413.5,-138 413.5,-104.219 445.301,-107.216 477.5,-97 592.443,-60.5328 1467.26,-45.8214 1659.31,-43.014"/>
<polygon fill="black" stroke="black" points="1659.51,-46.5116 1669.46,-42.8675 1659.41,-39.5123 1659.51,-46.5116"/>
</g>
<!-- Node0x354a2b0 -->
<g id="node32" class="node"><title>Node0x354a2b0</title>
<polygon fill="none" stroke="black" points="1021,-556.5 1021,-592.5 1114,-592.5 1114,-556.5 1021,-556.5"/>
<text text-anchor="start" x="1029" y="-570.8" font-family="Times,serif" font-size="14.00">if (v6 &lt; 2):</text>
</g>
<!-- Node0x300ca00&#45;&gt;Node0x354a2b0 -->
<g id="edge42" class="edge"><title>Node0x300ca00&#45;&gt;Node0x354a2b0</title>
<path fill="none" stroke="black" d="M989.495,-699.204C1007.88,-670.057 1034.21,-628.296 1051.08,-601.536"/>
<polygon fill="black" stroke="black" points="1054.25,-603.067 1056.63,-592.741 1048.33,-599.333 1054.25,-603.067"/>
</g>
<!-- Node0x33c0a50 -->
<g id="node33" class="node"><title>Node0x33c0a50</title>
<polygon fill="none" stroke="black" points="1105,-326.5 1105,-409.5 1632,-409.5 1632,-326.5 1105,-326.5"/>
<text text-anchor="start" x="1113" y="-394.3" font-family="Times,serif" font-size="14.00">0x4018ea:</text>
<text text-anchor="start" x="1113" y="-379.3" font-family="Times,serif" font-size="14.00"> v8 = PtrToIntCastExpr&lt;int32&gt;(g20)</text>
<text text-anchor="start" x="1113" y="-364.3" font-family="Times,serif" font-size="14.00"> g1 = v8</text>
<text text-anchor="start" x="1113" y="-349.3" font-family="Times,serif" font-size="14.00"> result = _blank_flash_device(v8, 0, 0, IntToPtrCastExpr&lt;ptr&gt;(v1), v7)</text>
<text text-anchor="start" x="1113" y="-334.3" font-family="Times,serif" font-size="14.00"> return result</text>
</g>
<!-- Node0x354a2b0&#45;&gt;Node0x33c0a50 -->
<g id="edge43" class="edge"><title>Node0x354a2b0&#45;&gt;Node0x33c0a50</title>
<path fill="none" stroke="black" d="M1098.29,-556.376C1108.89,-550.368 1120.78,-543.497 1131.5,-537 1182.11,-506.331 1195.1,-499.052 1243.5,-465 1265.43,-449.571 1288.89,-431.887 1309.49,-415.936"/>
<polygon fill="black" stroke="black" points="1311.78,-418.585 1317.53,-409.685 1307.49,-413.059 1311.78,-418.585"/>
<text text-anchor="middle" x="1241.5" y="-506.3" font-family="Times,serif" font-size="14.00">v6 &lt; 2</text>
</g>
<!-- Node0x32168d0 -->
<g id="node34" class="node"><title>Node0x32168d0</title>
<polygon fill="none" stroke="black" points="900,-428.5 900,-464.5 1235,-464.5 1235,-428.5 900,-428.5"/>
<text text-anchor="start" x="908" y="-442.8" font-family="Times,serif" font-size="14.00">v9 = *(IntToPtrCastExpr&lt;ptr&gt;((*(str) + 4)))</text>
</g>
<!-- Node0x354a2b0&#45;&gt;Node0x32168d0 -->
<g id="edge44" class="edge"><title>Node0x354a2b0&#45;&gt;Node0x32168d0</title>
<path fill="none" stroke="black" d="M1067.5,-556.244C1067.5,-535.226 1067.5,-499.469 1067.5,-474.725"/>
<polygon fill="black" stroke="black" points="1071,-474.547 1067.5,-464.547 1064,-474.547 1071,-474.547"/>
<text text-anchor="middle" x="1097.5" y="-506.3" font-family="Times,serif" font-size="14.00">v6 &gt;= 2</text>
</g>
<!-- Node0x33c0a50&#45;&gt;Node0x2e8d970 -->
<g id="edge45" class="edge"><title>Node0x33c0a50&#45;&gt;Node0x2e8d970</title>
<path fill="none" stroke="black" d="M1436.17,-326.385C1487.32,-292.808 1556.22,-241.019 1601.5,-181 1631.37,-141.398 1613.17,-116.459 1644.5,-78 1649.15,-72.2902 1654.96,-67.127 1660.99,-62.6181"/>
<polygon fill="black" stroke="black" points="1663.03,-65.4578 1669.26,-56.8852 1659.05,-59.7041 1663.03,-65.4578"/>
</g>
<!-- Node0x3216930 -->
<g id="node35" class="node"><title>Node0x3216930</title>
<polygon fill="none" stroke="black" points="1015,-271.5 1015,-307.5 1120,-307.5 1120,-271.5 1015,-271.5"/>
<text text-anchor="start" x="1023" y="-285.8" font-family="Times,serif" font-size="14.00">if (v6 &gt;= 3):</text>
</g>
<!-- Node0x32168d0&#45;&gt;Node0x3216930 -->
<g id="edge46" class="edge"><title>Node0x32168d0&#45;&gt;Node0x3216930</title>
<path fill="none" stroke="black" d="M1067.5,-428.32C1067.5,-401.668 1067.5,-350.109 1067.5,-318.165"/>
<polygon fill="black" stroke="black" points="1071,-317.757 1067.5,-307.757 1064,-317.757 1071,-317.757"/>
</g>
<!-- Node0x33c0c20 -->
<g id="node36" class="node"><title>Node0x33c0c20</title>
<polygon fill="none" stroke="black" points="1040.5,-97.5 1040.5,-180.5 1592.5,-180.5 1592.5,-97.5 1040.5,-97.5"/>
<text text-anchor="start" x="1048.5" y="-165.3" font-family="Times,serif" font-size="14.00">v10 = *(IntToPtrCastExpr&lt;ptr&gt;((*(str) + 8)))</text>
<text text-anchor="start" x="1048.5" y="-150.3" font-family="Times,serif" font-size="14.00"> v8 = PtrToIntCastExpr&lt;int32&gt;(g20)</text>
<text text-anchor="start" x="1048.5" y="-135.3" font-family="Times,serif" font-size="14.00"> g1 = v8</text>
<text text-anchor="start" x="1048.5" y="-120.3" font-family="Times,serif" font-size="14.00"> result = _blank_flash_device(v8, v9, v10, IntToPtrCastExpr&lt;ptr&gt;(v1), v7)</text>
<text text-anchor="start" x="1048.5" y="-105.3" font-family="Times,serif" font-size="14.00"> return result</text>
</g>
<!-- Node0x3216930&#45;&gt;Node0x33c0c20 -->
<g id="edge47" class="edge"><title>Node0x3216930&#45;&gt;Node0x33c0c20</title>
<path fill="none" stroke="black" d="M1096.06,-271.465C1130.89,-250.695 1191.13,-214.769 1239.84,-185.717"/>
<polygon fill="black" stroke="black" points="1241.69,-188.691 1248.49,-180.563 1238.1,-182.679 1241.69,-188.691"/>
<text text-anchor="middle" x="1244.5" y="-222.3" font-family="Times,serif" font-size="14.00">v6 &gt;= 3</text>
</g>
<!-- Node0x2bb4eb0 -->
<g id="node37" class="node"><title>Node0x2bb4eb0</title>
<polygon fill="none" stroke="black" points="487,-97.5 487,-180.5 1022,-180.5 1022,-97.5 487,-97.5"/>
<text text-anchor="start" x="495" y="-165.3" font-family="Times,serif" font-size="14.00">0x4018ea:</text>
<text text-anchor="start" x="495" y="-150.3" font-family="Times,serif" font-size="14.00"> v8 = PtrToIntCastExpr&lt;int32&gt;(g20)</text>
<text text-anchor="start" x="495" y="-135.3" font-family="Times,serif" font-size="14.00"> g1 = v8</text>
<text text-anchor="start" x="495" y="-120.3" font-family="Times,serif" font-size="14.00"> result = _blank_flash_device(v8, v9, 0, IntToPtrCastExpr&lt;ptr&gt;(v1), v7)</text>
<text text-anchor="start" x="495" y="-105.3" font-family="Times,serif" font-size="14.00"> return result</text>
</g>
<!-- Node0x3216930&#45;&gt;Node0x2bb4eb0 -->
<g id="edge48" class="edge"><title>Node0x3216930&#45;&gt;Node0x2bb4eb0</title>
<path fill="none" stroke="black" d="M1031.59,-271.465C987.454,-250.523 910.838,-214.173 849.341,-184.996"/>
<polygon fill="black" stroke="black" points="850.531,-181.687 839.996,-180.563 847.531,-188.012 850.531,-181.687"/>
<text text-anchor="middle" x="1016.5" y="-222.3" font-family="Times,serif" font-size="14.00">v6 &lt; 3</text>
</g>
<!-- Node0x33c0c20&#45;&gt;Node0x2e8d970 -->
<g id="edge49" class="edge"><title>Node0x33c0c20&#45;&gt;Node0x2e8d970</title>
<path fill="none" stroke="black" d="M1477.65,-97.4994C1544.93,-80.5921 1617.14,-62.4434 1659.5,-51.7998"/>
<polygon fill="black" stroke="black" points="1660.5,-55.1569 1669.34,-49.325 1658.79,-48.368 1660.5,-55.1569"/>
</g>
<!-- Node0x2bb4eb0&#45;&gt;Node0x2e8d970 -->
<g id="edge50" class="edge"><title>Node0x2bb4eb0&#45;&gt;Node0x2e8d970</title>
<path fill="none" stroke="black" d="M1022.03,-98.1055C1025.2,-97.7293 1028.36,-97.3606 1031.5,-97 1269.91,-69.6156 1557.95,-50.8615 1659.17,-44.7033"/>
<polygon fill="black" stroke="black" points="1659.43,-48.1939 1669.2,-44.097 1659.01,-41.2067 1659.43,-48.1939"/>
</g>
</g>
</svg>
