<?xml version="1.0" encoding="UTF-8" standalone="no"?>
<!DOCTYPE svg PUBLIC "-//W3C//DTD SVG 1.1//EN"
 "http://www.w3.org/Graphics/SVG/1.1/DTD/svg11.dtd">
<!-- Generated by graphviz version 2.38.0 (20140413.2041)
 -->
<!-- Title: Control&#45;flow graph for function &#39;_msleep(dwMilliseconds)&#39;. Pages: 1 -->
<svg width="445pt" height="218pt"
 viewBox="0.00 0.00 445.00 218.00" xmlns="http://www.w3.org/2000/svg" xmlns:xlink="http://www.w3.org/1999/xlink">
<g id="graph0" class="graph" transform="scale(1 1) rotate(0) translate(4 214)">
<title>Control&#45;flow graph for function &#39;_msleep(dwMilliseconds)&#39;.</title>
<polygon fill="white" stroke="none" points="-4,4 -4,-214 441,-214 441,4 -4,4"/>
<text text-anchor="middle" x="218.5" y="-7.8" font-family="Times,serif" font-size="14.00">Control&#45;flow graph for function &#39;_msleep(dwMilliseconds)&#39;.</text>
<!-- Node0x2f39a80 -->
<g id="node1" class="node"><title>Node0x2f39a80</title>
<polygon fill="none" stroke="black" points="152,-171.5 152,-209.5 285,-209.5 285,-171.5 152,-171.5"/>
<text text-anchor="start" x="160" y="-194.3" font-family="Times,serif" font-size="14.00">entry:</text>
<text text-anchor="start" x="160" y="-179.3" font-family="Times,serif" font-size="14.00"> dwMilliseconds</text>
</g>
<!-- Node0x2d425a0 -->
<g id="node2" class="node"><title>Node0x2d425a0</title>
<polygon fill="none" stroke="black" points="127.5,-96.5 127.5,-134.5 309.5,-134.5 309.5,-96.5 127.5,-96.5"/>
<text text-anchor="start" x="135.5" y="-119.3" font-family="Times,serif" font-size="14.00">0x401671:</text>
<text text-anchor="start" x="135.5" y="-104.3" font-family="Times,serif" font-size="14.00"> Sleep(dwMilliseconds)</text>
</g>
<!-- Node0x2f39a80&#45;&gt;Node0x2d425a0 -->
<g id="edge1" class="edge"><title>Node0x2f39a80&#45;&gt;Node0x2d425a0</title>
<path fill="none" stroke="black" d="M218.5,-171.455C218.5,-163.383 218.5,-153.676 218.5,-144.682"/>
<polygon fill="black" stroke="black" points="222,-144.59 218.5,-134.59 215,-144.59 222,-144.59"/>
</g>
<!-- Node0x2dbbff0 -->
<g id="node3" class="node"><title>Node0x2dbbff0</title>
<polygon fill="none" stroke="black" points="191.5,-23.5 191.5,-59.5 245.5,-59.5 245.5,-23.5 191.5,-23.5"/>
<text text-anchor="start" x="199.5" y="-37.8" font-family="Times,serif" font-size="14.00">exit:</text>
</g>
<!-- Node0x2d425a0&#45;&gt;Node0x2dbbff0 -->
<g id="edge2" class="edge"><title>Node0x2d425a0&#45;&gt;Node0x2dbbff0</title>
<path fill="none" stroke="black" d="M218.5,-96.3314C218.5,-88.394 218.5,-78.9095 218.5,-70.1285"/>
<polygon fill="black" stroke="black" points="222,-69.9177 218.5,-59.9177 215,-69.9177 222,-69.9177"/>
</g>
</g>
</svg>
