<?xml version="1.0" encoding="UTF-8" standalone="no"?>
<!DOCTYPE svg PUBLIC "-//W3C//DTD SVG 1.1//EN"
 "http://www.w3.org/Graphics/SVG/1.1/DTD/svg11.dtd">
<!-- Generated by graphviz version 2.38.0 (20140413.2041)
 -->
<!-- Title: Control&#45;flow graph for function &#39;_getopt_long_only(a1, a2, a3, a4, a5)&#39;. Pages: 1 -->
<svg width="1093pt" height="293pt"
 viewBox="0.00 0.00 1093.00 293.00" xmlns="http://www.w3.org/2000/svg" xmlns:xlink="http://www.w3.org/1999/xlink">
<g id="graph0" class="graph" transform="scale(1 1) rotate(0) translate(4 289)">
<title>Control&#45;flow graph for function &#39;_getopt_long_only(a1, a2, a3, a4, a5)&#39;.</title>
<polygon fill="white" stroke="none" points="-4,4 -4,-289 1089,-289 1089,4 -4,4"/>
<text text-anchor="middle" x="542.5" y="-7.8" font-family="Times,serif" font-size="14.00">Control&#45;flow graph for function &#39;_getopt_long_only(a1, a2, a3, a4, a5)&#39;.</text>
<!-- Node0x2f60e10 -->
<g id="node1" class="node"><title>Node0x2f60e10</title>
<polygon fill="none" stroke="black" points="513,-186.5 513,-284.5 572,-284.5 572,-186.5 513,-186.5"/>
<text text-anchor="start" x="521" y="-269.3" font-family="Times,serif" font-size="14.00">entry:</text>
<text text-anchor="start" x="521" y="-254.3" font-family="Times,serif" font-size="14.00"> a1</text>
<text text-anchor="start" x="521" y="-239.3" font-family="Times,serif" font-size="14.00"> a2</text>
<text text-anchor="start" x="521" y="-224.3" font-family="Times,serif" font-size="14.00"> a3</text>
<text text-anchor="start" x="521" y="-209.3" font-family="Times,serif" font-size="14.00"> a4</text>
<text text-anchor="start" x="521" y="-194.3" font-family="Times,serif" font-size="14.00"> a5</text>
</g>
<!-- Node0x2d5cec0 -->
<g id="node2" class="node"><title>Node0x2d5cec0</title>
<polygon fill="none" stroke="black" points="0,-96.5 0,-149.5 1085,-149.5 1085,-96.5 0,-96.5"/>
<text text-anchor="start" x="8" y="-134.3" font-family="Times,serif" font-size="14.00">0x4027d0:</text>
<text text-anchor="start" x="8" y="-119.3" font-family="Times,serif" font-size="14.00"> v1</text>
<text text-anchor="start" x="8" y="-104.3" font-family="Times,serif" font-size="14.00"> return _getopt_parse(2, a1, IntToPtrCastExpr&lt;ptr&gt;(a2), IntToPtrCastExpr&lt;ptr&gt;(a3), IntToPtrCastExpr&lt;ptr&gt;(a4), IntToPtrCastExpr&lt;ptr&gt;(a5), v1)</text>
</g>
<!-- Node0x2f60e10&#45;&gt;Node0x2d5cec0 -->
<g id="edge1" class="edge"><title>Node0x2f60e10&#45;&gt;Node0x2d5cec0</title>
<path fill="none" stroke="black" d="M542.5,-186.355C542.5,-177.44 542.5,-168.274 542.5,-159.807"/>
<polygon fill="black" stroke="black" points="546,-159.527 542.5,-149.527 539,-159.527 546,-159.527"/>
</g>
<!-- Node0x3334890 -->
<g id="node3" class="node"><title>Node0x3334890</title>
<polygon fill="none" stroke="black" points="515.5,-23.5 515.5,-59.5 569.5,-59.5 569.5,-23.5 515.5,-23.5"/>
<text text-anchor="start" x="523.5" y="-37.8" font-family="Times,serif" font-size="14.00">exit:</text>
</g>
<!-- Node0x2d5cec0&#45;&gt;Node0x3334890 -->
<g id="edge2" class="edge"><title>Node0x2d5cec0&#45;&gt;Node0x3334890</title>
<path fill="none" stroke="black" d="M542.5,-96.4081C542.5,-87.9823 542.5,-78.5803 542.5,-70.0174"/>
<polygon fill="black" stroke="black" points="546,-69.7564 542.5,-59.7564 539,-69.7565 546,-69.7564"/>
</g>
</g>
</svg>
