<?xml version="1.0" encoding="UTF-8" standalone="no"?>
<!DOCTYPE svg PUBLIC "-//W3C//DTD SVG 1.1//EN"
 "http://www.w3.org/Graphics/SVG/1.1/DTD/svg11.dtd">
<!-- Generated by graphviz version 2.38.0 (20140413.2041)
 -->
<!-- Title: Control&#45;flow graph for function &#39;___gcc_register_frame(a1)&#39;. Pages: 1 -->
<svg width="846pt" height="1061pt"
 viewBox="0.00 0.00 846.00 1061.00" xmlns="http://www.w3.org/2000/svg" xmlns:xlink="http://www.w3.org/1999/xlink">
<g id="graph0" class="graph" transform="scale(1 1) rotate(0) translate(4 1057)">
<title>Control&#45;flow graph for function &#39;___gcc_register_frame(a1)&#39;.</title>
<polygon fill="white" stroke="none" points="-4,4 -4,-1057 842,-1057 842,4 -4,4"/>
<text text-anchor="middle" x="419" y="-7.8" font-family="Times,serif" font-size="14.00">Control&#45;flow graph for function &#39;___gcc_register_frame(a1)&#39;.</text>
<!-- Node0x2f57080 -->
<g id="node1" class="node"><title>Node0x2f57080</title>
<polygon fill="none" stroke="black" points="194.5,-1014.5 194.5,-1052.5 253.5,-1052.5 253.5,-1014.5 194.5,-1014.5"/>
<text text-anchor="start" x="202.5" y="-1037.3" font-family="Times,serif" font-size="14.00">entry:</text>
<text text-anchor="start" x="202.5" y="-1022.3" font-family="Times,serif" font-size="14.00"> a1</text>
</g>
<!-- Node0x31ef7f0 -->
<g id="node2" class="node"><title>Node0x31ef7f0</title>
<polygon fill="none" stroke="black" points="73.5,-893.5 73.5,-976.5 374.5,-976.5 374.5,-893.5 73.5,-893.5"/>
<text text-anchor="start" x="81.5" y="-961.3" font-family="Times,serif" font-size="14.00">v1</text>
<text text-anchor="start" x="81.5" y="-946.3" font-family="Times,serif" font-size="14.00"> g2 = &amp;(v1)</text>
<text text-anchor="start" x="81.5" y="-931.3" font-family="Times,serif" font-size="14.00"> v2 = g16</text>
<text text-anchor="start" x="81.5" y="-916.3" font-family="Times,serif" font-size="14.00"> result = PtrToIntCastExpr&lt;int32&gt;(v2)</text>
<text text-anchor="start" x="81.5" y="-901.3" font-family="Times,serif" font-size="14.00"> g1 = result</text>
</g>
<!-- Node0x2f57080&#45;&gt;Node0x31ef7f0 -->
<g id="edge1" class="edge"><title>Node0x2f57080&#45;&gt;Node0x31ef7f0</title>
<path fill="none" stroke="black" d="M224,-1014.35C224,-1006.49 224,-996.852 224,-987.061"/>
<polygon fill="black" stroke="black" points="227.5,-986.87 224,-976.87 220.5,-986.87 227.5,-986.87"/>
</g>
<!-- Node0x2eccef0 -->
<g id="node3" class="node"><title>Node0x2eccef0</title>
<polygon fill="none" stroke="black" points="154,-819.5 154,-855.5 294,-855.5 294,-819.5 154,-819.5"/>
<text text-anchor="start" x="162" y="-833.8" font-family="Times,serif" font-size="14.00">if (v2 == NULL):</text>
</g>
<!-- Node0x31ef7f0&#45;&gt;Node0x2eccef0 -->
<g id="edge2" class="edge"><title>Node0x31ef7f0&#45;&gt;Node0x2eccef0</title>
<path fill="none" stroke="black" d="M224,-893.499C224,-884.206 224,-874.537 224,-865.946"/>
<polygon fill="black" stroke="black" points="227.5,-865.749 224,-855.749 220.5,-865.749 227.5,-865.749"/>
</g>
<!-- Node0x2a722f0 -->
<g id="node4" class="node"><title>Node0x2a722f0</title>
<polygon fill="none" stroke="black" points="0,-642.5 0,-695.5 280,-695.5 280,-642.5 0,-642.5"/>
<text text-anchor="start" x="8" y="-680.3" font-family="Times,serif" font-size="14.00">0x4012da:</text>
<text text-anchor="start" x="8" y="-665.3" font-family="Times,serif" font-size="14.00"> g2 = *(IntToPtrCastExpr&lt;ptr&gt;(g2))</text>
<text text-anchor="start" x="8" y="-650.3" font-family="Times,serif" font-size="14.00"> return result</text>
</g>
<!-- Node0x2eccef0&#45;&gt;Node0x2a722f0 -->
<g id="edge3" class="edge"><title>Node0x2eccef0&#45;&gt;Node0x2a722f0</title>
<path fill="none" stroke="black" d="M198.789,-819.177C191.929,-813.806 184.799,-807.561 179,-801 155.625,-774.556 146.247,-734.62 142.492,-705.796"/>
<polygon fill="black" stroke="black" points="145.954,-705.266 141.347,-695.725 138.999,-706.056 145.954,-705.266"/>
<text text-anchor="middle" x="226" y="-789.8" font-family="Times,serif" font-size="14.00">v2 == NULL</text>
</g>
<!-- Node0x353a110 -->
<g id="node5" class="node"><title>Node0x353a110</title>
<polygon fill="none" stroke="black" points="168.5,-714.5 168.5,-767.5 553.5,-767.5 553.5,-714.5 168.5,-714.5"/>
<text text-anchor="start" x="176.5" y="-752.3" font-family="Times,serif" font-size="14.00">moduleHandle = GetModuleHandleA(&quot;libgcj_s.dll&quot;)</text>
<text text-anchor="start" x="176.5" y="-737.3" font-family="Times,serif" font-size="14.00"> g6 = PtrToIntCastExpr&lt;int32&gt;(moduleHandle)</text>
<text text-anchor="start" x="176.5" y="-722.3" font-family="Times,serif" font-size="14.00"> g1 = 0</text>
</g>
<!-- Node0x2eccef0&#45;&gt;Node0x353a110 -->
<g id="edge4" class="edge"><title>Node0x2eccef0&#45;&gt;Node0x353a110</title>
<path fill="none" stroke="black" d="M248.81,-819.387C267.407,-806.558 293.379,-788.644 315.651,-773.281"/>
<polygon fill="black" stroke="black" points="317.738,-776.093 323.982,-767.534 313.763,-770.331 317.738,-776.093"/>
<text text-anchor="middle" x="341" y="-789.8" font-family="Times,serif" font-size="14.00">v2 != NULL</text>
</g>
<!-- Node0x2c51550 -->
<g id="node6" class="node"><title>Node0x2c51550</title>
<polygon fill="none" stroke="black" points="209,-23.5 209,-59.5 263,-59.5 263,-23.5 209,-23.5"/>
<text text-anchor="start" x="217" y="-37.8" font-family="Times,serif" font-size="14.00">exit:</text>
</g>
<!-- Node0x2a722f0&#45;&gt;Node0x2c51550 -->
<g id="edge5" class="edge"><title>Node0x2a722f0&#45;&gt;Node0x2c51550</title>
<path fill="none" stroke="black" d="M140,-642.418C140,-621.053 140,-589.791 140,-562.5 140,-562.5 140,-562.5 140,-123 140,-90.7017 172.3,-68.7879 199.428,-56.0785"/>
<polygon fill="black" stroke="black" points="201.012,-59.2052 208.747,-51.9649 198.185,-52.8014 201.012,-59.2052"/>
</g>
<!-- Node0x2e9f960 -->
<g id="node7" class="node"><title>Node0x2e9f960</title>
<polygon fill="none" stroke="black" points="247.5,-587.5 247.5,-623.5 474.5,-623.5 474.5,-587.5 247.5,-587.5"/>
<text text-anchor="start" x="255.5" y="-601.8" font-family="Times,serif" font-size="14.00">if (moduleHandle == NULL):</text>
</g>
<!-- Node0x353a110&#45;&gt;Node0x2e9f960 -->
<g id="edge6" class="edge"><title>Node0x353a110&#45;&gt;Node0x2e9f960</title>
<path fill="none" stroke="black" d="M361,-714.26C361,-691.131 361,-657.278 361,-633.709"/>
<polygon fill="black" stroke="black" points="364.5,-633.679 361,-623.679 357.5,-633.68 364.5,-633.679"/>
</g>
<!-- Node0x2ee9b40 -->
<g id="node8" class="node"><title>Node0x2ee9b40</title>
<polygon fill="none" stroke="black" points="155,-350.5 155,-403.5 435,-403.5 435,-350.5 155,-350.5"/>
<text text-anchor="start" x="163" y="-388.3" font-family="Times,serif" font-size="14.00">0x4012da:</text>
<text text-anchor="start" x="163" y="-373.3" font-family="Times,serif" font-size="14.00"> g2 = *(IntToPtrCastExpr&lt;ptr&gt;(g2))</text>
<text text-anchor="start" x="163" y="-358.3" font-family="Times,serif" font-size="14.00"> return 0</text>
</g>
<!-- Node0x2e9f960&#45;&gt;Node0x2ee9b40 -->
<g id="edge7" class="edge"><title>Node0x2e9f960&#45;&gt;Node0x2ee9b40</title>
<path fill="none" stroke="black" d="M313.839,-587.471C306.323,-582.659 299.538,-576.595 295,-569 266.46,-521.242 275.33,-454.042 284.832,-413.399"/>
<polygon fill="black" stroke="black" points="288.236,-414.214 287.24,-403.666 281.441,-412.533 288.236,-414.214"/>
<text text-anchor="middle" x="385.5" y="-557.8" font-family="Times,serif" font-size="14.00">moduleHandle == NULL</text>
</g>
<!-- Node0x2f5d900 -->
<g id="node9" class="node"><title>Node0x2f5d900</title>
<polygon fill="none" stroke="black" points="323.5,-422.5 323.5,-535.5 796.5,-535.5 796.5,-422.5 323.5,-422.5"/>
<text text-anchor="start" x="331.5" y="-520.3" font-family="Times,serif" font-size="14.00">0x4012c9:</text>
<text text-anchor="start" x="331.5" y="-505.3" font-family="Times,serif" font-size="14.00"> v1 = 0</text>
<text text-anchor="start" x="331.5" y="-490.3" font-family="Times,serif" font-size="14.00"> func = GetProcAddress(moduleHandle, &quot;_Jv_RegisterClasses&quot;)</text>
<text text-anchor="start" x="331.5" y="-475.3" font-family="Times,serif" font-size="14.00"> g1 = PtrToIntCastExpr&lt;int32&gt;(func)</text>
<text text-anchor="start" x="331.5" y="-460.3" font-family="Times,serif" font-size="14.00"> g6 = 0</text>
<text text-anchor="start" x="331.5" y="-445.3" font-family="Times,serif" font-size="14.00"> g4 = v1</text>
<text text-anchor="start" x="331.5" y="-430.3" font-family="Times,serif" font-size="14.00"> result2</text>
</g>
<!-- Node0x2e9f960&#45;&gt;Node0x2f5d900 -->
<g id="edge8" class="edge"><title>Node0x2e9f960&#45;&gt;Node0x2f5d900</title>
<path fill="none" stroke="black" d="M440.48,-587.437C454.243,-582.655 467.977,-576.61 480,-569 491.192,-561.917 501.77,-552.842 511.347,-543.207"/>
<polygon fill="black" stroke="black" points="514.091,-545.402 518.469,-535.754 509.03,-540.566 514.091,-545.402"/>
<text text-anchor="middle" x="585.5" y="-557.8" font-family="Times,serif" font-size="14.00">moduleHandle != NULL</text>
</g>
<!-- Node0x2ee9b40&#45;&gt;Node0x2c51550 -->
<g id="edge9" class="edge"><title>Node0x2ee9b40&#45;&gt;Node0x2c51550</title>
<path fill="none" stroke="black" d="M271.342,-350.306C254.928,-329.757 236,-299.37 236,-268.5 236,-268.5 236,-268.5 236,-123 236,-105.286 236,-85.379 236,-69.7932"/>
<polygon fill="black" stroke="black" points="239.5,-69.7734 236,-59.7734 232.5,-69.7735 239.5,-69.7734"/>
</g>
<!-- Node0x302c320 -->
<g id="node10" class="node"><title>Node0x302c320</title>
<polygon fill="none" stroke="black" points="486,-293.5 486,-331.5 634,-331.5 634,-293.5 486,-293.5"/>
<text text-anchor="start" x="494" y="-316.3" font-family="Times,serif" font-size="14.00">if (func != NULL):</text>
<text text-anchor="start" x="494" y="-301.3" font-family="Times,serif" font-size="14.00"> else:</text>
</g>
<!-- Node0x2f5d900&#45;&gt;Node0x302c320 -->
<g id="edge10" class="edge"><title>Node0x2f5d900&#45;&gt;Node0x302c320</title>
<path fill="none" stroke="black" d="M560,-422.308C560,-395.234 560,-363.859 560,-341.777"/>
<polygon fill="black" stroke="black" points="563.5,-341.743 560,-331.743 556.5,-341.743 563.5,-341.743"/>
</g>
<!-- Node0x31d1160 -->
<g id="node11" class="node"><title>Node0x31d1160</title>
<polygon fill="none" stroke="black" points="264,-188.5 264,-241.5 722,-241.5 722,-188.5 264,-188.5"/>
<text text-anchor="start" x="272" y="-226.3" font-family="Times,serif" font-size="14.00">0x4012cd:</text>
<text text-anchor="start" x="272" y="-211.3" font-family="Times,serif" font-size="14.00"> BitCastExpr&lt;ptr&gt;(func)(PtrToIntCastExpr&lt;int32&gt;(&amp;(g16)))</text>
<text text-anchor="start" x="272" y="-196.3" font-family="Times,serif" font-size="14.00"> result2 = g1</text>
</g>
<!-- Node0x302c320&#45;&gt;Node0x31d1160 -->
<g id="edge11" class="edge"><title>Node0x302c320&#45;&gt;Node0x31d1160</title>
<path fill="none" stroke="black" d="M547.082,-293.087C538.499,-280.853 526.974,-264.425 516.768,-249.878"/>
<polygon fill="black" stroke="black" points="519.552,-247.753 510.944,-241.577 513.822,-251.773 519.552,-247.753"/>
<text text-anchor="middle" x="583.5" y="-263.8" font-family="Times,serif" font-size="14.00">func != NULL</text>
</g>
<!-- Node0x2f81980 -->
<g id="node12" class="node"><title>Node0x2f81980</title>
<polygon fill="none" stroke="black" points="740,-197 740,-233 838,-233 838,-197 740,-197"/>
<text text-anchor="start" x="748" y="-211.3" font-family="Times,serif" font-size="14.00">result2 = 0</text>
</g>
<!-- Node0x302c320&#45;&gt;Node0x2f81980 -->
<g id="edge12" class="edge"><title>Node0x302c320&#45;&gt;Node0x2f81980</title>
<path fill="none" stroke="black" d="M605.545,-293.498C640.102,-279.716 688.711,-260.066 731,-242 734.607,-240.459 738.331,-238.845 742.069,-237.207"/>
<polygon fill="black" stroke="black" points="743.599,-240.358 751.334,-233.117 740.772,-233.954 743.599,-240.358"/>
<text text-anchor="middle" x="738.5" y="-263.8" font-family="Times,serif" font-size="14.00">func == NULL</text>
</g>
<!-- Node0x3403130 -->
<g id="node13" class="node"><title>Node0x3403130</title>
<polygon fill="none" stroke="black" points="353,-97.5 353,-150.5 633,-150.5 633,-97.5 353,-97.5"/>
<text text-anchor="start" x="361" y="-135.3" font-family="Times,serif" font-size="14.00">0x4012da:</text>
<text text-anchor="start" x="361" y="-120.3" font-family="Times,serif" font-size="14.00"> g2 = *(IntToPtrCastExpr&lt;ptr&gt;(g2))</text>
<text text-anchor="start" x="361" y="-105.3" font-family="Times,serif" font-size="14.00"> return result2</text>
</g>
<!-- Node0x31d1160&#45;&gt;Node0x3403130 -->
<g id="edge13" class="edge"><title>Node0x31d1160&#45;&gt;Node0x3403130</title>
<path fill="none" stroke="black" d="M493,-188.258C493,-179.678 493,-169.961 493,-160.762"/>
<polygon fill="black" stroke="black" points="496.5,-160.685 493,-150.685 489.5,-160.685 496.5,-160.685"/>
</g>
<!-- Node0x2f81980&#45;&gt;Node0x3403130 -->
<g id="edge14" class="edge"><title>Node0x2f81980&#45;&gt;Node0x3403130</title>
<path fill="none" stroke="black" d="M753.481,-196.985C746.136,-193.777 738.386,-190.613 731,-188 693.734,-174.814 652.331,-162.932 614.644,-153.134"/>
<polygon fill="black" stroke="black" points="615.192,-149.661 604.636,-150.558 613.447,-156.44 615.192,-149.661"/>
</g>
<!-- Node0x3403130&#45;&gt;Node0x2c51550 -->
<g id="edge15" class="edge"><title>Node0x3403130&#45;&gt;Node0x2c51550</title>
<path fill="none" stroke="black" d="M411.33,-97.4187C364.712,-82.8163 308.566,-65.2299 272.588,-53.9606"/>
<polygon fill="black" stroke="black" points="273.589,-50.6065 263,-50.9573 271.497,-57.2864 273.589,-50.6065"/>
</g>
</g>
</svg>
