<?xml version="1.0" encoding="UTF-8" standalone="no"?>
<!DOCTYPE svg PUBLIC "-//W3C//DTD SVG 1.1//EN"
 "http://www.w3.org/Graphics/SVG/1.1/DTD/svg11.dtd">
<!-- Generated by graphviz version 2.38.0 (20140413.2041)
 -->
<!-- Title: Control&#45;flow graph for function &#39;_usage()&#39;. Pages: 1 -->
<svg width="6398pt" height="231pt"
 viewBox="0.00 0.00 6398.00 231.00" xmlns="http://www.w3.org/2000/svg" xmlns:xlink="http://www.w3.org/1999/xlink">
<g id="graph0" class="graph" transform="scale(1 1) rotate(0) translate(4 227)">
<title>Control&#45;flow graph for function &#39;_usage()&#39;.</title>
<polygon fill="white" stroke="none" points="-4,4 -4,-227 6394,-227 6394,4 -4,4"/>
<text text-anchor="middle" x="3195" y="-7.8" font-family="Times,serif" font-size="14.00">Control&#45;flow graph for function &#39;_usage()&#39;.</text>
<!-- Node0x3251020 -->
<g id="node1" class="node"><title>Node0x3251020</title>
<polygon fill="none" stroke="black" points="3165.5,-186.5 3165.5,-222.5 3224.5,-222.5 3224.5,-186.5 3165.5,-186.5"/>
<text text-anchor="start" x="3173.5" y="-200.8" font-family="Times,serif" font-size="14.00">entry:</text>
</g>
<!-- Node0x315e510 -->
<g id="node2" class="node"><title>Node0x315e510</title>
<polygon fill="none" stroke="black" points="0,-96.5 0,-149.5 6390,-149.5 6390,-96.5 0,-96.5"/>
<text text-anchor="start" x="8" y="-134.3" font-family="Times,serif" font-size="14.00">items_written = fwrite(&quot;usage: qboot [ &lt;option&gt; ] &lt;command&gt;\n\ncommands:\n devices list connected devices\n blank&#45;flash [ &lt;programmer&gt; [ &lt;singleimage&gt; ]] blank flash device\n\noptions:\n &#45;p &lt;port&gt;, &#45;&#45;port=&lt;port&gt; specify device port\n This is needed only when the program does not detect\n the device automatically or when multiple devices in\n blank flash mode are connected\n\n Set &#45;&#45;port to be the full or any unambiguous part of\n a device pathname. For example:\n &#45;&#45;port=100\n &#45;&#45;port=COM100\n &#45;&#45;port=ttyUSB3\n &#45;&#45;port=/dev/ttyUSB3\n &#45;&#45;port=/dev/tty.usbtoserial\n &#45;&#45;debug[=&lt;level&gt;] enable debugging\n 1(default): show debug messages\n 2: also dump raw packets\n &#45;h, &#45;&#45;help show help screen\n &#45;v, &#45;&#45;version show version info\n\nexamples:\n qboot devices list all connected devices\n qboot blank&#45;flash blank flash device\n&quot;, 1, 1196, IntToPtrCastExpr&lt;ptr&gt;((g36 + 64)))</text>
<text text-anchor="start" x="8" y="-119.3" font-family="Times,serif" font-size="14.00"> g1 = items_written</text>
<text text-anchor="start" x="8" y="-104.3" font-family="Times,serif" font-size="14.00"> return items_written</text>
</g>
<!-- Node0x3251020&#45;&gt;Node0x315e510 -->
<g id="edge1" class="edge"><title>Node0x3251020&#45;&gt;Node0x315e510</title>
<path fill="none" stroke="black" d="M3195,-186.25C3195,-178.486 3195,-169.014 3195,-159.825"/>
<polygon fill="black" stroke="black" points="3198.5,-159.676 3195,-149.676 3191.5,-159.676 3198.5,-159.676"/>
</g>
<!-- Node0x3342950 -->
<g id="node3" class="node"><title>Node0x3342950</title>
<polygon fill="none" stroke="black" points="3168,-23.5 3168,-59.5 3222,-59.5 3222,-23.5 3168,-23.5"/>
<text text-anchor="start" x="3176" y="-37.8" font-family="Times,serif" font-size="14.00">exit:</text>
</g>
<!-- Node0x315e510&#45;&gt;Node0x3342950 -->
<g id="edge2" class="edge"><title>Node0x315e510&#45;&gt;Node0x3342950</title>
<path fill="none" stroke="black" d="M3195,-96.4081C3195,-87.9823 3195,-78.5803 3195,-70.0174"/>
<polygon fill="black" stroke="black" points="3198.5,-69.7564 3195,-59.7564 3191.5,-69.7565 3198.5,-69.7564"/>
</g>
</g>
</svg>
