<?xml version="1.0" encoding="UTF-8" standalone="no"?>
<!DOCTYPE svg PUBLIC "-//W3C//DTD SVG 1.1//EN"
 "http://www.w3.org/Graphics/SVG/1.1/DTD/svg11.dtd">
<!-- Generated by graphviz version 2.38.0 (20140413.2041)
 -->
<!-- Title: Control&#45;flow graph for function &#39;function_406191()&#39;. Pages: 1 -->
<svg width="395pt" height="231pt"
 viewBox="0.00 0.00 395.00 231.00" xmlns="http://www.w3.org/2000/svg" xmlns:xlink="http://www.w3.org/1999/xlink">
<g id="graph0" class="graph" transform="scale(1 1) rotate(0) translate(4 227)">
<title>Control&#45;flow graph for function &#39;function_406191()&#39;.</title>
<polygon fill="white" stroke="none" points="-4,4 -4,-227 391,-227 391,4 -4,4"/>
<text text-anchor="middle" x="193.5" y="-7.8" font-family="Times,serif" font-size="14.00">Control&#45;flow graph for function &#39;function_406191()&#39;.</text>
<!-- Node0x31f8aa0 -->
<g id="node1" class="node"><title>Node0x31f8aa0</title>
<polygon fill="none" stroke="black" points="164,-186.5 164,-222.5 223,-222.5 223,-186.5 164,-186.5"/>
<text text-anchor="start" x="172" y="-200.8" font-family="Times,serif" font-size="14.00">entry:</text>
</g>
<!-- Node0x2c4d1b0 -->
<g id="node2" class="node"><title>Node0x2c4d1b0</title>
<polygon fill="none" stroke="black" points="28.5,-96.5 28.5,-149.5 358.5,-149.5 358.5,-96.5 28.5,-96.5"/>
<text text-anchor="start" x="36.5" y="-134.3" font-family="Times,serif" font-size="14.00">result = ___nrv_alloc_D2A(NULL, NULL, 0)</text>
<text text-anchor="start" x="36.5" y="-119.3" font-family="Times,serif" font-size="14.00"> g1 = result</text>
<text text-anchor="start" x="36.5" y="-104.3" font-family="Times,serif" font-size="14.00"> return result</text>
</g>
<!-- Node0x31f8aa0&#45;&gt;Node0x2c4d1b0 -->
<g id="edge1" class="edge"><title>Node0x31f8aa0&#45;&gt;Node0x2c4d1b0</title>
<path fill="none" stroke="black" d="M193.5,-186.25C193.5,-178.486 193.5,-169.014 193.5,-159.825"/>
<polygon fill="black" stroke="black" points="197,-159.676 193.5,-149.676 190,-159.676 197,-159.676"/>
</g>
<!-- Node0x2d5e0a0 -->
<g id="node3" class="node"><title>Node0x2d5e0a0</title>
<polygon fill="none" stroke="black" points="166.5,-23.5 166.5,-59.5 220.5,-59.5 220.5,-23.5 166.5,-23.5"/>
<text text-anchor="start" x="174.5" y="-37.8" font-family="Times,serif" font-size="14.00">exit:</text>
</g>
<!-- Node0x2c4d1b0&#45;&gt;Node0x2d5e0a0 -->
<g id="edge2" class="edge"><title>Node0x2c4d1b0&#45;&gt;Node0x2d5e0a0</title>
<path fill="none" stroke="black" d="M193.5,-96.4081C193.5,-87.9823 193.5,-78.5803 193.5,-70.0174"/>
<polygon fill="black" stroke="black" points="197,-69.7564 193.5,-59.7564 190,-69.7565 197,-69.7564"/>
</g>
</g>
</svg>
