<?xml version="1.0" encoding="UTF-8" standalone="no"?>
<!DOCTYPE svg PUBLIC "-//W3C//DTD SVG 1.1//EN"
 "http://www.w3.org/Graphics/SVG/1.1/DTD/svg11.dtd">
<!-- Generated by graphviz version 2.38.0 (20140413.2041)
 -->
<!-- Title: Control&#45;flow graph for function &#39;___rv_alloc_D2A(a1)&#39;. Pages: 1 -->
<svg width="587pt" height="751pt"
 viewBox="0.00 0.00 587.00 751.00" xmlns="http://www.w3.org/2000/svg" xmlns:xlink="http://www.w3.org/1999/xlink">
<g id="graph0" class="graph" transform="scale(1 1) rotate(0) translate(4 747)">
<title>Control&#45;flow graph for function &#39;___rv_alloc_D2A(a1)&#39;.</title>
<polygon fill="white" stroke="none" points="-4,4 -4,-747 583,-747 583,4 -4,4"/>
<text text-anchor="middle" x="289.5" y="-7.8" font-family="Times,serif" font-size="14.00">Control&#45;flow graph for function &#39;___rv_alloc_D2A(a1)&#39;.</text>
<!-- Node0x2d25eb0 -->
<g id="node1" class="node"><title>Node0x2d25eb0</title>
<polygon fill="none" stroke="black" points="168,-704.5 168,-742.5 227,-742.5 227,-704.5 168,-704.5"/>
<text text-anchor="start" x="176" y="-727.3" font-family="Times,serif" font-size="14.00">entry:</text>
<text text-anchor="start" x="176" y="-712.3" font-family="Times,serif" font-size="14.00"> a1</text>
</g>
<!-- Node0x2f3ff70 -->
<g id="node2" class="node"><title>Node0x2f3ff70</title>
<polygon fill="none" stroke="black" points="151.5,-598.5 151.5,-666.5 243.5,-666.5 243.5,-598.5 151.5,-598.5"/>
<text text-anchor="start" x="159.5" y="-651.3" font-family="Times,serif" font-size="14.00">0x406160:</text>
<text text-anchor="start" x="159.5" y="-636.3" font-family="Times,serif" font-size="14.00"> g3 = 0</text>
<text text-anchor="start" x="159.5" y="-621.3" font-family="Times,serif" font-size="14.00"> result</text>
<text text-anchor="start" x="159.5" y="-606.3" font-family="Times,serif" font-size="14.00"> v1</text>
</g>
<!-- Node0x2d25eb0&#45;&gt;Node0x2f3ff70 -->
<g id="edge1" class="edge"><title>Node0x2d25eb0&#45;&gt;Node0x2f3ff70</title>
<path fill="none" stroke="black" d="M197.5,-704.49C197.5,-696.422 197.5,-686.529 197.5,-676.718"/>
<polygon fill="black" stroke="black" points="201,-676.605 197.5,-666.605 194,-676.605 201,-676.605"/>
</g>
<!-- Node0x33339f0 -->
<g id="node3" class="node"><title>Node0x33339f0</title>
<polygon fill="none" stroke="black" points="146.5,-524.5 146.5,-560.5 248.5,-560.5 248.5,-524.5 146.5,-524.5"/>
<text text-anchor="start" x="154.5" y="-538.8" font-family="Times,serif" font-size="14.00">if (a1 &lt; 20):</text>
</g>
<!-- Node0x2f3ff70&#45;&gt;Node0x33339f0 -->
<g id="edge2" class="edge"><title>Node0x2f3ff70&#45;&gt;Node0x33339f0</title>
<path fill="none" stroke="black" d="M197.5,-598.482C197.5,-589.328 197.5,-579.497 197.5,-570.715"/>
<polygon fill="black" stroke="black" points="201,-570.64 197.5,-560.64 194,-570.64 201,-570.64"/>
</g>
<!-- Node0x2d5dc00 -->
<g id="node4" class="node"><title>Node0x2d5dc00</title>
<polygon fill="none" stroke="black" points="0,-317.5 0,-415.5 279,-415.5 279,-317.5 0,-317.5"/>
<text text-anchor="start" x="8" y="-400.3" font-family="Times,serif" font-size="14.00">0x40617e:</text>
<text text-anchor="start" x="8" y="-385.3" font-family="Times,serif" font-size="14.00"> v1 = ___Balloc_D2A(0)</text>
<text text-anchor="start" x="8" y="-370.3" font-family="Times,serif" font-size="14.00"> *(IntToPtrCastExpr&lt;ptr&gt;(v1)) = g3</text>
<text text-anchor="start" x="8" y="-355.3" font-family="Times,serif" font-size="14.00"> result = (v1 + 4)</text>
<text text-anchor="start" x="8" y="-340.3" font-family="Times,serif" font-size="14.00"> g1 = result</text>
<text text-anchor="start" x="8" y="-325.3" font-family="Times,serif" font-size="14.00"> return result</text>
</g>
<!-- Node0x33339f0&#45;&gt;Node0x2d5dc00 -->
<g id="edge3" class="edge"><title>Node0x33339f0&#45;&gt;Node0x2d5dc00</title>
<path fill="none" stroke="black" d="M183.376,-524.242C179.382,-518.685 175.351,-512.322 172.5,-506 161.105,-480.738 153.362,-451.038 148.257,-425.633"/>
<polygon fill="black" stroke="black" points="151.685,-424.923 146.361,-415.763 144.81,-426.244 151.685,-424.923"/>
<text text-anchor="middle" x="201" y="-494.8" font-family="Times,serif" font-size="14.00">a1 &lt; 20</text>
</g>
<!-- Node0x3334d70 -->
<g id="node5" class="node"><title>Node0x3334d70</title>
<polygon fill="none" stroke="black" points="250.5,-434.5 250.5,-472.5 318.5,-472.5 318.5,-434.5 250.5,-434.5"/>
<text text-anchor="start" x="258.5" y="-457.3" font-family="Times,serif" font-size="14.00">v2 = 8</text>
<text text-anchor="start" x="258.5" y="-442.3" font-family="Times,serif" font-size="14.00"> v3 = 1</text>
</g>
<!-- Node0x33339f0&#45;&gt;Node0x3334d70 -->
<g id="edge4" class="edge"><title>Node0x33339f0&#45;&gt;Node0x3334d70</title>
<path fill="none" stroke="black" d="M214.688,-524.312C227.424,-511.576 244.978,-494.022 259.298,-479.702"/>
<polygon fill="black" stroke="black" points="261.853,-482.097 266.449,-472.551 256.903,-477.147 261.853,-482.097"/>
<text text-anchor="middle" x="281" y="-494.8" font-family="Times,serif" font-size="14.00">a1 &gt;= 20</text>
</g>
<!-- Node0x3124910 -->
<g id="node6" class="node"><title>Node0x3124910</title>
<polygon fill="none" stroke="black" points="191.5,-23.5 191.5,-59.5 245.5,-59.5 245.5,-23.5 191.5,-23.5"/>
<text text-anchor="start" x="199.5" y="-37.8" font-family="Times,serif" font-size="14.00">exit:</text>
</g>
<!-- Node0x2d5dc00&#45;&gt;Node0x3124910 -->
<g id="edge5" class="edge"><title>Node0x2d5dc00&#45;&gt;Node0x3124910</title>
<path fill="none" stroke="black" d="M131.561,-317.068C124.734,-260.996 120.772,-167.346 155.5,-97 161.724,-84.3926 172.306,-73.5009 183.039,-64.84"/>
<polygon fill="black" stroke="black" points="185.344,-67.4853 191.207,-58.6603 181.12,-61.9031 185.344,-67.4853"/>
</g>
<!-- Node0x3125130 -->
<g id="node7" class="node"><title>Node0x3125130</title>
<polygon fill="none" stroke="black" points="205,-262.5 205,-298.5 396,-298.5 396,-262.5 205,-262.5"/>
<text text-anchor="start" x="213" y="-276.8" font-family="Times,serif" font-size="14.00">while ((v2 + 16) &lt;= a1):</text>
</g>
<!-- Node0x3334d70&#45;&gt;Node0x3125130 -->
<g id="edge6" class="edge"><title>Node0x3334d70&#45;&gt;Node0x3125130</title>
<path fill="none" stroke="black" d="M286.212,-434.2C289.032,-404.061 294.668,-343.825 297.956,-308.687"/>
<polygon fill="black" stroke="black" points="301.448,-308.932 298.895,-298.649 294.479,-308.28 301.448,-308.932"/>
</g>
<!-- Node0x34aa0d0 -->
<g id="node8" class="node"><title>Node0x34aa0d0</title>
<polygon fill="none" stroke="black" points="165,-127.5 165,-180.5 282,-180.5 282,-127.5 165,-127.5"/>
<text text-anchor="start" x="173" y="-165.3" font-family="Times,serif" font-size="14.00">0x406174:</text>
<text text-anchor="start" x="173" y="-150.3" font-family="Times,serif" font-size="14.00"> v2 = (2 * v2)</text>
<text text-anchor="start" x="173" y="-135.3" font-family="Times,serif" font-size="14.00"> v3 = (v3 + 1)</text>
</g>
<!-- Node0x3125130&#45;&gt;Node0x34aa0d0 -->
<g id="edge7" class="edge"><title>Node0x3125130&#45;&gt;Node0x34aa0d0</title>
<path fill="none" stroke="black" d="M218.419,-262.491C210.266,-257.746 202.991,-251.7 197.5,-244 186.119,-228.04 191.449,-207.126 200.166,-189.582"/>
<polygon fill="black" stroke="black" points="203.261,-191.216 204.963,-180.758 197.112,-187.872 203.261,-191.216"/>
<text text-anchor="middle" x="256.5" y="-232.8" font-family="Times,serif" font-size="14.00">(v2 + 16) &lt;= a1</text>
</g>
<!-- Node0x323f8f0 -->
<g id="node9" class="node"><title>Node0x323f8f0</title>
<polygon fill="none" stroke="black" points="300,-97.5 300,-210.5 579,-210.5 579,-97.5 300,-97.5"/>
<text text-anchor="start" x="308" y="-195.3" font-family="Times,serif" font-size="14.00">0x40617e:</text>
<text text-anchor="start" x="308" y="-180.3" font-family="Times,serif" font-size="14.00"> g3 = v3</text>
<text text-anchor="start" x="308" y="-165.3" font-family="Times,serif" font-size="14.00"> v1 = ___Balloc_D2A(v3)</text>
<text text-anchor="start" x="308" y="-150.3" font-family="Times,serif" font-size="14.00"> *(IntToPtrCastExpr&lt;ptr&gt;(v1)) = g3</text>
<text text-anchor="start" x="308" y="-135.3" font-family="Times,serif" font-size="14.00"> result = (v1 + 4)</text>
<text text-anchor="start" x="308" y="-120.3" font-family="Times,serif" font-size="14.00"> g1 = result</text>
<text text-anchor="start" x="308" y="-105.3" font-family="Times,serif" font-size="14.00"> return result</text>
</g>
<!-- Node0x3125130&#45;&gt;Node0x323f8f0 -->
<g id="edge8" class="edge"><title>Node0x3125130&#45;&gt;Node0x323f8f0</title>
<path fill="none" stroke="black" d="M319.536,-262.45C332.678,-250.679 351.043,-234.23 369.458,-217.735"/>
<polygon fill="black" stroke="black" points="372.225,-219.956 377.339,-210.677 367.554,-214.742 372.225,-219.956"/>
<text text-anchor="middle" x="406.5" y="-232.8" font-family="Times,serif" font-size="14.00">(v2 + 16) &gt; a1</text>
</g>
<!-- Node0x34aa0d0&#45;&gt;Node0x3125130 -->
<g id="edge9" class="edge"><title>Node0x34aa0d0&#45;&gt;Node0x3125130</title>
<path fill="none" stroke="black" d="M253.14,-180.558C264.653,-190.277 278.046,-201.332 290.5,-211 301.315,-219.396 309.258,-216.814 315.5,-229 319.294,-236.408 318.496,-244.93 315.89,-252.838"/>
<polygon fill="black" stroke="black" points="312.66,-251.49 312.003,-262.065 319.111,-254.208 312.66,-251.49"/>
</g>
<!-- Node0x323f8f0&#45;&gt;Node0x3124910 -->
<g id="edge10" class="edge"><title>Node0x323f8f0&#45;&gt;Node0x3124910</title>
<path fill="none" stroke="black" d="M328.353,-97.4263C301.814,-84.1571 275.326,-70.9128 255.01,-60.755"/>
<polygon fill="black" stroke="black" points="256.356,-57.515 245.847,-56.1733 253.226,-63.776 256.356,-57.515"/>
</g>
</g>
</svg>
