<?xml version="1.0" encoding="UTF-8" standalone="no"?>
<!DOCTYPE svg PUBLIC "-//W3C//DTD SVG 1.1//EN"
 "http://www.w3.org/Graphics/SVG/1.1/DTD/svg11.dtd">
<!-- Generated by graphviz version 2.38.0 (20140413.2041)
 -->
<!-- Title: Control&#45;flow graph for function &#39;_dtoa_unlock(a1)&#39;. Pages: 1 -->
<svg width="622pt" height="340pt"
 viewBox="0.00 0.00 621.50 340.00" xmlns="http://www.w3.org/2000/svg" xmlns:xlink="http://www.w3.org/1999/xlink">
<g id="graph0" class="graph" transform="scale(1 1) rotate(0) translate(4 336)">
<title>Control&#45;flow graph for function &#39;_dtoa_unlock(a1)&#39;.</title>
<polygon fill="white" stroke="none" points="-4,4 -4,-336 617.5,-336 617.5,4 -4,4"/>
<text text-anchor="middle" x="306.75" y="-7.8" font-family="Times,serif" font-size="14.00">Control&#45;flow graph for function &#39;_dtoa_unlock(a1)&#39;.</text>
<!-- Node0x2d5aae0 -->
<g id="node1" class="node"><title>Node0x2d5aae0</title>
<polygon fill="none" stroke="black" points="173.5,-293.5 173.5,-331.5 232.5,-331.5 232.5,-293.5 173.5,-293.5"/>
<text text-anchor="start" x="181.5" y="-316.3" font-family="Times,serif" font-size="14.00">entry:</text>
<text text-anchor="start" x="181.5" y="-301.3" font-family="Times,serif" font-size="14.00"> a1</text>
</g>
<!-- Node0x2c65a80 -->
<g id="node2" class="node"><title>Node0x2c65a80</title>
<polygon fill="none" stroke="black" points="54.5,-217.5 54.5,-255.5 351.5,-255.5 351.5,-217.5 54.5,-217.5"/>
<text text-anchor="start" x="62.5" y="-240.3" font-family="Times,serif" font-size="14.00">0x406390:</text>
<text text-anchor="start" x="62.5" y="-225.3" font-family="Times,serif" font-size="14.00"> if (g32 != IntToPtrCastExpr&lt;ptr&gt;(2)):</text>
</g>
<!-- Node0x2d5aae0&#45;&gt;Node0x2c65a80 -->
<g id="edge1" class="edge"><title>Node0x2d5aae0&#45;&gt;Node0x2c65a80</title>
<path fill="none" stroke="black" d="M203,-293.208C203,-284.964 203,-275.038 203,-265.862"/>
<polygon fill="black" stroke="black" points="206.5,-265.582 203,-255.582 199.5,-265.582 206.5,-265.582"/>
</g>
<!-- Node0x2e8a8e0 -->
<g id="node3" class="node"><title>Node0x2e8a8e0</title>
<polygon fill="none" stroke="black" points="0,-112.5 0,-150.5 92,-150.5 92,-112.5 0,-112.5"/>
<text text-anchor="start" x="8" y="-135.3" font-family="Times,serif" font-size="14.00">0x40639c:</text>
<text text-anchor="start" x="8" y="-120.3" font-family="Times,serif" font-size="14.00"> return g1</text>
</g>
<!-- Node0x2c65a80&#45;&gt;Node0x2e8a8e0 -->
<g id="edge2" class="edge"><title>Node0x2c65a80&#45;&gt;Node0x2e8a8e0</title>
<path fill="none" stroke="black" d="M112.527,-217.488C101.176,-212.706 90.3041,-206.656 81,-199 68.7587,-188.927 60.253,-173.435 54.6944,-159.937"/>
<polygon fill="black" stroke="black" points="57.9633,-158.686 51.1565,-150.567 51.4145,-161.159 57.9633,-158.686"/>
<text text-anchor="middle" x="204.5" y="-187.8" font-family="Times,serif" font-size="14.00">g32 != IntToPtrCastExpr&lt;ptr&gt;(2)</text>
</g>
<!-- Node0x301be90 -->
<g id="node4" class="node"><title>Node0x301be90</title>
<polygon fill="none" stroke="black" points="110.5,-97.5 110.5,-165.5 613.5,-165.5 613.5,-97.5 110.5,-97.5"/>
<text text-anchor="start" x="118.5" y="-150.3" font-family="Times,serif" font-size="14.00">lpCriticalSection = ((24 * g1) + PtrToIntCastExpr&lt;int32&gt;(&amp;(g33)))</text>
<text text-anchor="start" x="118.5" y="-135.3" font-family="Times,serif" font-size="14.00"> g1 = lpCriticalSection</text>
<text text-anchor="start" x="118.5" y="-120.3" font-family="Times,serif" font-size="14.00"> LeaveCriticalSection(IntToPtrCastExpr&lt;ptr&gt;(lpCriticalSection))</text>
<text text-anchor="start" x="118.5" y="-105.3" font-family="Times,serif" font-size="14.00"> return lpCriticalSection</text>
</g>
<!-- Node0x2c65a80&#45;&gt;Node0x301be90 -->
<g id="edge3" class="edge"><title>Node0x2c65a80&#45;&gt;Node0x301be90</title>
<path fill="none" stroke="black" d="M296.729,-217.453C308,-212.677 318.768,-206.637 328,-199 335.868,-192.491 342.113,-183.694 346.988,-174.632"/>
<polygon fill="black" stroke="black" points="350.177,-176.079 351.417,-165.557 343.886,-173.009 350.177,-176.079"/>
<text text-anchor="middle" x="467.5" y="-187.8" font-family="Times,serif" font-size="14.00">g32 == IntToPtrCastExpr&lt;ptr&gt;(2)</text>
</g>
<!-- Node0x30dfc80 -->
<g id="node5" class="node"><title>Node0x30dfc80</title>
<polygon fill="none" stroke="black" points="213,-23.5 213,-59.5 267,-59.5 267,-23.5 213,-23.5"/>
<text text-anchor="start" x="221" y="-37.8" font-family="Times,serif" font-size="14.00">exit:</text>
</g>
<!-- Node0x2e8a8e0&#45;&gt;Node0x30dfc80 -->
<g id="edge4" class="edge"><title>Node0x2e8a8e0&#45;&gt;Node0x30dfc80</title>
<path fill="none" stroke="black" d="M73.45,-112.496C82.0899,-107.182 91.7849,-101.57 101,-97 134.652,-80.3117 174.746,-65.0531 203.205,-54.9532"/>
<polygon fill="black" stroke="black" points="204.479,-58.2154 212.756,-51.602 202.162,-51.6101 204.479,-58.2154"/>
</g>
<!-- Node0x301be90&#45;&gt;Node0x30dfc80 -->
<g id="edge5" class="edge"><title>Node0x301be90&#45;&gt;Node0x30dfc80</title>
<path fill="none" stroke="black" d="M316.225,-97.4817C301.582,-86.9199 285.689,-75.4562 272.224,-65.7432"/>
<polygon fill="black" stroke="black" points="273.92,-62.6517 263.763,-59.6402 269.825,-68.3289 273.92,-62.6517"/>
</g>
</g>
</svg>
