<?xml version="1.0" encoding="UTF-8" standalone="no"?>
<!DOCTYPE svg PUBLIC "-//W3C//DTD SVG 1.1//EN"
 "http://www.w3.org/Graphics/SVG/1.1/DTD/svg11.dtd">
<!-- Generated by graphviz version 2.38.0 (20140413.2041)
 -->
<!-- Title: Control&#45;flow graph for function &#39;_serial_enum_devices(*hKey)&#39;. Pages: 1 -->
<svg width="1789pt" height="3735pt"
 viewBox="0.00 0.00 1789.07 3735.00" xmlns="http://www.w3.org/2000/svg" xmlns:xlink="http://www.w3.org/1999/xlink">
<g id="graph0" class="graph" transform="scale(1 1) rotate(0) translate(4 3731)">
<title>Control&#45;flow graph for function &#39;_serial_enum_devices(*hKey)&#39;.</title>
<polygon fill="white" stroke="none" points="-4,4 -4,-3731 1785.07,-3731 1785.07,4 -4,4"/>
<text text-anchor="middle" x="890.533" y="-7.8" font-family="Times,serif" font-size="14.00">Control&#45;flow graph for function &#39;_serial_enum_devices(*hKey)&#39;.</text>
<!-- Node0x30a60a0 -->
<g id="node1" class="node"><title>Node0x30a60a0</title>
<polygon fill="none" stroke="black" points="329,-3688.5 329,-3726.5 388,-3726.5 388,-3688.5 329,-3688.5"/>
<text text-anchor="start" x="337" y="-3711.3" font-family="Times,serif" font-size="14.00">entry:</text>
<text text-anchor="start" x="337" y="-3696.3" font-family="Times,serif" font-size="14.00"> hKey</text>
</g>
<!-- Node0x2cbb6d0 -->
<g id="node2" class="node"><title>Node0x2cbb6d0</title>
<polygon fill="none" stroke="black" points="308.5,-3552.5 308.5,-3650.5 408.5,-3650.5 408.5,-3552.5 308.5,-3552.5"/>
<text text-anchor="start" x="316.5" y="-3635.3" font-family="Times,serif" font-size="14.00">v1 = 0</text>
<text text-anchor="start" x="316.5" y="-3620.3" font-family="Times,serif" font-size="14.00"> v2</text>
<text text-anchor="start" x="316.5" y="-3605.3" font-family="Times,serif" font-size="14.00"> v3 = &amp;(v2)</text>
<text text-anchor="start" x="316.5" y="-3590.3" font-family="Times,serif" font-size="14.00"> v4</text>
<text text-anchor="start" x="316.5" y="-3575.3" font-family="Times,serif" font-size="14.00"> v5 = &amp;(v4)</text>
<text text-anchor="start" x="316.5" y="-3560.3" font-family="Times,serif" font-size="14.00"> v6</text>
</g>
<!-- Node0x30a60a0&#45;&gt;Node0x2cbb6d0 -->
<g id="edge1" class="edge"><title>Node0x30a60a0&#45;&gt;Node0x2cbb6d0</title>
<path fill="none" stroke="black" d="M358.5,-3688.38C358.5,-3680.53 358.5,-3670.84 358.5,-3660.84"/>
<polygon fill="black" stroke="black" points="362,-3660.79 358.5,-3650.79 355,-3660.79 362,-3660.79"/>
</g>
<!-- Node0x300c7c0 -->
<g id="node3" class="node"><title>Node0x300c7c0</title>
<polygon fill="none" stroke="black" points="59,-3478.5 59,-3514.5 658,-3514.5 658,-3478.5 59,-3478.5"/>
<text text-anchor="start" x="67" y="-3492.8" font-family="Times,serif" font-size="14.00">if SetupDiClassGuidsFromNameA(&quot;PORTS&quot;, BitCastExpr&lt;ptr&gt;(&amp;(v6)), 1, &amp;(v4)):</text>
</g>
<!-- Node0x2cbb6d0&#45;&gt;Node0x300c7c0 -->
<g id="edge2" class="edge"><title>Node0x2cbb6d0&#45;&gt;Node0x300c7c0</title>
<path fill="none" stroke="black" d="M358.5,-3552.32C358.5,-3542.89 358.5,-3533.32 358.5,-3524.87"/>
<polygon fill="black" stroke="black" points="362,-3524.86 358.5,-3514.86 355,-3524.86 362,-3524.86"/>
</g>
<!-- Node0x30a6db0 -->
<g id="node4" class="node"><title>Node0x30a6db0</title>
<polygon fill="none" stroke="black" points="395.5,-3373.5 395.5,-3426.5 945.5,-3426.5 945.5,-3373.5 395.5,-3373.5"/>
<text text-anchor="start" x="403.5" y="-3411.3" font-family="Times,serif" font-size="14.00">v7 = SetupDiGetClassDevsA(BitCastExpr&lt;ptr&gt;(&amp;(v6)), NULL, NULL, 10)</text>
<text text-anchor="start" x="403.5" y="-3396.3" font-family="Times,serif" font-size="14.00"> v8 = PtrToIntCastExpr&lt;int32&gt;(v7)</text>
<text text-anchor="start" x="403.5" y="-3381.3" font-family="Times,serif" font-size="14.00"> result2</text>
</g>
<!-- Node0x300c7c0&#45;&gt;Node0x30a6db0 -->
<g id="edge3" class="edge"><title>Node0x300c7c0&#45;&gt;Node0x30a6db0</title>
<path fill="none" stroke="black" d="M603.448,-3478.47C623.606,-3473.72 639.915,-3467.67 649.5,-3460 656.917,-3454.06 661.718,-3445.3 664.823,-3436.34"/>
<polygon fill="black" stroke="black" points="668.208,-3437.23 667.572,-3426.66 661.474,-3435.32 668.208,-3437.23"/>
<text text-anchor="middle" x="944" y="-3448.8" font-family="Times,serif" font-size="14.00">SetupDiClassGuidsFromNameA(&quot;PORTS&quot;, BitCastExpr&lt;ptr&gt;(&amp;(v6)), 1, &amp;(v4))</text>
</g>
<!-- Node0x30a6cc0 -->
<g id="node5" class="node"><title>Node0x30a6cc0</title>
<polygon fill="none" stroke="black" points="0,-3301.5 0,-3354.5 91,-3354.5 91,-3301.5 0,-3301.5"/>
<text text-anchor="start" x="8" y="-3339.3" font-family="Times,serif" font-size="14.00">0x401a6e:</text>
<text text-anchor="start" x="8" y="-3324.3" font-family="Times,serif" font-size="14.00"> v2 = 0</text>
<text text-anchor="start" x="8" y="-3309.3" font-family="Times,serif" font-size="14.00"> return 0</text>
</g>
<!-- Node0x300c7c0&#45;&gt;Node0x30a6cc0 -->
<g id="edge4" class="edge"><title>Node0x300c7c0&#45;&gt;Node0x30a6cc0</title>
<path fill="none" stroke="black" d="M114.841,-3478.48C77.5998,-3473.58 49.1918,-3467.49 42.5,-3460 19.7151,-3434.51 24.7152,-3393.8 32.7306,-3364.53"/>
<polygon fill="black" stroke="black" points="36.1593,-3365.28 35.6509,-3354.7 29.4489,-3363.29 36.1593,-3365.28"/>
<text text-anchor="middle" x="344" y="-3448.8" font-family="Times,serif" font-size="14.00">not (SetupDiClassGuidsFromNameA(&quot;PORTS&quot;, BitCastExpr&lt;ptr&gt;(&amp;(v6)), 1, &amp;(v4)))</text>
</g>
<!-- Node0x33c0bc0 -->
<g id="node6" class="node"><title>Node0x33c0bc0</title>
<polygon fill="none" stroke="black" points="498,-3244.5 498,-3282.5 791,-3282.5 791,-3244.5 498,-3244.5"/>
<text text-anchor="start" x="506" y="-3267.3" font-family="Times,serif" font-size="14.00">if (v7 == IntToPtrCastExpr&lt;ptr&gt;(&#45;1)):</text>
<text text-anchor="start" x="506" y="-3252.3" font-family="Times,serif" font-size="14.00"> else:</text>
</g>
<!-- Node0x30a6db0&#45;&gt;Node0x33c0bc0 -->
<g id="edge5" class="edge"><title>Node0x30a6db0&#45;&gt;Node0x33c0bc0</title>
<path fill="none" stroke="black" d="M665.548,-3373.38C661.082,-3350.28 654.526,-3316.37 649.92,-3292.54"/>
<polygon fill="black" stroke="black" points="653.351,-3291.85 648.017,-3282.69 646.479,-3293.18 653.351,-3291.85"/>
</g>
<!-- Node0x30ce720 -->
<g id="node7" class="node"><title>Node0x30ce720</title>
<polygon fill="none" stroke="black" points="117.5,-23.5 117.5,-59.5 171.5,-59.5 171.5,-23.5 117.5,-23.5"/>
<text text-anchor="start" x="125.5" y="-37.8" font-family="Times,serif" font-size="14.00">exit:</text>
</g>
<!-- Node0x30a6cc0&#45;&gt;Node0x30ce720 -->
<g id="edge6" class="edge"><title>Node0x30a6cc0&#45;&gt;Node0x30ce720</title>
<path fill="none" stroke="black" d="M45.5,-3301.37C45.5,-3279.59 45.5,-3247.49 45.5,-3219.5 45.5,-3219.5 45.5,-3219.5 45.5,-145.5 45.5,-107.901 80.2151,-78.7135 108.531,-61.1603"/>
<polygon fill="black" stroke="black" points="110.631,-63.9844 117.448,-55.874 107.061,-57.9631 110.631,-63.9844"/>
</g>
<!-- Node0x30a7130 -->
<g id="node8" class="node"><title>Node0x30a7130</title>
<polygon fill="none" stroke="black" points="298.5,-2977.5 298.5,-3030.5 400.5,-3030.5 400.5,-2977.5 298.5,-2977.5"/>
<text text-anchor="start" x="306.5" y="-3015.3" font-family="Times,serif" font-size="14.00">0x401a97:</text>
<text text-anchor="start" x="306.5" y="-3000.3" font-family="Times,serif" font-size="14.00"> v2 = 0</text>
<text text-anchor="start" x="306.5" y="-2985.3" font-family="Times,serif" font-size="14.00"> result2 = 0</text>
</g>
<!-- Node0x33c0bc0&#45;&gt;Node0x30a7130 -->
<g id="edge7" class="edge"><title>Node0x33c0bc0&#45;&gt;Node0x30a7130</title>
<path fill="none" stroke="black" d="M497.678,-3255.57C451.72,-3250.42 408.742,-3241.48 392.5,-3226 342.144,-3178.02 341.017,-3089.96 345.011,-3040.73"/>
<polygon fill="black" stroke="black" points="348.516,-3040.83 345.955,-3030.55 341.546,-3040.18 348.516,-3040.83"/>
<text text-anchor="middle" x="516.5" y="-3214.8" font-family="Times,serif" font-size="14.00">v7 == IntToPtrCastExpr&lt;ptr&gt;(&#45;1)</text>
</g>
<!-- Node0x30a6d20 -->
<g id="node9" class="node"><title>Node0x30a6d20</title>
<polygon fill="none" stroke="black" points="402,-3049.5 402,-3192.5 887,-3192.5 887,-3049.5 402,-3049.5"/>
<text text-anchor="start" x="410" y="-3177.3" font-family="Times,serif" font-size="14.00">v9 = 28</text>
<text text-anchor="start" x="410" y="-3162.3" font-family="Times,serif" font-size="14.00"> v10 = &amp;(v9)</text>
<text text-anchor="start" x="410" y="-3147.3" font-family="Times,serif" font-size="14.00"> v11</text>
<text text-anchor="start" x="410" y="-3132.3" font-family="Times,serif" font-size="14.00"> v12 = &amp;(v11)</text>
<text text-anchor="start" x="410" y="-3117.3" font-family="Times,serif" font-size="14.00"> v13</text>
<text text-anchor="start" x="410" y="-3102.3" font-family="Times,serif" font-size="14.00"> v14 = &amp;(v13)</text>
<text text-anchor="start" x="410" y="-3087.3" font-family="Times,serif" font-size="14.00"> v15 = SetupDiEnumDeviceInfo(v7, 0, BitCastExpr&lt;ptr&gt;(&amp;(v9)))</text>
<text text-anchor="start" x="410" y="-3072.3" font-family="Times,serif" font-size="14.00"> v16 = v3</text>
<text text-anchor="start" x="410" y="-3057.3" font-family="Times,serif" font-size="14.00"> result = 0</text>
</g>
<!-- Node0x33c0bc0&#45;&gt;Node0x30a6d20 -->
<g id="edge8" class="edge"><title>Node0x33c0bc0&#45;&gt;Node0x30a6d20</title>
<path fill="none" stroke="black" d="M644.5,-3244.42C644.5,-3233.42 644.5,-3218.5 644.5,-3202.86"/>
<polygon fill="black" stroke="black" points="648,-3202.52 644.5,-3192.52 641,-3202.52 648,-3202.52"/>
<text text-anchor="middle" x="765.5" y="-3214.8" font-family="Times,serif" font-size="14.00">v7 != IntToPtrCastExpr&lt;ptr&gt;(&#45;1)</text>
</g>
<!-- Node0x30a7040 -->
<g id="node10" class="node"><title>Node0x30a7040</title>
<polygon fill="none" stroke="black" points="275.5,-2696.5 275.5,-2734.5 397.5,-2734.5 397.5,-2696.5 275.5,-2696.5"/>
<text text-anchor="start" x="283.5" y="-2719.3" font-family="Times,serif" font-size="14.00">0x401c70:</text>
<text text-anchor="start" x="283.5" y="-2704.3" font-family="Times,serif" font-size="14.00"> return result2</text>
</g>
<!-- Node0x30a7130&#45;&gt;Node0x30a7040 -->
<g id="edge9" class="edge"><title>Node0x30a7130&#45;&gt;Node0x30a7040</title>
<path fill="none" stroke="black" d="M348.335,-2977.32C345.904,-2923.76 340.31,-2800.46 337.782,-2744.75"/>
<polygon fill="black" stroke="black" points="341.269,-2744.38 337.319,-2734.54 334.276,-2744.69 341.269,-2744.38"/>
</g>
<!-- Node0x30a6e10 -->
<g id="node11" class="node"><title>Node0x30a6e10</title>
<polygon fill="none" stroke="black" points="613.5,-2922.5 613.5,-2958.5 675.5,-2958.5 675.5,-2922.5 613.5,-2922.5"/>
<text text-anchor="start" x="621.5" y="-2936.8" font-family="Times,serif" font-size="14.00">if v15:</text>
</g>
<!-- Node0x30a6d20&#45;&gt;Node0x30a6e10 -->
<g id="edge10" class="edge"><title>Node0x30a6d20&#45;&gt;Node0x30a6e10</title>
<path fill="none" stroke="black" d="M644.5,-3049.45C644.5,-3021.11 644.5,-2990.13 644.5,-2968.66"/>
<polygon fill="black" stroke="black" points="648,-2968.65 644.5,-2958.65 641,-2968.65 648,-2968.65"/>
</g>
<!-- Node0x30a7040&#45;&gt;Node0x30ce720 -->
<g id="edge11" class="edge"><title>Node0x30a7040&#45;&gt;Node0x30ce720</title>
<path fill="none" stroke="black" d="M276.543,-2696.44C201.727,-2669.76 83.5,-2612.08 83.5,-2514 83.5,-2514 83.5,-2514 83.5,-145.5 83.5,-115.544 102.838,-86.6677 119.738,-67.1523"/>
<polygon fill="black" stroke="black" points="122.419,-69.4062 126.528,-59.6406 117.226,-64.7124 122.419,-69.4062"/>
</g>
<!-- Node0x30a6b20 -->
<g id="node12" class="node"><title>Node0x30a6b20</title>
<polygon fill="none" stroke="black" points="758,-2803.5 758,-2839.5 831,-2839.5 831,-2803.5 758,-2803.5"/>
<text text-anchor="start" x="766" y="-2817.8" font-family="Times,serif" font-size="14.00">v17 = 1</text>
</g>
<!-- Node0x30a6e10&#45;&gt;Node0x30a6b20 -->
<g id="edge12" class="edge"><title>Node0x30a6e10&#45;&gt;Node0x30a6b20</title>
<path fill="none" stroke="black" d="M674.456,-2922.3C695.952,-2909.36 725.128,-2890.57 748.5,-2871 757.041,-2863.85 765.646,-2855.24 773.064,-2847.27"/>
<polygon fill="black" stroke="black" points="775.904,-2849.35 780.041,-2839.6 770.725,-2844.64 775.904,-2849.35"/>
<text text-anchor="middle" x="738" y="-2892.8" font-family="Times,serif" font-size="14.00">v15</text>
</g>
<!-- Node0x30a71b0 -->
<g id="node13" class="node"><title>Node0x30a71b0</title>
<polygon fill="none" stroke="black" points="365,-2772.5 365,-2870.5 740,-2870.5 740,-2772.5 365,-2772.5"/>
<text text-anchor="start" x="373" y="-2855.3" font-family="Times,serif" font-size="14.00">0x401c38:</text>
<text text-anchor="start" x="373" y="-2840.3" font-family="Times,serif" font-size="14.00"> *(IntToPtrCastExpr&lt;ptr&gt;((v16 &#45; 16))) = v8</text>
<text text-anchor="start" x="373" y="-2825.3" font-family="Times,serif" font-size="14.00"> *(IntToPtrCastExpr&lt;ptr&gt;((v16 &#45; 20))) = 4201541</text>
<text text-anchor="start" x="373" y="-2810.3" font-family="Times,serif" font-size="14.00"> SetupDiDestroyDeviceInfoList(hKey)</text>
<text text-anchor="start" x="373" y="-2795.3" font-family="Times,serif" font-size="14.00"> v2 = result</text>
<text text-anchor="start" x="373" y="-2780.3" font-family="Times,serif" font-size="14.00"> result2 = result</text>
</g>
<!-- Node0x30a6e10&#45;&gt;Node0x30a71b0 -->
<g id="edge13" class="edge"><title>Node0x30a6e10&#45;&gt;Node0x30a71b0</title>
<path fill="none" stroke="black" d="M631.122,-2922.49C621.998,-2910.88 609.346,-2894.79 596.856,-2878.91"/>
<polygon fill="black" stroke="black" points="599.291,-2876.34 590.358,-2870.65 593.788,-2880.67 599.291,-2876.34"/>
<text text-anchor="middle" x="648" y="-2892.8" font-family="Times,serif" font-size="14.00">not (v15)</text>
</g>
<!-- Node0x2c82e40 -->
<g id="node14" class="node"><title>Node0x2c82e40</title>
<polygon fill="none" stroke="black" points="746,-2697.5 746,-2733.5 843,-2733.5 843,-2697.5 746,-2697.5"/>
<text text-anchor="start" x="754" y="-2711.8" font-family="Times,serif" font-size="14.00">while True:</text>
</g>
<!-- Node0x30a6b20&#45;&gt;Node0x2c82e40 -->
<g id="edge14" class="edge"><title>Node0x30a6b20&#45;&gt;Node0x2c82e40</title>
<path fill="none" stroke="black" d="M794.5,-2803.33C794.5,-2787.14 794.5,-2762.63 794.5,-2743.77"/>
<polygon fill="black" stroke="black" points="798,-2743.7 794.5,-2733.7 791,-2743.7 798,-2743.7"/>
</g>
<!-- Node0x30a71b0&#45;&gt;Node0x30a7040 -->
<g id="edge15" class="edge"><title>Node0x30a71b0&#45;&gt;Node0x30a7040</title>
<path fill="none" stroke="black" d="M452.719,-2772.46C428.372,-2760.73 403.463,-2748.74 382.983,-2738.88"/>
<polygon fill="black" stroke="black" points="384.431,-2735.69 373.903,-2734.51 381.394,-2742 384.431,-2735.69"/>
</g>
<!-- Node0x2f6b3e0 -->
<g id="node15" class="node"><title>Node0x2f6b3e0</title>
<polygon fill="none" stroke="black" points="508,-2381.5 508,-2644.5 1061,-2644.5 1061,-2381.5 508,-2381.5"/>
<text text-anchor="start" x="516" y="-2629.3" font-family="Times,serif" font-size="14.00">0x401ab2:</text>
<text text-anchor="start" x="516" y="-2614.3" font-family="Times,serif" font-size="14.00"> *(IntToPtrCastExpr&lt;ptr&gt;((v3 &#45; 8))) = 264</text>
<text text-anchor="start" x="516" y="-2599.3" font-family="Times,serif" font-size="14.00"> *(IntToPtrCastExpr&lt;ptr&gt;((v3 &#45; 12))) = 0</text>
<text text-anchor="start" x="516" y="-2584.3" font-family="Times,serif" font-size="14.00"> *(IntToPtrCastExpr&lt;ptr&gt;((v3 &#45; 16))) = PtrToIntCastExpr&lt;int32&gt;(&amp;(g21))</text>
<text text-anchor="start" x="516" y="-2569.3" font-family="Times,serif" font-size="14.00"> *(IntToPtrCastExpr&lt;ptr&gt;((v3 &#45; 20))) = 4201158</text>
<text text-anchor="start" x="516" y="-2554.3" font-family="Times,serif" font-size="14.00"> memset(hKey, 0, 0)</text>
<text text-anchor="start" x="516" y="-2539.3" font-family="Times,serif" font-size="14.00"> *(IntToPtrCastExpr&lt;ptr&gt;((v1 + 8))) = v5</text>
<text text-anchor="start" x="516" y="-2524.3" font-family="Times,serif" font-size="14.00"> v18 = IntToPtrCastExpr&lt;ptr&gt;((v1 + 4))</text>
<text text-anchor="start" x="516" y="-2509.3" font-family="Times,serif" font-size="14.00"> *(v18) = 128</text>
<text text-anchor="start" x="516" y="-2494.3" font-family="Times,serif" font-size="14.00"> v19 = IntToPtrCastExpr&lt;ptr&gt;(v1)</text>
<text text-anchor="start" x="516" y="-2479.3" font-family="Times,serif" font-size="14.00"> *(v19) = v12</text>
<text text-anchor="start" x="516" y="-2464.3" font-family="Times,serif" font-size="14.00"> v20 = IntToPtrCastExpr&lt;ptr&gt;((v1 &#45; 4))</text>
<text text-anchor="start" x="516" y="-2449.3" font-family="Times,serif" font-size="14.00"> *(v20) = 0</text>
<text text-anchor="start" x="516" y="-2434.3" font-family="Times,serif" font-size="14.00"> *(IntToPtrCastExpr&lt;ptr&gt;((v1 &#45; 8))) = 1</text>
<text text-anchor="start" x="516" y="-2419.3" font-family="Times,serif" font-size="14.00"> *(IntToPtrCastExpr&lt;ptr&gt;((v1 &#45; 12))) = v10</text>
<text text-anchor="start" x="516" y="-2404.3" font-family="Times,serif" font-size="14.00"> *(IntToPtrCastExpr&lt;ptr&gt;((v1 &#45; 16))) = v8</text>
<text text-anchor="start" x="516" y="-2389.3" font-family="Times,serif" font-size="14.00"> *(IntToPtrCastExpr&lt;ptr&gt;((v1 &#45; 20))) = 4201198</text>
</g>
<!-- Node0x2c82e40&#45;&gt;Node0x2f6b3e0 -->
<g id="edge16" class="edge"><title>Node0x2c82e40&#45;&gt;Node0x2f6b3e0</title>
<path fill="none" stroke="black" d="M793.647,-2697.41C793.11,-2686.64 792.361,-2671.61 791.52,-2654.75"/>
<polygon fill="black" stroke="black" points="795.009,-2654.43 791.015,-2644.62 788.017,-2654.78 795.009,-2654.43"/>
<text text-anchor="middle" x="810.5" y="-2666.8" font-family="Times,serif" font-size="14.00">True</text>
</g>
<!-- Node0x30a64c0 -->
<g id="node16" class="node"><title>Node0x30a64c0</title>
<polygon fill="none" stroke="black" points="486.5,-2307.5 486.5,-2343.5 1076.5,-2343.5 1076.5,-2307.5 486.5,-2307.5"/>
<text text-anchor="start" x="494.5" y="-2321.8" font-family="Times,serif" font-size="14.00">if SetupDiGetDeviceRegistryPropertyA(hKey, NULL, 0, NULL, NULL, 0, NULL):</text>
</g>
<!-- Node0x2f6b3e0&#45;&gt;Node0x30a64c0 -->
<g id="edge17" class="edge"><title>Node0x2f6b3e0&#45;&gt;Node0x30a64c0</title>
<path fill="none" stroke="black" d="M782.388,-2381.4C782.225,-2371.31 782.073,-2361.93 781.943,-2353.89"/>
<polygon fill="black" stroke="black" points="785.441,-2353.75 781.78,-2343.81 778.442,-2353.86 785.441,-2353.75"/>
</g>
<!-- Node0x32dfa20 -->
<g id="node17" class="node"><title>Node0x32dfa20</title>
<polygon fill="none" stroke="black" points="507,-2097.5 507,-2255.5 1056,-2255.5 1056,-2097.5 507,-2097.5"/>
<text text-anchor="start" x="515" y="-2240.3" font-family="Times,serif" font-size="14.00">0x401af9:</text>
<text text-anchor="start" x="515" y="-2225.3" font-family="Times,serif" font-size="14.00"> *(v18) = PtrToIntCastExpr&lt;int32&gt;(&quot;VID_&quot;)</text>
<text text-anchor="start" x="515" y="-2210.3" font-family="Times,serif" font-size="14.00"> *(v19) = v12</text>
<text text-anchor="start" x="515" y="-2195.3" font-family="Times,serif" font-size="14.00"> *(v20) = PtrToIntCastExpr&lt;int32&gt;(&amp;(g8))</text>
<text text-anchor="start" x="515" y="-2180.3" font-family="Times,serif" font-size="14.00"> g21 = PtrToIntCastExpr&lt;int32&gt;(_extract_id(hKey, NULL))</text>
<text text-anchor="start" x="515" y="-2165.3" font-family="Times,serif" font-size="14.00"> *(IntToPtrCastExpr&lt;ptr&gt;((v1 + 4))) = PtrToIntCastExpr&lt;int32&gt;(&quot;PID_&quot;)</text>
<text text-anchor="start" x="515" y="-2150.3" font-family="Times,serif" font-size="14.00"> *(IntToPtrCastExpr&lt;ptr&gt;(v1)) = v12</text>
<text text-anchor="start" x="515" y="-2135.3" font-family="Times,serif" font-size="14.00"> *(IntToPtrCastExpr&lt;ptr&gt;((v1 &#45; 4))) = PtrToIntCastExpr&lt;int32&gt;(&amp;(g9))</text>
<text text-anchor="start" x="515" y="-2120.3" font-family="Times,serif" font-size="14.00"> v21 = _extract_id(hKey, NULL)</text>
<text text-anchor="start" x="515" y="-2105.3" font-family="Times,serif" font-size="14.00"> g22 = PtrToIntCastExpr&lt;int32&gt;(v21)</text>
</g>
<!-- Node0x30a64c0&#45;&gt;Node0x32dfa20 -->
<g id="edge18" class="edge"><title>Node0x30a64c0&#45;&gt;Node0x32dfa20</title>
<path fill="none" stroke="black" d="M781.5,-2307.35C781.5,-2296.6 781.5,-2281.84 781.5,-2266.11"/>
<polygon fill="black" stroke="black" points="785,-2265.66 781.5,-2255.66 778,-2265.66 785,-2265.66"/>
<text text-anchor="middle" x="1059.5" y="-2277.8" font-family="Times,serif" font-size="14.00">SetupDiGetDeviceRegistryPropertyA(hKey, NULL, 0, NULL, NULL, 0, NULL)</text>
</g>
<!-- Node0x2c815f0 -->
<g id="node18" class="node"><title>Node0x2c815f0</title>
<polygon fill="none" stroke="black" points="506.5,-437.5 506.5,-475.5 1018.5,-475.5 1018.5,-437.5 506.5,-437.5"/>
<text text-anchor="start" x="514.5" y="-460.3" font-family="Times,serif" font-size="14.00">0x401c15:</text>
<text text-anchor="start" x="514.5" y="-445.3" font-family="Times,serif" font-size="14.00"> if not (SetupDiEnumDeviceInfo(v7, v17, BitCastExpr&lt;ptr&gt;(&amp;(v9)))):</text>
</g>
<!-- Node0x30a64c0&#45;&gt;Node0x2c815f0 -->
<g id="edge19" class="edge"><title>Node0x30a64c0&#45;&gt;Node0x2c815f0</title>
<path fill="none" stroke="black" d="M486.247,-2310.87C310.519,-2294.36 121.5,-2257.91 121.5,-2177.5 121.5,-2177.5 121.5,-2177.5 121.5,-544.5 121.5,-504.496 320.068,-482.072 496.168,-470.051"/>
<polygon fill="black" stroke="black" points="496.654,-473.526 506.396,-469.362 496.184,-466.542 496.654,-473.526"/>
<text text-anchor="middle" x="418.5" y="-1319.8" font-family="Times,serif" font-size="14.00">not (SetupDiGetDeviceRegistryPropertyA(hKey, NULL, 0, NULL, NULL, 0, NULL))</text>
</g>
<!-- Node0x32b4880 -->
<g id="node19" class="node"><title>Node0x32b4880</title>
<polygon fill="none" stroke="black" points="727,-2023.5 727,-2059.5 836,-2059.5 836,-2023.5 727,-2023.5"/>
<text text-anchor="start" x="735" y="-2037.8" font-family="Times,serif" font-size="14.00">if (g21 != 0):</text>
</g>
<!-- Node0x32dfa20&#45;&gt;Node0x32b4880 -->
<g id="edge20" class="edge"><title>Node0x32dfa20&#45;&gt;Node0x32b4880</title>
<path fill="none" stroke="black" d="M781.5,-2097.36C781.5,-2087.46 781.5,-2077.9 781.5,-2069.63"/>
<polygon fill="black" stroke="black" points="785,-2069.55 781.5,-2059.55 778,-2069.55 785,-2069.55"/>
</g>
<!-- Node0x32b4760 -->
<g id="node20" class="node"><title>Node0x32b4760</title>
<polygon fill="none" stroke="black" points="304,-233.5 304,-286.5 397,-286.5 397,-233.5 304,-233.5"/>
<text text-anchor="start" x="312" y="-271.3" font-family="Times,serif" font-size="14.00">v16 = v3</text>
<text text-anchor="start" x="312" y="-256.3" font-family="Times,serif" font-size="14.00"> result = 0</text>
<text text-anchor="start" x="312" y="-241.3" font-family="Times,serif" font-size="14.00"> break</text>
</g>
<!-- Node0x2c815f0&#45;&gt;Node0x32b4760 -->
<g id="edge21" class="edge"><title>Node0x2c815f0&#45;&gt;Node0x32b4760</title>
<path fill="none" stroke="black" d="M506.385,-443.222C441.147,-437.698 386.028,-429.889 374.5,-419 341.824,-388.134 340.894,-333.057 344.616,-296.774"/>
<polygon fill="black" stroke="black" points="348.118,-296.965 345.828,-286.62 341.167,-296.135 348.118,-296.965"/>
<text text-anchor="middle" x="610.5" y="-358.3" font-family="Times,serif" font-size="14.00">not (SetupDiEnumDeviceInfo(v7, v17, BitCastExpr&lt;ptr&gt;(&amp;(v9))))</text>
</g>
<!-- Node0x32b4670 -->
<g id="node21" class="node"><title>Node0x32b4670</title>
<polygon fill="none" stroke="black" points="1471,-242 1471,-278 1602,-278 1602,-242 1471,-242"/>
<text text-anchor="start" x="1479" y="-256.3" font-family="Times,serif" font-size="14.00">v17 = (v17 + 1)</text>
</g>
<!-- Node0x2c815f0&#45;&gt;Node0x32b4670 -->
<g id="edge22" class="edge"><title>Node0x2c815f0&#45;&gt;Node0x32b4670</title>
<path fill="none" stroke="black" d="M1018.8,-445.143C1121.06,-439.273 1219.64,-430.717 1240.5,-419 1294.92,-388.438 1270.12,-338.942 1322.5,-305 1363.46,-278.455 1417.31,-267.479 1460.75,-263.127"/>
<polygon fill="black" stroke="black" points="1461.34,-266.588 1470.98,-262.204 1460.71,-259.617 1461.34,-266.588"/>
<text text-anchor="middle" x="1539.5" y="-358.3" font-family="Times,serif" font-size="14.00">SetupDiEnumDeviceInfo(v7, v17, BitCastExpr&lt;ptr&gt;(&amp;(v9)))</text>
</g>
<!-- Node0x32b4880&#45;&gt;Node0x2c815f0 -->
<g id="edge24" class="edge"><title>Node0x32b4880&#45;&gt;Node0x2c815f0</title>
<path fill="none" stroke="black" d="M763.949,-2023.23C749.196,-2006.81 730.5,-1980.64 730.5,-1953.5 730.5,-1953.5 730.5,-1953.5 730.5,-1427.5 730.5,-1377.56 729.775,-1364.15 716.5,-1316 707.085,-1281.85 691.911,-1277.64 684.5,-1243 673.435,-1191.28 683.5,-1176.89 683.5,-1124 683.5,-1124 683.5,-1124 683.5,-544.5 683.5,-518.499 703.078,-496.825 722.741,-481.614"/>
<polygon fill="black" stroke="black" points="724.82,-484.43 730.823,-475.7 720.686,-478.781 724.82,-484.43"/>
<text text-anchor="middle" x="719.5" y="-1231.8" font-family="Times,serif" font-size="14.00">g21 == 0</text>
</g>
<!-- Node0x32b4ed0 -->
<g id="node22" class="node"><title>Node0x32b4ed0</title>
<polygon fill="none" stroke="black" points="759,-1933.5 759,-1971.5 906,-1971.5 906,-1933.5 759,-1933.5"/>
<text text-anchor="start" x="767" y="-1956.3" font-family="Times,serif" font-size="14.00">0x401b3e:</text>
<text text-anchor="start" x="767" y="-1941.3" font-family="Times,serif" font-size="14.00"> if (v21 != NULL):</text>
</g>
<!-- Node0x32b4880&#45;&gt;Node0x32b4ed0 -->
<g id="edge23" class="edge"><title>Node0x32b4880&#45;&gt;Node0x32b4ed0</title>
<path fill="none" stroke="black" d="M791.576,-2023.31C798.767,-2011.04 808.581,-1994.3 816.795,-1980.29"/>
<polygon fill="black" stroke="black" points="819.88,-1981.95 821.918,-1971.55 813.842,-1978.41 819.88,-1981.95"/>
<text text-anchor="middle" x="842.5" y="-1993.8" font-family="Times,serif" font-size="14.00">g21 != 0</text>
</g>
<!-- Node0x30a6640 -->
<g id="node23" class="node"><title>Node0x30a6640</title>
<polygon fill="none" stroke="black" points="114,-97.5 114,-195.5 489,-195.5 489,-97.5 114,-97.5"/>
<text text-anchor="start" x="122" y="-180.3" font-family="Times,serif" font-size="14.00">0x401c38:</text>
<text text-anchor="start" x="122" y="-165.3" font-family="Times,serif" font-size="14.00"> *(IntToPtrCastExpr&lt;ptr&gt;((v16 &#45; 16))) = v8</text>
<text text-anchor="start" x="122" y="-150.3" font-family="Times,serif" font-size="14.00"> *(IntToPtrCastExpr&lt;ptr&gt;((v16 &#45; 20))) = 4201541</text>
<text text-anchor="start" x="122" y="-135.3" font-family="Times,serif" font-size="14.00"> SetupDiDestroyDeviceInfoList(hKey)</text>
<text text-anchor="start" x="122" y="-120.3" font-family="Times,serif" font-size="14.00"> v2 = result</text>
<text text-anchor="start" x="122" y="-105.3" font-family="Times,serif" font-size="14.00"> return result</text>
</g>
<!-- Node0x32b4760&#45;&gt;Node0x30a6640 -->
<g id="edge25" class="edge"><title>Node0x32b4760&#45;&gt;Node0x30a6640</title>
<path fill="none" stroke="black" d="M339.258,-233.42C335.494,-224.854 331.133,-214.93 326.739,-204.933"/>
<polygon fill="black" stroke="black" points="329.94,-203.515 322.712,-195.768 323.531,-206.332 329.94,-203.515"/>
</g>
<!-- Node0x32b4670&#45;&gt;Node0x2c82e40 -->
<g id="edge26" class="edge"><title>Node0x32b4670&#45;&gt;Node0x2c82e40</title>
<path fill="none" stroke="black" d="M1602.23,-265.614C1659.42,-271.096 1736.23,-282.495 1756.5,-305 1801.45,-354.921 1770.5,-388.322 1770.5,-455.5 1770.5,-2514 1770.5,-2514 1770.5,-2514 1770.5,-2702.29 1064.69,-2715.33 853.501,-2715.02"/>
<polygon fill="black" stroke="black" points="853.243,-2711.52 843.234,-2715 853.225,-2718.52 853.243,-2711.52"/>
</g>
<!-- Node0x32b4ed0&#45;&gt;Node0x2c815f0 -->
<g id="edge28" class="edge"><title>Node0x32b4ed0&#45;&gt;Node0x2c815f0</title>
<path fill="none" stroke="black" d="M822.075,-1933.27C803.94,-1899.79 768.5,-1825.75 768.5,-1758.5 768.5,-1758.5 768.5,-1758.5 768.5,-544.5 768.5,-525.001 766.981,-503.102 765.472,-486.153"/>
<polygon fill="black" stroke="black" points="768.92,-485.433 764.498,-475.805 761.951,-486.089 768.92,-485.433"/>
</g>
<!-- Node0x32b5290 -->
<g id="node24" class="node"><title>Node0x32b5290</title>
<polygon fill="none" stroke="black" points="828.5,-1633.5 828.5,-1881.5 1164.5,-1881.5 1164.5,-1633.5 828.5,-1633.5"/>
<text text-anchor="start" x="836.5" y="-1866.3" font-family="Times,serif" font-size="14.00">v22 = IntToPtrCastExpr&lt;ptr&gt;((v1 + 8))</text>
<text text-anchor="start" x="836.5" y="-1851.3" font-family="Times,serif" font-size="14.00"> *(v22) = v5</text>
<text text-anchor="start" x="836.5" y="-1836.3" font-family="Times,serif" font-size="14.00"> v23 = IntToPtrCastExpr&lt;ptr&gt;((v1 + 4))</text>
<text text-anchor="start" x="836.5" y="-1821.3" font-family="Times,serif" font-size="14.00"> *(v23) = 128</text>
<text text-anchor="start" x="836.5" y="-1806.3" font-family="Times,serif" font-size="14.00"> v24 = IntToPtrCastExpr&lt;ptr&gt;(v1)</text>
<text text-anchor="start" x="836.5" y="-1791.3" font-family="Times,serif" font-size="14.00"> *(v24) = PtrToIntCastExpr&lt;int32&gt;(&amp;(g23))</text>
<text text-anchor="start" x="836.5" y="-1776.3" font-family="Times,serif" font-size="14.00"> v25 = IntToPtrCastExpr&lt;ptr&gt;((v1 &#45; 4))</text>
<text text-anchor="start" x="836.5" y="-1761.3" font-family="Times,serif" font-size="14.00"> *(v25) = 0</text>
<text text-anchor="start" x="836.5" y="-1746.3" font-family="Times,serif" font-size="14.00"> v26 = IntToPtrCastExpr&lt;ptr&gt;((v1 &#45; 8))</text>
<text text-anchor="start" x="836.5" y="-1731.3" font-family="Times,serif" font-size="14.00"> *(v26) = 12</text>
<text text-anchor="start" x="836.5" y="-1716.3" font-family="Times,serif" font-size="14.00"> v27 = IntToPtrCastExpr&lt;ptr&gt;((v1 &#45; 12))</text>
<text text-anchor="start" x="836.5" y="-1701.3" font-family="Times,serif" font-size="14.00"> *(v27) = v10</text>
<text text-anchor="start" x="836.5" y="-1686.3" font-family="Times,serif" font-size="14.00"> v28 = IntToPtrCastExpr&lt;ptr&gt;((v1 &#45; 16))</text>
<text text-anchor="start" x="836.5" y="-1671.3" font-family="Times,serif" font-size="14.00"> *(v28) = v8</text>
<text text-anchor="start" x="836.5" y="-1656.3" font-family="Times,serif" font-size="14.00"> v29 = IntToPtrCastExpr&lt;ptr&gt;((v1 &#45; 20))</text>
<text text-anchor="start" x="836.5" y="-1641.3" font-family="Times,serif" font-size="14.00"> *(v29) = 4201327</text>
</g>
<!-- Node0x32b4ed0&#45;&gt;Node0x32b5290 -->
<g id="edge27" class="edge"><title>Node0x32b4ed0&#45;&gt;Node0x32b5290</title>
<path fill="none" stroke="black" d="M847.929,-1933.34C857.402,-1922.19 870.478,-1906.81 884.976,-1889.75"/>
<polygon fill="black" stroke="black" points="887.92,-1891.68 891.729,-1881.8 882.586,-1887.15 887.92,-1891.68"/>
<text text-anchor="middle" x="921" y="-1903.8" font-family="Times,serif" font-size="14.00">v21 != NULL</text>
</g>
<!-- Node0x30a6640&#45;&gt;Node0x30ce720 -->
<g id="edge29" class="edge"><title>Node0x30a6640&#45;&gt;Node0x30ce720</title>
<path fill="none" stroke="black" d="M228.056,-97.3173C211.005,-86.1309 193.635,-74.7348 179.18,-65.2521"/>
<polygon fill="black" stroke="black" points="180.868,-62.173 170.586,-59.614 177.028,-68.0259 180.868,-62.173"/>
</g>
<!-- Node0x2f2c020 -->
<g id="node25" class="node"><title>Node0x2f2c020</title>
<polygon fill="none" stroke="black" points="796.5,-1559.5 796.5,-1595.5 1386.5,-1595.5 1386.5,-1559.5 796.5,-1559.5"/>
<text text-anchor="start" x="804.5" y="-1573.8" font-family="Times,serif" font-size="14.00">if SetupDiGetDeviceRegistryPropertyA(hKey, NULL, 0, NULL, NULL, 0, NULL):</text>
</g>
<!-- Node0x32b5290&#45;&gt;Node0x2f2c020 -->
<g id="edge30" class="edge"><title>Node0x32b5290&#45;&gt;Node0x2f2c020</title>
<path fill="none" stroke="black" d="M1062.22,-1633.36C1067.82,-1622.88 1073.01,-1613.14 1077.43,-1604.86"/>
<polygon fill="black" stroke="black" points="1080.61,-1606.34 1082.23,-1595.87 1074.43,-1603.04 1080.61,-1606.34"/>
</g>
<!-- Node0x2f2c020&#45;&gt;Node0x2c815f0 -->
<g id="edge32" class="edge"><title>Node0x2f2c020&#45;&gt;Node0x2c815f0</title>
<path fill="none" stroke="black" d="M961.094,-1559.5C886.05,-1541.56 806.5,-1504.8 806.5,-1429.5 806.5,-1429.5 806.5,-1429.5 806.5,-544.5 806.5,-522.507 795.164,-500.426 784.001,-484.013"/>
<polygon fill="black" stroke="black" points="786.569,-481.59 777.889,-475.514 780.886,-485.676 786.569,-481.59"/>
</g>
<!-- Node0x2f2c9c0 -->
<g id="node26" class="node"><title>Node0x2f2c9c0</title>
<polygon fill="none" stroke="black" points="885,-1349.5 885,-1507.5 1298,-1507.5 1298,-1349.5 885,-1349.5"/>
<text text-anchor="start" x="893" y="-1492.3" font-family="Times,serif" font-size="14.00">0x401b7a:</text>
<text text-anchor="start" x="893" y="-1477.3" font-family="Times,serif" font-size="14.00"> *(v23) = 131097</text>
<text text-anchor="start" x="893" y="-1462.3" font-family="Times,serif" font-size="14.00"> *(v24) = 1</text>
<text text-anchor="start" x="893" y="-1447.3" font-family="Times,serif" font-size="14.00"> *(v25) = 0</text>
<text text-anchor="start" x="893" y="-1432.3" font-family="Times,serif" font-size="14.00"> *(v26) = 1</text>
<text text-anchor="start" x="893" y="-1417.3" font-family="Times,serif" font-size="14.00"> *(v27) = v10</text>
<text text-anchor="start" x="893" y="-1402.3" font-family="Times,serif" font-size="14.00"> *(v28) = v8</text>
<text text-anchor="start" x="893" y="-1387.3" font-family="Times,serif" font-size="14.00"> *(v29) = 4201366</text>
<text text-anchor="start" x="893" y="-1372.3" font-family="Times,serif" font-size="14.00"> v30 = SetupDiOpenDevRegKey(hKey, NULL, 0, 0, 0, 0)</text>
<text text-anchor="start" x="893" y="-1357.3" font-family="Times,serif" font-size="14.00"> v31 = PtrToIntCastExpr&lt;int32&gt;(v30)</text>
</g>
<!-- Node0x2f2c020&#45;&gt;Node0x2f2c9c0 -->
<g id="edge31" class="edge"><title>Node0x2f2c020&#45;&gt;Node0x2f2c9c0</title>
<path fill="none" stroke="black" d="M1091.5,-1559.35C1091.5,-1548.6 1091.5,-1533.84 1091.5,-1518.11"/>
<polygon fill="black" stroke="black" points="1095,-1517.66 1091.5,-1507.66 1088,-1517.66 1095,-1517.66"/>
<text text-anchor="middle" x="1369.5" y="-1529.8" font-family="Times,serif" font-size="14.00">SetupDiGetDeviceRegistryPropertyA(hKey, NULL, 0, NULL, NULL, 0, NULL)</text>
</g>
<!-- Node0x2f2bd40 -->
<g id="node27" class="node"><title>Node0x2f2bd40</title>
<polygon fill="none" stroke="black" points="943.5,-1261.5 943.5,-1297.5 1239.5,-1297.5 1239.5,-1261.5 943.5,-1261.5"/>
<text text-anchor="start" x="951.5" y="-1275.8" font-family="Times,serif" font-size="14.00">if (v30 != IntToPtrCastExpr&lt;ptr&gt;(&#45;1)):</text>
</g>
<!-- Node0x2f2c9c0&#45;&gt;Node0x2f2bd40 -->
<g id="edge33" class="edge"><title>Node0x2f2c9c0&#45;&gt;Node0x2f2bd40</title>
<path fill="none" stroke="black" d="M1091.5,-1349.27C1091.5,-1334.36 1091.5,-1319.71 1091.5,-1307.79"/>
<polygon fill="black" stroke="black" points="1095,-1307.68 1091.5,-1297.68 1088,-1307.68 1095,-1307.68"/>
</g>
<!-- Node0x2f2bd40&#45;&gt;Node0x2c815f0 -->
<g id="edge35" class="edge"><title>Node0x2f2bd40&#45;&gt;Node0x2c815f0</title>
<path fill="none" stroke="black" d="M1004.76,-1261.47C933.594,-1241.85 844.5,-1201.77 844.5,-1124 844.5,-1124 844.5,-1124 844.5,-544.5 844.5,-519.65 837.005,-512.578 820.5,-494 816.501,-489.499 811.816,-485.351 806.873,-481.592"/>
<polygon fill="black" stroke="black" points="808.583,-478.516 798.386,-475.641 804.564,-484.248 808.583,-478.516"/>
</g>
<!-- Node0x2f2c4d0 -->
<g id="node28" class="node"><title>Node0x2f2c4d0</title>
<polygon fill="none" stroke="black" points="917.5,-1036.5 917.5,-1209.5 1289.5,-1209.5 1289.5,-1036.5 917.5,-1036.5"/>
<text text-anchor="start" x="925.5" y="-1194.3" font-family="Times,serif" font-size="14.00">0x401ba2:</text>
<text text-anchor="start" x="925.5" y="-1179.3" font-family="Times,serif" font-size="14.00"> v4 = 128</text>
<text text-anchor="start" x="925.5" y="-1164.3" font-family="Times,serif" font-size="14.00"> g6 = v5</text>
<text text-anchor="start" x="925.5" y="-1149.3" font-family="Times,serif" font-size="14.00"> *(v23) = v5</text>
<text text-anchor="start" x="925.5" y="-1134.3" font-family="Times,serif" font-size="14.00"> *(v24) = v14</text>
<text text-anchor="start" x="925.5" y="-1119.3" font-family="Times,serif" font-size="14.00"> *(v25) = 0</text>
<text text-anchor="start" x="925.5" y="-1104.3" font-family="Times,serif" font-size="14.00"> *(v26) = 0</text>
<text text-anchor="start" x="925.5" y="-1089.3" font-family="Times,serif" font-size="14.00"> *(v27) = PtrToIntCastExpr&lt;int32&gt;(&quot;PortName&quot;)</text>
<text text-anchor="start" x="925.5" y="-1074.3" font-family="Times,serif" font-size="14.00"> *(v28) = v31</text>
<text text-anchor="start" x="925.5" y="-1059.3" font-family="Times,serif" font-size="14.00"> *(v29) = 4201416</text>
<text text-anchor="start" x="925.5" y="-1044.3" font-family="Times,serif" font-size="14.00"> v32 = v1</text>
</g>
<!-- Node0x2f2bd40&#45;&gt;Node0x2f2c4d0 -->
<g id="edge34" class="edge"><title>Node0x2f2bd40&#45;&gt;Node0x2f2c4d0</title>
<path fill="none" stroke="black" d="M1092.83,-1261.38C1093.67,-1250.58 1094.83,-1235.67 1096.07,-1219.65"/>
<polygon fill="black" stroke="black" points="1099.57,-1219.79 1096.86,-1209.55 1092.59,-1219.25 1099.57,-1219.79"/>
<text text-anchor="middle" x="1220" y="-1231.8" font-family="Times,serif" font-size="14.00">v30 != IntToPtrCastExpr&lt;ptr&gt;(&#45;1)</text>
</g>
<!-- Node0x30a5260 -->
<g id="node29" class="node"><title>Node0x30a5260</title>
<polygon fill="none" stroke="black" points="873,-962.5 873,-998.5 1406,-998.5 1406,-962.5 873,-962.5"/>
<text text-anchor="start" x="881" y="-976.8" font-family="Times,serif" font-size="14.00">if (RegQueryValueExA(hKey, NULL, NULL, NULL, NULL, NULL) == 0):</text>
</g>
<!-- Node0x2f2c4d0&#45;&gt;Node0x30a5260 -->
<g id="edge36" class="edge"><title>Node0x2f2c4d0&#45;&gt;Node0x30a5260</title>
<path fill="none" stroke="black" d="M1125.48,-1036.22C1128,-1026.37 1130.42,-1016.95 1132.51,-1008.78"/>
<polygon fill="black" stroke="black" points="1135.96,-1009.4 1135.06,-998.843 1129.18,-1007.66 1135.96,-1009.4"/>
</g>
<!-- Node0x2caf280 -->
<g id="node30" class="node"><title>Node0x2caf280</title>
<polygon fill="none" stroke="black" points="1390.5,-782.5 1390.5,-910.5 1742.5,-910.5 1742.5,-782.5 1390.5,-782.5"/>
<text text-anchor="start" x="1398.5" y="-895.3" font-family="Times,serif" font-size="14.00">0x401bcf:</text>
<text text-anchor="start" x="1398.5" y="-880.3" font-family="Times,serif" font-size="14.00"> *(IntToPtrCastExpr&lt;ptr&gt;((v1 + 12))) = v14</text>
<text text-anchor="start" x="1398.5" y="-865.3" font-family="Times,serif" font-size="14.00"> *(v22) = PtrToIntCastExpr&lt;int32&gt;(&quot;\\\\.\\%s&quot;)</text>
<text text-anchor="start" x="1398.5" y="-850.3" font-family="Times,serif" font-size="14.00"> *(v23) = 127</text>
<text text-anchor="start" x="1398.5" y="-835.3" font-family="Times,serif" font-size="14.00"> *(v24) = PtrToIntCastExpr&lt;int32&gt;(&amp;(g24))</text>
<text text-anchor="start" x="1398.5" y="-820.3" font-family="Times,serif" font-size="14.00"> *(v25) = 4201447</text>
<text text-anchor="start" x="1398.5" y="-805.3" font-family="Times,serif" font-size="14.00"> _snprintf(hKey, 0, NULL)</text>
<text text-anchor="start" x="1398.5" y="-790.3" font-family="Times,serif" font-size="14.00"> v32 = v1</text>
</g>
<!-- Node0x30a5260&#45;&gt;Node0x2caf280 -->
<g id="edge37" class="edge"><title>Node0x30a5260&#45;&gt;Node0x2caf280</title>
<path fill="none" stroke="black" d="M1176.9,-962.468C1202.28,-951.507 1236.85,-937.729 1268.5,-929 1315.41,-916.061 1329.28,-922.749 1376.5,-911 1377.78,-910.681 1379.07,-910.358 1380.36,-910.03"/>
<polygon fill="black" stroke="black" points="1381.5,-913.348 1390.29,-907.437 1379.74,-906.575 1381.5,-913.348"/>
<text text-anchor="middle" x="1512.5" y="-932.8" font-family="Times,serif" font-size="14.00">RegQueryValueExA(hKey, NULL, NULL, NULL, NULL, NULL) == 0</text>
</g>
<!-- Node0x30947f0 -->
<g id="node31" class="node"><title>Node0x30947f0</title>
<polygon fill="none" stroke="black" points="875.5,-601.5 875.5,-744.5 1211.5,-744.5 1211.5,-601.5 875.5,-601.5"/>
<text text-anchor="start" x="883.5" y="-729.3" font-family="Times,serif" font-size="14.00">v33 = IntToPtrCastExpr&lt;ptr&gt;(v32)</text>
<text text-anchor="start" x="883.5" y="-714.3" font-family="Times,serif" font-size="14.00"> *(v33) = v31</text>
<text text-anchor="start" x="883.5" y="-699.3" font-family="Times,serif" font-size="14.00"> v34 = IntToPtrCastExpr&lt;ptr&gt;((v32 &#45; 4))</text>
<text text-anchor="start" x="883.5" y="-684.3" font-family="Times,serif" font-size="14.00"> *(v34) = 4201461</text>
<text text-anchor="start" x="883.5" y="-669.3" font-family="Times,serif" font-size="14.00"> RegCloseKey(hKey)</text>
<text text-anchor="start" x="883.5" y="-654.3" font-family="Times,serif" font-size="14.00"> *(v33) = PtrToIntCastExpr&lt;int32&gt;(&amp;(g21))</text>
<text text-anchor="start" x="883.5" y="-639.3" font-family="Times,serif" font-size="14.00"> g1 = PtrToIntCastExpr&lt;int32&gt;(hKey)</text>
<text text-anchor="start" x="883.5" y="-624.3" font-family="Times,serif" font-size="14.00"> *(v34) = 4201477</text>
<text text-anchor="start" x="883.5" y="-609.3" font-family="Times,serif" font-size="14.00"> BitCastExpr&lt;ptr&gt;(hKey)()</text>
</g>
<!-- Node0x30a5260&#45;&gt;Node0x30947f0 -->
<g id="edge38" class="edge"><title>Node0x30a5260&#45;&gt;Node0x30947f0</title>
<path fill="none" stroke="black" d="M1034.97,-962.459C978.326,-950.863 916.496,-933.526 899.5,-911 864.968,-865.233 873.86,-833.28 899.5,-782 904.85,-771.3 911.82,-761.385 919.806,-752.26"/>
<polygon fill="black" stroke="black" points="922.508,-754.493 926.739,-744.78 917.374,-749.734 922.508,-754.493"/>
<text text-anchor="middle" x="1140.5" y="-842.8" font-family="Times,serif" font-size="14.00">RegQueryValueExA(hKey, NULL, NULL, NULL, NULL, NULL) != 0</text>
</g>
<!-- Node0x2caf280&#45;&gt;Node0x30947f0 -->
<g id="edge39" class="edge"><title>Node0x2caf280&#45;&gt;Node0x30947f0</title>
<path fill="none" stroke="black" d="M1390.29,-786.548C1385.64,-785.014 1381.04,-783.496 1376.5,-782 1326.2,-765.438 1271.56,-747.638 1221.37,-731.362"/>
<polygon fill="black" stroke="black" points="1222.31,-727.989 1211.72,-728.235 1220.15,-734.648 1222.31,-727.989"/>
</g>
<!-- Node0x3094850 -->
<g id="node32" class="node"><title>Node0x3094850</title>
<polygon fill="none" stroke="black" points="990.5,-527.5 990.5,-563.5 1096.5,-563.5 1096.5,-527.5 990.5,-527.5"/>
<text text-anchor="start" x="998.5" y="-541.8" font-family="Times,serif" font-size="14.00">if (g1 == 0):</text>
</g>
<!-- Node0x30947f0&#45;&gt;Node0x3094850 -->
<g id="edge40" class="edge"><title>Node0x30947f0&#45;&gt;Node0x3094850</title>
<path fill="none" stroke="black" d="M1043.5,-601.181C1043.5,-591.439 1043.5,-581.961 1043.5,-573.707"/>
<polygon fill="black" stroke="black" points="1047,-573.642 1043.5,-563.642 1040,-573.642 1047,-573.642"/>
</g>
<!-- Node0x3094850&#45;&gt;Node0x2c815f0 -->
<g id="edge42" class="edge"><title>Node0x3094850&#45;&gt;Node0x2c815f0</title>
<path fill="none" stroke="black" d="M990.316,-528.034C944.969,-513.994 879.518,-493.73 830.394,-478.521"/>
<polygon fill="black" stroke="black" points="831.386,-475.164 820.798,-475.55 829.315,-481.851 831.386,-475.164"/>
</g>
<!-- Node0x2caf2e0 -->
<g id="node33" class="node"><title>Node0x2caf2e0</title>
<polygon fill="none" stroke="black" points="856,-305.5 856,-418.5 1231,-418.5 1231,-305.5 856,-305.5"/>
<text text-anchor="start" x="864" y="-403.3" font-family="Times,serif" font-size="14.00">v16 = (v1 + 16)</text>
<text text-anchor="start" x="864" y="-388.3" font-family="Times,serif" font-size="14.00"> result = &amp;(g24)</text>
<text text-anchor="start" x="864" y="-373.3" font-family="Times,serif" font-size="14.00"> *(IntToPtrCastExpr&lt;ptr&gt;((v16 &#45; 16))) = v8</text>
<text text-anchor="start" x="864" y="-358.3" font-family="Times,serif" font-size="14.00"> *(IntToPtrCastExpr&lt;ptr&gt;((v16 &#45; 20))) = 4201541</text>
<text text-anchor="start" x="864" y="-343.3" font-family="Times,serif" font-size="14.00"> SetupDiDestroyDeviceInfoList(hKey)</text>
<text text-anchor="start" x="864" y="-328.3" font-family="Times,serif" font-size="14.00"> v2 = result</text>
<text text-anchor="start" x="864" y="-313.3" font-family="Times,serif" font-size="14.00"> return result</text>
</g>
<!-- Node0x3094850&#45;&gt;Node0x2caf2e0 -->
<g id="edge41" class="edge"><title>Node0x3094850&#45;&gt;Node0x2caf2e0</title>
<path fill="none" stroke="black" d="M1043.5,-527.425C1043.5,-505.016 1043.5,-464.39 1043.5,-429.129"/>
<polygon fill="black" stroke="black" points="1047,-428.866 1043.5,-418.866 1040,-428.866 1047,-428.866"/>
<text text-anchor="middle" x="1074" y="-497.8" font-family="Times,serif" font-size="14.00">g1 == 0</text>
</g>
<!-- Node0x2caf2e0&#45;&gt;Node0x30ce720 -->
<g id="edge43" class="edge"><title>Node0x2caf2e0&#45;&gt;Node0x30ce720</title>
<path fill="none" stroke="black" d="M950.378,-305.316C844.418,-244.531 664.384,-148.949 497.5,-97 385.888,-62.257 247.246,-49.1295 181.899,-44.6224"/>
<polygon fill="black" stroke="black" points="181.893,-41.1145 171.684,-43.9476 181.431,-48.0992 181.893,-41.1145"/>
</g>
</g>
</svg>
