<?xml version="1.0" encoding="UTF-8" standalone="no"?>
<!DOCTYPE svg PUBLIC "-//W3C//DTD SVG 1.1//EN"
 "http://www.w3.org/Graphics/SVG/1.1/DTD/svg11.dtd">
<!-- Generated by graphviz version 2.38.0 (20140413.2041)
 -->
<!-- Title: Control&#45;flow graph for function &#39;_on_event(a1, *a2)&#39;. Pages: 1 -->
<svg width="1864pt" height="765pt"
 viewBox="0.00 0.00 1863.50 765.00" xmlns="http://www.w3.org/2000/svg" xmlns:xlink="http://www.w3.org/1999/xlink">
<g id="graph0" class="graph" transform="scale(1 1) rotate(0) translate(4 761)">
<title>Control&#45;flow graph for function &#39;_on_event(a1, *a2)&#39;.</title>
<polygon fill="white" stroke="none" points="-4,4 -4,-761 1859.5,-761 1859.5,4 -4,4"/>
<text text-anchor="middle" x="927.75" y="-7.8" font-family="Times,serif" font-size="14.00">Control&#45;flow graph for function &#39;_on_event(a1, *a2)&#39;.</text>
<!-- Node0x3404370 -->
<g id="node1" class="node"><title>Node0x3404370</title>
<polygon fill="none" stroke="black" points="851,-703.5 851,-756.5 910,-756.5 910,-703.5 851,-703.5"/>
<text text-anchor="start" x="859" y="-741.3" font-family="Times,serif" font-size="14.00">entry:</text>
<text text-anchor="start" x="859" y="-726.3" font-family="Times,serif" font-size="14.00"> a1</text>
<text text-anchor="start" x="859" y="-711.3" font-family="Times,serif" font-size="14.00"> a2</text>
</g>
<!-- Node0x2ef32a0 -->
<g id="node2" class="node"><title>Node0x2ef32a0</title>
<polygon fill="none" stroke="black" points="833,-597.5 833,-665.5 928,-665.5 928,-597.5 833,-597.5"/>
<text text-anchor="start" x="841" y="-650.3" font-family="Times,serif" font-size="14.00">0x40143a:</text>
<text text-anchor="start" x="841" y="-635.3" font-family="Times,serif" font-size="14.00"> switch a1:</text>
<text text-anchor="start" x="841" y="-620.3" font-family="Times,serif" font-size="14.00"> case 0:</text>
<text text-anchor="start" x="841" y="-605.3" font-family="Times,serif" font-size="14.00"> case 1:</text>
</g>
<!-- Node0x3404370&#45;&gt;Node0x2ef32a0 -->
<g id="edge1" class="edge"><title>Node0x3404370&#45;&gt;Node0x2ef32a0</title>
<path fill="none" stroke="black" d="M880.5,-703.393C880.5,-694.864 880.5,-685.114 880.5,-675.631"/>
<polygon fill="black" stroke="black" points="884,-675.516 880.5,-665.516 877,-675.516 884,-675.516"/>
</g>
<!-- Node0x2f07570 -->
<g id="node3" class="node"><title>Node0x2f07570</title>
<polygon fill="none" stroke="black" points="0,-422.5 0,-490.5 575,-490.5 575,-422.5 0,-422.5"/>
<text text-anchor="start" x="8" y="-475.3" font-family="Times,serif" font-size="14.00">0x401457:</text>
<text text-anchor="start" x="8" y="-460.3" font-family="Times,serif" font-size="14.00"> fprintf(IntToPtrCastExpr&lt;ptr&gt;((g36 + 64)), (&quot;%s&quot; if (g18 == 0) else &quot;\n%s&quot;))</text>
<text text-anchor="start" x="8" y="-445.3" font-family="Times,serif" font-size="14.00"> g18 = 0</text>
<text text-anchor="start" x="8" y="-430.3" font-family="Times,serif" font-size="14.00"> break</text>
</g>
<!-- Node0x2ef32a0&#45;&gt;Node0x2f07570 -->
<g id="edge2" class="edge"><title>Node0x2ef32a0&#45;&gt;Node0x2f07570</title>
<path fill="none" stroke="black" d="M832.975,-616.635C742.147,-590.137 541.311,-531.546 410.322,-493.332"/>
<polygon fill="black" stroke="black" points="411.203,-489.943 400.622,-490.502 409.242,-496.663 411.203,-489.943"/>
<text text-anchor="middle" x="726.5" y="-567.8" font-family="Times,serif" font-size="14.00">a1 == 0</text>
</g>
<!-- Node0x2ef6d90 -->
<g id="node4" class="node"><title>Node0x2ef6d90</title>
<polygon fill="none" stroke="black" points="835.5,-509.5 835.5,-545.5 925.5,-545.5 925.5,-509.5 835.5,-509.5"/>
<text text-anchor="start" x="843.5" y="-523.8" font-family="Times,serif" font-size="14.00">v1 = *(a2)</text>
</g>
<!-- Node0x2ef32a0&#45;&gt;Node0x2ef6d90 -->
<g id="edge3" class="edge"><title>Node0x2ef32a0&#45;&gt;Node0x2ef6d90</title>
<path fill="none" stroke="black" d="M880.5,-597.384C880.5,-583.932 880.5,-568.579 880.5,-555.787"/>
<polygon fill="black" stroke="black" points="884,-555.742 880.5,-545.742 877,-555.742 884,-555.742"/>
<text text-anchor="middle" x="910.5" y="-567.8" font-family="Times,serif" font-size="14.00">a1 == 1</text>
</g>
<!-- Node0x28b0d20 -->
<g id="node5" class="node"><title>Node0x28b0d20</title>
<polygon fill="none" stroke="black" points="824,-97.5 824,-135.5 913,-135.5 913,-97.5 824,-97.5"/>
<text text-anchor="start" x="832" y="-120.3" font-family="Times,serif" font-size="14.00">0x4014fb:</text>
<text text-anchor="start" x="832" y="-105.3" font-family="Times,serif" font-size="14.00"> return 0</text>
</g>
<!-- Node0x2ef32a0&#45;&gt;Node0x28b0d20 -->
<g id="edge4" class="edge"><title>Node0x2ef32a0&#45;&gt;Node0x28b0d20</title>
<path fill="none" stroke="black" d="M928.186,-630.578C1123.94,-630.279 1855.5,-622.852 1855.5,-528.5 1855.5,-528.5 1855.5,-528.5 1855.5,-190.5 1855.5,-143.373 1130.41,-123.404 923.196,-118.659"/>
<polygon fill="black" stroke="black" points="923.227,-115.159 913.15,-118.431 923.068,-122.157 923.227,-115.159"/>
</g>
<!-- Node0x2f07570&#45;&gt;Node0x28b0d20 -->
<g id="edge5" class="edge"><title>Node0x2f07570&#45;&gt;Node0x28b0d20</title>
<path fill="none" stroke="black" d="M145.26,-422.469C110.713,-405.632 83.5,-380.355 83.5,-342.5 83.5,-342.5 83.5,-342.5 83.5,-190.5 83.5,-117.068 635.132,-115.451 813.55,-116.849"/>
<polygon fill="black" stroke="black" points="813.732,-120.35 823.761,-116.935 813.791,-113.35 813.732,-120.35"/>
</g>
<!-- Node0x3047ac0 -->
<g id="node6" class="node"><title>Node0x3047ac0</title>
<polygon fill="none" stroke="black" points="432.5,-367.5 432.5,-403.5 1328.5,-403.5 1328.5,-367.5 432.5,-367.5"/>
<text text-anchor="start" x="440.5" y="-381.8" font-family="Times,serif" font-size="14.00">if (TruncCastExpr&lt;int32&gt;((((4294967296 * ExtCastExpr&lt;int64&gt;((v1 &gt;&gt; 31))) or ExtCastExpr&lt;int64&gt;(v1)) % 10)) == 0):</text>
</g>
<!-- Node0x2ef6d90&#45;&gt;Node0x3047ac0 -->
<g id="edge6" class="edge"><title>Node0x2ef6d90&#45;&gt;Node0x3047ac0</title>
<path fill="none" stroke="black" d="M880.5,-509.333C880.5,-485.507 880.5,-442.158 880.5,-413.849"/>
<polygon fill="black" stroke="black" points="884,-413.807 880.5,-403.807 877,-413.807 884,-413.807"/>
</g>
<!-- Node0x2a27070 -->
<g id="node7" class="node"><title>Node0x2a27070</title>
<polygon fill="none" stroke="black" points="841.5,-23.5 841.5,-59.5 895.5,-59.5 895.5,-23.5 841.5,-23.5"/>
<text text-anchor="start" x="849.5" y="-37.8" font-family="Times,serif" font-size="14.00">exit:</text>
</g>
<!-- Node0x28b0d20&#45;&gt;Node0x2a27070 -->
<g id="edge7" class="edge"><title>Node0x28b0d20&#45;&gt;Node0x2a27070</title>
<path fill="none" stroke="black" d="M868.5,-97.4551C868.5,-89.2008 868.5,-79.2377 868.5,-70.0742"/>
<polygon fill="black" stroke="black" points="872,-69.8347 868.5,-59.8347 865,-69.8347 872,-69.8347"/>
</g>
<!-- Node0x323cd60 -->
<g id="node8" class="node"><title>Node0x323cd60</title>
<polygon fill="none" stroke="black" points="305,-247.5 305,-315.5 752,-315.5 752,-247.5 305,-247.5"/>
<text text-anchor="start" x="313" y="-300.3" font-family="Times,serif" font-size="14.00">0x4014bb:</text>
<text text-anchor="start" x="313" y="-285.3" font-family="Times,serif" font-size="14.00"> fprintf(IntToPtrCastExpr&lt;ptr&gt;((g36 + 64)), &quot;%3d%%&quot;, v1)</text>
<text text-anchor="start" x="313" y="-270.3" font-family="Times,serif" font-size="14.00"> fwrite(&quot;\b\b\b\b&quot;, 1, 4, IntToPtrCastExpr&lt;ptr&gt;((g36 + 64)))</text>
<text text-anchor="start" x="313" y="-255.3" font-family="Times,serif" font-size="14.00"> g18 = 1</text>
</g>
<!-- Node0x3047ac0&#45;&gt;Node0x323cd60 -->
<g id="edge8" class="edge"><title>Node0x3047ac0&#45;&gt;Node0x323cd60</title>
<path fill="none" stroke="black" d="M432.424,-375.936C273.383,-370.637 130.119,-362.219 117.5,-349 85.9805,-315.98 185.613,-299.355 294.654,-290.985"/>
<polygon fill="black" stroke="black" points="295.176,-294.456 304.89,-290.225 294.658,-287.475 295.176,-294.456"/>
<text text-anchor="middle" x="543" y="-337.8" font-family="Times,serif" font-size="14.00">TruncCastExpr&lt;int32&gt;((((4294967296 * ExtCastExpr&lt;int64&gt;((v1 &gt;&gt; 31))) or ExtCastExpr&lt;int64&gt;(v1)) % 10)) == 0</text>
</g>
<!-- Node0x311c7d0 -->
<g id="node9" class="node"><title>Node0x311c7d0</title>
<polygon fill="none" stroke="black" points="839.5,-173.5 839.5,-209.5 897.5,-209.5 897.5,-173.5 839.5,-173.5"/>
<text text-anchor="start" x="847.5" y="-187.8" font-family="Times,serif" font-size="14.00">break</text>
</g>
<!-- Node0x3047ac0&#45;&gt;Node0x311c7d0 -->
<g id="edge9" class="edge"><title>Node0x3047ac0&#45;&gt;Node0x311c7d0</title>
<path fill="none" stroke="black" d="M948.26,-367.355C956.225,-362.647 963.339,-356.647 968.5,-349 972.229,-343.474 970.519,-340.354 968.5,-334 953.744,-287.553 917.616,-243.224 893.075,-216.934"/>
<polygon fill="black" stroke="black" points="895.609,-214.519 886.178,-209.691 890.539,-219.346 895.609,-214.519"/>
<text text-anchor="middle" x="1384" y="-277.8" font-family="Times,serif" font-size="14.00">TruncCastExpr&lt;int32&gt;((((4294967296 * ExtCastExpr&lt;int64&gt;((v1 &gt;&gt; 31))) or ExtCastExpr&lt;int64&gt;(v1)) % 10)) != 0</text>
</g>
<!-- Node0x323cd60&#45;&gt;Node0x311c7d0 -->
<g id="edge10" class="edge"><title>Node0x323cd60&#45;&gt;Node0x311c7d0</title>
<path fill="none" stroke="black" d="M656.071,-247.482C717.694,-231.532 787.264,-213.526 829.487,-202.598"/>
<polygon fill="black" stroke="black" points="830.549,-205.938 839.353,-200.044 828.795,-199.161 830.549,-205.938"/>
</g>
<!-- Node0x311c7d0&#45;&gt;Node0x28b0d20 -->
<g id="edge11" class="edge"><title>Node0x311c7d0&#45;&gt;Node0x28b0d20</title>
<path fill="none" stroke="black" d="M868.5,-173.2C868.5,-164.99 868.5,-154.969 868.5,-145.701"/>
<polygon fill="black" stroke="black" points="872,-145.694 868.5,-135.694 865,-145.695 872,-145.694"/>
</g>
</g>
</svg>
