<?xml version="1.0" encoding="UTF-8" standalone="no"?>
<!DOCTYPE svg PUBLIC "-//W3C//DTD SVG 1.1//EN"
 "http://www.w3.org/Graphics/SVG/1.1/DTD/svg11.dtd">
<!-- Generated by graphviz version 2.38.0 (20140413.2041)
 -->
<!-- Title: Control&#45;flow graph for function &#39;function_4027f7(a1)&#39;. Pages: 1 -->
<svg width="409pt" height="218pt"
 viewBox="0.00 0.00 409.00 218.00" xmlns="http://www.w3.org/2000/svg" xmlns:xlink="http://www.w3.org/1999/xlink">
<g id="graph0" class="graph" transform="scale(1 1) rotate(0) translate(4 214)">
<title>Control&#45;flow graph for function &#39;function_4027f7(a1)&#39;.</title>
<polygon fill="white" stroke="none" points="-4,4 -4,-214 405,-214 405,4 -4,4"/>
<text text-anchor="middle" x="200.5" y="-7.8" font-family="Times,serif" font-size="14.00">Control&#45;flow graph for function &#39;function_4027f7(a1)&#39;.</text>
<!-- Node0x2c4a5b0 -->
<g id="node1" class="node"><title>Node0x2c4a5b0</title>
<polygon fill="none" stroke="black" points="171,-171.5 171,-209.5 230,-209.5 230,-171.5 171,-171.5"/>
<text text-anchor="start" x="179" y="-194.3" font-family="Times,serif" font-size="14.00">entry:</text>
<text text-anchor="start" x="179" y="-179.3" font-family="Times,serif" font-size="14.00"> a1</text>
</g>
<!-- Node0x310ed50 -->
<g id="node2" class="node"><title>Node0x310ed50</title>
<polygon fill="none" stroke="black" points="156,-96.5 156,-134.5 245,-134.5 245,-96.5 156,-96.5"/>
<text text-anchor="start" x="164" y="-119.3" font-family="Times,serif" font-size="14.00">0x4027f7:</text>
<text text-anchor="start" x="164" y="-104.3" font-family="Times,serif" font-size="14.00"> return g7</text>
</g>
<!-- Node0x2c4a5b0&#45;&gt;Node0x310ed50 -->
<g id="edge1" class="edge"><title>Node0x2c4a5b0&#45;&gt;Node0x310ed50</title>
<path fill="none" stroke="black" d="M200.5,-171.455C200.5,-163.383 200.5,-153.676 200.5,-144.682"/>
<polygon fill="black" stroke="black" points="204,-144.59 200.5,-134.59 197,-144.59 204,-144.59"/>
</g>
<!-- Node0x2c4a550 -->
<g id="node3" class="node"><title>Node0x2c4a550</title>
<polygon fill="none" stroke="black" points="173.5,-23.5 173.5,-59.5 227.5,-59.5 227.5,-23.5 173.5,-23.5"/>
<text text-anchor="start" x="181.5" y="-37.8" font-family="Times,serif" font-size="14.00">exit:</text>
</g>
<!-- Node0x310ed50&#45;&gt;Node0x2c4a550 -->
<g id="edge2" class="edge"><title>Node0x310ed50&#45;&gt;Node0x2c4a550</title>
<path fill="none" stroke="black" d="M200.5,-96.3314C200.5,-88.394 200.5,-78.9095 200.5,-70.1285"/>
<polygon fill="black" stroke="black" points="204,-69.9177 200.5,-59.9177 197,-69.9177 204,-69.9177"/>
</g>
</g>
</svg>
