<?xml version="1.0" encoding="UTF-8" standalone="no"?>
<!DOCTYPE svg PUBLIC "-//W3C//DTD SVG 1.1//EN"
 "http://www.w3.org/Graphics/SVG/1.1/DTD/svg11.dtd">
<!-- Generated by graphviz version 2.38.0 (20140413.2041)
 -->
<!-- Title: Control&#45;flow graph for function &#39;___trailz_D2A(a1)&#39;. Pages: 1 -->
<svg width="936pt" height="1362pt"
 viewBox="0.00 0.00 936.00 1362.00" xmlns="http://www.w3.org/2000/svg" xmlns:xlink="http://www.w3.org/1999/xlink">
<g id="graph0" class="graph" transform="scale(1 1) rotate(0) translate(4 1358)">
<title>Control&#45;flow graph for function &#39;___trailz_D2A(a1)&#39;.</title>
<polygon fill="white" stroke="none" points="-4,4 -4,-1358 932,-1358 932,4 -4,4"/>
<text text-anchor="middle" x="464" y="-7.8" font-family="Times,serif" font-size="14.00">Control&#45;flow graph for function &#39;___trailz_D2A(a1)&#39;.</text>
<!-- Node0x307e680 -->
<g id="node1" class="node"><title>Node0x307e680</title>
<polygon fill="none" stroke="black" points="177,-1315.5 177,-1353.5 236,-1353.5 236,-1315.5 177,-1315.5"/>
<text text-anchor="start" x="185" y="-1338.3" font-family="Times,serif" font-size="14.00">entry:</text>
<text text-anchor="start" x="185" y="-1323.3" font-family="Times,serif" font-size="14.00"> a1</text>
</g>
<!-- Node0x307e9f0 -->
<g id="node2" class="node"><title>Node0x307e9f0</title>
<polygon fill="none" stroke="black" points="0,-1224.5 0,-1277.5 413,-1277.5 413,-1224.5 0,-1224.5"/>
<text text-anchor="start" x="8" y="-1262.3" font-family="Times,serif" font-size="14.00">v1 = (a1 + 20)</text>
<text text-anchor="start" x="8" y="-1247.3" font-family="Times,serif" font-size="14.00"> v2 = ((4 * *(IntToPtrCastExpr&lt;ptr&gt;((a1 + 16)))) + v1)</text>
<text text-anchor="start" x="8" y="-1232.3" font-family="Times,serif" font-size="14.00"> result = 0</text>
</g>
<!-- Node0x307e680&#45;&gt;Node0x307e9f0 -->
<g id="edge1" class="edge"><title>Node0x307e680&#45;&gt;Node0x307e9f0</title>
<path fill="none" stroke="black" d="M206.5,-1315.41C206.5,-1307.28 206.5,-1297.39 206.5,-1287.86"/>
<polygon fill="black" stroke="black" points="210,-1287.77 206.5,-1277.77 203,-1287.77 210,-1287.77"/>
</g>
<!-- Node0x307eae0 -->
<g id="node3" class="node"><title>Node0x307eae0</title>
<polygon fill="none" stroke="black" points="150,-1150.5 150,-1186.5 263,-1186.5 263,-1150.5 150,-1150.5"/>
<text text-anchor="start" x="158" y="-1164.8" font-family="Times,serif" font-size="14.00">if (v1 &gt;= v2):</text>
</g>
<!-- Node0x307e9f0&#45;&gt;Node0x307eae0 -->
<g id="edge2" class="edge"><title>Node0x307e9f0&#45;&gt;Node0x307eae0</title>
<path fill="none" stroke="black" d="M206.5,-1224.09C206.5,-1215.46 206.5,-1205.82 206.5,-1197.07"/>
<polygon fill="black" stroke="black" points="210,-1196.97 206.5,-1186.97 203,-1196.97 210,-1196.97"/>
</g>
<!-- Node0x2ed92a0 -->
<g id="node4" class="node"><title>Node0x2ed92a0</title>
<polygon fill="none" stroke="black" points="71,-973.5 71,-1026.5 184,-1026.5 184,-973.5 71,-973.5"/>
<text text-anchor="start" x="79" y="-1011.3" font-family="Times,serif" font-size="14.00">0x406dd0:</text>
<text text-anchor="start" x="79" y="-996.3" font-family="Times,serif" font-size="14.00"> g1 = result</text>
<text text-anchor="start" x="79" y="-981.3" font-family="Times,serif" font-size="14.00"> return result</text>
</g>
<!-- Node0x307eae0&#45;&gt;Node0x2ed92a0 -->
<g id="edge3" class="edge"><title>Node0x307eae0&#45;&gt;Node0x2ed92a0</title>
<path fill="none" stroke="black" d="M195.832,-1150.39C192.387,-1144.63 188.647,-1138.11 185.5,-1132 169.072,-1100.09 152.738,-1062.54 141.611,-1035.84"/>
<polygon fill="black" stroke="black" points="144.814,-1034.43 137.756,-1026.53 138.346,-1037.1 144.814,-1034.43"/>
<text text-anchor="middle" x="219.5" y="-1120.8" font-family="Times,serif" font-size="14.00">v1 &gt;= v2</text>
</g>
<!-- Node0x307ec00 -->
<g id="node5" class="node"><title>Node0x307ec00</title>
<polygon fill="none" stroke="black" points="210.5,-1045.5 210.5,-1098.5 466.5,-1098.5 466.5,-1045.5 210.5,-1045.5"/>
<text text-anchor="start" x="218.5" y="-1083.3" font-family="Times,serif" font-size="14.00">v3 = IntToPtrCastExpr&lt;ptr&gt;(v1)</text>
<text text-anchor="start" x="218.5" y="-1068.3" font-family="Times,serif" font-size="14.00"> result2</text>
<text text-anchor="start" x="218.5" y="-1053.3" font-family="Times,serif" font-size="14.00"> v4</text>
</g>
<!-- Node0x307eae0&#45;&gt;Node0x307ec00 -->
<g id="edge4" class="edge"><title>Node0x307eae0&#45;&gt;Node0x307ec00</title>
<path fill="none" stroke="black" d="M230.404,-1150.39C248.244,-1137.61 273.127,-1119.8 294.522,-1104.48"/>
<polygon fill="black" stroke="black" points="296.74,-1107.2 302.833,-1098.53 292.665,-1101.51 296.74,-1107.2"/>
<text text-anchor="middle" x="304.5" y="-1120.8" font-family="Times,serif" font-size="14.00">v1 &lt; v2</text>
</g>
<!-- Node0x307e970 -->
<g id="node6" class="node"><title>Node0x307e970</title>
<polygon fill="none" stroke="black" points="411.5,-23.5 411.5,-59.5 465.5,-59.5 465.5,-23.5 411.5,-23.5"/>
<text text-anchor="start" x="419.5" y="-37.8" font-family="Times,serif" font-size="14.00">exit:</text>
</g>
<!-- Node0x2ed92a0&#45;&gt;Node0x307e970 -->
<g id="edge5" class="edge"><title>Node0x2ed92a0&#45;&gt;Node0x307e970</title>
<path fill="none" stroke="black" d="M126.744,-973.42C126.178,-952.057 125.5,-920.796 125.5,-893.5 125.5,-893.5 125.5,-893.5 125.5,-138 125.5,-117.916 128.635,-109.315 144.5,-97 184.09,-66.2696 331.213,-50.8914 401.133,-45.1888"/>
<polygon fill="black" stroke="black" points="401.573,-48.665 411.266,-44.3863 401.02,-41.6869 401.573,-48.665"/>
</g>
<!-- Node0x2ed9350 -->
<g id="node7" class="node"><title>Node0x2ed9350</title>
<polygon fill="none" stroke="black" points="294,-918.5 294,-954.5 411,-954.5 411,-918.5 294,-918.5"/>
<text text-anchor="start" x="302" y="-932.8" font-family="Times,serif" font-size="14.00">if (*(v3) != 0):</text>
</g>
<!-- Node0x307ec00&#45;&gt;Node0x2ed9350 -->
<g id="edge6" class="edge"><title>Node0x307ec00&#45;&gt;Node0x2ed9350</title>
<path fill="none" stroke="black" d="M341.199,-1045.26C343.625,-1022.13 347.175,-988.278 349.647,-964.709"/>
<polygon fill="black" stroke="black" points="353.136,-964.99 350.698,-954.679 346.174,-964.26 353.136,-964.99"/>
</g>
<!-- Node0x2c8b960 -->
<g id="node8" class="node"><title>Node0x2c8b960</title>
<polygon fill="none" stroke="black" points="307.5,-758.5 307.5,-794.5 397.5,-794.5 397.5,-758.5 307.5,-758.5"/>
<text text-anchor="start" x="315.5" y="-772.8" font-family="Times,serif" font-size="14.00">v5 = *(v3)</text>
</g>
<!-- Node0x2ed9350&#45;&gt;Node0x2c8b960 -->
<g id="edge7" class="edge"><title>Node0x2ed9350&#45;&gt;Node0x2c8b960</title>
<path fill="none" stroke="black" d="M352.5,-918.29C352.5,-890.985 352.5,-837.494 352.5,-804.88"/>
<polygon fill="black" stroke="black" points="356,-804.688 352.5,-794.688 349,-804.688 356,-804.688"/>
<text text-anchor="middle" x="388.5" y="-888.8" font-family="Times,serif" font-size="14.00">*(v3) != 0</text>
</g>
<!-- Node0x307f5d0 -->
<g id="node9" class="node"><title>Node0x307f5d0</title>
<polygon fill="none" stroke="black" points="621.5,-813.5 621.5,-866.5 685.5,-866.5 685.5,-813.5 621.5,-813.5"/>
<text text-anchor="start" x="629.5" y="-851.3" font-family="Times,serif" font-size="14.00">v6 = 0</text>
<text text-anchor="start" x="629.5" y="-836.3" font-family="Times,serif" font-size="14.00"> v7</text>
<text text-anchor="start" x="629.5" y="-821.3" font-family="Times,serif" font-size="14.00"> v8</text>
</g>
<!-- Node0x2ed9350&#45;&gt;Node0x307f5d0 -->
<g id="edge8" class="edge"><title>Node0x2ed9350&#45;&gt;Node0x307f5d0</title>
<path fill="none" stroke="black" d="M406.66,-918.496C465.335,-900.075 557.712,-871.073 611.257,-854.262"/>
<polygon fill="black" stroke="black" points="612.614,-857.505 621.106,-851.17 610.517,-850.826 612.614,-857.505"/>
<text text-anchor="middle" x="550.5" y="-888.8" font-family="Times,serif" font-size="14.00">*(v3) == 0</text>
</g>
<!-- Node0x307f790 -->
<g id="node10" class="node"><title>Node0x307f790</title>
<polygon fill="none" stroke="black" points="300,-233.5 300,-269.5 405,-269.5 405,-233.5 300,-233.5"/>
<text text-anchor="start" x="308" y="-247.8" font-family="Times,serif" font-size="14.00">if (v5 == 0):</text>
</g>
<!-- Node0x2c8b960&#45;&gt;Node0x307f790 -->
<g id="edge9" class="edge"><title>Node0x2c8b960&#45;&gt;Node0x307f790</title>
<path fill="none" stroke="black" d="M352.5,-758.328C352.5,-738.941 352.5,-706.455 352.5,-678.5 352.5,-678.5 352.5,-678.5 352.5,-339.5 352.5,-319.552 352.5,-297.031 352.5,-279.901"/>
<polygon fill="black" stroke="black" points="356,-279.504 352.5,-269.504 349,-279.504 356,-279.504"/>
</g>
<!-- Node0x307e7f0 -->
<g id="node11" class="node"><title>Node0x307e7f0</title>
<polygon fill="none" stroke="black" points="648,-703.5 648,-739.5 745,-739.5 745,-703.5 648,-703.5"/>
<text text-anchor="start" x="656" y="-717.8" font-family="Times,serif" font-size="14.00">while True:</text>
</g>
<!-- Node0x307f5d0&#45;&gt;Node0x307e7f0 -->
<g id="edge10" class="edge"><title>Node0x307f5d0&#45;&gt;Node0x307e7f0</title>
<path fill="none" stroke="black" d="M662.937,-813.434C669.968,-794.383 679.545,-768.437 686.669,-749.135"/>
<polygon fill="black" stroke="black" points="689.965,-750.312 690.145,-739.718 683.399,-747.888 689.965,-750.312"/>
</g>
<!-- Node0x2de8d20 -->
<g id="node12" class="node"><title>Node0x2de8d20</title>
<polygon fill="none" stroke="black" points="154,-105 154,-173 305,-173 305,-105 154,-105"/>
<text text-anchor="start" x="162" y="-157.8" font-family="Times,serif" font-size="14.00">after_if_406dd8_0:</text>
<text text-anchor="start" x="162" y="-142.8" font-family="Times,serif" font-size="14.00"> result2 = 0</text>
<text text-anchor="start" x="162" y="-127.8" font-family="Times,serif" font-size="14.00"> g1 = result2</text>
<text text-anchor="start" x="162" y="-112.8" font-family="Times,serif" font-size="14.00"> return result2</text>
</g>
<!-- Node0x307f790&#45;&gt;Node0x2de8d20 -->
<g id="edge11" class="edge"><title>Node0x307f790&#45;&gt;Node0x2de8d20</title>
<path fill="none" stroke="black" d="M333.551,-233.477C317.776,-219.305 294.675,-198.551 274.244,-180.197"/>
<polygon fill="black" stroke="black" points="276.344,-177.378 266.566,-173.299 271.666,-182.585 276.344,-177.378"/>
<text text-anchor="middle" x="339.5" y="-202.8" font-family="Times,serif" font-size="14.00">v5 == 0</text>
</g>
<!-- Node0x307fc00 -->
<g id="node13" class="node"><title>Node0x307fc00</title>
<polygon fill="none" stroke="black" points="323.5,-97.5 323.5,-180.5 553.5,-180.5 553.5,-97.5 323.5,-97.5"/>
<text text-anchor="start" x="331.5" y="-165.3" font-family="Times,serif" font-size="14.00">if_406dd8_0_false:</text>
<text text-anchor="start" x="331.5" y="-150.3" font-family="Times,serif" font-size="14.00"> v4 = llvm_cttz_i32(v5, False)</text>
<text text-anchor="start" x="331.5" y="-135.3" font-family="Times,serif" font-size="14.00"> result2 = v4</text>
<text text-anchor="start" x="331.5" y="-120.3" font-family="Times,serif" font-size="14.00"> g1 = result2</text>
<text text-anchor="start" x="331.5" y="-105.3" font-family="Times,serif" font-size="14.00"> return result2</text>
</g>
<!-- Node0x307f790&#45;&gt;Node0x307fc00 -->
<g id="edge12" class="edge"><title>Node0x307f790&#45;&gt;Node0x307fc00</title>
<path fill="none" stroke="black" d="M365.938,-233.234C375.271,-221.242 388.205,-204.623 400.572,-188.733"/>
<polygon fill="black" stroke="black" points="403.585,-190.56 406.965,-180.519 398.061,-186.261 403.585,-190.56"/>
<text text-anchor="middle" x="417.5" y="-202.8" font-family="Times,serif" font-size="14.00">v5 != 0</text>
</g>
<!-- Node0x307fe30 -->
<g id="node14" class="node"><title>Node0x307fe30</title>
<polygon fill="none" stroke="black" points="633.5,-613.5 633.5,-651.5 759.5,-651.5 759.5,-613.5 633.5,-613.5"/>
<text text-anchor="start" x="641.5" y="-636.3" font-family="Times,serif" font-size="14.00">v9 = (v1 + 4)</text>
<text text-anchor="start" x="641.5" y="-621.3" font-family="Times,serif" font-size="14.00"> v7 = (v6 + 32)</text>
</g>
<!-- Node0x307e7f0&#45;&gt;Node0x307fe30 -->
<g id="edge13" class="edge"><title>Node0x307e7f0&#45;&gt;Node0x307fe30</title>
<path fill="none" stroke="black" d="M696.5,-703.312C696.5,-691.511 696.5,-675.572 696.5,-661.904"/>
<polygon fill="black" stroke="black" points="700,-661.551 696.5,-651.551 693,-661.551 700,-661.551"/>
<text text-anchor="middle" x="713.5" y="-673.8" font-family="Times,serif" font-size="14.00">True</text>
</g>
<!-- Node0x2de8d20&#45;&gt;Node0x307e970 -->
<g id="edge14" class="edge"><title>Node0x2de8d20&#45;&gt;Node0x307e970</title>
<path fill="none" stroke="black" d="M297.599,-104.891C303.304,-102.197 308.994,-99.5368 314.5,-97 343.724,-83.5345 377.135,-68.8931 401.906,-58.1799"/>
<polygon fill="black" stroke="black" points="403.49,-61.3088 411.285,-54.1332 400.716,-54.8816 403.49,-61.3088"/>
</g>
<!-- Node0x307fc00&#45;&gt;Node0x307e970 -->
<g id="edge15" class="edge"><title>Node0x307fc00&#45;&gt;Node0x307e970</title>
<path fill="none" stroke="black" d="M438.5,-97.4994C438.5,-88.2058 438.5,-78.537 438.5,-69.9459"/>
<polygon fill="black" stroke="black" points="442,-69.7494 438.5,-59.7494 435,-69.7494 442,-69.7494"/>
</g>
<!-- Node0x307f630 -->
<g id="node15" class="node"><title>Node0x307f630</title>
<polygon fill="none" stroke="black" points="640,-539.5 640,-575.5 753,-575.5 753,-539.5 640,-539.5"/>
<text text-anchor="start" x="648" y="-553.8" font-family="Times,serif" font-size="14.00">if (v2 &lt;= v9):</text>
</g>
<!-- Node0x307fe30&#45;&gt;Node0x307f630 -->
<g id="edge16" class="edge"><title>Node0x307fe30&#45;&gt;Node0x307f630</title>
<path fill="none" stroke="black" d="M696.5,-613.455C696.5,-605.201 696.5,-595.238 696.5,-586.074"/>
<polygon fill="black" stroke="black" points="700,-585.835 696.5,-575.835 693,-585.835 700,-585.835"/>
</g>
<!-- Node0x30800d0 -->
<g id="node16" class="node"><title>Node0x30800d0</title>
<polygon fill="none" stroke="black" points="512,-377.5 512,-430.5 625,-430.5 625,-377.5 512,-377.5"/>
<text text-anchor="start" x="520" y="-415.3" font-family="Times,serif" font-size="14.00">result = v7</text>
<text text-anchor="start" x="520" y="-400.3" font-family="Times,serif" font-size="14.00"> g1 = result</text>
<text text-anchor="start" x="520" y="-385.3" font-family="Times,serif" font-size="14.00"> return result</text>
</g>
<!-- Node0x307f630&#45;&gt;Node0x30800d0 -->
<g id="edge17" class="edge"><title>Node0x307f630&#45;&gt;Node0x30800d0</title>
<path fill="none" stroke="black" d="M642.074,-539.475C617.214,-528.782 589.928,-512.301 574.5,-488 565.755,-474.225 563.558,-456.45 563.834,-440.886"/>
<polygon fill="black" stroke="black" points="567.347,-440.708 564.369,-430.54 560.357,-440.345 567.347,-440.708"/>
<text text-anchor="middle" x="640.5" y="-509.8" font-family="Times,serif" font-size="14.00">v2 &lt;= v9</text>
</g>
<!-- Node0x34999c0 -->
<g id="node17" class="node"><title>Node0x34999c0</title>
<polygon fill="none" stroke="black" points="583.5,-449.5 583.5,-487.5 861.5,-487.5 861.5,-449.5 583.5,-449.5"/>
<text text-anchor="start" x="591.5" y="-472.3" font-family="Times,serif" font-size="14.00">0x406dc0:</text>
<text text-anchor="start" x="591.5" y="-457.3" font-family="Times,serif" font-size="14.00"> v8 = *(IntToPtrCastExpr&lt;ptr&gt;(v9))</text>
</g>
<!-- Node0x307f630&#45;&gt;Node0x34999c0 -->
<g id="edge18" class="edge"><title>Node0x307f630&#45;&gt;Node0x34999c0</title>
<path fill="none" stroke="black" d="M701.637,-539.312C705.198,-527.394 710.021,-511.256 714.133,-497.499"/>
<polygon fill="black" stroke="black" points="717.595,-498.135 717.105,-487.551 710.888,-496.13 717.595,-498.135"/>
<text text-anchor="middle" x="738.5" y="-509.8" font-family="Times,serif" font-size="14.00">v2 &gt; v9</text>
</g>
<!-- Node0x30800d0&#45;&gt;Node0x307e970 -->
<g id="edge19" class="edge"><title>Node0x30800d0&#45;&gt;Node0x307e970</title>
<path fill="none" stroke="black" d="M573.489,-377.096C577.155,-355.806 581.5,-324.813 581.5,-297.5 581.5,-297.5 581.5,-297.5 581.5,-138 581.5,-87.008 517.84,-61.547 475.47,-50.248"/>
<polygon fill="black" stroke="black" points="476.286,-46.8443 465.734,-47.7978 474.577,-53.6326 476.286,-46.8443"/>
</g>
<!-- Node0x307ff80 -->
<g id="node18" class="node"><title>Node0x307ff80</title>
<polygon fill="none" stroke="black" points="675,-322.5 675,-358.5 774,-358.5 774,-322.5 675,-322.5"/>
<text text-anchor="start" x="683" y="-336.8" font-family="Times,serif" font-size="14.00">if (v8 != 0):</text>
</g>
<!-- Node0x34999c0&#45;&gt;Node0x307ff80 -->
<g id="edge20" class="edge"><title>Node0x34999c0&#45;&gt;Node0x307ff80</title>
<path fill="none" stroke="black" d="M722.787,-449.447C723.122,-428.345 723.679,-393.205 724.067,-368.773"/>
<polygon fill="black" stroke="black" points="727.568,-368.765 724.227,-358.71 720.568,-368.653 727.568,-368.765"/>
</g>
<!-- Node0x34487b0 -->
<g id="node19" class="node"><title>Node0x34487b0</title>
<polygon fill="none" stroke="black" points="616,-232.5 616,-270.5 833,-270.5 833,-232.5 616,-232.5"/>
<text text-anchor="start" x="624" y="-255.3" font-family="Times,serif" font-size="14.00">break &#45;&gt; if_406dd8_0_false:</text>
<text text-anchor="start" x="624" y="-240.3" font-family="Times,serif" font-size="14.00"> break</text>
</g>
<!-- Node0x307ff80&#45;&gt;Node0x34487b0 -->
<g id="edge21" class="edge"><title>Node0x307ff80&#45;&gt;Node0x34487b0</title>
<path fill="none" stroke="black" d="M724.5,-322.312C724.5,-310.511 724.5,-294.572 724.5,-280.904"/>
<polygon fill="black" stroke="black" points="728,-280.551 724.5,-270.551 721,-280.551 728,-280.551"/>
<text text-anchor="middle" x="751.5" y="-292.8" font-family="Times,serif" font-size="14.00">v8 != 0</text>
</g>
<!-- Node0x3080000 -->
<g id="node20" class="node"><title>Node0x3080000</title>
<polygon fill="none" stroke="black" points="851,-232.5 851,-270.5 928,-270.5 928,-232.5 851,-232.5"/>
<text text-anchor="start" x="859" y="-255.3" font-family="Times,serif" font-size="14.00">v6 = v7</text>
<text text-anchor="start" x="859" y="-240.3" font-family="Times,serif" font-size="14.00"> v1 = v9</text>
</g>
<!-- Node0x307ff80&#45;&gt;Node0x3080000 -->
<g id="edge22" class="edge"><title>Node0x307ff80&#45;&gt;Node0x3080000</title>
<path fill="none" stroke="black" d="M754.634,-322.297C772.262,-312.355 795.012,-299.73 815.5,-289 824.351,-284.365 833.873,-279.545 843.042,-274.987"/>
<polygon fill="black" stroke="black" points="844.642,-278.1 852.056,-270.532 841.541,-271.825 844.642,-278.1"/>
<text text-anchor="middle" x="845.5" y="-292.8" font-family="Times,serif" font-size="14.00">v8 == 0</text>
</g>
<!-- Node0x307f710 -->
<g id="node21" class="node"><title>Node0x307f710</title>
<polygon fill="none" stroke="black" points="609.5,-97.5 609.5,-180.5 839.5,-180.5 839.5,-97.5 609.5,-97.5"/>
<text text-anchor="start" x="617.5" y="-165.3" font-family="Times,serif" font-size="14.00">if_406dd8_0_false:</text>
<text text-anchor="start" x="617.5" y="-150.3" font-family="Times,serif" font-size="14.00"> v4 = llvm_cttz_i32(v8, False)</text>
<text text-anchor="start" x="617.5" y="-135.3" font-family="Times,serif" font-size="14.00"> result2 = (v4 + v7)</text>
<text text-anchor="start" x="617.5" y="-120.3" font-family="Times,serif" font-size="14.00"> g1 = result2</text>
<text text-anchor="start" x="617.5" y="-105.3" font-family="Times,serif" font-size="14.00"> return result2</text>
</g>
<!-- Node0x34487b0&#45;&gt;Node0x307f710 -->
<g id="edge23" class="edge"><title>Node0x34487b0&#45;&gt;Node0x307f710</title>
<path fill="none" stroke="black" d="M724.5,-232.253C724.5,-220.898 724.5,-205.682 724.5,-190.887"/>
<polygon fill="black" stroke="black" points="728,-190.764 724.5,-180.764 721,-190.764 728,-190.764"/>
</g>
<!-- Node0x3080000&#45;&gt;Node0x307e7f0 -->
<g id="edge24" class="edge"><title>Node0x3080000&#45;&gt;Node0x307e7f0</title>
<path fill="none" stroke="black" d="M889.5,-270.831C889.5,-288.437 889.5,-315.786 889.5,-339.5 889.5,-633.5 889.5,-633.5 889.5,-633.5 889.5,-693.136 811.967,-712.125 755.184,-718.036"/>
<polygon fill="black" stroke="black" points="754.835,-714.553 745.202,-718.965 755.483,-721.523 754.835,-714.553"/>
</g>
<!-- Node0x307f710&#45;&gt;Node0x307e970 -->
<g id="edge25" class="edge"><title>Node0x307f710&#45;&gt;Node0x307e970</title>
<path fill="none" stroke="black" d="M644.035,-97.3827C628.192,-90.3004 611.513,-83.4644 595.5,-78 555.407,-64.3181 507.744,-54.3917 475.535,-48.5707"/>
<polygon fill="black" stroke="black" points="476.106,-45.1175 465.65,-46.8255 474.889,-52.0109 476.106,-45.1175"/>
</g>
</g>
</svg>
