<?xml version="1.0" encoding="UTF-8" standalone="no"?>
<!DOCTYPE svg PUBLIC "-//W3C//DTD SVG 1.1//EN"
 "http://www.w3.org/Graphics/SVG/1.1/DTD/svg11.dtd">
<!-- Generated by graphviz version 2.38.0 (20140413.2041)
 -->
<!-- Title: Control&#45;flow graph for function &#39;_dtoa_lock_cleanup()&#39;. Pages: 1 -->
<svg width="934pt" height="674pt"
 viewBox="0.00 0.00 933.50 674.00" xmlns="http://www.w3.org/2000/svg" xmlns:xlink="http://www.w3.org/1999/xlink">
<g id="graph0" class="graph" transform="scale(1 1) rotate(0) translate(4 670)">
<title>Control&#45;flow graph for function &#39;_dtoa_lock_cleanup()&#39;.</title>
<polygon fill="white" stroke="none" points="-4,4 -4,-670 929.5,-670 929.5,4 -4,4"/>
<text text-anchor="middle" x="462.75" y="-7.8" font-family="Times,serif" font-size="14.00">Control&#45;flow graph for function &#39;_dtoa_lock_cleanup()&#39;.</text>
<!-- Node0x310fe30 -->
<g id="node1" class="node"><title>Node0x310fe30</title>
<polygon fill="none" stroke="black" points="261,-629.5 261,-665.5 320,-665.5 320,-629.5 261,-629.5"/>
<text text-anchor="start" x="269" y="-643.8" font-family="Times,serif" font-size="14.00">entry:</text>
</g>
<!-- Node0x2c4a900 -->
<g id="node2" class="node"><title>Node0x2c4a900</title>
<polygon fill="none" stroke="black" points="244.5,-538.5 244.5,-591.5 336.5,-591.5 336.5,-538.5 244.5,-538.5"/>
<text text-anchor="start" x="252.5" y="-576.3" font-family="Times,serif" font-size="14.00">0x406350:</text>
<text text-anchor="start" x="252.5" y="-561.3" font-family="Times,serif" font-size="14.00"> result</text>
<text text-anchor="start" x="252.5" y="-546.3" font-family="Times,serif" font-size="14.00"> v1</text>
</g>
<!-- Node0x310fe30&#45;&gt;Node0x2c4a900 -->
<g id="edge1" class="edge"><title>Node0x310fe30&#45;&gt;Node0x2c4a900</title>
<path fill="none" stroke="black" d="M290.5,-629.428C290.5,-621.361 290.5,-611.411 290.5,-601.802"/>
<polygon fill="black" stroke="black" points="294,-601.616 290.5,-591.616 287,-601.616 294,-601.616"/>
</g>
<!-- Node0x3124fe0 -->
<g id="node3" class="node"><title>Node0x3124fe0</title>
<polygon fill="none" stroke="black" points="61,-464.5 61,-500.5 520,-500.5 520,-464.5 61,-464.5"/>
<text text-anchor="start" x="69" y="-478.8" font-family="Times,serif" font-size="14.00">if (InterlockedExchange(BitCastExpr&lt;ptr&gt;(&amp;(g32)), 3) != 2):</text>
</g>
<!-- Node0x2c4a900&#45;&gt;Node0x3124fe0 -->
<g id="edge2" class="edge"><title>Node0x2c4a900&#45;&gt;Node0x3124fe0</title>
<path fill="none" stroke="black" d="M290.5,-538.086C290.5,-529.46 290.5,-519.822 290.5,-511.075"/>
<polygon fill="black" stroke="black" points="294,-510.973 290.5,-500.974 287,-510.974 294,-510.973"/>
</g>
<!-- Node0x2d5abf0 -->
<g id="node4" class="node"><title>Node0x2d5abf0</title>
<polygon fill="none" stroke="black" points="0,-272.5 0,-340.5 113,-340.5 113,-272.5 0,-272.5"/>
<text text-anchor="start" x="8" y="-325.3" font-family="Times,serif" font-size="14.00">0x406367:</text>
<text text-anchor="start" x="8" y="-310.3" font-family="Times,serif" font-size="14.00"> g1 = result</text>
<text text-anchor="start" x="8" y="-295.3" font-family="Times,serif" font-size="14.00"> g3 = v1</text>
<text text-anchor="start" x="8" y="-280.3" font-family="Times,serif" font-size="14.00"> return result</text>
</g>
<!-- Node0x3124fe0&#45;&gt;Node0x2d5abf0 -->
<g id="edge3" class="edge"><title>Node0x3124fe0&#45;&gt;Node0x2d5abf0</title>
<path fill="none" stroke="black" d="M101.898,-464.375C84.8775,-459.659 71.4351,-453.651 64.5,-446 41.6114,-420.748 41.5819,-381.096 46.1339,-350.678"/>
<polygon fill="black" stroke="black" points="49.5959,-351.197 47.8269,-340.751 42.6956,-350.02 49.5959,-351.197"/>
<text text-anchor="middle" x="271.5" y="-434.8" font-family="Times,serif" font-size="14.00">InterlockedExchange(BitCastExpr&lt;ptr&gt;(&amp;(g32)), 3) != 2</text>
</g>
<!-- Node0x30e0330 -->
<g id="node5" class="node"><title>Node0x30e0330</title>
<polygon fill="none" stroke="black" points="238,-359.5 238,-412.5 857,-412.5 857,-359.5 238,-359.5"/>
<text text-anchor="start" x="246" y="-397.3" font-family="Times,serif" font-size="14.00">0x406370:</text>
<text text-anchor="start" x="246" y="-382.3" font-family="Times,serif" font-size="14.00"> DeleteCriticalSection(IntToPtrCastExpr&lt;ptr&gt;(PtrToIntCastExpr&lt;int32&gt;(&amp;(g33))))</text>
<text text-anchor="start" x="246" y="-367.3" font-family="Times,serif" font-size="14.00"> lpCriticalSection = (PtrToIntCastExpr&lt;int32&gt;(&amp;(g33)) + 24)</text>
</g>
<!-- Node0x3124fe0&#45;&gt;Node0x30e0330 -->
<g id="edge4" class="edge"><title>Node0x3124fe0&#45;&gt;Node0x30e0330</title>
<path fill="none" stroke="black" d="M432.621,-464.498C449.903,-459.759 466.933,-453.712 482.5,-446 495.577,-439.522 507.966,-429.635 518.351,-419.796"/>
<polygon fill="black" stroke="black" points="520.889,-422.209 525.541,-412.689 515.968,-417.23 520.889,-422.209"/>
<text text-anchor="middle" x="715.5" y="-434.8" font-family="Times,serif" font-size="14.00">InterlockedExchange(BitCastExpr&lt;ptr&gt;(&amp;(g32)), 3) == 2</text>
</g>
<!-- Node0x2c4b2e0 -->
<g id="node6" class="node"><title>Node0x2c4b2e0</title>
<polygon fill="none" stroke="black" points="182.5,-23.5 182.5,-59.5 236.5,-59.5 236.5,-23.5 182.5,-23.5"/>
<text text-anchor="start" x="190.5" y="-37.8" font-family="Times,serif" font-size="14.00">exit:</text>
</g>
<!-- Node0x2d5abf0&#45;&gt;Node0x2c4b2e0 -->
<g id="edge5" class="edge"><title>Node0x2d5abf0&#45;&gt;Node0x2c4b2e0</title>
<path fill="none" stroke="black" d="M49.538,-272.206C42.2336,-227.686 36.4863,-148.419 74.5,-97 97.3816,-66.0491 140.812,-52.6358 172.246,-46.8475"/>
<polygon fill="black" stroke="black" points="173.108,-50.2525 182.4,-45.1625 171.962,-43.347 173.108,-50.2525"/>
</g>
<!-- Node0x3334990 -->
<g id="node7" class="node"><title>Node0x3334990</title>
<polygon fill="none" stroke="black" points="411,-217.5 411,-253.5 696,-253.5 696,-217.5 411,-217.5"/>
<text text-anchor="start" x="419" y="-231.8" font-family="Times,serif" font-size="14.00">while (lpCriticalSection != 4235808):</text>
</g>
<!-- Node0x30e0330&#45;&gt;Node0x3334990 -->
<g id="edge6" class="edge"><title>Node0x30e0330&#45;&gt;Node0x3334990</title>
<path fill="none" stroke="black" d="M548.531,-359.472C549.608,-332.824 551.29,-291.186 552.394,-263.871"/>
<polygon fill="black" stroke="black" points="555.894,-263.952 552.8,-253.819 548.899,-263.669 555.894,-263.952"/>
</g>
<!-- Node0x30dfd20 -->
<g id="node8" class="node"><title>Node0x30dfd20</title>
<polygon fill="none" stroke="black" points="83.5,-105 83.5,-158 573.5,-158 573.5,-105 83.5,-105"/>
<text text-anchor="start" x="91.5" y="-142.8" font-family="Times,serif" font-size="14.00">0x406375:</text>
<text text-anchor="start" x="91.5" y="-127.8" font-family="Times,serif" font-size="14.00"> DeleteCriticalSection(IntToPtrCastExpr&lt;ptr&gt;(lpCriticalSection))</text>
<text text-anchor="start" x="91.5" y="-112.8" font-family="Times,serif" font-size="14.00"> lpCriticalSection = (lpCriticalSection + 24)</text>
</g>
<!-- Node0x3334990&#45;&gt;Node0x30dfd20 -->
<g id="edge7" class="edge"><title>Node0x3334990&#45;&gt;Node0x30dfd20</title>
<path fill="none" stroke="black" d="M410.837,-226.695C373.585,-221.533 340.479,-213.017 328.5,-199 321.395,-190.686 319.548,-179.42 320.041,-168.524"/>
<polygon fill="black" stroke="black" points="323.551,-168.616 321.135,-158.3 316.591,-167.871 323.551,-168.616"/>
<text text-anchor="middle" x="434" y="-187.8" font-family="Times,serif" font-size="14.00">lpCriticalSection != 4235808</text>
</g>
<!-- Node0x2d5ab90 -->
<g id="node9" class="node"><title>Node0x2d5ab90</title>
<polygon fill="none" stroke="black" points="592,-97.5 592,-165.5 705,-165.5 705,-97.5 592,-97.5"/>
<text text-anchor="start" x="600" y="-150.3" font-family="Times,serif" font-size="14.00">0x40638c:</text>
<text text-anchor="start" x="600" y="-135.3" font-family="Times,serif" font-size="14.00"> g1 = result</text>
<text text-anchor="start" x="600" y="-120.3" font-family="Times,serif" font-size="14.00"> g3 = v1</text>
<text text-anchor="start" x="600" y="-105.3" font-family="Times,serif" font-size="14.00"> return result</text>
</g>
<!-- Node0x3334990&#45;&gt;Node0x2d5ab90 -->
<g id="edge8" class="edge"><title>Node0x3334990&#45;&gt;Node0x2d5ab90</title>
<path fill="none" stroke="black" d="M569.615,-217.197C580.898,-205.083 596.456,-188.379 610.775,-173.005"/>
<polygon fill="black" stroke="black" points="613.426,-175.293 617.681,-165.59 608.304,-170.522 613.426,-175.293"/>
<text text-anchor="middle" x="706" y="-187.8" font-family="Times,serif" font-size="14.00">lpCriticalSection == 4235808</text>
</g>
<!-- Node0x30dfd20&#45;&gt;Node0x3334990 -->
<g id="edge9" class="edge"><title>Node0x30dfd20&#45;&gt;Node0x3334990</title>
<path fill="none" stroke="black" d="M478.428,-158.004C505.835,-165.21 529.077,-173.895 539.5,-184 545.816,-190.123 549.358,-198.824 551.321,-207.283"/>
<polygon fill="black" stroke="black" points="547.894,-208.014 553.012,-217.291 554.797,-206.848 547.894,-208.014"/>
</g>
<!-- Node0x2d5ab90&#45;&gt;Node0x2c4b2e0 -->
<g id="edge10" class="edge"><title>Node0x2d5ab90&#45;&gt;Node0x2c4b2e0</title>
<path fill="none" stroke="black" d="M591.745,-100.27C588.655,-99.0736 585.562,-97.972 582.5,-97 463.785,-59.314 315.43,-47.5403 247.118,-43.9795"/>
<polygon fill="black" stroke="black" points="247.018,-40.4705 236.858,-43.4759 246.674,-47.4621 247.018,-40.4705"/>
</g>
</g>
</svg>
