<?xml version="1.0" encoding="UTF-8" standalone="no"?>
<!DOCTYPE svg PUBLIC "-//W3C//DTD SVG 1.1//EN"
 "http://www.w3.org/Graphics/SVG/1.1/DTD/svg11.dtd">
<!-- Generated by graphviz version 2.38.0 (20140413.2041)
 -->
<!-- Title: Control&#45;flow graph for function &#39;_match_device(a1)&#39;. Pages: 1 -->
<svg width="702pt" height="263pt"
 viewBox="0.00 0.00 702.00 263.00" xmlns="http://www.w3.org/2000/svg" xmlns:xlink="http://www.w3.org/1999/xlink">
<g id="graph0" class="graph" transform="scale(1 1) rotate(0) translate(4 259)">
<title>Control&#45;flow graph for function &#39;_match_device(a1)&#39;.</title>
<polygon fill="white" stroke="none" points="-4,4 -4,-259 698,-259 698,4 -4,4"/>
<text text-anchor="middle" x="347" y="-7.8" font-family="Times,serif" font-size="14.00">Control&#45;flow graph for function &#39;_match_device(a1)&#39;.</text>
<!-- Node0x3308560 -->
<g id="node1" class="node"><title>Node0x3308560</title>
<polygon fill="none" stroke="black" points="317.5,-216.5 317.5,-254.5 376.5,-254.5 376.5,-216.5 317.5,-216.5"/>
<text text-anchor="start" x="325.5" y="-239.3" font-family="Times,serif" font-size="14.00">entry:</text>
<text text-anchor="start" x="325.5" y="-224.3" font-family="Times,serif" font-size="14.00"> a1</text>
</g>
<!-- Node0x322aa90 -->
<g id="node2" class="node"><title>Node0x322aa90</title>
<polygon fill="none" stroke="black" points="-5.68434e-14,-96.5 -5.68434e-14,-179.5 694,-179.5 694,-96.5 -5.68434e-14,-96.5"/>
<text text-anchor="start" x="8" y="-164.3" font-family="Times,serif" font-size="14.00">result = _match_device_with_port(IntToPtrCastExpr&lt;ptr&gt;(a1), IntToPtrCastExpr&lt;ptr&gt;(g19))</text>
<text text-anchor="start" x="8" y="-149.3" font-family="Times,serif" font-size="14.00"> g1 = result</text>
<text text-anchor="start" x="8" y="-134.3" font-family="Times,serif" font-size="14.00"> v1</text>
<text text-anchor="start" x="8" y="-119.3" font-family="Times,serif" font-size="14.00"> g2 = v1</text>
<text text-anchor="start" x="8" y="-104.3" font-family="Times,serif" font-size="14.00"> return result</text>
</g>
<!-- Node0x3308560&#45;&gt;Node0x322aa90 -->
<g id="edge1" class="edge"><title>Node0x3308560&#45;&gt;Node0x322aa90</title>
<path fill="none" stroke="black" d="M347,-216.087C347,-208.444 347,-199.165 347,-189.73"/>
<polygon fill="black" stroke="black" points="350.5,-189.501 347,-179.501 343.5,-189.501 350.5,-189.501"/>
</g>
<!-- Node0x2dc4750 -->
<g id="node3" class="node"><title>Node0x2dc4750</title>
<polygon fill="none" stroke="black" points="320,-23.5 320,-59.5 374,-59.5 374,-23.5 320,-23.5"/>
<text text-anchor="start" x="328" y="-37.8" font-family="Times,serif" font-size="14.00">exit:</text>
</g>
<!-- Node0x322aa90&#45;&gt;Node0x2dc4750 -->
<g id="edge2" class="edge"><title>Node0x322aa90&#45;&gt;Node0x2dc4750</title>
<path fill="none" stroke="black" d="M347,-96.3751C347,-87.4706 347,-78.246 347,-70"/>
<polygon fill="black" stroke="black" points="350.5,-69.8327 347,-59.8328 343.5,-69.8328 350.5,-69.8327"/>
</g>
</g>
</svg>
