<?xml version="1.0" encoding="UTF-8" standalone="no"?>
<!DOCTYPE svg PUBLIC "-//W3C//DTD SVG 1.1//EN"
 "http://www.w3.org/Graphics/SVG/1.1/DTD/svg11.dtd">
<!-- Generated by graphviz version 2.38.0 (20140413.2041)
 -->
<!-- Title: Control&#45;flow graph for function &#39;_match_device_with_port(*a1, *a2)&#39;. Pages: 1 -->
<svg width="1207pt" height="1059pt"
 viewBox="0.00 0.00 1206.50 1059.00" xmlns="http://www.w3.org/2000/svg" xmlns:xlink="http://www.w3.org/1999/xlink">
<g id="graph0" class="graph" transform="scale(1 1) rotate(0) translate(4 1055)">
<title>Control&#45;flow graph for function &#39;_match_device_with_port(*a1, *a2)&#39;.</title>
<polygon fill="white" stroke="none" points="-4,4 -4,-1055 1202.5,-1055 1202.5,4 -4,4"/>
<text text-anchor="middle" x="599.25" y="-7.8" font-family="Times,serif" font-size="14.00">Control&#45;flow graph for function &#39;_match_device_with_port(*a1, *a2)&#39;.</text>
<!-- Node0x30e5c20 -->
<g id="node1" class="node"><title>Node0x30e5c20</title>
<polygon fill="none" stroke="black" points="1003,-997.5 1003,-1050.5 1062,-1050.5 1062,-997.5 1003,-997.5"/>
<text text-anchor="start" x="1011" y="-1035.3" font-family="Times,serif" font-size="14.00">entry:</text>
<text text-anchor="start" x="1011" y="-1020.3" font-family="Times,serif" font-size="14.00"> a1</text>
<text text-anchor="start" x="1011" y="-1005.3" font-family="Times,serif" font-size="14.00"> a2</text>
</g>
<!-- Node0x30e5b80 -->
<g id="node2" class="node"><title>Node0x30e5b80</title>
<polygon fill="none" stroke="black" points="896.5,-923.5 896.5,-959.5 1168.5,-959.5 1168.5,-923.5 896.5,-923.5"/>
<text text-anchor="start" x="904.5" y="-937.8" font-family="Times,serif" font-size="14.00">v1 = PtrToIntCastExpr&lt;int32&gt;(a1)</text>
</g>
<!-- Node0x30e5c20&#45;&gt;Node0x30e5b80 -->
<g id="edge1" class="edge"><title>Node0x30e5c20&#45;&gt;Node0x30e5b80</title>
<path fill="none" stroke="black" d="M1032.5,-997.086C1032.5,-988.46 1032.5,-978.822 1032.5,-970.075"/>
<polygon fill="black" stroke="black" points="1036,-969.973 1032.5,-959.974 1029,-969.974 1036,-969.973"/>
</g>
<!-- Node0x34ae190 -->
<g id="node3" class="node"><title>Node0x34ae190</title>
<polygon fill="none" stroke="black" points="957.5,-849.5 957.5,-885.5 1107.5,-885.5 1107.5,-849.5 957.5,-849.5"/>
<text text-anchor="start" x="965.5" y="-863.8" font-family="Times,serif" font-size="14.00">if (*(a1) == 1478):</text>
</g>
<!-- Node0x30e5b80&#45;&gt;Node0x34ae190 -->
<g id="edge2" class="edge"><title>Node0x30e5b80&#45;&gt;Node0x34ae190</title>
<path fill="none" stroke="black" d="M1032.5,-923.437C1032.5,-915.307 1032.5,-905.376 1032.5,-896.205"/>
<polygon fill="black" stroke="black" points="1036,-895.941 1032.5,-885.941 1029,-895.941 1036,-895.941"/>
</g>
<!-- Node0x32bc590 -->
<g id="node4" class="node"><title>Node0x32bc590</title>
<polygon fill="none" stroke="black" points="578.5,-759.5 578.5,-797.5 966.5,-797.5 966.5,-759.5 578.5,-759.5"/>
<text text-anchor="start" x="586.5" y="-782.3" font-family="Times,serif" font-size="14.00">0x40156d:</text>
<text text-anchor="start" x="586.5" y="-767.3" font-family="Times,serif" font-size="14.00"> if (*(IntToPtrCastExpr&lt;ptr&gt;((v1 + 4))) == 36872):</text>
</g>
<!-- Node0x34ae190&#45;&gt;Node0x32bc590 -->
<g id="edge3" class="edge"><title>Node0x34ae190&#45;&gt;Node0x32bc590</title>
<path fill="none" stroke="black" d="M981.443,-849.415C939.833,-835.492 880.859,-815.759 836.17,-800.805"/>
<polygon fill="black" stroke="black" points="837.17,-797.449 826.576,-797.595 834.948,-804.087 837.17,-797.449"/>
<text text-anchor="middle" x="979" y="-819.8" font-family="Times,serif" font-size="14.00">*(a1) == 1478</text>
</g>
<!-- Node0x32bc490 -->
<g id="node5" class="node"><title>Node0x32bc490</title>
<polygon fill="none" stroke="black" points="1043,-669.5 1043,-707.5 1134,-707.5 1134,-669.5 1043,-669.5"/>
<text text-anchor="start" x="1051" y="-692.3" font-family="Times,serif" font-size="14.00">0x4015ca:</text>
<text text-anchor="start" x="1051" y="-677.3" font-family="Times,serif" font-size="14.00"> return &#45;1</text>
</g>
<!-- Node0x34ae190&#45;&gt;Node0x32bc490 -->
<g id="edge4" class="edge"><title>Node0x34ae190&#45;&gt;Node0x32bc490</title>
<path fill="none" stroke="black" d="M1046.66,-849.154C1064.46,-826.106 1094.08,-783.346 1105.5,-741 1107.58,-733.289 1106.41,-725.033 1103.93,-717.441"/>
<polygon fill="black" stroke="black" points="1107.07,-715.882 1100.06,-707.943 1100.59,-718.525 1107.07,-715.882"/>
<text text-anchor="middle" x="1149" y="-774.8" font-family="Times,serif" font-size="14.00">*(a1) != 1478</text>
</g>
<!-- Node0x32bc590&#45;&gt;Node0x32bc490 -->
<g id="edge6" class="edge"><title>Node0x32bc590&#45;&gt;Node0x32bc490</title>
<path fill="none" stroke="black" d="M767.39,-759.107C765.545,-748.157 765.563,-734.738 773.5,-726 790.596,-707.179 947.059,-696.514 1032.84,-692.035"/>
<polygon fill="black" stroke="black" points="1033.13,-695.525 1042.94,-691.519 1032.77,-688.534 1033.13,-695.525"/>
<text text-anchor="middle" x="939.5" y="-729.8" font-family="Times,serif" font-size="14.00">*(IntToPtrCastExpr&lt;ptr&gt;((v1 + 4))) != 36872</text>
</g>
<!-- Node0x30cc490 -->
<g id="node6" class="node"><title>Node0x30cc490</title>
<polygon fill="none" stroke="black" points="254.5,-669.5 254.5,-707.5 568.5,-707.5 568.5,-669.5 254.5,-669.5"/>
<text text-anchor="start" x="262.5" y="-692.3" font-family="Times,serif" font-size="14.00">v2 = IntToPtrCastExpr&lt;ptr&gt;((v1 + 136))</text>
<text text-anchor="start" x="262.5" y="-677.3" font-family="Times,serif" font-size="14.00"> result</text>
</g>
<!-- Node0x32bc590&#45;&gt;Node0x30cc490 -->
<g id="edge5" class="edge"><title>Node0x32bc590&#45;&gt;Node0x30cc490</title>
<path fill="none" stroke="black" d="M578.414,-766.24C506.146,-760.316 438.388,-751.968 425.5,-741 418.653,-735.173 414.986,-726.365 413.07,-717.672"/>
<polygon fill="black" stroke="black" points="416.518,-717.06 411.542,-707.707 409.599,-718.122 416.518,-717.06"/>
<text text-anchor="middle" x="594.5" y="-729.8" font-family="Times,serif" font-size="14.00">*(IntToPtrCastExpr&lt;ptr&gt;((v1 + 4))) == 36872</text>
</g>
<!-- Node0x2c41e40 -->
<g id="node7" class="node"><title>Node0x2c41e40</title>
<polygon fill="none" stroke="black" points="842.5,-23.5 842.5,-59.5 896.5,-59.5 896.5,-23.5 842.5,-23.5"/>
<text text-anchor="start" x="850.5" y="-37.8" font-family="Times,serif" font-size="14.00">exit:</text>
</g>
<!-- Node0x32bc490&#45;&gt;Node0x2c41e40 -->
<g id="edge7" class="edge"><title>Node0x32bc490&#45;&gt;Node0x2c41e40</title>
<path fill="none" stroke="black" d="M1088.5,-669.253C1088.5,-654.276 1088.5,-632.514 1088.5,-613.5 1088.5,-613.5 1088.5,-613.5 1088.5,-115.5 1088.5,-77.709 969.65,-55.9809 907.058,-47.1583"/>
<polygon fill="black" stroke="black" points="907.175,-43.6419 896.794,-45.756 906.228,-50.5775 907.175,-43.6419"/>
</g>
<!-- Node0x30cc560 -->
<g id="node8" class="node"><title>Node0x30cc560</title>
<polygon fill="none" stroke="black" points="213,-593.5 213,-631.5 610,-631.5 610,-593.5 213,-593.5"/>
<text text-anchor="start" x="221" y="-616.3" font-family="Times,serif" font-size="14.00">if ((ExtCastExpr&lt;int32&gt;(*(v2)) or (v1 &amp; &#45;256)) != 0):</text>
<text text-anchor="start" x="221" y="-601.3" font-family="Times,serif" font-size="14.00"> else:</text>
</g>
<!-- Node0x30cc490&#45;&gt;Node0x30cc560 -->
<g id="edge8" class="edge"><title>Node0x30cc490&#45;&gt;Node0x30cc560</title>
<path fill="none" stroke="black" d="M411.5,-669.208C411.5,-660.964 411.5,-651.038 411.5,-641.862"/>
<polygon fill="black" stroke="black" points="415,-641.582 411.5,-631.582 408,-641.582 415,-641.582"/>
</g>
<!-- Node0x2e35ef0 -->
<g id="node9" class="node"><title>Node0x2e35ef0</title>
<polygon fill="none" stroke="black" points="358.5,-503.5 358.5,-541.5 496.5,-541.5 496.5,-503.5 358.5,-503.5"/>
<text text-anchor="start" x="366.5" y="-526.3" font-family="Times,serif" font-size="14.00">0x401590:</text>
<text text-anchor="start" x="366.5" y="-511.3" font-family="Times,serif" font-size="14.00"> if (a2 != NULL):</text>
</g>
<!-- Node0x30cc560&#45;&gt;Node0x2e35ef0 -->
<g id="edge9" class="edge"><title>Node0x30cc560&#45;&gt;Node0x2e35ef0</title>
<path fill="none" stroke="black" d="M414.815,-593.266C417.003,-581.231 419.914,-565.225 422.395,-551.58"/>
<polygon fill="black" stroke="black" points="425.844,-552.175 424.189,-541.71 418.957,-550.923 425.844,-552.175"/>
<text text-anchor="middle" x="596.5" y="-563.8" font-family="Times,serif" font-size="14.00">(ExtCastExpr&lt;int32&gt;(*(v2)) or (v1 &amp; &#45;256)) != 0</text>
</g>
<!-- Node0x2d56470 -->
<g id="node10" class="node"><title>Node0x2d56470</title>
<polygon fill="none" stroke="black" points="0,-448.5 0,-484.5 93,-484.5 93,-448.5 0,-448.5"/>
<text text-anchor="start" x="8" y="-462.8" font-family="Times,serif" font-size="14.00">result = &#45;1</text>
</g>
<!-- Node0x30cc560&#45;&gt;Node0x2d56470 -->
<g id="edge10" class="edge"><title>Node0x30cc560&#45;&gt;Node0x2d56470</title>
<path fill="none" stroke="black" d="M212.596,-601.424C138.705,-595.715 69.7006,-587.21 57.5,-575 36.9387,-554.423 37.2493,-519.336 40.6912,-494.864"/>
<polygon fill="black" stroke="black" points="44.1804,-495.217 42.3675,-484.779 37.2752,-494.07 44.1804,-495.217"/>
<text text-anchor="middle" x="236.5" y="-563.8" font-family="Times,serif" font-size="14.00">(ExtCastExpr&lt;int32&gt;(*(v2)) or (v1 &amp; &#45;256)) == 0</text>
</g>
<!-- Node0x2dbd350 -->
<g id="node11" class="node"><title>Node0x2dbd350</title>
<polygon fill="none" stroke="black" points="136,-391.5 136,-429.5 737,-429.5 737,-391.5 136,-391.5"/>
<text text-anchor="start" x="144" y="-414.3" font-family="Times,serif" font-size="14.00">0x401596:</text>
<text text-anchor="start" x="144" y="-399.3" font-family="Times,serif" font-size="14.00"> if ((ExtCastExpr&lt;int32&gt;(*(a2)) or (PtrToIntCastExpr&lt;int32&gt;(a2) &amp; &#45;256)) != 0):</text>
</g>
<!-- Node0x2e35ef0&#45;&gt;Node0x2dbd350 -->
<g id="edge11" class="edge"><title>Node0x2e35ef0&#45;&gt;Node0x2dbd350</title>
<path fill="none" stroke="black" d="M428.986,-503.336C430.4,-486.059 432.547,-459.809 434.185,-439.792"/>
<polygon fill="black" stroke="black" points="437.684,-439.943 435.012,-429.691 430.708,-439.373 437.684,-439.943"/>
<text text-anchor="middle" x="477.5" y="-462.8" font-family="Times,serif" font-size="14.00">a2 != NULL</text>
</g>
<!-- Node0x2cdd560 -->
<g id="node12" class="node"><title>Node0x2cdd560</title>
<polygon fill="none" stroke="black" points="170,-211.5 170,-249.5 263,-249.5 263,-211.5 170,-211.5"/>
<text text-anchor="start" x="178" y="-234.3" font-family="Times,serif" font-size="14.00">0x4015c3:</text>
<text text-anchor="start" x="178" y="-219.3" font-family="Times,serif" font-size="14.00"> result = 0</text>
</g>
<!-- Node0x2e35ef0&#45;&gt;Node0x2cdd560 -->
<g id="edge12" class="edge"><title>Node0x2e35ef0&#45;&gt;Node0x2cdd560</title>
<path fill="none" stroke="black" d="M358.48,-510.216C278.537,-495.574 154.226,-467.407 126.5,-430 85.204,-374.285 149.171,-296.601 188.843,-256.964"/>
<polygon fill="black" stroke="black" points="191.711,-259.055 196.416,-249.562 186.818,-254.049 191.711,-259.055"/>
<text text-anchor="middle" x="165.5" y="-361.8" font-family="Times,serif" font-size="14.00">a2 == NULL</text>
</g>
<!-- Node0x2cdd490 -->
<g id="node13" class="node"><title>Node0x2cdd490</title>
<polygon fill="none" stroke="black" points="160,-97.5 160,-135.5 273,-135.5 273,-97.5 160,-97.5"/>
<text text-anchor="start" x="168" y="-120.3" font-family="Times,serif" font-size="14.00">0x4015ca:</text>
<text text-anchor="start" x="168" y="-105.3" font-family="Times,serif" font-size="14.00"> return result</text>
</g>
<!-- Node0x2d56470&#45;&gt;Node0x2cdd490 -->
<g id="edge13" class="edge"><title>Node0x2d56470&#45;&gt;Node0x2cdd490</title>
<path fill="none" stroke="black" d="M49.8427,-448.407C53.3934,-428.733 58.5,-395.413 58.5,-366.5 58.5,-366.5 58.5,-366.5 58.5,-229.5 58.5,-181.73 107.165,-152.486 150.478,-135.919"/>
<polygon fill="black" stroke="black" points="151.713,-139.194 159.905,-132.474 149.311,-132.619 151.713,-139.194"/>
</g>
<!-- Node0x2dbd350&#45;&gt;Node0x2cdd560 -->
<g id="edge15" class="edge"><title>Node0x2dbd350&#45;&gt;Node0x2cdd560</title>
<path fill="none" stroke="black" d="M304.264,-391.431C274.118,-381.085 245.201,-364.986 225.5,-340 207.761,-317.503 207.873,-283.611 210.916,-259.704"/>
<polygon fill="black" stroke="black" points="214.376,-260.226 212.411,-249.816 207.455,-259.18 214.376,-260.226"/>
<text text-anchor="middle" x="504" y="-316.8" font-family="Times,serif" font-size="14.00">(ExtCastExpr&lt;int32&gt;(*(a2)) or (PtrToIntCastExpr&lt;int32&gt;(a2) &amp; &#45;256)) == 0</text>
</g>
<!-- Node0x2d6d6b0 -->
<g id="node14" class="node"><title>Node0x2d6d6b0</title>
<polygon fill="none" stroke="black" points="791.5,-301.5 791.5,-339.5 1045.5,-339.5 1045.5,-301.5 791.5,-301.5"/>
<text text-anchor="start" x="799.5" y="-324.3" font-family="Times,serif" font-size="14.00">0x40159f:</text>
<text text-anchor="start" x="799.5" y="-309.3" font-family="Times,serif" font-size="14.00"> if (strcasestr(v2, a2) == NULL):</text>
</g>
<!-- Node0x2dbd350&#45;&gt;Node0x2d6d6b0 -->
<g id="edge14" class="edge"><title>Node0x2dbd350&#45;&gt;Node0x2d6d6b0</title>
<path fill="none" stroke="black" d="M460.175,-391.362C476.904,-379.62 500.379,-365.219 523.5,-358 631.53,-324.273 664.9,-351.366 777.5,-340 778.778,-339.871 780.062,-339.74 781.352,-339.606"/>
<polygon fill="black" stroke="black" points="781.765,-343.082 791.336,-338.54 781.021,-336.121 781.765,-343.082"/>
<text text-anchor="middle" x="799" y="-361.8" font-family="Times,serif" font-size="14.00">(ExtCastExpr&lt;int32&gt;(*(a2)) or (PtrToIntCastExpr&lt;int32&gt;(a2) &amp; &#45;256)) != 0</text>
</g>
<!-- Node0x2cdd560&#45;&gt;Node0x2cdd490 -->
<g id="edge16" class="edge"><title>Node0x2cdd560&#45;&gt;Node0x2cdd490</title>
<path fill="none" stroke="black" d="M216.5,-211.005C216.5,-193.228 216.5,-166.118 216.5,-145.659"/>
<polygon fill="black" stroke="black" points="220,-145.65 216.5,-135.65 213,-145.65 220,-145.65"/>
</g>
<!-- Node0x2cdd490&#45;&gt;Node0x2c41e40 -->
<g id="edge17" class="edge"><title>Node0x2cdd490&#45;&gt;Node0x2c41e40</title>
<path fill="none" stroke="black" d="M273.023,-109.181C403.456,-94.5999 722.652,-58.9164 832.018,-46.6902"/>
<polygon fill="black" stroke="black" points="832.681,-50.1379 842.23,-45.5485 831.903,-43.1813 832.681,-50.1379"/>
</g>
<!-- Node0x2d6d6b0&#45;&gt;Node0x2cdd560 -->
<g id="edge19" class="edge"><title>Node0x2d6d6b0&#45;&gt;Node0x2cdd560</title>
<path fill="none" stroke="black" d="M791.301,-302.768C786.643,-302.169 782.031,-301.578 777.5,-301 593.026,-277.471 374.276,-250.696 273.066,-238.371"/>
<polygon fill="black" stroke="black" points="273.41,-234.887 263.06,-237.153 272.564,-241.836 273.41,-234.887"/>
</g>
<!-- Node0x2fcd740 -->
<g id="node15" class="node"><title>Node0x2fcd740</title>
<polygon fill="none" stroke="black" points="824,-154.5 824,-192.5 915,-192.5 915,-154.5 824,-154.5"/>
<text text-anchor="start" x="832" y="-177.3" font-family="Times,serif" font-size="14.00">0x4015ca:</text>
<text text-anchor="start" x="832" y="-162.3" font-family="Times,serif" font-size="14.00"> return &#45;1</text>
</g>
<!-- Node0x2d6d6b0&#45;&gt;Node0x2fcd740 -->
<g id="edge18" class="edge"><title>Node0x2d6d6b0&#45;&gt;Node0x2fcd740</title>
<path fill="none" stroke="black" d="M885.971,-301.289C879.747,-296.218 874.067,-290.112 870.5,-283 857.959,-257.998 859.629,-225.498 863.245,-202.609"/>
<polygon fill="black" stroke="black" points="866.733,-202.987 865.06,-192.525 859.844,-201.746 866.733,-202.987"/>
<text text-anchor="middle" x="972.5" y="-271.8" font-family="Times,serif" font-size="14.00">strcasestr(v2, a2) == NULL</text>
</g>
<!-- Node0x2fcd740&#45;&gt;Node0x2c41e40 -->
<g id="edge20" class="edge"><title>Node0x2fcd740&#45;&gt;Node0x2c41e40</title>
<path fill="none" stroke="black" d="M869.5,-154.424C869.5,-132.448 869.5,-95.1477 869.5,-69.6978"/>
<polygon fill="black" stroke="black" points="873,-69.5954 869.5,-59.5955 866,-69.5955 873,-69.5954"/>
</g>
</g>
</svg>
