<?xml version="1.0" encoding="UTF-8" standalone="no"?>
<!DOCTYPE svg PUBLIC "-//W3C//DTD SVG 1.1//EN"
 "http://www.w3.org/Graphics/SVG/1.1/DTD/svg11.dtd">
<!-- Generated by graphviz version 2.38.0 (20140413.2041)
 -->
<!-- Title: Control&#45;flow graph for function &#39;function_402827(a1)&#39;. Pages: 1 -->
<svg width="412pt" height="218pt"
 viewBox="0.00 0.00 412.00 218.00" xmlns="http://www.w3.org/2000/svg" xmlns:xlink="http://www.w3.org/1999/xlink">
<g id="graph0" class="graph" transform="scale(1 1) rotate(0) translate(4 214)">
<title>Control&#45;flow graph for function &#39;function_402827(a1)&#39;.</title>
<polygon fill="white" stroke="none" points="-4,4 -4,-214 408,-214 408,4 -4,4"/>
<text text-anchor="middle" x="202" y="-7.8" font-family="Times,serif" font-size="14.00">Control&#45;flow graph for function &#39;function_402827(a1)&#39;.</text>
<!-- Node0x2e00d20 -->
<g id="node1" class="node"><title>Node0x2e00d20</title>
<polygon fill="none" stroke="black" points="172.5,-171.5 172.5,-209.5 231.5,-209.5 231.5,-171.5 172.5,-171.5"/>
<text text-anchor="start" x="180.5" y="-194.3" font-family="Times,serif" font-size="14.00">entry:</text>
<text text-anchor="start" x="180.5" y="-179.3" font-family="Times,serif" font-size="14.00"> a1</text>
</g>
<!-- Node0x30e02a0 -->
<g id="node2" class="node"><title>Node0x30e02a0</title>
<polygon fill="none" stroke="black" points="156,-96.5 156,-134.5 248,-134.5 248,-96.5 156,-96.5"/>
<text text-anchor="start" x="164" y="-119.3" font-family="Times,serif" font-size="14.00">0x402827:</text>
<text text-anchor="start" x="164" y="-104.3" font-family="Times,serif" font-size="14.00"> return g7</text>
</g>
<!-- Node0x2e00d20&#45;&gt;Node0x30e02a0 -->
<g id="edge1" class="edge"><title>Node0x2e00d20&#45;&gt;Node0x30e02a0</title>
<path fill="none" stroke="black" d="M202,-171.455C202,-163.383 202,-153.676 202,-144.682"/>
<polygon fill="black" stroke="black" points="205.5,-144.59 202,-134.59 198.5,-144.59 205.5,-144.59"/>
</g>
<!-- Node0x3125350 -->
<g id="node3" class="node"><title>Node0x3125350</title>
<polygon fill="none" stroke="black" points="175,-23.5 175,-59.5 229,-59.5 229,-23.5 175,-23.5"/>
<text text-anchor="start" x="183" y="-37.8" font-family="Times,serif" font-size="14.00">exit:</text>
</g>
<!-- Node0x30e02a0&#45;&gt;Node0x3125350 -->
<g id="edge2" class="edge"><title>Node0x30e02a0&#45;&gt;Node0x3125350</title>
<path fill="none" stroke="black" d="M202,-96.3314C202,-88.394 202,-78.9095 202,-70.1285"/>
<polygon fill="black" stroke="black" points="205.5,-69.9177 202,-59.9177 198.5,-69.9177 205.5,-69.9177"/>
</g>
</g>
</svg>
