<?xml version="1.0" encoding="UTF-8" standalone="no"?>
<!DOCTYPE svg PUBLIC "-//W3C//DTD SVG 1.1//EN"
 "http://www.w3.org/Graphics/SVG/1.1/DTD/svg11.dtd">
<!-- Generated by graphviz version 2.38.0 (20140413.2041)
 -->
<!-- Title: Control&#45;flow graph for function &#39;_dtoa_lock(a1)&#39;. Pages: 1 -->
<svg width="3547pt" height="1907pt"
 viewBox="0.00 0.00 3547.00 1907.00" xmlns="http://www.w3.org/2000/svg" xmlns:xlink="http://www.w3.org/1999/xlink">
<g id="graph0" class="graph" transform="scale(1 1) rotate(0) translate(4 1903)">
<title>Control&#45;flow graph for function &#39;_dtoa_lock(a1)&#39;.</title>
<polygon fill="white" stroke="none" points="-4,4 -4,-1903 3543,-1903 3543,4 -4,4"/>
<text text-anchor="middle" x="1769.5" y="-7.8" font-family="Times,serif" font-size="14.00">Control&#45;flow graph for function &#39;_dtoa_lock(a1)&#39;.</text>
<!-- Node0x31c6f30 -->
<g id="node1" class="node"><title>Node0x31c6f30</title>
<polygon fill="none" stroke="black" points="902,-1860.5 902,-1898.5 961,-1898.5 961,-1860.5 902,-1860.5"/>
<text text-anchor="start" x="910" y="-1883.3" font-family="Times,serif" font-size="14.00">entry:</text>
<text text-anchor="start" x="910" y="-1868.3" font-family="Times,serif" font-size="14.00"> a1</text>
</g>
<!-- Node0x345ad50 -->
<g id="node2" class="node"><title>Node0x345ad50</title>
<polygon fill="none" stroke="black" points="788.5,-1679.5 788.5,-1822.5 1074.5,-1822.5 1074.5,-1679.5 788.5,-1679.5"/>
<text text-anchor="start" x="796.5" y="-1807.3" font-family="Times,serif" font-size="14.00">v1 = g3</text>
<text text-anchor="start" x="796.5" y="-1792.3" font-family="Times,serif" font-size="14.00"> v2 = PtrToIntCastExpr&lt;int32&gt;(g32)</text>
<text text-anchor="start" x="796.5" y="-1777.3" font-family="Times,serif" font-size="14.00"> v3 = v2</text>
<text text-anchor="start" x="796.5" y="-1762.3" font-family="Times,serif" font-size="14.00"> v4</text>
<text text-anchor="start" x="796.5" y="-1747.3" font-family="Times,serif" font-size="14.00"> v5</text>
<text text-anchor="start" x="796.5" y="-1732.3" font-family="Times,serif" font-size="14.00"> v6</text>
<text text-anchor="start" x="796.5" y="-1717.3" font-family="Times,serif" font-size="14.00"> result2</text>
<text text-anchor="start" x="796.5" y="-1702.3" font-family="Times,serif" font-size="14.00"> result</text>
<text text-anchor="start" x="796.5" y="-1687.3" font-family="Times,serif" font-size="14.00"> v7</text>
</g>
<!-- Node0x31c6f30&#45;&gt;Node0x345ad50 -->
<g id="edge1" class="edge"><title>Node0x31c6f30&#45;&gt;Node0x345ad50</title>
<path fill="none" stroke="black" d="M931.5,-1860.38C931.5,-1852.61 931.5,-1842.95 931.5,-1832.62"/>
<polygon fill="black" stroke="black" points="935,-1832.55 931.5,-1822.55 928,-1832.55 935,-1832.55"/>
</g>
<!-- Node0x2c4e2d0 -->
<g id="node3" class="node"><title>Node0x2c4e2d0</title>
<polygon fill="none" stroke="black" points="886.5,-1588.5 886.5,-1641.5 976.5,-1641.5 976.5,-1588.5 886.5,-1588.5"/>
<text text-anchor="start" x="894.5" y="-1626.3" font-family="Times,serif" font-size="14.00">switch v2:</text>
<text text-anchor="start" x="894.5" y="-1611.3" font-family="Times,serif" font-size="14.00"> case 2:</text>
<text text-anchor="start" x="894.5" y="-1596.3" font-family="Times,serif" font-size="14.00"> case 0:</text>
</g>
<!-- Node0x345ad50&#45;&gt;Node0x2c4e2d0 -->
<g id="edge2" class="edge"><title>Node0x345ad50&#45;&gt;Node0x2c4e2d0</title>
<path fill="none" stroke="black" d="M931.5,-1679.47C931.5,-1669.88 931.5,-1660.38 931.5,-1651.77"/>
<polygon fill="black" stroke="black" points="935,-1651.76 931.5,-1641.76 928,-1651.76 935,-1651.76"/>
</g>
<!-- Node0x2ed0340 -->
<g id="node4" class="node"><title>Node0x2ed0340</title>
<polygon fill="none" stroke="black" points="0,-1351.5 0,-1464.5 707,-1464.5 707,-1351.5 0,-1351.5"/>
<text text-anchor="start" x="8" y="-1449.3" font-family="Times,serif" font-size="14.00">0x406311:</text>
<text text-anchor="start" x="8" y="-1434.3" font-family="Times,serif" font-size="14.00"> EnterCriticalSection(IntToPtrCastExpr&lt;ptr&gt;(((24 * g1) + PtrToIntCastExpr&lt;int32&gt;(&amp;(g33)))))</text>
<text text-anchor="start" x="8" y="-1419.3" font-family="Times,serif" font-size="14.00"> result = v4</text>
<text text-anchor="start" x="8" y="-1404.3" font-family="Times,serif" font-size="14.00"> g1 = result</text>
<text text-anchor="start" x="8" y="-1389.3" font-family="Times,serif" font-size="14.00"> g3 = v1</text>
<text text-anchor="start" x="8" y="-1374.3" font-family="Times,serif" font-size="14.00"> g7 = v5</text>
<text text-anchor="start" x="8" y="-1359.3" font-family="Times,serif" font-size="14.00"> return result</text>
</g>
<!-- Node0x2c4e2d0&#45;&gt;Node0x2ed0340 -->
<g id="edge3" class="edge"><title>Node0x2c4e2d0&#45;&gt;Node0x2ed0340</title>
<path fill="none" stroke="black" d="M886.145,-1597.91C808.204,-1570.27 645.149,-1512.44 519.855,-1468"/>
<polygon fill="black" stroke="black" points="520.736,-1464.6 510.141,-1464.56 518.396,-1471.2 520.736,-1464.6"/>
<text text-anchor="middle" x="837.5" y="-1558.8" font-family="Times,serif" font-size="14.00">v2 == 2</text>
</g>
<!-- Node0x2d5a240 -->
<g id="node5" class="node"><title>Node0x2d5a240</title>
<polygon fill="none" stroke="black" points="860.5,-1483.5 860.5,-1536.5 1002.5,-1536.5 1002.5,-1483.5 860.5,-1483.5"/>
<text text-anchor="start" x="868.5" y="-1521.3" font-family="Times,serif" font-size="14.00">0x4062c7:</text>
<text text-anchor="start" x="868.5" y="-1506.3" font-family="Times,serif" font-size="14.00"> v8</text>
<text text-anchor="start" x="868.5" y="-1491.3" font-family="Times,serif" font-size="14.00"> lpCriticalSection</text>
</g>
<!-- Node0x2c4e2d0&#45;&gt;Node0x2d5a240 -->
<g id="edge4" class="edge"><title>Node0x2c4e2d0&#45;&gt;Node0x2d5a240</title>
<path fill="none" stroke="black" d="M931.5,-1588.27C931.5,-1575.74 931.5,-1560.46 931.5,-1546.81"/>
<polygon fill="black" stroke="black" points="935,-1546.75 931.5,-1536.75 928,-1546.75 935,-1546.75"/>
<text text-anchor="middle" x="961.5" y="-1558.8" font-family="Times,serif" font-size="14.00">v2 == 0</text>
</g>
<!-- Node0x31111a0 -->
<g id="node6" class="node"><title>Node0x31111a0</title>
<polygon fill="none" stroke="black" points="2262.5,-1207.5 2262.5,-1245.5 2354.5,-1245.5 2354.5,-1207.5 2262.5,-1207.5"/>
<text text-anchor="start" x="2270.5" y="-1230.3" font-family="Times,serif" font-size="14.00">0x4062b9:</text>
<text text-anchor="start" x="2270.5" y="-1215.3" font-family="Times,serif" font-size="14.00"> v7 = v3</text>
</g>
<!-- Node0x2c4e2d0&#45;&gt;Node0x31111a0 -->
<g id="edge5" class="edge"><title>Node0x2c4e2d0&#45;&gt;Node0x31111a0</title>
<path fill="none" stroke="black" d="M976.514,-1602.85C1144.77,-1560.91 1752.48,-1406.89 2252.83,-1247.46"/>
<polygon fill="black" stroke="black" points="2253.95,-1250.78 2262.41,-1244.4 2251.82,-1244.11 2253.95,-1250.78"/>
</g>
<!-- Node0x345acd0 -->
<g id="node7" class="node"><title>Node0x345acd0</title>
<polygon fill="none" stroke="black" points="1426.5,-23.5 1426.5,-59.5 1480.5,-59.5 1480.5,-23.5 1426.5,-23.5"/>
<text text-anchor="start" x="1434.5" y="-37.8" font-family="Times,serif" font-size="14.00">exit:</text>
</g>
<!-- Node0x2ed0340&#45;&gt;Node0x345acd0 -->
<g id="edge6" class="edge"><title>Node0x2ed0340&#45;&gt;Node0x345acd0</title>
<path fill="none" stroke="black" d="M266.01,-1351.26C228.656,-1320.17 193.5,-1277.6 193.5,-1227.5 193.5,-1227.5 193.5,-1227.5 193.5,-153 193.5,-89.9689 1207.31,-51.1062 1416.15,-43.7693"/>
<polygon fill="black" stroke="black" points="1416.43,-47.2617 1426.31,-43.4152 1416.19,-40.2659 1416.43,-47.2617"/>
</g>
<!-- Node0x33511a0 -->
<g id="node8" class="node"><title>Node0x33511a0</title>
<polygon fill="none" stroke="black" points="706.5,-1264.5 706.5,-1332.5 1156.5,-1332.5 1156.5,-1264.5 706.5,-1264.5"/>
<text text-anchor="start" x="714.5" y="-1317.3" font-family="Times,serif" font-size="14.00">switch InterlockedExchange(BitCastExpr&lt;ptr&gt;(&amp;(g32)), 1):</text>
<text text-anchor="start" x="714.5" y="-1302.3" font-family="Times,serif" font-size="14.00"> default:</text>
<text text-anchor="start" x="714.5" y="-1287.3" font-family="Times,serif" font-size="14.00"> case 0:</text>
<text text-anchor="start" x="714.5" y="-1272.3" font-family="Times,serif" font-size="14.00"> case 2:</text>
</g>
<!-- Node0x2d5a240&#45;&gt;Node0x33511a0 -->
<g id="edge7" class="edge"><title>Node0x2d5a240&#45;&gt;Node0x33511a0</title>
<path fill="none" stroke="black" d="M931.5,-1483.31C931.5,-1448.29 931.5,-1385.06 931.5,-1342.68"/>
<polygon fill="black" stroke="black" points="935,-1342.65 931.5,-1332.65 928,-1342.65 935,-1342.65"/>
</g>
<!-- Node0x323e0f0 -->
<g id="node9" class="node"><title>Node0x323e0f0</title>
<polygon fill="none" stroke="black" points="2259,-692.5 2259,-728.5 2358,-728.5 2358,-692.5 2259,-692.5"/>
<text text-anchor="start" x="2267" y="-706.8" font-family="Times,serif" font-size="14.00">if (v3 != 1):</text>
</g>
<!-- Node0x31111a0&#45;&gt;Node0x323e0f0 -->
<g id="edge8" class="edge"><title>Node0x31111a0&#45;&gt;Node0x323e0f0</title>
<path fill="none" stroke="black" d="M2308.5,-1207.45C2308.5,-1174.08 2308.5,-1100.51 2308.5,-1038.5 2308.5,-1038.5 2308.5,-1038.5 2308.5,-829.5 2308.5,-798.411 2308.5,-762.714 2308.5,-738.798"/>
<polygon fill="black" stroke="black" points="2312,-738.697 2308.5,-728.697 2305,-738.697 2312,-738.697"/>
</g>
<!-- Node0x31102f0 -->
<g id="node10" class="node"><title>Node0x31102f0</title>
<polygon fill="none" stroke="black" points="1270.5,-1135.5 1270.5,-1173.5 1556.5,-1173.5 1556.5,-1135.5 1270.5,-1135.5"/>
<text text-anchor="start" x="1278.5" y="-1158.3" font-family="Times,serif" font-size="14.00">0x406330:</text>
<text text-anchor="start" x="1278.5" y="-1143.3" font-family="Times,serif" font-size="14.00"> v3 = PtrToIntCastExpr&lt;int32&gt;(g32)</text>
</g>
<!-- Node0x33511a0&#45;&gt;Node0x31102f0 -->
<g id="edge9" class="edge"><title>Node0x33511a0&#45;&gt;Node0x31102f0</title>
<path fill="none" stroke="black" d="M1156.73,-1289.42C1239.12,-1282.46 1320.11,-1269.62 1352.5,-1246 1367.92,-1234.75 1360.29,-1223.13 1370.5,-1207 1376.05,-1198.23 1382.94,-1189.33 1389.57,-1181.45"/>
<polygon fill="black" stroke="black" points="1392.42,-1183.51 1396.31,-1173.66 1387.12,-1178.93 1392.42,-1183.51"/>
<text text-anchor="middle" x="1812" y="-1222.8" font-family="Times,serif" font-size="14.00">(InterlockedExchange(BitCastExpr&lt;ptr&gt;(&amp;(g32)), 1) != 0) and (InterlockedExchange(BitCastExpr&lt;ptr&gt;(&amp;(g32)), 1) != 2)</text>
</g>
<!-- Node0x2ceb5d0 -->
<g id="node11" class="node"><title>Node0x2ceb5d0</title>
<polygon fill="none" stroke="black" points="282,-1120.5 282,-1188.5 695,-1188.5 695,-1120.5 282,-1120.5"/>
<text text-anchor="start" x="290" y="-1173.3" font-family="Times,serif" font-size="14.00">0x4062db:</text>
<text text-anchor="start" x="290" y="-1158.3" font-family="Times,serif" font-size="14.00"> v8 = PtrToIntCastExpr&lt;int32&gt;(&amp;(g33))</text>
<text text-anchor="start" x="290" y="-1143.3" font-family="Times,serif" font-size="14.00"> lpCriticalSection = PtrToIntCastExpr&lt;int32&gt;(&amp;(g33))</text>
<text text-anchor="start" x="290" y="-1128.3" font-family="Times,serif" font-size="14.00"> break</text>
</g>
<!-- Node0x33511a0&#45;&gt;Node0x2ceb5d0 -->
<g id="edge10" class="edge"><title>Node0x33511a0&#45;&gt;Node0x2ceb5d0</title>
<path fill="none" stroke="black" d="M706.37,-1284.21C605.353,-1275.9 505.184,-1263.42 489.5,-1246 478.183,-1233.43 476.207,-1215.43 477.718,-1198.78"/>
<polygon fill="black" stroke="black" points="481.215,-1199.03 479.056,-1188.66 474.276,-1198.11 481.215,-1199.03"/>
<text text-anchor="middle" x="699.5" y="-1222.8" font-family="Times,serif" font-size="14.00">InterlockedExchange(BitCastExpr&lt;ptr&gt;(&amp;(g32)), 1) == 0</text>
</g>
<!-- Node0x3540cf0 -->
<g id="node12" class="node"><title>Node0x3540cf0</title>
<polygon fill="none" stroke="black" points="578,-973.5 578,-1101.5 1285,-1101.5 1285,-973.5 578,-973.5"/>
<text text-anchor="start" x="586" y="-1086.3" font-family="Times,serif" font-size="14.00">0x406337:</text>
<text text-anchor="start" x="586" y="-1071.3" font-family="Times,serif" font-size="14.00"> g32 = IntToPtrCastExpr&lt;ptr&gt;(2)</text>
<text text-anchor="start" x="586" y="-1056.3" font-family="Times,serif" font-size="14.00"> EnterCriticalSection(IntToPtrCastExpr&lt;ptr&gt;(((24 * g1) + PtrToIntCastExpr&lt;int32&gt;(&amp;(g33)))))</text>
<text text-anchor="start" x="586" y="-1041.3" font-family="Times,serif" font-size="14.00"> result = v4</text>
<text text-anchor="start" x="586" y="-1026.3" font-family="Times,serif" font-size="14.00"> g1 = result</text>
<text text-anchor="start" x="586" y="-1011.3" font-family="Times,serif" font-size="14.00"> g3 = v1</text>
<text text-anchor="start" x="586" y="-996.3" font-family="Times,serif" font-size="14.00"> g7 = v5</text>
<text text-anchor="start" x="586" y="-981.3" font-family="Times,serif" font-size="14.00"> return result</text>
</g>
<!-- Node0x33511a0&#45;&gt;Node0x3540cf0 -->
<g id="edge11" class="edge"><title>Node0x33511a0&#45;&gt;Node0x3540cf0</title>
<path fill="none" stroke="black" d="M929.28,-1264.27C928.955,-1258.19 928.672,-1251.91 928.5,-1246 927.203,-1201.44 927.861,-1151.48 928.886,-1111.75"/>
<polygon fill="black" stroke="black" points="932.389,-1111.71 929.162,-1101.62 925.391,-1111.52 932.389,-1111.71"/>
<text text-anchor="middle" x="1138.5" y="-1222.8" font-family="Times,serif" font-size="14.00">InterlockedExchange(BitCastExpr&lt;ptr&gt;(&amp;(g32)), 1) == 2</text>
</g>
<!-- Node0x3056ac0 -->
<g id="node13" class="node"><title>Node0x3056ac0</title>
<polygon fill="none" stroke="black" points="1401.5,-270 1401.5,-308 1505.5,-308 1505.5,-270 1401.5,-270"/>
<text text-anchor="start" x="1409.5" y="-292.8" font-family="Times,serif" font-size="14.00">0x4062be:</text>
<text text-anchor="start" x="1409.5" y="-277.8" font-family="Times,serif" font-size="14.00"> if (v7 != 2):</text>
</g>
<!-- Node0x323e0f0&#45;&gt;Node0x3056ac0 -->
<g id="edge12" class="edge"><title>Node0x323e0f0&#45;&gt;Node0x3056ac0</title>
<path fill="none" stroke="black" d="M2273.66,-692.405C2138.93,-626.3 1652.02,-387.403 1499.51,-312.574"/>
<polygon fill="black" stroke="black" points="1500.89,-309.355 1490.37,-308.092 1497.81,-315.639 1500.89,-309.355"/>
<text text-anchor="middle" x="2043.5" y="-556.8" font-family="Times,serif" font-size="14.00">v3 != 1</text>
</g>
<!-- Node0x2f7f700 -->
<g id="node14" class="node"><title>Node0x2f7f700</title>
<polygon fill="none" stroke="black" points="2422.5,-586.5 2422.5,-624.5 2508.5,-624.5 2508.5,-586.5 2422.5,-586.5"/>
<text text-anchor="start" x="2430.5" y="-609.3" font-family="Times,serif" font-size="14.00">Sleep(1)</text>
<text text-anchor="start" x="2430.5" y="-594.3" font-family="Times,serif" font-size="14.00"> v6 = g32</text>
</g>
<!-- Node0x323e0f0&#45;&gt;Node0x2f7f700 -->
<g id="edge13" class="edge"><title>Node0x323e0f0&#45;&gt;Node0x2f7f700</title>
<path fill="none" stroke="black" d="M2334.43,-692.492C2360.31,-675.507 2400.32,-649.26 2429.33,-630.23"/>
<polygon fill="black" stroke="black" points="2431.51,-632.986 2437.95,-624.574 2427.67,-627.133 2431.51,-632.986"/>
<text text-anchor="middle" x="2435.5" y="-646.8" font-family="Times,serif" font-size="14.00">v3 == 1</text>
</g>
<!-- Node0x3129ee0 -->
<g id="node15" class="node"><title>Node0x3129ee0</title>
<polygon fill="none" stroke="black" points="1388.5,-916.5 1388.5,-954.5 1498.5,-954.5 1498.5,-916.5 1388.5,-916.5"/>
<text text-anchor="start" x="1396.5" y="-939.3" font-family="Times,serif" font-size="14.00">0x4062b9:</text>
<text text-anchor="start" x="1396.5" y="-924.3" font-family="Times,serif" font-size="14.00"> if (v3 == 1):</text>
</g>
<!-- Node0x31102f0&#45;&gt;Node0x3129ee0 -->
<g id="edge14" class="edge"><title>Node0x31102f0&#45;&gt;Node0x3129ee0</title>
<path fill="none" stroke="black" d="M1416.01,-1135.37C1421.23,-1097.56 1433.34,-1010.03 1439.59,-964.755"/>
<polygon fill="black" stroke="black" points="1443.08,-965.114 1440.98,-954.729 1436.14,-964.156 1443.08,-965.114"/>
</g>
<!-- Node0x310ee60 -->
<g id="node16" class="node"><title>Node0x310ee60</title>
<polygon fill="none" stroke="black" points="440,-917.5 440,-953.5 537,-953.5 537,-917.5 440,-917.5"/>
<text text-anchor="start" x="448" y="-931.8" font-family="Times,serif" font-size="14.00">while True:</text>
</g>
<!-- Node0x2ceb5d0&#45;&gt;Node0x310ee60 -->
<g id="edge15" class="edge"><title>Node0x2ceb5d0&#45;&gt;Node0x310ee60</title>
<path fill="none" stroke="black" d="M488.5,-1120.07C488.5,-1077.14 488.5,-1003.47 488.5,-963.765"/>
<polygon fill="black" stroke="black" points="492,-963.52 488.5,-953.52 485,-963.52 492,-963.52"/>
</g>
<!-- Node0x3540cf0&#45;&gt;Node0x345acd0 -->
<g id="edge16" class="edge"><title>Node0x3540cf0&#45;&gt;Node0x345acd0</title>
<path fill="none" stroke="black" d="M931.5,-973.335C931.5,-947.908 931.5,-918.31 931.5,-891.5 931.5,-891.5 931.5,-891.5 931.5,-153 931.5,-126.718 929.995,-113.44 950.5,-97 986.724,-67.9574 1306.21,-49.7124 1416.36,-44.2397"/>
<polygon fill="black" stroke="black" points="1416.54,-47.7356 1426.35,-43.7501 1416.19,-40.744 1416.54,-47.7356"/>
</g>
<!-- Node0x3351aa0 -->
<g id="node17" class="node"><title>Node0x3351aa0</title>
<polygon fill="none" stroke="black" points="959.5,-105 959.5,-203 1081.5,-203 1081.5,-105 959.5,-105"/>
<text text-anchor="start" x="967.5" y="-187.8" font-family="Times,serif" font-size="14.00">0x4062c3:</text>
<text text-anchor="start" x="967.5" y="-172.8" font-family="Times,serif" font-size="14.00"> result2 = v4</text>
<text text-anchor="start" x="967.5" y="-157.8" font-family="Times,serif" font-size="14.00"> g1 = result2</text>
<text text-anchor="start" x="967.5" y="-142.8" font-family="Times,serif" font-size="14.00"> g3 = v1</text>
<text text-anchor="start" x="967.5" y="-127.8" font-family="Times,serif" font-size="14.00"> g7 = v5</text>
<text text-anchor="start" x="967.5" y="-112.8" font-family="Times,serif" font-size="14.00"> return result2</text>
</g>
<!-- Node0x3056ac0&#45;&gt;Node0x3351aa0 -->
<g id="edge17" class="edge"><title>Node0x3056ac0&#45;&gt;Node0x3351aa0</title>
<path fill="none" stroke="black" d="M1401.19,-284.514C1328.4,-278.008 1193.87,-259.901 1090.5,-211 1088.71,-210.151 1086.92,-209.248 1085.14,-208.299"/>
<polygon fill="black" stroke="black" points="1086.74,-205.181 1076.33,-203.194 1083.23,-211.237 1086.74,-205.181"/>
<text text-anchor="middle" x="1203.5" y="-232.8" font-family="Times,serif" font-size="14.00">v7 != 2</text>
</g>
<!-- Node0x3350ff0 -->
<g id="node18" class="node"><title>Node0x3350ff0</title>
<polygon fill="none" stroke="black" points="1100,-97.5 1100,-210.5 1807,-210.5 1807,-97.5 1100,-97.5"/>
<text text-anchor="start" x="1108" y="-195.3" font-family="Times,serif" font-size="14.00">0x406311:</text>
<text text-anchor="start" x="1108" y="-180.3" font-family="Times,serif" font-size="14.00"> EnterCriticalSection(IntToPtrCastExpr&lt;ptr&gt;(((24 * g1) + PtrToIntCastExpr&lt;int32&gt;(&amp;(g33)))))</text>
<text text-anchor="start" x="1108" y="-165.3" font-family="Times,serif" font-size="14.00"> result = v4</text>
<text text-anchor="start" x="1108" y="-150.3" font-family="Times,serif" font-size="14.00"> g1 = result</text>
<text text-anchor="start" x="1108" y="-135.3" font-family="Times,serif" font-size="14.00"> g3 = v1</text>
<text text-anchor="start" x="1108" y="-120.3" font-family="Times,serif" font-size="14.00"> g7 = v5</text>
<text text-anchor="start" x="1108" y="-105.3" font-family="Times,serif" font-size="14.00"> return result</text>
</g>
<!-- Node0x3056ac0&#45;&gt;Node0x3350ff0 -->
<g id="edge18" class="edge"><title>Node0x3056ac0&#45;&gt;Node0x3350ff0</title>
<path fill="none" stroke="black" d="M1453.5,-269.786C1453.5,-256.88 1453.5,-238.71 1453.5,-220.626"/>
<polygon fill="black" stroke="black" points="1457,-220.622 1453.5,-210.622 1450,-220.622 1457,-220.622"/>
<text text-anchor="middle" x="1483.5" y="-232.8" font-family="Times,serif" font-size="14.00">v7 == 2</text>
</g>
<!-- Node0x33145c0 -->
<g id="node19" class="node"><title>Node0x33145c0</title>
<polygon fill="none" stroke="black" points="2429,-497.5 2429,-533.5 2746,-533.5 2746,-497.5 2429,-497.5"/>
<text text-anchor="start" x="2437" y="-511.8" font-family="Times,serif" font-size="14.00">while (v6 == IntToPtrCastExpr&lt;ptr&gt;(1)):</text>
</g>
<!-- Node0x2f7f700&#45;&gt;Node0x33145c0 -->
<g id="edge19" class="edge"><title>Node0x2f7f700&#45;&gt;Node0x33145c0</title>
<path fill="none" stroke="black" d="M2490.48,-586.48C2509.27,-572.928 2535.16,-554.254 2555.47,-539.605"/>
<polygon fill="black" stroke="black" points="2557.73,-542.288 2563.79,-533.599 2553.64,-536.611 2557.73,-542.288"/>
</g>
<!-- Node0x3125040 -->
<g id="node20" class="node"><title>Node0x3125040</title>
<polygon fill="none" stroke="black" points="1834.5,-270 1834.5,-308 1938.5,-308 1938.5,-270 1834.5,-270"/>
<text text-anchor="start" x="1842.5" y="-292.8" font-family="Times,serif" font-size="14.00">0x4062be:</text>
<text text-anchor="start" x="1842.5" y="-277.8" font-family="Times,serif" font-size="14.00"> if (v3 != 2):</text>
</g>
<!-- Node0x3129ee0&#45;&gt;Node0x3125040 -->
<g id="edge20" class="edge"><title>Node0x3129ee0&#45;&gt;Node0x3125040</title>
<path fill="none" stroke="black" d="M1498.68,-931.347C1605.8,-923.707 1831.5,-899.539 1831.5,-831.5 1831.5,-831.5 1831.5,-831.5 1831.5,-514.5 1831.5,-441.84 1859.02,-359.652 1875.12,-317.766"/>
<polygon fill="black" stroke="black" points="1878.46,-318.842 1878.85,-308.254 1871.94,-316.286 1878.46,-318.842"/>
<text text-anchor="middle" x="1858.5" y="-646.8" font-family="Times,serif" font-size="14.00">v3 != 1</text>
</g>
<!-- Node0x310fef0 -->
<g id="node21" class="node"><title>Node0x310fef0</title>
<polygon fill="none" stroke="black" points="1395,-812.5 1395,-848.5 1492,-848.5 1492,-812.5 1395,-812.5"/>
<text text-anchor="start" x="1403" y="-826.8" font-family="Times,serif" font-size="14.00">while True:</text>
</g>
<!-- Node0x3129ee0&#45;&gt;Node0x310fef0 -->
<g id="edge21" class="edge"><title>Node0x3129ee0&#45;&gt;Node0x310fef0</title>
<path fill="none" stroke="black" d="M1443.5,-916.086C1443.5,-900.198 1443.5,-877.025 1443.5,-858.949"/>
<polygon fill="black" stroke="black" points="1447,-858.727 1443.5,-848.727 1440,-858.727 1447,-858.727"/>
<text text-anchor="middle" x="1473.5" y="-886.8" font-family="Times,serif" font-size="14.00">v3 == 1</text>
</g>
<!-- Node0x2c65930 -->
<g id="node22" class="node"><title>Node0x2c65930</title>
<polygon fill="none" stroke="black" points="327.5,-796.5 327.5,-864.5 833.5,-864.5 833.5,-796.5 327.5,-796.5"/>
<text text-anchor="start" x="335.5" y="-849.3" font-family="Times,serif" font-size="14.00">0x4062e0:</text>
<text text-anchor="start" x="335.5" y="-834.3" font-family="Times,serif" font-size="14.00"> InitializeCriticalSection(IntToPtrCastExpr&lt;ptr&gt;(lpCriticalSection))</text>
<text text-anchor="start" x="335.5" y="-819.3" font-family="Times,serif" font-size="14.00"> v10 = (v8 + 24)</text>
<text text-anchor="start" x="335.5" y="-804.3" font-family="Times,serif" font-size="14.00"> v8 = v10</text>
</g>
<!-- Node0x310ee60&#45;&gt;Node0x2c65930 -->
<g id="edge22" class="edge"><title>Node0x310ee60&#45;&gt;Node0x2c65930</title>
<path fill="none" stroke="black" d="M503.692,-917.492C514.657,-905.216 529.944,-888.101 543.995,-872.37"/>
<polygon fill="black" stroke="black" points="546.718,-874.575 550.769,-864.786 541.497,-869.912 546.718,-874.575"/>
<text text-anchor="middle" x="551.5" y="-886.8" font-family="Times,serif" font-size="14.00">True</text>
</g>
<!-- Node0x3351aa0&#45;&gt;Node0x345acd0 -->
<g id="edge23" class="edge"><title>Node0x3351aa0&#45;&gt;Node0x345acd0</title>
<path fill="none" stroke="black" d="M1075.36,-104.98C1080.29,-101.963 1085.37,-99.243 1090.5,-97 1201.64,-48.4455 1348.16,-41.9633 1416.02,-41.8332"/>
<polygon fill="black" stroke="black" points="1416.21,-45.3336 1426.22,-41.8614 1416.23,-38.3337 1416.21,-45.3336"/>
</g>
<!-- Node0x3350ff0&#45;&gt;Node0x345acd0 -->
<g id="edge24" class="edge"><title>Node0x3350ff0&#45;&gt;Node0x345acd0</title>
<path fill="none" stroke="black" d="M1453.5,-97.4263C1453.5,-87.8599 1453.5,-78.3065 1453.5,-69.9133"/>
<polygon fill="black" stroke="black" points="1457,-69.6444 1453.5,-59.6444 1450,-69.6444 1457,-69.6444"/>
</g>
<!-- Node0x32b6de0 -->
<g id="node23" class="node"><title>Node0x32b6de0</title>
<polygon fill="none" stroke="black" points="2419.5,-262.5 2419.5,-315.5 2511.5,-315.5 2511.5,-262.5 2419.5,-262.5"/>
<text text-anchor="start" x="2427.5" y="-300.3" font-family="Times,serif" font-size="14.00">0x4062a7:</text>
<text text-anchor="start" x="2427.5" y="-285.3" font-family="Times,serif" font-size="14.00"> Sleep(1)</text>
<text text-anchor="start" x="2427.5" y="-270.3" font-family="Times,serif" font-size="14.00"> v6 = g32</text>
</g>
<!-- Node0x33145c0&#45;&gt;Node0x32b6de0 -->
<g id="edge25" class="edge"><title>Node0x33145c0&#45;&gt;Node0x32b6de0</title>
<path fill="none" stroke="black" d="M2428.94,-503.51C2398.42,-498.091 2372.73,-490.018 2362.5,-478 2321.03,-429.256 2327.24,-387.409 2362.5,-334 2373.26,-317.7 2391.44,-307.417 2409.55,-300.939"/>
<polygon fill="black" stroke="black" points="2410.82,-304.205 2419.27,-297.802 2408.67,-297.544 2410.82,-304.205"/>
<text text-anchor="middle" x="2484.5" y="-402.3" font-family="Times,serif" font-size="14.00">v6 == IntToPtrCastExpr&lt;ptr&gt;(1)</text>
</g>
<!-- Node0x2f2a5f0 -->
<g id="node24" class="node"><title>Node0x2f2a5f0</title>
<polygon fill="none" stroke="black" points="2601,-270 2601,-308 2904,-308 2904,-270 2601,-270"/>
<text text-anchor="start" x="2609" y="-292.8" font-family="Times,serif" font-size="14.00">0x4062be:</text>
<text text-anchor="start" x="2609" y="-277.8" font-family="Times,serif" font-size="14.00"> if (PtrToIntCastExpr&lt;int32&gt;(v6) != 2):</text>
</g>
<!-- Node0x33145c0&#45;&gt;Node0x2f2a5f0 -->
<g id="edge26" class="edge"><title>Node0x33145c0&#45;&gt;Node0x2f2a5f0</title>
<path fill="none" stroke="black" d="M2610.06,-497.453C2617.01,-491.669 2624.42,-484.912 2630.5,-478 2676.33,-425.879 2717.53,-355.113 2738.3,-316.993"/>
<polygon fill="black" stroke="black" points="2741.46,-318.499 2743.13,-308.036 2735.3,-315.176 2741.46,-318.499"/>
<text text-anchor="middle" x="2846.5" y="-402.3" font-family="Times,serif" font-size="14.00">v6 != IntToPtrCastExpr&lt;ptr&gt;(1)</text>
</g>
<!-- Node0x30df890 -->
<g id="node25" class="node"><title>Node0x30df890</title>
<polygon fill="none" stroke="black" points="1825.5,-105 1825.5,-203 1947.5,-203 1947.5,-105 1825.5,-105"/>
<text text-anchor="start" x="1833.5" y="-187.8" font-family="Times,serif" font-size="14.00">0x4062c3:</text>
<text text-anchor="start" x="1833.5" y="-172.8" font-family="Times,serif" font-size="14.00"> result2 = v4</text>
<text text-anchor="start" x="1833.5" y="-157.8" font-family="Times,serif" font-size="14.00"> g1 = result2</text>
<text text-anchor="start" x="1833.5" y="-142.8" font-family="Times,serif" font-size="14.00"> g3 = v1</text>
<text text-anchor="start" x="1833.5" y="-127.8" font-family="Times,serif" font-size="14.00"> g7 = v5</text>
<text text-anchor="start" x="1833.5" y="-112.8" font-family="Times,serif" font-size="14.00"> return result2</text>
</g>
<!-- Node0x3125040&#45;&gt;Node0x30df890 -->
<g id="edge27" class="edge"><title>Node0x3125040&#45;&gt;Node0x30df890</title>
<path fill="none" stroke="black" d="M1886.5,-269.786C1886.5,-255.118 1886.5,-233.651 1886.5,-213.239"/>
<polygon fill="black" stroke="black" points="1890,-213.021 1886.5,-203.021 1883,-213.021 1890,-213.021"/>
<text text-anchor="middle" x="1913.5" y="-232.8" font-family="Times,serif" font-size="14.00">v3 != 2</text>
</g>
<!-- Node0x2eb9f80 -->
<g id="node26" class="node"><title>Node0x2eb9f80</title>
<polygon fill="none" stroke="black" points="1966,-97.5 1966,-210.5 2673,-210.5 2673,-97.5 1966,-97.5"/>
<text text-anchor="start" x="1974" y="-195.3" font-family="Times,serif" font-size="14.00">0x406311:</text>
<text text-anchor="start" x="1974" y="-180.3" font-family="Times,serif" font-size="14.00"> EnterCriticalSection(IntToPtrCastExpr&lt;ptr&gt;(((24 * g1) + PtrToIntCastExpr&lt;int32&gt;(&amp;(g33)))))</text>
<text text-anchor="start" x="1974" y="-165.3" font-family="Times,serif" font-size="14.00"> result = v4</text>
<text text-anchor="start" x="1974" y="-150.3" font-family="Times,serif" font-size="14.00"> g1 = result</text>
<text text-anchor="start" x="1974" y="-135.3" font-family="Times,serif" font-size="14.00"> g3 = v1</text>
<text text-anchor="start" x="1974" y="-120.3" font-family="Times,serif" font-size="14.00"> g7 = v5</text>
<text text-anchor="start" x="1974" y="-105.3" font-family="Times,serif" font-size="14.00"> return result</text>
</g>
<!-- Node0x3125040&#45;&gt;Node0x2eb9f80 -->
<g id="edge28" class="edge"><title>Node0x3125040&#45;&gt;Node0x2eb9f80</title>
<path fill="none" stroke="black" d="M1938.73,-271.957C1986.21,-257.374 2059.25,-234.938 2128.71,-213.602"/>
<polygon fill="black" stroke="black" points="2129.96,-216.882 2138.49,-210.6 2127.9,-210.19 2129.96,-216.882"/>
<text text-anchor="middle" x="2106.5" y="-232.8" font-family="Times,serif" font-size="14.00">v3 == 2</text>
</g>
<!-- Node0x2e9ab30 -->
<g id="node27" class="node"><title>Node0x2e9ab30</title>
<polygon fill="none" stroke="black" points="1192.5,-676.5 1192.5,-744.5 1468.5,-744.5 1468.5,-676.5 1192.5,-676.5"/>
<text text-anchor="start" x="1200.5" y="-729.3" font-family="Times,serif" font-size="14.00">0x4062a7:</text>
<text text-anchor="start" x="1200.5" y="-714.3" font-family="Times,serif" font-size="14.00"> Sleep(1)</text>
<text text-anchor="start" x="1200.5" y="-699.3" font-family="Times,serif" font-size="14.00"> v6 = g32</text>
<text text-anchor="start" x="1200.5" y="-684.3" font-family="Times,serif" font-size="14.00"> v9 = PtrToIntCastExpr&lt;int32&gt;(v6)</text>
</g>
<!-- Node0x310fef0&#45;&gt;Node0x2e9ab30 -->
<g id="edge29" class="edge"><title>Node0x310fef0&#45;&gt;Node0x2e9ab30</title>
<path fill="none" stroke="black" d="M1427.07,-812.342C1412.02,-796.629 1389.16,-772.76 1369.46,-752.188"/>
<polygon fill="black" stroke="black" points="1371.81,-749.581 1362.37,-744.779 1366.76,-754.423 1371.81,-749.581"/>
<text text-anchor="middle" x="1411.5" y="-766.8" font-family="Times,serif" font-size="14.00">True</text>
</g>
<!-- Node0x3110410 -->
<g id="node28" class="node"><title>Node0x3110410</title>
<polygon fill="none" stroke="black" points="478.5,-692.5 478.5,-728.5 646.5,-728.5 646.5,-692.5 478.5,-692.5"/>
<text text-anchor="start" x="486.5" y="-706.8" font-family="Times,serif" font-size="14.00">if (v10 == 4235808):</text>
</g>
<!-- Node0x2c65930&#45;&gt;Node0x3110410 -->
<g id="edge30" class="edge"><title>Node0x2c65930&#45;&gt;Node0x3110410</title>
<path fill="none" stroke="black" d="M575.438,-796.316C572.665,-778.139 569.271,-755.89 566.655,-738.74"/>
<polygon fill="black" stroke="black" points="570.108,-738.161 565.139,-728.803 563.188,-739.217 570.108,-738.161"/>
</g>
<!-- Node0x32b6de0&#45;&gt;Node0x33145c0 -->
<g id="edge31" class="edge"><title>Node0x32b6de0&#45;&gt;Node0x33145c0</title>
<path fill="none" stroke="black" d="M2511.64,-290.954C2543.9,-294.337 2584.92,-304.666 2606.5,-334 2644.42,-385.557 2621.71,-415.834 2606.5,-478 2605.66,-481.435 2604.43,-484.906 2603,-488.271"/>
<polygon fill="black" stroke="black" points="2599.81,-486.833 2598.58,-497.355 2606.1,-489.898 2599.81,-486.833"/>
</g>
<!-- Node0x310f790 -->
<g id="node29" class="node"><title>Node0x310f790</title>
<polygon fill="none" stroke="black" points="2691.5,-105 2691.5,-203 2813.5,-203 2813.5,-105 2691.5,-105"/>
<text text-anchor="start" x="2699.5" y="-187.8" font-family="Times,serif" font-size="14.00">0x4062c3:</text>
<text text-anchor="start" x="2699.5" y="-172.8" font-family="Times,serif" font-size="14.00"> result2 = v4</text>
<text text-anchor="start" x="2699.5" y="-157.8" font-family="Times,serif" font-size="14.00"> g1 = result2</text>
<text text-anchor="start" x="2699.5" y="-142.8" font-family="Times,serif" font-size="14.00"> g3 = v1</text>
<text text-anchor="start" x="2699.5" y="-127.8" font-family="Times,serif" font-size="14.00"> g7 = v5</text>
<text text-anchor="start" x="2699.5" y="-112.8" font-family="Times,serif" font-size="14.00"> return result2</text>
</g>
<!-- Node0x2f2a5f0&#45;&gt;Node0x310f790 -->
<g id="edge32" class="edge"><title>Node0x2f2a5f0&#45;&gt;Node0x310f790</title>
<path fill="none" stroke="black" d="M2752.5,-269.786C2752.5,-255.118 2752.5,-233.651 2752.5,-213.239"/>
<polygon fill="black" stroke="black" points="2756,-213.021 2752.5,-203.021 2749,-213.021 2756,-213.021"/>
<text text-anchor="middle" x="2879" y="-232.8" font-family="Times,serif" font-size="14.00">PtrToIntCastExpr&lt;int32&gt;(v6) != 2</text>
</g>
<!-- Node0x2eba530 -->
<g id="node30" class="node"><title>Node0x2eba530</title>
<polygon fill="none" stroke="black" points="2832,-97.5 2832,-210.5 3539,-210.5 3539,-97.5 2832,-97.5"/>
<text text-anchor="start" x="2840" y="-195.3" font-family="Times,serif" font-size="14.00">0x406311:</text>
<text text-anchor="start" x="2840" y="-180.3" font-family="Times,serif" font-size="14.00"> EnterCriticalSection(IntToPtrCastExpr&lt;ptr&gt;(((24 * g1) + PtrToIntCastExpr&lt;int32&gt;(&amp;(g33)))))</text>
<text text-anchor="start" x="2840" y="-165.3" font-family="Times,serif" font-size="14.00"> result = v4</text>
<text text-anchor="start" x="2840" y="-150.3" font-family="Times,serif" font-size="14.00"> g1 = result</text>
<text text-anchor="start" x="2840" y="-135.3" font-family="Times,serif" font-size="14.00"> g3 = v1</text>
<text text-anchor="start" x="2840" y="-120.3" font-family="Times,serif" font-size="14.00"> g7 = v5</text>
<text text-anchor="start" x="2840" y="-105.3" font-family="Times,serif" font-size="14.00"> return result</text>
</g>
<!-- Node0x2f2a5f0&#45;&gt;Node0x2eba530 -->
<g id="edge33" class="edge"><title>Node0x2f2a5f0&#45;&gt;Node0x2eba530</title>
<path fill="none" stroke="black" d="M2903.16,-269.941C2938.54,-263.585 2975.76,-255.14 3009.5,-244 3032.65,-236.358 3056.53,-226.084 3078.95,-215.232"/>
<polygon fill="black" stroke="black" points="3080.7,-218.273 3088.13,-210.719 3077.61,-211.991 3080.7,-218.273"/>
<text text-anchor="middle" x="3174" y="-232.8" font-family="Times,serif" font-size="14.00">PtrToIntCastExpr&lt;int32&gt;(v6) == 2</text>
</g>
<!-- Node0x30df890&#45;&gt;Node0x345acd0 -->
<g id="edge34" class="edge"><title>Node0x30df890&#45;&gt;Node0x345acd0</title>
<path fill="none" stroke="black" d="M1831.64,-104.98C1826.71,-101.963 1821.63,-99.243 1816.5,-97 1705.36,-48.4455 1558.84,-41.9633 1490.98,-41.8332"/>
<polygon fill="black" stroke="black" points="1490.77,-38.3337 1480.78,-41.8614 1490.79,-45.3336 1490.77,-38.3337"/>
</g>
<!-- Node0x2eb9f80&#45;&gt;Node0x345acd0 -->
<g id="edge35" class="edge"><title>Node0x2eb9f80&#45;&gt;Node0x345acd0</title>
<path fill="none" stroke="black" d="M1965.55,-98.1961C1962.52,-97.7929 1959.5,-97.3941 1956.5,-97 1782.57,-74.1734 1573.9,-53.7941 1490.54,-45.9355"/>
<polygon fill="black" stroke="black" points="1490.83,-42.4472 1480.54,-44.9966 1490.17,-49.4165 1490.83,-42.4472"/>
</g>
<!-- Node0x2c4a610 -->
<g id="node31" class="node"><title>Node0x2c4a610</title>
<polygon fill="none" stroke="black" points="1312,-587.5 1312,-623.5 1595,-623.5 1595,-587.5 1312,-587.5"/>
<text text-anchor="start" x="1320" y="-601.8" font-family="Times,serif" font-size="14.00">if (v6 != IntToPtrCastExpr&lt;ptr&gt;(1)):</text>
</g>
<!-- Node0x2e9ab30&#45;&gt;Node0x2c4a610 -->
<g id="edge36" class="edge"><title>Node0x2e9ab30&#45;&gt;Node0x2c4a610</title>
<path fill="none" stroke="black" d="M1370.1,-676.343C1387.92,-661.42 1408.56,-644.132 1424.85,-630.49"/>
<polygon fill="black" stroke="black" points="1427.52,-632.824 1432.94,-623.72 1423.02,-627.457 1427.52,-632.824"/>
</g>
<!-- Node0x2e9aa80 -->
<g id="node32" class="node"><title>Node0x2e9aa80</title>
<polygon fill="none" stroke="black" points="449,-586.5 449,-624.5 676,-624.5 676,-586.5 449,-586.5"/>
<text text-anchor="start" x="457" y="-609.3" font-family="Times,serif" font-size="14.00">break (via goto) &#45;&gt; 0x4062f7:</text>
<text text-anchor="start" x="457" y="-594.3" font-family="Times,serif" font-size="14.00"> goto 0x4062f7</text>
</g>
<!-- Node0x3110410&#45;&gt;Node0x2e9aa80 -->
<g id="edge37" class="edge"><title>Node0x3110410&#45;&gt;Node0x2e9aa80</title>
<path fill="none" stroke="black" d="M562.5,-692.492C562.5,-676.825 562.5,-653.277 562.5,-634.782"/>
<polygon fill="black" stroke="black" points="566,-634.574 562.5,-624.574 559,-634.574 566,-634.574"/>
<text text-anchor="middle" x="624" y="-646.8" font-family="Times,serif" font-size="14.00">v10 == 4235808</text>
</g>
<!-- Node0x30e0920 -->
<g id="node33" class="node"><title>Node0x30e0920</title>
<polygon fill="none" stroke="black" points="234,-587.5 234,-623.5 419,-623.5 419,-587.5 234,-587.5"/>
<text text-anchor="start" x="242" y="-601.8" font-family="Times,serif" font-size="14.00">lpCriticalSection = v10</text>
</g>
<!-- Node0x3110410&#45;&gt;Node0x30e0920 -->
<g id="edge38" class="edge"><title>Node0x3110410&#45;&gt;Node0x30e0920</title>
<path fill="none" stroke="black" d="M521.809,-692.404C498.295,-682.469 468.176,-669.649 441.5,-658 419.073,-648.207 394.287,-637.138 373.486,-627.779"/>
<polygon fill="black" stroke="black" points="374.787,-624.527 364.232,-623.61 371.912,-630.909 374.787,-624.527"/>
<text text-anchor="middle" x="500" y="-646.8" font-family="Times,serif" font-size="14.00">v10 != 4235808</text>
</g>
<!-- Node0x310f790&#45;&gt;Node0x345acd0 -->
<g id="edge39" class="edge"><title>Node0x310f790&#45;&gt;Node0x345acd0</title>
<path fill="none" stroke="black" d="M2698.71,-104.862C2693.47,-101.778 2688.04,-99.0807 2682.5,-97 2568.64,-54.2023 1684.13,-44.416 1490.76,-42.78"/>
<polygon fill="black" stroke="black" points="1490.58,-39.2785 1480.55,-42.6958 1490.52,-46.2782 1490.58,-39.2785"/>
</g>
<!-- Node0x2eba530&#45;&gt;Node0x345acd0 -->
<g id="edge40" class="edge"><title>Node0x2eba530&#45;&gt;Node0x345acd0</title>
<path fill="none" stroke="black" d="M2831.56,-98.0662C2828.53,-97.7047 2825.51,-97.3492 2822.5,-97 2714.89,-84.5107 2687.67,-83.9307 2579.5,-78 2152.21,-54.572 1632.79,-45.2588 1490.85,-43.0469"/>
<polygon fill="black" stroke="black" points="1490.59,-39.5425 1480.54,-42.8883 1490.48,-46.5417 1490.59,-39.5425"/>
</g>
<!-- Node0x2c4a610&#45;&gt;Node0x310fef0 -->
<g id="edge42" class="edge"><title>Node0x2c4a610&#45;&gt;Node0x310fef0</title>
<path fill="none" stroke="black" d="M1461.16,-623.505C1466.94,-637.325 1474.39,-657.494 1477.5,-676 1482.57,-706.244 1483.33,-714.893 1477.5,-745 1473.59,-765.185 1464.88,-786.662 1457.26,-802.913"/>
<polygon fill="black" stroke="black" points="1453.92,-801.774 1452.7,-812.298 1460.22,-804.83 1453.92,-801.774"/>
<text text-anchor="middle" x="1604.5" y="-706.8" font-family="Times,serif" font-size="14.00">v6 == IntToPtrCastExpr&lt;ptr&gt;(1)</text>
</g>
<!-- Node0x2d392d0 -->
<g id="node34" class="node"><title>Node0x2d392d0</title>
<polygon fill="none" stroke="black" points="1389.5,-496.5 1389.5,-534.5 1517.5,-534.5 1517.5,-496.5 1389.5,-496.5"/>
<text text-anchor="start" x="1397.5" y="-519.3" font-family="Times,serif" font-size="14.00">v7 = v9</text>
<text text-anchor="start" x="1397.5" y="-504.3" font-family="Times,serif" font-size="14.00"> goto 0x4062be</text>
</g>
<!-- Node0x2c4a610&#45;&gt;Node0x2d392d0 -->
<g id="edge41" class="edge"><title>Node0x2c4a610&#45;&gt;Node0x2d392d0</title>
<path fill="none" stroke="black" d="M1453.5,-587.114C1453.5,-575.06 1453.5,-558.736 1453.5,-544.82"/>
<polygon fill="black" stroke="black" points="1457,-544.759 1453.5,-534.759 1450,-544.759 1457,-544.759"/>
<text text-anchor="middle" x="1572.5" y="-556.8" font-family="Times,serif" font-size="14.00">v6 != IntToPtrCastExpr&lt;ptr&gt;(1)</text>
</g>
<!-- Node0x3056a40 -->
<g id="node35" class="node"><title>Node0x3056a40</title>
<polygon fill="none" stroke="black" points="209,-334.5 209,-477.5 916,-477.5 916,-334.5 209,-334.5"/>
<text text-anchor="start" x="217" y="-462.3" font-family="Times,serif" font-size="14.00">0x4062f7:</text>
<text text-anchor="start" x="217" y="-447.3" font-family="Times,serif" font-size="14.00"> atexit(BitCastExpr&lt;ptr&gt;(_dtoa_lock_cleanup))</text>
<text text-anchor="start" x="217" y="-432.3" font-family="Times,serif" font-size="14.00"> g32 = IntToPtrCastExpr&lt;ptr&gt;(2)</text>
<text text-anchor="start" x="217" y="-417.3" font-family="Times,serif" font-size="14.00"> EnterCriticalSection(IntToPtrCastExpr&lt;ptr&gt;(((24 * g1) + PtrToIntCastExpr&lt;int32&gt;(&amp;(g33)))))</text>
<text text-anchor="start" x="217" y="-402.3" font-family="Times,serif" font-size="14.00"> result = v4</text>
<text text-anchor="start" x="217" y="-387.3" font-family="Times,serif" font-size="14.00"> g1 = result</text>
<text text-anchor="start" x="217" y="-372.3" font-family="Times,serif" font-size="14.00"> g3 = v1</text>
<text text-anchor="start" x="217" y="-357.3" font-family="Times,serif" font-size="14.00"> g7 = v5</text>
<text text-anchor="start" x="217" y="-342.3" font-family="Times,serif" font-size="14.00"> return result</text>
</g>
<!-- Node0x2e9aa80&#45;&gt;Node0x3056a40 -->
<g id="edge43" class="edge"><title>Node0x2e9aa80&#45;&gt;Node0x3056a40</title>
<path fill="none" stroke="black" d="M562.5,-586.274C562.5,-563.841 562.5,-524.254 562.5,-487.976"/>
<polygon fill="black" stroke="black" points="566,-487.849 562.5,-477.849 559,-487.849 566,-487.849"/>
</g>
<!-- Node0x30e0920&#45;&gt;Node0x310ee60 -->
<g id="edge44" class="edge"><title>Node0x30e0920&#45;&gt;Node0x310ee60</title>
<path fill="none" stroke="black" d="M319.684,-623.766C303.361,-668.206 267.061,-788.399 318.5,-865 343.139,-901.692 390.936,-919.025 429.59,-927.207"/>
<polygon fill="black" stroke="black" points="429.224,-930.701 439.71,-929.188 430.569,-923.832 429.224,-930.701"/>
</g>
<!-- Node0x2d392d0&#45;&gt;Node0x3056ac0 -->
<g id="edge45" class="edge"><title>Node0x2d392d0&#45;&gt;Node0x3056ac0</title>
<path fill="none" stroke="black" d="M1453.5,-496.128C1453.5,-456.975 1453.5,-365.089 1453.5,-318.362"/>
<polygon fill="black" stroke="black" points="1457,-318.311 1453.5,-308.311 1450,-318.311 1457,-318.311"/>
</g>
<!-- Node0x3056a40&#45;&gt;Node0x345acd0 -->
<g id="edge46" class="edge"><title>Node0x3056a40&#45;&gt;Node0x345acd0</title>
<path fill="none" stroke="black" d="M614.478,-334.268C676.676,-255.882 788.706,-133.252 917.5,-78 963.009,-58.4767 1301.97,-46.9124 1416.11,-43.5396"/>
<polygon fill="black" stroke="black" points="1416.54,-47.0286 1426.44,-43.2388 1416.34,-40.0315 1416.54,-47.0286"/>
</g>
</g>
</svg>
