<?xml version="1.0" encoding="UTF-8" standalone="no"?>
<!DOCTYPE svg PUBLIC "-//W3C//DTD SVG 1.1//EN"
 "http://www.w3.org/Graphics/SVG/1.1/DTD/svg11.dtd">
<!-- Generated by graphviz version 2.38.0 (20140413.2041)
 -->
<!-- Title: Control&#45;flow graph for function &#39;___pformat_putc(a1, a2)&#39;. Pages: 1 -->
<svg width="2505pt" height="783pt"
 viewBox="0.00 0.00 2504.50 783.00" xmlns="http://www.w3.org/2000/svg" xmlns:xlink="http://www.w3.org/1999/xlink">
<g id="graph0" class="graph" transform="scale(1 1) rotate(0) translate(4 779)">
<title>Control&#45;flow graph for function &#39;___pformat_putc(a1, a2)&#39;.</title>
<polygon fill="white" stroke="none" points="-4,4 -4,-779 2500.5,-779 2500.5,4 -4,4"/>
<text text-anchor="middle" x="1248.25" y="-7.8" font-family="Times,serif" font-size="14.00">Control&#45;flow graph for function &#39;___pformat_putc(a1, a2)&#39;.</text>
<!-- Node0x321fb40 -->
<g id="node1" class="node"><title>Node0x321fb40</title>
<polygon fill="none" stroke="black" points="894.5,-721.5 894.5,-774.5 953.5,-774.5 953.5,-721.5 894.5,-721.5"/>
<text text-anchor="start" x="902.5" y="-759.3" font-family="Times,serif" font-size="14.00">entry:</text>
<text text-anchor="start" x="902.5" y="-744.3" font-family="Times,serif" font-size="14.00"> a1</text>
<text text-anchor="start" x="902.5" y="-729.3" font-family="Times,serif" font-size="14.00"> a2</text>
</g>
<!-- Node0x2c55490 -->
<g id="node2" class="node"><title>Node0x2c55490</title>
<polygon fill="none" stroke="black" points="766.5,-585.5 766.5,-683.5 1081.5,-683.5 1081.5,-585.5 766.5,-585.5"/>
<text text-anchor="start" x="774.5" y="-668.3" font-family="Times,serif" font-size="14.00">v1 = *(IntToPtrCastExpr&lt;ptr&gt;((g6 + 4)))</text>
<text text-anchor="start" x="774.5" y="-653.3" font-family="Times,serif" font-size="14.00"> v2</text>
<text text-anchor="start" x="774.5" y="-638.3" font-family="Times,serif" font-size="14.00"> v3</text>
<text text-anchor="start" x="774.5" y="-623.3" font-family="Times,serif" font-size="14.00"> result</text>
<text text-anchor="start" x="774.5" y="-608.3" font-family="Times,serif" font-size="14.00"> v4</text>
<text text-anchor="start" x="774.5" y="-593.3" font-family="Times,serif" font-size="14.00"> v5</text>
</g>
<!-- Node0x321fb40&#45;&gt;Node0x2c55490 -->
<g id="edge1" class="edge"><title>Node0x321fb40&#45;&gt;Node0x2c55490</title>
<path fill="none" stroke="black" d="M924,-721.42C924,-713.117 924,-703.536 924,-693.851"/>
<polygon fill="black" stroke="black" points="927.5,-693.768 924,-683.768 920.5,-693.768 927.5,-693.768"/>
</g>
<!-- Node0x2c4d840 -->
<g id="node3" class="node"><title>Node0x2c4d840</title>
<polygon fill="none" stroke="black" points="829,-511.5 829,-547.5 1019,-547.5 1019,-511.5 829,-511.5"/>
<text text-anchor="start" x="837" y="-525.8" font-family="Times,serif" font-size="14.00">if ((v1 &amp; &#45;256) != 8192):</text>
</g>
<!-- Node0x2c55490&#45;&gt;Node0x2c4d840 -->
<g id="edge2" class="edge"><title>Node0x2c55490&#45;&gt;Node0x2c4d840</title>
<path fill="none" stroke="black" d="M924,-585.317C924,-575.893 924,-566.32 924,-557.868"/>
<polygon fill="black" stroke="black" points="927.5,-557.856 924,-547.856 920.5,-557.856 927.5,-557.856"/>
</g>
<!-- Node0x33a17e0 -->
<g id="node4" class="node"><title>Node0x33a17e0</title>
<polygon fill="none" stroke="black" points="705.5,-331.5 705.5,-369.5 890.5,-369.5 890.5,-331.5 705.5,-331.5"/>
<text text-anchor="start" x="713.5" y="-354.3" font-family="Times,serif" font-size="14.00">0x4029e8:</text>
<text text-anchor="start" x="713.5" y="-339.3" font-family="Times,serif" font-size="14.00"> if ((v1 &amp; &#45;65281) != 0):</text>
</g>
<!-- Node0x2c4d840&#45;&gt;Node0x33a17e0 -->
<g id="edge3" class="edge"><title>Node0x2c4d840&#45;&gt;Node0x33a17e0</title>
<path fill="none" stroke="black" d="M873.066,-511.415C848.921,-500.585 822.113,-484.001 807,-460 791.891,-436.004 791.399,-402.871 793.582,-379.55"/>
<polygon fill="black" stroke="black" points="797.062,-379.929 794.73,-369.594 790.108,-379.127 797.062,-379.929"/>
<text text-anchor="middle" x="879.5" y="-436.8" font-family="Times,serif" font-size="14.00">(v1 &amp; &#45;256) != 8192</text>
</g>
<!-- Node0x3093e90 -->
<g id="node5" class="node"><title>Node0x3093e90</title>
<polygon fill="none" stroke="black" points="961,-421.5 961,-459.5 1583,-459.5 1583,-421.5 961,-421.5"/>
<text text-anchor="start" x="969" y="-444.3" font-family="Times,serif" font-size="14.00">0x4029e0:</text>
<text text-anchor="start" x="969" y="-429.3" font-family="Times,serif" font-size="14.00"> if (*(IntToPtrCastExpr&lt;ptr&gt;((g6 + 28))) &lt;= *(IntToPtrCastExpr&lt;ptr&gt;((g6 + 24)))):</text>
</g>
<!-- Node0x2c4d840&#45;&gt;Node0x3093e90 -->
<g id="edge4" class="edge"><title>Node0x2c4d840&#45;&gt;Node0x3093e90</title>
<path fill="none" stroke="black" d="M992.338,-511.415C1049.06,-497.235 1129.89,-477.028 1190.07,-461.982"/>
<polygon fill="black" stroke="black" points="1191.07,-465.34 1199.92,-459.519 1189.37,-458.549 1191.07,-465.34"/>
<text text-anchor="middle" x="1194.5" y="-481.8" font-family="Times,serif" font-size="14.00">(v1 &amp; &#45;256) == 8192</text>
</g>
<!-- Node0x2ea6020 -->
<g id="node6" class="node"><title>Node0x2ea6020</title>
<polygon fill="none" stroke="black" points="0,-105 0,-203 500,-203 500,-105 0,-105"/>
<text text-anchor="start" x="8" y="-187.8" font-family="Times,serif" font-size="14.00">0x402a00:</text>
<text text-anchor="start" x="8" y="-172.8" font-family="Times,serif" font-size="14.00"> fputc(g1, IntToPtrCastExpr&lt;ptr&gt;(*(IntToPtrCastExpr&lt;ptr&gt;(g6))))</text>
<text text-anchor="start" x="8" y="-157.8" font-family="Times,serif" font-size="14.00"> v3 = IntToPtrCastExpr&lt;ptr&gt;((g6 + 24))</text>
<text text-anchor="start" x="8" y="-142.8" font-family="Times,serif" font-size="14.00"> *(v3) = (*(v3) + 1)</text>
<text text-anchor="start" x="8" y="-127.8" font-family="Times,serif" font-size="14.00"> g3 = v4</text>
<text text-anchor="start" x="8" y="-112.8" font-family="Times,serif" font-size="14.00"> return result</text>
</g>
<!-- Node0x33a17e0&#45;&gt;Node0x2ea6020 -->
<g id="edge5" class="edge"><title>Node0x33a17e0&#45;&gt;Node0x2ea6020</title>
<path fill="none" stroke="black" d="M732.311,-331.498C712.805,-325.876 691.456,-319.45 672,-313 573.329,-280.29 463.394,-238.968 380.472,-206.787"/>
<polygon fill="black" stroke="black" points="381.596,-203.469 371.008,-203.108 379.06,-209.993 381.596,-203.469"/>
<text text-anchor="middle" x="740" y="-267.3" font-family="Times,serif" font-size="14.00">(v1 &amp; &#45;65281) != 0</text>
</g>
<!-- Node0x2eed730 -->
<g id="node7" class="node"><title>Node0x2eed730</title>
<polygon fill="none" stroke="black" points="517.5,-97.5 517.5,-210.5 1220.5,-210.5 1220.5,-97.5 517.5,-97.5"/>
<text text-anchor="start" x="525.5" y="-195.3" font-family="Times,serif" font-size="14.00">0x4029ed:</text>
<text text-anchor="start" x="525.5" y="-180.3" font-family="Times,serif" font-size="14.00"> v5 = *(IntToPtrCastExpr&lt;ptr&gt;((g6 + 24)))</text>
<text text-anchor="start" x="525.5" y="-165.3" font-family="Times,serif" font-size="14.00"> *(IntToPtrCastExpr&lt;ptr&gt;((v5 + *(IntToPtrCastExpr&lt;ptr&gt;(g6))))) = TruncCastExpr&lt;int8&gt;(g1)</text>
<text text-anchor="start" x="525.5" y="-150.3" font-family="Times,serif" font-size="14.00"> v2 = IntToPtrCastExpr&lt;ptr&gt;((g6 + 24))</text>
<text text-anchor="start" x="525.5" y="-135.3" font-family="Times,serif" font-size="14.00"> *(v2) = (*(v2) + 1)</text>
<text text-anchor="start" x="525.5" y="-120.3" font-family="Times,serif" font-size="14.00"> g3 = v4</text>
<text text-anchor="start" x="525.5" y="-105.3" font-family="Times,serif" font-size="14.00"> return result</text>
</g>
<!-- Node0x33a17e0&#45;&gt;Node0x2eed730 -->
<g id="edge6" class="edge"><title>Node0x33a17e0&#45;&gt;Node0x2eed730</title>
<path fill="none" stroke="black" d="M804.68,-331.202C813.877,-306.007 830.918,-259.323 845.15,-220.335"/>
<polygon fill="black" stroke="black" points="848.56,-221.201 848.701,-210.607 841.984,-218.8 848.56,-221.201"/>
<text text-anchor="middle" x="913" y="-267.3" font-family="Times,serif" font-size="14.00">(v1 &amp; &#45;65281) == 0</text>
</g>
<!-- Node0x2f7e9d0 -->
<g id="node8" class="node"><title>Node0x2f7e9d0</title>
<polygon fill="none" stroke="black" points="1092.5,-229.5 1092.5,-312.5 1403.5,-312.5 1403.5,-229.5 1092.5,-229.5"/>
<text text-anchor="start" x="1100.5" y="-297.3" font-family="Times,serif" font-size="14.00">0x4029f5:</text>
<text text-anchor="start" x="1100.5" y="-282.3" font-family="Times,serif" font-size="14.00"> v2 = IntToPtrCastExpr&lt;ptr&gt;((g6 + 24))</text>
<text text-anchor="start" x="1100.5" y="-267.3" font-family="Times,serif" font-size="14.00"> *(v2) = (*(v2) + 1)</text>
<text text-anchor="start" x="1100.5" y="-252.3" font-family="Times,serif" font-size="14.00"> g3 = v4</text>
<text text-anchor="start" x="1100.5" y="-237.3" font-family="Times,serif" font-size="14.00"> return result</text>
</g>
<!-- Node0x3093e90&#45;&gt;Node0x2f7e9d0 -->
<g id="edge7" class="edge"><title>Node0x3093e90&#45;&gt;Node0x2f7e9d0</title>
<path fill="none" stroke="black" d="M1255.18,-421.485C1251.04,-415.959 1247.17,-409.588 1245,-403 1236.55,-377.365 1236.58,-347.351 1239.04,-322.525"/>
<polygon fill="black" stroke="black" points="1242.52,-322.918 1240.18,-312.584 1235.56,-322.12 1242.52,-322.918"/>
<text text-anchor="middle" x="1531" y="-391.8" font-family="Times,serif" font-size="14.00">*(IntToPtrCastExpr&lt;ptr&gt;((g6 + 28))) &lt;= *(IntToPtrCastExpr&lt;ptr&gt;((g6 + 24)))</text>
</g>
<!-- Node0x2caf4f0 -->
<g id="node9" class="node"><title>Node0x2caf4f0</title>
<polygon fill="none" stroke="black" points="1750.5,-331.5 1750.5,-369.5 1935.5,-369.5 1935.5,-331.5 1750.5,-331.5"/>
<text text-anchor="start" x="1758.5" y="-354.3" font-family="Times,serif" font-size="14.00">0x4029e8:</text>
<text text-anchor="start" x="1758.5" y="-339.3" font-family="Times,serif" font-size="14.00"> if ((v1 &amp; &#45;65281) != 0):</text>
</g>
<!-- Node0x3093e90&#45;&gt;Node0x2caf4f0 -->
<g id="edge8" class="edge"><title>Node0x3093e90&#45;&gt;Node0x2caf4f0</title>
<path fill="none" stroke="black" d="M1583.11,-432.251C1695.19,-427.069 1799.57,-418.193 1821,-403 1828.98,-397.342 1834.09,-388.177 1837.34,-379.136"/>
<polygon fill="black" stroke="black" points="1840.7,-380.128 1840.2,-369.545 1833.99,-378.128 1840.7,-380.128"/>
<text text-anchor="middle" x="2113" y="-391.8" font-family="Times,serif" font-size="14.00">*(IntToPtrCastExpr&lt;ptr&gt;((g6 + 28))) &gt; *(IntToPtrCastExpr&lt;ptr&gt;((g6 + 24)))</text>
</g>
<!-- Node0x312b1b0 -->
<g id="node10" class="node"><title>Node0x312b1b0</title>
<polygon fill="none" stroke="black" points="1221,-23.5 1221,-59.5 1275,-59.5 1275,-23.5 1221,-23.5"/>
<text text-anchor="start" x="1229" y="-37.8" font-family="Times,serif" font-size="14.00">exit:</text>
</g>
<!-- Node0x2ea6020&#45;&gt;Node0x312b1b0 -->
<g id="edge9" class="edge"><title>Node0x2ea6020&#45;&gt;Node0x312b1b0</title>
<path fill="none" stroke="black" d="M459.354,-104.988C475.765,-102.011 492.123,-99.2962 508,-97 775.746,-58.2778 1102.19,-46.4101 1210.85,-43.3957"/>
<polygon fill="black" stroke="black" points="1211.07,-46.8912 1220.97,-43.1234 1210.88,-39.8938 1211.07,-46.8912"/>
</g>
<!-- Node0x2eed730&#45;&gt;Node0x312b1b0 -->
<g id="edge10" class="edge"><title>Node0x2eed730&#45;&gt;Node0x312b1b0</title>
<path fill="none" stroke="black" d="M1059.61,-97.4263C1117.32,-80.5995 1174.9,-63.8128 1210.93,-53.3095"/>
<polygon fill="black" stroke="black" points="1212.32,-56.5479 1220.94,-50.3887 1210.36,-49.8277 1212.32,-56.5479"/>
</g>
<!-- Node0x2f7e9d0&#45;&gt;Node0x312b1b0 -->
<g id="edge11" class="edge"><title>Node0x2f7e9d0&#45;&gt;Node0x312b1b0</title>
<path fill="none" stroke="black" d="M1248,-229.328C1248,-183.299 1248,-109.587 1248,-69.9095"/>
<polygon fill="black" stroke="black" points="1251.5,-69.6723 1248,-59.6723 1244.5,-69.6723 1251.5,-69.6723"/>
</g>
<!-- Node0x2f7e340 -->
<g id="node11" class="node"><title>Node0x2f7e340</title>
<polygon fill="none" stroke="black" points="1276,-105 1276,-203 1776,-203 1776,-105 1276,-105"/>
<text text-anchor="start" x="1284" y="-187.8" font-family="Times,serif" font-size="14.00">0x402a00:</text>
<text text-anchor="start" x="1284" y="-172.8" font-family="Times,serif" font-size="14.00"> fputc(g1, IntToPtrCastExpr&lt;ptr&gt;(*(IntToPtrCastExpr&lt;ptr&gt;(g6))))</text>
<text text-anchor="start" x="1284" y="-157.8" font-family="Times,serif" font-size="14.00"> v3 = IntToPtrCastExpr&lt;ptr&gt;((g6 + 24))</text>
<text text-anchor="start" x="1284" y="-142.8" font-family="Times,serif" font-size="14.00"> *(v3) = (*(v3) + 1)</text>
<text text-anchor="start" x="1284" y="-127.8" font-family="Times,serif" font-size="14.00"> g3 = v4</text>
<text text-anchor="start" x="1284" y="-112.8" font-family="Times,serif" font-size="14.00"> return result</text>
</g>
<!-- Node0x2caf4f0&#45;&gt;Node0x2f7e340 -->
<g id="edge12" class="edge"><title>Node0x2caf4f0&#45;&gt;Node0x2f7e340</title>
<path fill="none" stroke="black" d="M1797.92,-331.43C1785.42,-325.949 1771.99,-319.615 1760,-313 1703.84,-282.017 1643.95,-241.427 1598.82,-209.145"/>
<polygon fill="black" stroke="black" points="1600.73,-206.21 1590.57,-203.218 1596.65,-211.895 1600.73,-206.21"/>
<text text-anchor="middle" x="1828" y="-267.3" font-family="Times,serif" font-size="14.00">(v1 &amp; &#45;65281) != 0</text>
</g>
<!-- Node0x3033cb0 -->
<g id="node12" class="node"><title>Node0x3033cb0</title>
<polygon fill="none" stroke="black" points="1793.5,-97.5 1793.5,-210.5 2496.5,-210.5 2496.5,-97.5 1793.5,-97.5"/>
<text text-anchor="start" x="1801.5" y="-195.3" font-family="Times,serif" font-size="14.00">0x4029ed:</text>
<text text-anchor="start" x="1801.5" y="-180.3" font-family="Times,serif" font-size="14.00"> v5 = *(IntToPtrCastExpr&lt;ptr&gt;((g6 + 24)))</text>
<text text-anchor="start" x="1801.5" y="-165.3" font-family="Times,serif" font-size="14.00"> *(IntToPtrCastExpr&lt;ptr&gt;((v5 + *(IntToPtrCastExpr&lt;ptr&gt;(g6))))) = TruncCastExpr&lt;int8&gt;(g1)</text>
<text text-anchor="start" x="1801.5" y="-150.3" font-family="Times,serif" font-size="14.00"> v2 = IntToPtrCastExpr&lt;ptr&gt;((g6 + 24))</text>
<text text-anchor="start" x="1801.5" y="-135.3" font-family="Times,serif" font-size="14.00"> *(v2) = (*(v2) + 1)</text>
<text text-anchor="start" x="1801.5" y="-120.3" font-family="Times,serif" font-size="14.00"> g3 = v4</text>
<text text-anchor="start" x="1801.5" y="-105.3" font-family="Times,serif" font-size="14.00"> return result</text>
</g>
<!-- Node0x2caf4f0&#45;&gt;Node0x3033cb0 -->
<g id="edge13" class="edge"><title>Node0x2caf4f0&#45;&gt;Node0x3033cb0</title>
<path fill="none" stroke="black" d="M1871.14,-331.377C1911.63,-305.301 1988.25,-255.952 2050.18,-216.07"/>
<polygon fill="black" stroke="black" points="2052.3,-218.866 2058.81,-210.509 2048.51,-212.981 2052.3,-218.866"/>
<text text-anchor="middle" x="2100" y="-267.3" font-family="Times,serif" font-size="14.00">(v1 &amp; &#45;65281) == 0</text>
</g>
<!-- Node0x2f7e340&#45;&gt;Node0x312b1b0 -->
<g id="edge14" class="edge"><title>Node0x2f7e340&#45;&gt;Node0x312b1b0</title>
<path fill="none" stroke="black" d="M1404.87,-104.855C1361.3,-87.5363 1315.35,-69.2711 1284.53,-57.0182"/>
<polygon fill="black" stroke="black" points="1285.66,-53.7014 1275.07,-53.2601 1283.07,-60.2064 1285.66,-53.7014"/>
</g>
<!-- Node0x3033cb0&#45;&gt;Node0x312b1b0 -->
<g id="edge15" class="edge"><title>Node0x3033cb0&#45;&gt;Node0x312b1b0</title>
<path fill="none" stroke="black" d="M1793.03,-98.0393C1790.34,-97.6889 1787.67,-97.3424 1785,-97 1597.85,-72.9648 1372.9,-53.0231 1285.38,-45.6045"/>
<polygon fill="black" stroke="black" points="1285.42,-42.0953 1275.16,-44.7422 1284.83,-49.0706 1285.42,-42.0953"/>
</g>
</g>
</svg>
