<?xml version="1.0" encoding="UTF-8" standalone="no"?>
<!DOCTYPE svg PUBLIC "-//W3C//DTD SVG 1.1//EN"
 "http://www.w3.org/Graphics/SVG/1.1/DTD/svg11.dtd">
<!-- Generated by graphviz version 2.38.0 (20140413.2041)
 -->
<!-- Title: Control&#45;flow graph for function &#39;_list_devices_callback(*a1)&#39;. Pages: 1 -->
<svg width="1161pt" height="431pt"
 viewBox="0.00 0.00 1161.00 431.00" xmlns="http://www.w3.org/2000/svg" xmlns:xlink="http://www.w3.org/1999/xlink">
<g id="graph0" class="graph" transform="scale(1 1) rotate(0) translate(4 427)">
<title>Control&#45;flow graph for function &#39;_list_devices_callback(*a1)&#39;.</title>
<polygon fill="white" stroke="none" points="-4,4 -4,-427 1157,-427 1157,4 -4,4"/>
<text text-anchor="middle" x="576.5" y="-7.8" font-family="Times,serif" font-size="14.00">Control&#45;flow graph for function &#39;_list_devices_callback(*a1)&#39;.</text>
<!-- Node0x3097d60 -->
<g id="node1" class="node"><title>Node0x3097d60</title>
<polygon fill="none" stroke="black" points="568.5,-384.5 568.5,-422.5 627.5,-422.5 627.5,-384.5 568.5,-384.5"/>
<text text-anchor="start" x="576.5" y="-407.3" font-family="Times,serif" font-size="14.00">entry:</text>
<text text-anchor="start" x="576.5" y="-392.3" font-family="Times,serif" font-size="14.00"> a1</text>
</g>
<!-- Node0x2d80500 -->
<g id="node2" class="node"><title>Node0x2d80500</title>
<polygon fill="none" stroke="black" points="395,-308.5 395,-346.5 801,-346.5 801,-308.5 395,-308.5"/>
<text text-anchor="start" x="403" y="-331.3" font-family="Times,serif" font-size="14.00">0x401687:</text>
<text text-anchor="start" x="403" y="-316.3" font-family="Times,serif" font-size="14.00"> if (_match_device_with_port(&amp;(a1[&#39;0&#39;]), NULL) == 0):</text>
</g>
<!-- Node0x3097d60&#45;&gt;Node0x2d80500 -->
<g id="edge1" class="edge"><title>Node0x3097d60&#45;&gt;Node0x2d80500</title>
<path fill="none" stroke="black" d="M598,-384.208C598,-375.964 598,-366.038 598,-356.862"/>
<polygon fill="black" stroke="black" points="601.5,-356.582 598,-346.582 594.5,-356.582 601.5,-356.582"/>
</g>
<!-- Node0x2cefbd0 -->
<g id="node3" class="node"><title>Node0x2cefbd0</title>
<polygon fill="none" stroke="black" points="0,-173.5 0,-256.5 748,-256.5 748,-173.5 0,-173.5"/>
<text text-anchor="start" x="8" y="-241.3" font-family="Times,serif" font-size="14.00">v1 = PtrToIntCastExpr&lt;int32&gt;(a1)</text>
<text text-anchor="start" x="8" y="-226.3" font-family="Times,serif" font-size="14.00"> v2 = IntToPtrCastExpr&lt;ptr&gt;((v1 + 8))</text>
<text text-anchor="start" x="8" y="-211.3" font-family="Times,serif" font-size="14.00"> v3 = *(v2)</text>
<text text-anchor="start" x="8" y="-196.3" font-family="Times,serif" font-size="14.00"> v4 = (&quot;QCOM emergency download&quot; if ((ExtCastExpr&lt;int32&gt;(v3) | (v1 &amp; &#45;256)) == 0) else v2)</text>
<text text-anchor="start" x="8" y="-181.3" font-family="Times,serif" font-size="14.00"> fprintf(IntToPtrCastExpr&lt;ptr&gt;((g36 + 64)), &quot;%s \t\&quot;%s\&quot;\n&quot;, IntToPtrCastExpr&lt;ptr&gt;((v1 + 136)), v4)</text>
</g>
<!-- Node0x2d80500&#45;&gt;Node0x2cefbd0 -->
<g id="edge2" class="edge"><title>Node0x2d80500&#45;&gt;Node0x2cefbd0</title>
<path fill="none" stroke="black" d="M466.864,-308.435C443.69,-303.384 423.828,-297.25 414,-290 405.45,-283.693 398.529,-274.995 393.002,-265.774"/>
<polygon fill="black" stroke="black" points="395.985,-263.934 388.122,-256.833 389.841,-267.288 395.985,-263.934"/>
<text text-anchor="middle" x="592" y="-278.8" font-family="Times,serif" font-size="14.00">_match_device_with_port(&amp;(a1[&#39;0&#39;]), NULL) == 0</text>
</g>
<!-- Node0x2cefb70 -->
<g id="node4" class="node"><title>Node0x2cefb70</title>
<polygon fill="none" stroke="black" points="629,-97.5 629,-135.5 721,-135.5 721,-97.5 629,-97.5"/>
<text text-anchor="start" x="637" y="-120.3" font-family="Times,serif" font-size="14.00">0x4016e0:</text>
<text text-anchor="start" x="637" y="-105.3" font-family="Times,serif" font-size="14.00"> return &#45;1</text>
</g>
<!-- Node0x2d80500&#45;&gt;Node0x2cefb70 -->
<g id="edge3" class="edge"><title>Node0x2d80500&#45;&gt;Node0x2cefb70</title>
<path fill="none" stroke="black" d="M733.153,-308.398C750.243,-303.572 763.899,-297.531 770,-290 787.201,-268.766 856.734,-335.204 757,-173 749.026,-160.031 736.755,-149.393 724.115,-141.025"/>
<polygon fill="black" stroke="black" points="725.697,-137.888 715.354,-135.594 722.009,-143.838 725.697,-137.888"/>
<text text-anchor="middle" x="978" y="-211.3" font-family="Times,serif" font-size="14.00">_match_device_with_port(&amp;(a1[&#39;0&#39;]), NULL) != 0</text>
</g>
<!-- Node0x2cefbd0&#45;&gt;Node0x2cefb70 -->
<g id="edge4" class="edge"><title>Node0x2cefbd0&#45;&gt;Node0x2cefb70</title>
<path fill="none" stroke="black" d="M500.343,-173.495C541.782,-160.209 585.73,-146.12 619.175,-135.397"/>
<polygon fill="black" stroke="black" points="620.306,-138.71 628.76,-132.324 618.169,-132.045 620.306,-138.71"/>
</g>
<!-- Node0x2d80480 -->
<g id="node5" class="node"><title>Node0x2d80480</title>
<polygon fill="none" stroke="black" points="648,-23.5 648,-59.5 702,-59.5 702,-23.5 648,-23.5"/>
<text text-anchor="start" x="656" y="-37.8" font-family="Times,serif" font-size="14.00">exit:</text>
</g>
<!-- Node0x2cefb70&#45;&gt;Node0x2d80480 -->
<g id="edge5" class="edge"><title>Node0x2cefb70&#45;&gt;Node0x2d80480</title>
<path fill="none" stroke="black" d="M675,-97.4551C675,-89.2008 675,-79.2377 675,-70.0742"/>
<polygon fill="black" stroke="black" points="678.5,-69.8347 675,-59.8347 671.5,-69.8347 678.5,-69.8347"/>
</g>
</g>
</svg>
