<?xml version="1.0" encoding="UTF-8" standalone="no"?>
<!DOCTYPE svg PUBLIC "-//W3C//DTD SVG 1.1//EN"
 "http://www.w3.org/Graphics/SVG/1.1/DTD/svg11.dtd">
<!-- Generated by graphviz version 2.38.0 (20140413.2041)
 -->
<!-- Title: Control&#45;flow graph for function &#39;_list_devices()&#39;. Pages: 1 -->
<svg width="558pt" height="231pt"
 viewBox="0.00 0.00 558.00 231.00" xmlns="http://www.w3.org/2000/svg" xmlns:xlink="http://www.w3.org/1999/xlink">
<g id="graph0" class="graph" transform="scale(1 1) rotate(0) translate(4 227)">
<title>Control&#45;flow graph for function &#39;_list_devices()&#39;.</title>
<polygon fill="white" stroke="none" points="-4,4 -4,-227 554,-227 554,4 -4,4"/>
<text text-anchor="middle" x="275" y="-7.8" font-family="Times,serif" font-size="14.00">Control&#45;flow graph for function &#39;_list_devices()&#39;.</text>
<!-- Node0x2ff3990 -->
<g id="node1" class="node"><title>Node0x2ff3990</title>
<polygon fill="none" stroke="black" points="245.5,-186.5 245.5,-222.5 304.5,-222.5 304.5,-186.5 245.5,-186.5"/>
<text text-anchor="start" x="253.5" y="-200.8" font-family="Times,serif" font-size="14.00">entry:</text>
</g>
<!-- Node0x2f62920 -->
<g id="node2" class="node"><title>Node0x2f62920</title>
<polygon fill="none" stroke="black" points="0,-96.5 0,-149.5 550,-149.5 550,-96.5 0,-96.5"/>
<text text-anchor="start" x="8" y="-134.3" font-family="Times,serif" font-size="14.00">result = _serial_enum_devices(BitCastExpr&lt;ptr&gt;(_list_devices_callback))</text>
<text text-anchor="start" x="8" y="-119.3" font-family="Times,serif" font-size="14.00"> g1 = result</text>
<text text-anchor="start" x="8" y="-104.3" font-family="Times,serif" font-size="14.00"> return result</text>
</g>
<!-- Node0x2ff3990&#45;&gt;Node0x2f62920 -->
<g id="edge1" class="edge"><title>Node0x2ff3990&#45;&gt;Node0x2f62920</title>
<path fill="none" stroke="black" d="M275,-186.25C275,-178.486 275,-169.014 275,-159.825"/>
<polygon fill="black" stroke="black" points="278.5,-159.676 275,-149.676 271.5,-159.676 278.5,-159.676"/>
</g>
<!-- Node0x30174f0 -->
<g id="node3" class="node"><title>Node0x30174f0</title>
<polygon fill="none" stroke="black" points="248,-23.5 248,-59.5 302,-59.5 302,-23.5 248,-23.5"/>
<text text-anchor="start" x="256" y="-37.8" font-family="Times,serif" font-size="14.00">exit:</text>
</g>
<!-- Node0x2f62920&#45;&gt;Node0x30174f0 -->
<g id="edge2" class="edge"><title>Node0x2f62920&#45;&gt;Node0x30174f0</title>
<path fill="none" stroke="black" d="M275,-96.4081C275,-87.9823 275,-78.5803 275,-70.0174"/>
<polygon fill="black" stroke="black" points="278.5,-69.7564 275,-59.7564 271.5,-69.7565 278.5,-69.7564"/>
</g>
</g>
</svg>
