<?xml version="1.0" encoding="UTF-8" standalone="no"?>
<!DOCTYPE svg PUBLIC "-//W3C//DTD SVG 1.1//EN"
 "http://www.w3.org/Graphics/SVG/1.1/DTD/svg11.dtd">
<!-- Generated by graphviz version 2.38.0 (20140413.2041)
 -->
<!-- Title: Control&#45;flow graph for function &#39;_extract_id(*a1, *str)&#39;. Pages: 1 -->
<svg width="886pt" height="507pt"
 viewBox="0.00 0.00 886.00 507.00" xmlns="http://www.w3.org/2000/svg" xmlns:xlink="http://www.w3.org/1999/xlink">
<g id="graph0" class="graph" transform="scale(1 1) rotate(0) translate(4 503)">
<title>Control&#45;flow graph for function &#39;_extract_id(*a1, *str)&#39;.</title>
<polygon fill="white" stroke="none" points="-4,4 -4,-503 882,-503 882,4 -4,4"/>
<text text-anchor="middle" x="439" y="-7.8" font-family="Times,serif" font-size="14.00">Control&#45;flow graph for function &#39;_extract_id(*a1, *str)&#39;.</text>
<!-- Node0x2e793f0 -->
<g id="node1" class="node"><title>Node0x2e793f0</title>
<polygon fill="none" stroke="black" points="568,-445.5 568,-498.5 627,-498.5 627,-445.5 568,-445.5"/>
<text text-anchor="start" x="576" y="-483.3" font-family="Times,serif" font-size="14.00">entry:</text>
<text text-anchor="start" x="576" y="-468.3" font-family="Times,serif" font-size="14.00"> a1</text>
<text text-anchor="start" x="576" y="-453.3" font-family="Times,serif" font-size="14.00"> str</text>
</g>
<!-- Node0x2e772a0 -->
<g id="node2" class="node"><title>Node0x2e772a0</title>
<polygon fill="none" stroke="black" points="505,-369.5 505,-407.5 690,-407.5 690,-369.5 505,-369.5"/>
<text text-anchor="start" x="513" y="-392.3" font-family="Times,serif" font-size="14.00">v1 = strcasestr(a1, str)</text>
<text text-anchor="start" x="513" y="-377.3" font-family="Times,serif" font-size="14.00"> str_as_ul</text>
</g>
<!-- Node0x2e793f0&#45;&gt;Node0x2e772a0 -->
<g id="edge1" class="edge"><title>Node0x2e793f0&#45;&gt;Node0x2e772a0</title>
<path fill="none" stroke="black" d="M597.5,-445.213C597.5,-436.526 597.5,-426.787 597.5,-417.91"/>
<polygon fill="black" stroke="black" points="601,-417.638 597.5,-407.638 594,-417.638 601,-417.638"/>
</g>
<!-- Node0x2cbb120 -->
<g id="node3" class="node"><title>Node0x2cbb120</title>
<polygon fill="none" stroke="black" points="530.5,-293.5 530.5,-331.5 664.5,-331.5 664.5,-293.5 530.5,-293.5"/>
<text text-anchor="start" x="538.5" y="-316.3" font-family="Times,serif" font-size="14.00">if (v1 != NULL):</text>
<text text-anchor="start" x="538.5" y="-301.3" font-family="Times,serif" font-size="14.00"> else:</text>
</g>
<!-- Node0x2e772a0&#45;&gt;Node0x2cbb120 -->
<g id="edge2" class="edge"><title>Node0x2e772a0&#45;&gt;Node0x2cbb120</title>
<path fill="none" stroke="black" d="M597.5,-369.208C597.5,-360.964 597.5,-351.038 597.5,-341.862"/>
<polygon fill="black" stroke="black" points="601,-341.582 597.5,-331.582 594,-341.582 601,-341.582"/>
</g>
<!-- Node0x30a61c0 -->
<g id="node4" class="node"><title>Node0x30a61c0</title>
<polygon fill="none" stroke="black" points="0,-203.5 0,-241.5 749,-241.5 749,-203.5 0,-203.5"/>
<text text-anchor="start" x="8" y="-226.3" font-family="Times,serif" font-size="14.00">0x401a04:</text>
<text text-anchor="start" x="8" y="-211.3" font-family="Times,serif" font-size="14.00"> str_as_ul = strtoul(IntToPtrCastExpr&lt;ptr&gt;((strlen(str) + PtrToIntCastExpr&lt;int32&gt;(v1))), NULL, 16)</text>
</g>
<!-- Node0x2cbb120&#45;&gt;Node0x30a61c0 -->
<g id="edge3" class="edge"><title>Node0x2cbb120&#45;&gt;Node0x30a61c0</title>
<path fill="none" stroke="black" d="M551.835,-293.48C516.626,-279.586 467.772,-260.307 430.255,-245.502"/>
<polygon fill="black" stroke="black" points="431.074,-242.062 420.487,-241.647 428.504,-248.574 431.074,-242.062"/>
<text text-anchor="middle" x="543.5" y="-263.8" font-family="Times,serif" font-size="14.00">v1 != NULL</text>
</g>
<!-- Node0x2d6cbf0 -->
<g id="node5" class="node"><title>Node0x2d6cbf0</title>
<polygon fill="none" stroke="black" points="767,-204.5 767,-240.5 878,-240.5 878,-204.5 767,-204.5"/>
<text text-anchor="start" x="775" y="-218.8" font-family="Times,serif" font-size="14.00">str_as_ul = 0</text>
</g>
<!-- Node0x2cbb120&#45;&gt;Node0x2d6cbf0 -->
<g id="edge4" class="edge"><title>Node0x2cbb120&#45;&gt;Node0x2d6cbf0</title>
<path fill="none" stroke="black" d="M643.575,-293.48C680.08,-279.202 731.124,-259.238 769.353,-244.286"/>
<polygon fill="black" stroke="black" points="770.742,-247.501 778.78,-240.599 768.192,-240.982 770.742,-247.501"/>
<text text-anchor="middle" x="770.5" y="-263.8" font-family="Times,serif" font-size="14.00">v1 == NULL</text>
</g>
<!-- Node0x2d891c0 -->
<g id="node6" class="node"><title>Node0x2d891c0</title>
<polygon fill="none" stroke="black" points="490.5,-97.5 490.5,-165.5 810.5,-165.5 810.5,-97.5 490.5,-97.5"/>
<text text-anchor="start" x="498.5" y="-150.3" font-family="Times,serif" font-size="14.00">0x401a31:</text>
<text text-anchor="start" x="498.5" y="-135.3" font-family="Times,serif" font-size="14.00"> v2</text>
<text text-anchor="start" x="498.5" y="-120.3" font-family="Times,serif" font-size="14.00"> g2 = v2</text>
<text text-anchor="start" x="498.5" y="-105.3" font-family="Times,serif" font-size="14.00"> return IntToPtrCastExpr&lt;ptr&gt;(str_as_ul)</text>
</g>
<!-- Node0x30a61c0&#45;&gt;Node0x2d891c0 -->
<g id="edge5" class="edge"><title>Node0x30a61c0&#45;&gt;Node0x2d891c0</title>
<path fill="none" stroke="black" d="M430.353,-203.49C461.368,-193.488 501.088,-180.68 538.23,-168.703"/>
<polygon fill="black" stroke="black" points="539.674,-171.915 548.117,-165.515 537.525,-165.253 539.674,-171.915"/>
</g>
<!-- Node0x2d6cbf0&#45;&gt;Node0x2d891c0 -->
<g id="edge6" class="edge"><title>Node0x2d6cbf0&#45;&gt;Node0x2d891c0</title>
<path fill="none" stroke="black" d="M789.337,-204.34C770.636,-194.663 746.492,-182.17 723.598,-170.324"/>
<polygon fill="black" stroke="black" points="725.052,-167.135 714.562,-165.648 721.835,-173.352 725.052,-167.135"/>
</g>
<!-- Node0x30cec90 -->
<g id="node7" class="node"><title>Node0x30cec90</title>
<polygon fill="none" stroke="black" points="623.5,-23.5 623.5,-59.5 677.5,-59.5 677.5,-23.5 623.5,-23.5"/>
<text text-anchor="start" x="631.5" y="-37.8" font-family="Times,serif" font-size="14.00">exit:</text>
</g>
<!-- Node0x2d891c0&#45;&gt;Node0x30cec90 -->
<g id="edge7" class="edge"><title>Node0x2d891c0&#45;&gt;Node0x30cec90</title>
<path fill="none" stroke="black" d="M650.5,-97.4817C650.5,-88.3281 650.5,-78.4972 650.5,-69.7155"/>
<polygon fill="black" stroke="black" points="654,-69.6402 650.5,-59.6402 647,-69.6403 654,-69.6402"/>
</g>
</g>
</svg>
