<?xml version="1.0" encoding="UTF-8" standalone="no"?>
<!DOCTYPE svg PUBLIC "-//W3C//DTD SVG 1.1//EN"
 "http://www.w3.org/Graphics/SVG/1.1/DTD/svg11.dtd">
<!-- Generated by graphviz version 2.38.0 (20140413.2041)
 -->
<!-- Title: Control&#45;flow graph for function &#39;_blank_flash_device(a1, a2, a3, *a4, a5)&#39;. Pages: 1 -->
<svg width="984pt" height="535pt"
 viewBox="0.00 0.00 983.50 535.00" xmlns="http://www.w3.org/2000/svg" xmlns:xlink="http://www.w3.org/1999/xlink">
<g id="graph0" class="graph" transform="scale(1 1) rotate(0) translate(4 531)">
<title>Control&#45;flow graph for function &#39;_blank_flash_device(a1, a2, a3, *a4, a5)&#39;.</title>
<polygon fill="white" stroke="none" points="-4,4 -4,-531 979.5,-531 979.5,4 -4,4"/>
<text text-anchor="middle" x="487.75" y="-7.8" font-family="Times,serif" font-size="14.00">Control&#45;flow graph for function &#39;_blank_flash_device(a1, a2, a3, *a4, a5)&#39;.</text>
<!-- Node0x30e5c80 -->
<g id="node1" class="node"><title>Node0x30e5c80</title>
<polygon fill="none" stroke="black" points="589,-428.5 589,-526.5 648,-526.5 648,-428.5 589,-428.5"/>
<text text-anchor="start" x="597" y="-511.3" font-family="Times,serif" font-size="14.00">entry:</text>
<text text-anchor="start" x="597" y="-496.3" font-family="Times,serif" font-size="14.00"> a1</text>
<text text-anchor="start" x="597" y="-481.3" font-family="Times,serif" font-size="14.00"> a2</text>
<text text-anchor="start" x="597" y="-466.3" font-family="Times,serif" font-size="14.00"> a3</text>
<text text-anchor="start" x="597" y="-451.3" font-family="Times,serif" font-size="14.00"> a4</text>
<text text-anchor="start" x="597" y="-436.3" font-family="Times,serif" font-size="14.00"> a5</text>
</g>
<!-- Node0x304e660 -->
<g id="node2" class="node"><title>Node0x304e660</title>
<polygon fill="none" stroke="black" points="261.5,-352.5 261.5,-390.5 975.5,-390.5 975.5,-352.5 261.5,-352.5"/>
<text text-anchor="start" x="269.5" y="-375.3" font-family="Times,serif" font-size="14.00">0x401502:</text>
<text text-anchor="start" x="269.5" y="-360.3" font-family="Times,serif" font-size="14.00"> qb_blank_flash(a1, a2, a3, PtrToIntCastExpr&lt;int32&gt;(_on_event), PtrToIntCastExpr&lt;int32&gt;(a4))</text>
</g>
<!-- Node0x30e5c80&#45;&gt;Node0x304e660 -->
<g id="edge1" class="edge"><title>Node0x30e5c80&#45;&gt;Node0x304e660</title>
<path fill="none" stroke="black" d="M618.5,-428.458C618.5,-418.952 618.5,-409.27 618.5,-400.69"/>
<polygon fill="black" stroke="black" points="622,-400.509 618.5,-390.509 615,-400.509 622,-400.509"/>
</g>
<!-- Node0x2c5d590 -->
<g id="node3" class="node"><title>Node0x2c5d590</title>
<polygon fill="none" stroke="black" points="568.5,-278.5 568.5,-314.5 668.5,-314.5 668.5,-278.5 568.5,-278.5"/>
<text text-anchor="start" x="576.5" y="-292.8" font-family="Times,serif" font-size="14.00">if (g1 != 0):</text>
</g>
<!-- Node0x304e660&#45;&gt;Node0x2c5d590 -->
<g id="edge2" class="edge"><title>Node0x304e660&#45;&gt;Node0x2c5d590</title>
<path fill="none" stroke="black" d="M618.5,-352.455C618.5,-344.201 618.5,-334.238 618.5,-325.074"/>
<polygon fill="black" stroke="black" points="622,-324.835 618.5,-314.835 615,-324.835 622,-324.835"/>
</g>
<!-- Node0x2e2cc50 -->
<g id="node4" class="node"><title>Node0x2e2cc50</title>
<polygon fill="none" stroke="black" points="0,-173.5 0,-226.5 677,-226.5 677,-173.5 0,-173.5"/>
<text text-anchor="start" x="8" y="-211.3" font-family="Times,serif" font-size="14.00">0x40152d:</text>
<text text-anchor="start" x="8" y="-196.3" font-family="Times,serif" font-size="14.00"> qb_describe_error(g1)</text>
<text text-anchor="start" x="8" y="-181.3" font-family="Times,serif" font-size="14.00"> fprintf(IntToPtrCastExpr&lt;ptr&gt;((g36 + 64)), &quot;FAILED (%s)\n&quot;, IntToPtrCastExpr&lt;ptr&gt;(g1))</text>
</g>
<!-- Node0x2c5d590&#45;&gt;Node0x2e2cc50 -->
<g id="edge3" class="edge"><title>Node0x2c5d590&#45;&gt;Node0x2e2cc50</title>
<path fill="none" stroke="black" d="M568.442,-278.605C528.34,-265.071 471.165,-245.774 423.861,-229.809"/>
<polygon fill="black" stroke="black" points="424.827,-226.442 414.233,-226.56 422.589,-233.074 424.827,-226.442"/>
<text text-anchor="middle" x="540" y="-248.8" font-family="Times,serif" font-size="14.00">g1 != 0</text>
</g>
<!-- Node0x333bde0 -->
<g id="node5" class="node"><title>Node0x333bde0</title>
<polygon fill="none" stroke="black" points="566.5,-97.5 566.5,-135.5 658.5,-135.5 658.5,-97.5 566.5,-97.5"/>
<text text-anchor="start" x="574.5" y="-120.3" font-family="Times,serif" font-size="14.00">0x401556:</text>
<text text-anchor="start" x="574.5" y="-105.3" font-family="Times,serif" font-size="14.00"> return g1</text>
</g>
<!-- Node0x2c5d590&#45;&gt;Node0x333bde0 -->
<g id="edge4" class="edge"><title>Node0x2c5d590&#45;&gt;Node0x333bde0</title>
<path fill="none" stroke="black" d="M643.233,-278.266C658.583,-265.973 676.958,-247.949 685.5,-227 694.562,-204.776 696.163,-194.501 685.5,-173 679.182,-160.26 668.386,-149.654 657.006,-141.244"/>
<polygon fill="black" stroke="black" points="658.894,-138.294 648.672,-135.508 654.926,-144.061 658.894,-138.294"/>
<text text-anchor="middle" x="723" y="-196.3" font-family="Times,serif" font-size="14.00">g1 == 0</text>
</g>
<!-- Node0x2e2cc50&#45;&gt;Node0x333bde0 -->
<g id="edge5" class="edge"><title>Node0x2e2cc50&#45;&gt;Node0x333bde0</title>
<path fill="none" stroke="black" d="M424.444,-173.437C467.52,-160.624 518.456,-145.473 556.445,-134.173"/>
<polygon fill="black" stroke="black" points="557.717,-137.447 566.304,-131.241 555.721,-130.737 557.717,-137.447"/>
</g>
<!-- Node0x304e600 -->
<g id="node6" class="node"><title>Node0x304e600</title>
<polygon fill="none" stroke="black" points="585.5,-23.5 585.5,-59.5 639.5,-59.5 639.5,-23.5 585.5,-23.5"/>
<text text-anchor="start" x="593.5" y="-37.8" font-family="Times,serif" font-size="14.00">exit:</text>
</g>
<!-- Node0x333bde0&#45;&gt;Node0x304e600 -->
<g id="edge6" class="edge"><title>Node0x333bde0&#45;&gt;Node0x304e600</title>
<path fill="none" stroke="black" d="M612.5,-97.4551C612.5,-89.2008 612.5,-79.2377 612.5,-70.0742"/>
<polygon fill="black" stroke="black" points="616,-69.8347 612.5,-59.8347 609,-69.8347 616,-69.8347"/>
</g>
</g>
</svg>
